<svg xmlns="http://www.w3.org/2000/svg" xmlns:xlink="http://www.w3.org/1999/xlink" width="500" zoomAndPan="magnify" viewBox="0 0 375 374.999991" height="500" preserveAspectRatio="xMidYMid meet" version="1.0"><defs><g/><clipPath id="d17d8fbf49"><path d="M 0 103.421875 L 166.5 103.421875 L 166.5 257 L 0 257 Z M 0 103.421875 " clip-rule="nonzero"/></clipPath><clipPath id="4e243766f3"><path d="M 27 158 L 111 158 L 111 288.671875 L 27 288.671875 Z M 27 158 " clip-rule="nonzero"/></clipPath></defs><g fill="#185a9d" fill-opacity="1"><g transform="translate(172.479956, 240.525764)"><g><path d="M 7.265625 -75.421875 C 9.222656 -77.378906 11.550781 -78.359375 14.25 -78.359375 C 16.957031 -78.359375 19.285156 -77.378906 21.234375 -75.421875 C 23.191406 -73.472656 24.171875 -71.144531 24.171875 -68.4375 C 24.171875 -65.738281 23.191406 -63.410156 21.234375 -61.453125 C 19.285156 -59.503906 16.957031 -58.53125 14.25 -58.53125 C 11.550781 -58.53125 9.222656 -59.503906 7.265625 -61.453125 C 5.316406 -63.410156 4.34375 -65.738281 4.34375 -68.4375 C 4.34375 -71.144531 5.316406 -73.472656 7.265625 -75.421875 Z M 5.671875 -48.4375 L 5.671875 0 L 22.375 0 L 22.375 -48.4375 Z M 5.671875 -48.4375 "/></g></g></g><g fill="#185a9d" fill-opacity="1"><g transform="translate(205.79934, 240.525764)"><g><path d="M 5.671875 0 L 5.671875 -48.4375 L 22.375 -48.4375 L 22.375 -43.328125 L 22.5625 -43.328125 C 26.90625 -47.671875 31.53125 -49.84375 36.4375 -49.84375 C 38.832031 -49.84375 41.207031 -49.523438 43.5625 -48.890625 C 45.925781 -48.265625 48.191406 -47.289062 50.359375 -45.96875 C 52.535156 -44.65625 54.300781 -42.785156 55.65625 -40.359375 C 57.007812 -37.929688 57.6875 -35.113281 57.6875 -31.90625 L 57.6875 0 L 40.96875 0 L 40.96875 -27.375 C 40.96875 -29.894531 40.164062 -32.097656 38.5625 -33.984375 C 36.957031 -35.867188 34.863281 -36.8125 32.28125 -36.8125 C 29.769531 -36.8125 27.488281 -35.835938 25.4375 -33.890625 C 23.394531 -31.941406 22.375 -29.769531 22.375 -27.375 L 22.375 0 Z M 5.671875 0 "/></g></g></g><g fill="#185a9d" fill-opacity="1"><g transform="translate(273.002999, 240.525764)"><g><path d="M 8.5 -48.4375 L 8.5 -66.46875 L 25.203125 -66.46875 L 25.203125 -48.4375 L 35.40625 -48.4375 L 35.40625 -35.6875 L 25.203125 -35.6875 L 25.203125 -20.296875 C 25.203125 -15.828125 26.460938 -13.59375 28.984375 -13.59375 C 29.609375 -13.59375 30.265625 -13.71875 30.953125 -13.96875 C 31.648438 -14.21875 32.1875 -14.472656 32.5625 -14.734375 L 33.140625 -15.109375 L 37.296875 -1.609375 C 33.703125 0.410156 29.609375 1.421875 25.015625 1.421875 C 21.867188 1.421875 19.160156 0.867188 16.890625 -0.234375 C 14.628906 -1.335938 12.914062 -2.816406 11.75 -4.671875 C 10.582031 -6.523438 9.75 -8.472656 9.25 -10.515625 C 8.75 -12.566406 8.5 -14.757812 8.5 -17.09375 L 8.5 -35.6875 L 1.515625 -35.6875 L 1.515625 -48.4375 Z M 8.5 -48.4375 "/></g></g></g><g fill="#185a9d" fill-opacity="1"><g transform="translate(315.100189, 240.525764)"><g><path d="M 21.4375 -48.4375 L 21.4375 -25.390625 C 21.4375 -20.609375 22.15625 -17.207031 23.59375 -15.1875 C 25.039062 -13.175781 27.492188 -12.171875 30.953125 -12.171875 C 34.421875 -12.171875 36.878906 -13.175781 38.328125 -15.1875 C 39.773438 -17.207031 40.5 -20.609375 40.5 -25.390625 L 40.5 -48.4375 L 57.203125 -48.4375 L 57.203125 -21.328125 C 57.203125 -13.273438 55.109375 -7.46875 50.921875 -3.90625 C 46.742188 -0.351562 40.09375 1.421875 30.96875 1.421875 C 21.84375 1.421875 15.1875 -0.351562 11 -3.90625 C 6.8125 -7.46875 4.71875 -13.273438 4.71875 -21.328125 L 4.71875 -48.4375 Z M 21.4375 -48.4375 "/></g></g></g><g clip-path="url(#d17d8fbf49)"><path fill="#185a9d" d="M 109.375 240.957031 C 141.742188 235.136719 166.5 206.683594 166.5 172.738281 C 166.5 134.617188 135.28125 103.429688 97.125 103.429688 L 0 103.429688 L 27.75 131.152344 L 97.125 131.152344 C 120.019531 131.152344 138.75 149.867188 138.75 172.738281 C 138.75 195.609375 120.019531 214.324219 97.125 214.324219 L 83.253906 214.324219 L 83.253906 256.648438 L 111.003906 240.644531 C 110.460938 240.753906 109.917969 240.859375 109.375 240.957031 Z M 109.375 240.957031 " fill-opacity="1" fill-rule="evenodd"/></g><g clip-path="url(#4e243766f3)"><path fill="#43cea2" d="M 55.5 242.046875 C 55.5 223.566406 55.5 205.082031 55.5 186.601562 L 97.125 186.601562 C 104.757812 186.601562 111 180.363281 111 172.738281 C 111 165.113281 104.757812 158.878906 97.125 158.878906 L 27.75 158.878906 C 27.75 186.601562 27.75 214.324219 27.75 242.046875 L 27.75 288.664062 L 55.5 272.65625 Z M 55.5 242.046875 " fill-opacity="1" fill-rule="evenodd"/></g><g fill="#43cea2" fill-opacity="1"><g transform="translate(148.696548, 280.858669)"><g><path d="M 2.5 0 L 2.5 -20.46875 L 9.078125 -20.46875 L 9.078125 0 Z M 2.5 0 "/></g></g></g><g fill="#43cea2" fill-opacity="1"><g transform="translate(167.649875, 280.858669)"><g><path d="M 16.84375 0 L 8.234375 -9.9375 L 8.234375 0 L 2.203125 0 L 2.203125 -20.46875 L 7.9375 -20.46875 L 16.546875 -10.375 L 16.546875 -20.46875 L 22.578125 -20.46875 L 22.578125 0 Z M 16.84375 0 "/></g></g></g><g fill="#43cea2" fill-opacity="1"><g transform="translate(199.811236, 280.858669)"><g><path d="M 13.984375 -15.234375 L 13.984375 0 L 7.40625 0 L 7.40625 -15.234375 L 0.6875 -15.234375 L 0.6875 -20.46875 L 20.671875 -20.46875 L 20.671875 -15.234375 Z M 13.984375 -15.234375 "/></g></g></g><g fill="#43cea2" fill-opacity="1"><g transform="translate(228.670593, 280.858669)"><g><path d="M 2.203125 -20.46875 L 19.90625 -20.46875 L 19.90625 -15.5625 L 8.78125 -15.5625 L 8.78125 -12.734375 L 18.296875 -12.734375 L 18.296875 -8.03125 L 8.78125 -8.03125 L 8.78125 -4.90625 L 20.109375 -4.90625 L 20.109375 0 L 2.203125 0 Z M 2.203125 -20.46875 "/></g></g></g><g fill="#43cea2" fill-opacity="1"><g transform="translate(257.52995, 280.858669)"><g><path d="M 21.625 -14.1875 C 21.625 -12.9375 21.285156 -11.804688 20.609375 -10.796875 C 19.941406 -9.785156 18.960938 -9.039062 17.671875 -8.5625 L 22.21875 0 L 14.84375 0 L 11.21875 -7.46875 L 8.78125 -7.46875 L 8.78125 0 L 2.203125 0 L 2.203125 -20.46875 L 14.71875 -20.46875 C 16.1875 -20.46875 17.441406 -20.179688 18.484375 -19.609375 C 19.523438 -19.046875 20.304688 -18.285156 20.828125 -17.328125 C 21.359375 -16.367188 21.625 -15.320312 21.625 -14.1875 Z M 14.9375 -13.921875 C 14.9375 -14.453125 14.753906 -14.894531 14.390625 -15.25 C 14.035156 -15.613281 13.601562 -15.796875 13.09375 -15.796875 L 8.78125 -15.796875 L 8.78125 -12.015625 L 13.09375 -12.015625 C 13.601562 -12.015625 14.035156 -12.195312 14.390625 -12.5625 C 14.753906 -12.9375 14.9375 -13.390625 14.9375 -13.921875 Z M 14.9375 -13.921875 "/></g></g></g><g fill="#43cea2" fill-opacity="1"><g transform="translate(288.055172, 280.858669)"><g><path d="M 16.84375 0 L 8.234375 -9.9375 L 8.234375 0 L 2.203125 0 L 2.203125 -20.46875 L 7.9375 -20.46875 L 16.546875 -10.375 L 16.546875 -20.46875 L 22.578125 -20.46875 L 22.578125 0 Z M 16.84375 0 "/></g></g></g><g fill="#43cea2" fill-opacity="1"><g transform="translate(320.216533, 280.858669)"><g><path d="M 2.203125 -20.46875 L 19.90625 -20.46875 L 19.90625 -15.5625 L 8.78125 -15.5625 L 8.78125 -12.734375 L 18.296875 -12.734375 L 18.296875 -8.03125 L 8.78125 -8.03125 L 8.78125 -4.90625 L 20.109375 -4.90625 L 20.109375 0 L 2.203125 0 Z M 2.203125 -20.46875 "/></g></g></g><g fill="#43cea2" fill-opacity="1"><g transform="translate(349.07589, 280.858669)"><g><path d="M 13.984375 -15.234375 L 13.984375 0 L 7.40625 0 L 7.40625 -15.234375 L 0.6875 -15.234375 L 0.6875 -20.46875 L 20.671875 -20.46875 L 20.671875 -15.234375 Z M 13.984375 -15.234375 "/></g></g></g></svg>