<svg xmlns="http://www.w3.org/2000/svg" xmlns:xlink="http://www.w3.org/1999/xlink" width="500" zoomAndPan="magnify" viewBox="0 0 375 374.999991" height="500" preserveAspectRatio="xMidYMid meet" version="1.0"><defs><g/><clipPath id="0020fd997b"><path d="M 59.757812 131.941406 L 163.257812 131.941406 L 163.257812 227 L 59.757812 227 Z M 59.757812 131.941406 " clip-rule="nonzero"/></clipPath><clipPath id="9cd6da18d6"><path d="M 77 166 L 129 166 L 129 246.691406 L 77 246.691406 Z M 77 166 " clip-rule="nonzero"/></clipPath></defs><g fill="#185a9d" fill-opacity="1"><g transform="translate(166.651935, 216.91074)"><g><path d="M 4.5 -46.734375 C 5.707031 -47.953125 7.148438 -48.5625 8.828125 -48.5625 C 10.503906 -48.5625 11.945312 -47.953125 13.15625 -46.734375 C 14.363281 -45.523438 14.96875 -44.082031 14.96875 -42.40625 C 14.96875 -40.726562 14.363281 -39.285156 13.15625 -38.078125 C 11.945312 -36.867188 10.503906 -36.265625 8.828125 -36.265625 C 7.148438 -36.265625 5.707031 -36.867188 4.5 -38.078125 C 3.289062 -39.285156 2.6875 -40.726562 2.6875 -42.40625 C 2.6875 -44.082031 3.289062 -45.523438 4.5 -46.734375 Z M 3.515625 -30.015625 L 3.515625 0 L 13.859375 0 L 13.859375 -30.015625 Z M 3.515625 -30.015625 "/></g></g></g><g fill="#185a9d" fill-opacity="1"><g transform="translate(187.301454, 216.91074)"><g><path d="M 3.515625 0 L 3.515625 -30.015625 L 13.859375 -30.015625 L 13.859375 -26.84375 L 13.984375 -26.84375 C 16.671875 -29.539062 19.535156 -30.890625 22.578125 -30.890625 C 24.054688 -30.890625 25.523438 -30.691406 26.984375 -30.296875 C 28.453125 -29.910156 29.859375 -29.304688 31.203125 -28.484375 C 32.554688 -27.671875 33.648438 -26.507812 34.484375 -25 C 35.328125 -23.5 35.75 -21.753906 35.75 -19.765625 L 35.75 0 L 25.390625 0 L 25.390625 -16.96875 C 25.390625 -18.53125 24.890625 -19.894531 23.890625 -21.0625 C 22.898438 -22.226562 21.601562 -22.8125 20 -22.8125 C 18.445312 -22.8125 17.035156 -22.207031 15.765625 -21 C 14.492188 -19.789062 13.859375 -18.445312 13.859375 -16.96875 L 13.859375 0 Z M 3.515625 0 "/></g></g></g><g fill="#185a9d" fill-opacity="1"><g transform="translate(228.950581, 216.91074)"><g><path d="M 5.265625 -30.015625 L 5.265625 -41.1875 L 15.625 -41.1875 L 15.625 -30.015625 L 21.9375 -30.015625 L 21.9375 -22.109375 L 15.625 -22.109375 L 15.625 -12.578125 C 15.625 -9.804688 16.398438 -8.421875 17.953125 -8.421875 C 18.347656 -8.421875 18.757812 -8.5 19.1875 -8.65625 C 19.613281 -8.8125 19.945312 -8.96875 20.1875 -9.125 L 20.53125 -9.359375 L 23.109375 -1 C 20.878906 0.25 18.34375 0.875 15.5 0.875 C 13.550781 0.875 11.875 0.535156 10.46875 -0.140625 C 9.0625 -0.828125 8 -1.742188 7.28125 -2.890625 C 6.5625 -4.046875 6.046875 -5.253906 5.734375 -6.515625 C 5.421875 -7.785156 5.265625 -9.144531 5.265625 -10.59375 L 5.265625 -22.109375 L 0.9375 -22.109375 L 0.9375 -30.015625 Z M 5.265625 -30.015625 "/></g></g></g><g fill="#185a9d" fill-opacity="1"><g transform="translate(255.040102, 216.91074)"><g><path d="M 13.28125 -30.015625 L 13.28125 -15.734375 C 13.28125 -12.773438 13.726562 -10.671875 14.625 -9.421875 C 15.519531 -8.171875 17.039062 -7.546875 19.1875 -7.546875 C 21.332031 -7.546875 22.851562 -8.171875 23.75 -9.421875 C 24.644531 -10.671875 25.09375 -12.773438 25.09375 -15.734375 L 25.09375 -30.015625 L 35.453125 -30.015625 L 35.453125 -13.21875 C 35.453125 -8.226562 34.15625 -4.628906 31.5625 -2.421875 C 28.96875 -0.222656 24.84375 0.875 19.1875 0.875 C 13.53125 0.875 9.40625 -0.222656 6.8125 -2.421875 C 4.21875 -4.628906 2.921875 -8.226562 2.921875 -13.21875 L 2.921875 -30.015625 Z M 13.28125 -30.015625 "/></g></g></g><g clip-path="url(#0020fd997b)"><path fill="#185a9d" d="M 127.746094 217.132812 C 147.867188 213.527344 163.257812 195.90625 163.257812 174.878906 C 163.257812 151.269531 143.851562 131.949219 120.132812 131.949219 L 59.757812 131.949219 L 77.007812 149.121094 L 120.132812 149.121094 C 134.367188 149.121094 146.007812 160.710938 146.007812 174.878906 C 146.007812 189.046875 134.367188 200.636719 120.132812 200.636719 L 111.507812 200.636719 L 111.507812 226.851562 L 128.761719 216.9375 C 128.425781 217.007812 128.085938 217.074219 127.746094 217.132812 Z M 127.746094 217.132812 " fill-opacity="1" fill-rule="evenodd"/></g><g clip-path="url(#9cd6da18d6)"><path fill="#43cea2" d="M 94.257812 217.808594 C 94.257812 206.359375 94.257812 194.914062 94.257812 183.464844 L 120.132812 183.464844 C 124.878906 183.464844 128.757812 179.601562 128.757812 174.878906 C 128.757812 170.15625 124.878906 166.292969 120.132812 166.292969 L 77.007812 166.292969 C 77.007812 183.464844 77.007812 200.636719 77.007812 217.808594 L 77.007812 246.683594 L 94.257812 236.769531 Z M 94.257812 217.808594 " fill-opacity="1" fill-rule="evenodd"/></g><g fill="#43cea2" fill-opacity="1"><g transform="translate(151.912305, 241.906846)"><g><path d="M 1.546875 0 L 1.546875 -12.6875 L 5.625 -12.6875 L 5.625 0 Z M 1.546875 0 "/></g></g></g><g fill="#43cea2" fill-opacity="1"><g transform="translate(163.658533, 241.906846)"><g><path d="M 10.4375 0 L 5.109375 -6.15625 L 5.109375 0 L 1.359375 0 L 1.359375 -12.6875 L 4.921875 -12.6875 L 10.25 -6.4375 L 10.25 -12.6875 L 14 -12.6875 L 14 0 Z M 10.4375 0 "/></g></g></g><g fill="#43cea2" fill-opacity="1"><g transform="translate(183.590374, 241.906846)"><g><path d="M 8.671875 -9.4375 L 8.671875 0 L 4.59375 0 L 4.59375 -9.4375 L 0.421875 -9.4375 L 0.421875 -12.6875 L 12.8125 -12.6875 L 12.8125 -9.4375 Z M 8.671875 -9.4375 "/></g></g></g><g fill="#43cea2" fill-opacity="1"><g transform="translate(201.475814, 241.906846)"><g><path d="M 1.359375 -12.6875 L 12.328125 -12.6875 L 12.328125 -9.640625 L 5.4375 -9.640625 L 5.4375 -7.890625 L 11.34375 -7.890625 L 11.34375 -4.984375 L 5.4375 -4.984375 L 5.4375 -3.046875 L 12.46875 -3.046875 L 12.46875 0 L 1.359375 0 Z M 1.359375 -12.6875 "/></g></g></g><g fill="#43cea2" fill-opacity="1"><g transform="translate(219.361254, 241.906846)"><g><path d="M 13.40625 -8.796875 C 13.40625 -8.023438 13.195312 -7.320312 12.78125 -6.6875 C 12.363281 -6.0625 11.753906 -5.601562 10.953125 -5.3125 L 13.765625 0 L 9.203125 0 L 6.953125 -4.625 L 5.4375 -4.625 L 5.4375 0 L 1.359375 0 L 1.359375 -12.6875 L 9.125 -12.6875 C 10.03125 -12.6875 10.804688 -12.507812 11.453125 -12.15625 C 12.097656 -11.8125 12.582031 -11.335938 12.90625 -10.734375 C 13.238281 -10.140625 13.40625 -9.492188 13.40625 -8.796875 Z M 9.25 -8.625 C 9.25 -8.957031 9.140625 -9.234375 8.921875 -9.453125 C 8.703125 -9.679688 8.429688 -9.796875 8.109375 -9.796875 L 5.4375 -9.796875 L 5.4375 -7.453125 L 8.109375 -7.453125 C 8.429688 -7.453125 8.703125 -7.5625 8.921875 -7.78125 C 9.140625 -8.007812 9.25 -8.289062 9.25 -8.625 Z M 9.25 -8.625 "/></g></g></g><g fill="#43cea2" fill-opacity="1"><g transform="translate(238.279106, 241.906846)"><g><path d="M 10.4375 0 L 5.109375 -6.15625 L 5.109375 0 L 1.359375 0 L 1.359375 -12.6875 L 4.921875 -12.6875 L 10.25 -6.4375 L 10.25 -12.6875 L 14 -12.6875 L 14 0 Z M 10.4375 0 "/></g></g></g><g fill="#43cea2" fill-opacity="1"><g transform="translate(258.210946, 241.906846)"><g><path d="M 1.359375 -12.6875 L 12.328125 -12.6875 L 12.328125 -9.640625 L 5.4375 -9.640625 L 5.4375 -7.890625 L 11.34375 -7.890625 L 11.34375 -4.984375 L 5.4375 -4.984375 L 5.4375 -3.046875 L 12.46875 -3.046875 L 12.46875 0 L 1.359375 0 Z M 1.359375 -12.6875 "/></g></g></g><g fill="#43cea2" fill-opacity="1"><g transform="translate(276.096386, 241.906846)"><g><path d="M 8.671875 -9.4375 L 8.671875 0 L 4.59375 0 L 4.59375 -9.4375 L 0.421875 -9.4375 L 0.421875 -12.6875 L 12.8125 -12.6875 L 12.8125 -9.4375 Z M 8.671875 -9.4375 "/></g></g></g><path stroke-linecap="butt" transform="matrix(0.746667, 0, 0, 0.75, 173.713601, 255.208577)" fill="none" stroke-linejoin="miter" d="M 0.00166427 1.497939 L 91.418381 1.497939 " stroke="#ffffff" stroke-width="3" stroke-opacity="1" stroke-miterlimit="4"/></svg>