<svg xmlns="http://www.w3.org/2000/svg" xmlns:xlink="http://www.w3.org/1999/xlink" width="500" zoomAndPan="magnify" viewBox="0 0 375 374.999991" height="500" preserveAspectRatio="xMidYMid meet" version="1.0"><defs><g/><clipPath id="d981d7ee4c"><path d="M 77 63 L 298.238281 63 L 298.238281 239 L 77 239 Z M 77 63 " clip-rule="nonzero"/></clipPath><clipPath id="64d31a562a"><path d="M 118.617188 87.359375 L 256 87.359375 L 256 238 L 118.617188 238 Z M 118.617188 87.359375 " clip-rule="nonzero"/></clipPath><clipPath id="c054fe1578"><path d="M 118.617188 87.359375 L 256 87.359375 L 256 238.859375 L 118.617188 238.859375 Z M 118.617188 87.359375 " clip-rule="nonzero"/></clipPath><clipPath id="6c9121914f"><path d="M 119 87.359375 L 256 87.359375 L 256 238 L 119 238 Z M 119 87.359375 " clip-rule="nonzero"/></clipPath></defs><rect x="-37.5" width="450" fill="#ffffff" y="-37.499999" height="449.999989" fill-opacity="1"/><rect x="-37.5" width="450" fill="#fffdf6" y="-37.499999" height="449.999989" fill-opacity="1"/><g clip-path="url(#d981d7ee4c)"><path fill="#f07d05" d="M 128.203125 238.066406 C 123.175781 231.335938 106.996094 238.054688 108.820312 231.582031 L 91.378906 231.507812 L 187.3125 74.960938 L 283.539062 231.03125 L 267.628906 231.03125 C 269.636719 238.667969 249.640625 230.089844 248.992188 238.066406 L 298.003906 238.066406 L 187.507812 63.03125 L 77.027344 238.066406 Z M 128.203125 238.066406 " fill-opacity="1" fill-rule="evenodd"/></g><g clip-path="url(#64d31a562a)"><path fill="#000000" d="M 159.195312 219.054688 C 162.929688 219.234375 169.59375 219.347656 169.59375 219.347656 C 169.59375 219.347656 172.511719 223.082031 172.511719 223.082031 L 174.523438 223.125 C 174.523438 223.125 178.957031 229.535156 180.699219 231.523438 C 182.441406 233.507812 185.457031 237.84375 187.355469 237.84375 C 189.253906 237.84375 246.1875 233.496094 246.1875 233.496094 C 246.1875 233.496094 253.5625 233.230469 255.53125 217.3125 C 256.066406 214.765625 254.949219 187.628906 254.949219 187.628906 L 254.859375 177.257812 L 248.109375 174.21875 C 248.109375 174.21875 246.410156 173.679688 245.738281 175.066406 C 243.710938 175.167969 241.835938 174.847656 240.339844 174.390625 L 236.457031 155.972656 C 236.542969 155.964844 236.632812 155.953125 236.722656 155.9375 L 236.75 155.941406 C 236.769531 155.941406 236.789062 155.941406 236.808594 155.941406 L 236.8125 155.941406 C 236.828125 155.945312 236.84375 155.945312 236.859375 155.945312 C 237.203125 155.945312 237.527344 155.796875 237.828125 155.53125 C 238.015625 155.394531 238.175781 155.21875 238.285156 155 L 238.285156 154.996094 C 238.464844 154.730469 238.632812 154.417969 238.777344 154.0625 C 239.320312 153.019531 239.882812 151.609375 239.613281 148.820312 C 239.269531 145.226562 237.253906 143.902344 235.621094 143.875 C 235.535156 143.859375 235.449219 143.855469 235.363281 143.855469 C 235.285156 143.855469 235.207031 143.859375 235.128906 143.871094 L 235.125 143.875 C 235.046875 143.886719 234.96875 143.902344 234.890625 143.925781 C 234.535156 144.039062 234.203125 144.273438 233.90625 144.605469 C 233.855469 144.660156 233.808594 144.71875 233.761719 144.777344 L 233.402344 144.746094 L 224.691406 143.898438 L 208.367188 119.542969 C 208.367188 119.542969 208.902344 117.304688 208.367188 115.785156 C 207.828125 114.265625 205.546875 111.671875 205.546875 111.671875 C 205.546875 111.671875 204.699219 111.449219 203.894531 110.644531 C 203.089844 109.839844 194.328125 97.054688 194.328125 97.054688 C 194.328125 97.054688 194.910156 94.058594 192.898438 92.898438 C 190.886719 91.734375 192.496094 90.886719 191.421875 91.332031 C 190.347656 91.777344 188.472656 90.035156 188.070312 89.902344 C 187.667969 89.765625 185.699219 88.738281 185.699219 88.738281 L 184.941406 88.695312 L 184.179688 89.410156 L 183.0625 89.320312 L 180.335938 87.710938 L 179.574219 87.667969 L 178.949219 88.472656 L 177.339844 88.292969 L 174.523438 90.617188 L 173.183594 96.027344 L 172.773438 105.894531 L 168.039062 114.445312 L 167.058594 119.898438 L 154.941406 137.15625 L 152.035156 145.070312 L 149.175781 145.203125 L 149.175781 148.421875 L 150.070312 148.421875 L 148.414062 165.230469 C 148.414062 165.230469 147.742188 165.765625 147.742188 166.304688 C 147.742188 166.839844 147.164062 166.527344 147.164062 167.867188 C 147.164062 169.210938 146.269531 180.921875 146.269531 180.921875 L 136.296875 180.574219 L 135.820312 172.144531 C 135.691406 172.011719 135.496094 171.949219 135.28125 171.914062 C 135.113281 171.886719 134.730469 171.914062 134.671875 171.953125 L 134.351562 180.558594 L 132.929688 180.578125 L 131.476562 182.519531 L 128.371094 182.566406 L 126.875 183.4375 L 125.78125 188.84375 C 125.363281 190.902344 125.515625 194.015625 125.46875 196.035156 C 125.402344 198.9375 125.355469 200.945312 125.804688 201.328125 C 126.011719 201.914062 126.742188 202.050781 126.742188 202.050781 C 126.082031 202.039062 125.390625 202.027344 124.664062 202.019531 L 120.128906 204.632812 C 120.128906 204.632812 118.632812 206.640625 119.082031 211.890625 C 119.527344 217.140625 119.996094 218.5 120.824219 219.148438 C 121.648438 219.796875 127.894531 222.453125 127.894531 222.453125 L 141.082031 221.917969 C 141.082031 221.917969 143.140625 219.234375 143.183594 212.082031 C 153.332031 211.546875 156.246094 211.734375 156.246094 211.734375 C 156.246094 211.734375 154.121094 217.160156 159.195312 219.054688 Z M 201.390625 161.554688 L 201.234375 161.550781 L 201.363281 161.511719 L 181.632812 131.164062 L 180.15625 132.015625 L 167.726562 147.484375 L 168.175781 147.707031 L 168.488281 148.824219 L 168.128906 151.507812 L 165.492188 151.28125 L 163.570312 166.347656 C 163.570312 166.347656 163.660156 166.304688 163.882812 167.152344 C 164.105469 168.003906 164.375 168.003906 164.375 168.003906 L 178.011719 168.585938 C 178.011719 168.585938 180.289062 169.03125 180.515625 170.996094 C 180.738281 172.964844 180.871094 175.914062 180.871094 175.914062 L 180.980469 177.300781 L 181.632812 174.351562 L 182.570312 171.445312 L 183.0625 170.773438 L 184.625 170.820312 L 186.460938 171.980469 L 196.964844 172.5625 L 199.113281 172.25 L 201.839844 171.132812 C 199.054688 168.332031 200.230469 163.441406 201.390625 161.554688 Z M 162.898438 155.53125 L 161.78125 166.035156 C 161.78125 166.035156 161.558594 166.125 161.066406 167.199219 C 160.574219 168.269531 160.484375 167.289062 160.394531 168.941406 C 160.304688 170.59375 158.964844 172.027344 158.964844 172.027344 L 159.414062 168.40625 L 161.246094 161.429688 Z M 162.898438 155.53125 " fill-opacity="1" fill-rule="evenodd"/></g><g clip-path="url(#c054fe1578)"><path stroke-linecap="butt" transform="matrix(0.0509073, 0, 0, 0.0509073, 110.976194, 86.393469)" fill="none" stroke-linejoin="round" d="M 947.195354 2605.939179 C 1020.551789 2609.468882 1151.457729 2611.694129 1151.457729 2611.694129 C 1151.457729 2611.694129 1208.777036 2685.050565 1208.777036 2685.050565 L 1248.294362 2685.894624 C 1248.294362 2685.894624 1335.385946 2811.81294 1369.608718 2850.869871 C 1403.831491 2889.850069 1463.069114 2975.023336 1500.361193 2975.023336 C 1537.653272 2975.023336 2656.031981 2889.619871 2656.031981 2889.619871 C 2656.031981 2889.619871 2800.903267 2884.402049 2839.576535 2571.716407 C 2850.088911 2521.686704 2828.143366 1988.624825 2828.143366 1988.624825 L 2826.378515 1784.899578 L 2693.784456 1725.201558 C 2693.784456 1725.201558 2660.405743 1714.612449 2647.207723 1741.852548 C 2607.383466 1743.847598 2570.551783 1737.555519 2541.163169 1728.577796 L 2464.890892 1366.783243 C 2466.579011 1366.629777 2468.343863 1366.399579 2470.108714 1366.092649 L 2470.645843 1366.169381 C 2471.029506 1366.169381 2471.41317 1366.169381 2471.796833 1366.169381 L 2471.873566 1366.169381 C 2472.180496 1366.246114 2472.487427 1366.246114 2472.794358 1366.246114 C 2479.546833 1366.246114 2485.915645 1363.330273 2491.824061 1358.112451 C 2495.507229 1355.426807 2498.653269 1351.973837 2500.801783 1347.676807 L 2500.801783 1347.600075 C 2504.331486 1342.382253 2507.630991 1336.243639 2510.4701 1329.260966 C 2521.135942 1308.773342 2532.185447 1281.072847 2526.890892 1226.285719 C 2520.138417 1155.691659 2480.544358 1129.679283 2448.4701 1129.142155 C 2446.781982 1128.835224 2445.093863 1128.758491 2443.405744 1128.758491 C 2441.871091 1128.758491 2440.336437 1128.835224 2438.801784 1129.065422 L 2438.725051 1129.142155 C 2437.190398 1129.372353 2435.655744 1129.679283 2434.121091 1130.139679 C 2427.138417 1132.364927 2420.61614 1136.968887 2414.784457 1143.491164 C 2413.786932 1144.565422 2412.86614 1145.716412 2411.945348 1146.867402 L 2404.885942 1146.253541 L 2233.772081 1129.602551 L 1913.106241 651.174335 C 1913.106241 651.174335 1923.618617 607.206513 1913.106241 577.357503 C 1902.517132 547.508493 1857.705251 496.557999 1857.705251 496.557999 C 1857.705251 496.557999 1841.054261 492.184236 1825.247331 476.377306 C 1809.4404 460.570375 1637.329014 209.424336 1637.329014 209.424336 C 1637.329014 209.424336 1648.762183 150.570376 1609.244856 127.780772 C 1569.727529 104.914436 1601.341391 88.263446 1580.239906 97.01097 C 1559.138421 105.758495 1522.306738 71.535723 1514.403272 68.926812 C 1506.499807 66.241169 1467.82654 46.060476 1467.82654 46.060476 L 1452.940401 45.216416 L 1437.97753 59.258495 L 1416.031986 57.493644 L 1362.47258 25.879783 L 1347.509709 25.035723 L 1335.232481 40.842654 L 1303.61862 37.312951 L 1248.294362 82.968891 L 1221.975056 189.243643 L 1213.918125 383.070375 L 1120.918125 551.038196 L 1101.658224 658.157008 L 863.633473 997.161957 L 806.544364 1152.622353 L 750.376047 1155.231263 L 750.376047 1218.458986 L 767.94783 1218.458986 L 735.413176 1548.639678 C 735.413176 1548.639678 722.215156 1559.152054 722.215156 1569.741163 C 722.215156 1580.253539 710.858721 1574.114925 710.858721 1600.434232 C 710.858721 1626.830272 693.286939 1856.874825 693.286939 1856.874825 L 497.388425 1850.045617 L 488.027039 1684.456509 C 485.49486 1681.847598 481.658227 1680.619875 477.43793 1679.929281 C 474.138425 1679.392153 466.618623 1679.929281 465.467633 1680.696608 L 459.175554 1849.738687 L 431.244861 1850.12235 L 402.700306 1888.258488 L 341.697831 1889.17928 L 312.309217 1906.290667 L 290.824069 2012.488686 C 282.613673 2052.926805 285.606247 2114.082745 284.685455 2153.753537 C 283.381 2210.765913 282.460208 2250.206507 291.284465 2257.726309 C 295.351297 2269.23621 309.700307 2271.921853 309.700307 2271.921853 C 296.732485 2271.691655 283.150802 2271.461457 268.878525 2271.307992 L 179.791891 2322.64215 C 179.791891 2322.64215 150.403277 2362.082744 159.227535 2465.211456 C 167.97506 2568.340169 177.18298 2595.043139 193.450307 2607.780763 C 209.640901 2620.518387 332.336445 2672.696604 332.336445 2672.696604 L 591.385949 2662.184228 C 591.385949 2662.184228 631.824068 2609.468882 632.668127 2468.971357 C 832.019611 2458.458981 889.262186 2462.14215 889.262186 2462.14215 C 889.262186 2462.14215 847.519611 2568.723832 947.195354 2605.939179 Z M 1776.061687 1476.434232 L 1772.99238 1476.3575 L 1775.524558 1475.590173 L 1387.947827 879.454037 L 1358.942877 896.181759 L 1114.779511 1200.043144 L 1123.603769 1204.416907 L 1129.742383 1226.362451 L 1122.682977 1279.077798 L 1070.888422 1274.627303 L 1033.135947 1570.585222 C 1033.135947 1570.585222 1034.900799 1569.741163 1039.274561 1586.392153 C 1043.648324 1603.119876 1048.942878 1603.119876 1048.942878 1603.119876 L 1316.816639 1614.553044 C 1316.816639 1614.553044 1361.551788 1623.300569 1366.002283 1661.897103 C 1370.376045 1700.57037 1372.984956 1758.503538 1372.984956 1758.503538 L 1375.133471 1785.743637 L 1387.947827 1727.810469 L 1406.363669 1670.72136 L 1416.031986 1657.523341 L 1446.725055 1658.444133 L 1482.789411 1681.233737 L 1689.123569 1692.666905 L 1731.326539 1686.528291 L 1784.885945 1664.582747 C 1730.175549 1609.56542 1753.272083 1513.496114 1776.061687 1476.434232 Z M 1019.937928 1358.112451 L 997.992383 1564.446608 C 997.992383 1564.446608 993.618621 1566.21146 983.950304 1587.312945 C 974.281987 1608.337697 972.517136 1589.077796 970.752284 1621.535717 C 968.987433 1653.993638 942.668126 1682.154529 942.668126 1682.154529 L 951.492383 1611.023341 L 987.480007 1473.978787 Z M 1019.937928 1358.112451 " stroke="#3d3c3b" stroke-width="11.811" stroke-opacity="1" stroke-miterlimit="4"/></g><g clip-path="url(#6c9121914f)"><path fill="#000000" d="M 159.195312 219.054688 C 162.929688 219.234375 169.59375 219.347656 169.59375 219.347656 C 169.59375 219.347656 172.511719 223.082031 172.511719 223.082031 L 174.523438 223.125 C 174.523438 223.125 178.957031 229.535156 180.699219 231.523438 C 182.441406 233.507812 185.457031 237.84375 187.355469 237.84375 C 189.253906 237.84375 246.1875 233.496094 246.1875 233.496094 C 246.1875 233.496094 253.5625 233.230469 255.53125 217.3125 C 256.066406 214.765625 254.949219 187.628906 254.949219 187.628906 L 254.859375 177.257812 L 248.109375 174.21875 C 248.109375 174.21875 246.410156 173.679688 245.738281 175.066406 C 241.339844 175.289062 237.691406 173.5 236.976562 172.742188 C 236.261719 171.980469 235.546875 155.976562 235.546875 155.976562 C 235.546875 155.976562 237.703125 156.207031 238.285156 155 C 238.863281 153.792969 239.96875 152.519531 239.617188 148.820312 C 239.261719 145.125 237.140625 143.832031 235.488281 143.875 C 233.832031 143.921875 233.3125 145.695312 233.3125 145.695312 L 230.40625 145.425781 C 230.40625 145.425781 229.378906 144.667969 227.945312 144.667969 C 226.515625 144.667969 225.085938 144.488281 225.085938 144.488281 L 208.367188 119.542969 C 208.367188 119.542969 208.902344 117.304688 208.367188 115.785156 C 207.828125 114.265625 205.550781 111.671875 205.550781 111.671875 C 205.550781 111.671875 204.699219 111.449219 203.894531 110.644531 C 203.089844 109.839844 194.328125 97.054688 194.328125 97.054688 C 194.328125 97.054688 194.910156 94.058594 192.898438 92.898438 C 190.886719 91.734375 192.496094 90.886719 191.421875 91.332031 C 190.347656 91.777344 188.472656 90.035156 188.070312 89.902344 C 187.667969 89.765625 185.699219 88.738281 185.699219 88.738281 L 184.941406 88.695312 L 184.179688 89.410156 L 183.0625 89.320312 L 180.335938 87.710938 L 179.574219 87.667969 L 178.949219 88.472656 L 177.339844 88.292969 L 174.523438 90.617188 L 173.183594 96.027344 L 172.773438 105.894531 L 168.042969 114.445312 L 167.058594 119.898438 L 154.941406 137.15625 L 152.035156 145.070312 L 149.175781 145.203125 L 149.175781 148.421875 L 150.070312 148.421875 L 148.414062 165.230469 C 148.414062 165.230469 147.746094 165.765625 147.746094 166.304688 C 147.746094 166.839844 147.164062 166.527344 147.164062 167.867188 C 147.164062 169.210938 146.269531 180.921875 146.269531 180.921875 L 136.300781 180.574219 L 135.820312 172.144531 C 135.695312 172.011719 135.496094 171.949219 135.28125 171.914062 C 135.113281 171.886719 134.730469 171.914062 134.675781 171.953125 L 134.355469 180.558594 L 132.929688 180.578125 L 131.476562 182.519531 L 128.371094 182.566406 L 126.875 183.4375 L 125.78125 188.84375 C 125.363281 190.902344 125.515625 194.015625 125.46875 196.035156 C 125.402344 198.9375 125.359375 200.945312 125.804688 201.328125 C 126.011719 201.914062 126.746094 202.050781 126.746094 202.050781 C 126.085938 202.039062 125.390625 202.027344 124.664062 202.019531 L 120.132812 204.632812 C 120.132812 204.632812 118.636719 206.640625 119.082031 211.890625 C 119.527344 217.140625 119.996094 218.5 120.824219 219.148438 C 121.648438 219.796875 127.894531 222.453125 127.894531 222.453125 L 141.082031 221.917969 C 141.082031 221.917969 143.140625 219.234375 143.183594 212.082031 C 153.332031 211.546875 156.246094 211.734375 156.246094 211.734375 C 156.246094 211.734375 154.121094 217.160156 159.195312 219.054688 Z M 162.898438 155.53125 L 161.78125 166.035156 C 161.78125 166.035156 161.558594 166.125 161.066406 167.199219 C 160.574219 168.269531 160.484375 167.289062 160.394531 168.941406 C 160.308594 170.59375 158.964844 172.027344 158.964844 172.027344 L 159.414062 168.40625 L 161.246094 161.429688 Z M 181.632812 131.164062 L 180.15625 132.015625 L 167.726562 147.484375 L 168.175781 147.707031 L 168.488281 148.824219 L 168.128906 151.507812 L 165.492188 151.28125 L 163.570312 166.347656 C 163.570312 166.347656 163.660156 166.304688 163.882812 167.152344 C 164.105469 168.003906 164.375 168.003906 164.375 168.003906 L 178.011719 168.582031 C 178.011719 168.582031 180.289062 169.03125 180.515625 170.996094 C 180.738281 172.964844 180.871094 175.914062 180.871094 175.914062 L 180.980469 177.300781 L 181.632812 174.351562 L 182.570312 171.445312 L 183.0625 170.773438 L 184.625 170.820312 L 186.460938 171.980469 L 196.964844 172.5625 L 199.113281 172.25 L 201.839844 171.132812 C 199.054688 168.332031 200.230469 163.441406 201.394531 161.554688 Z M 181.632812 131.164062 " fill-opacity="1" fill-rule="evenodd"/></g><path fill="#f07d05" d="M 148.449219 192.4375 C 148.273438 192.417969 155.953125 192.660156 155.953125 192.660156 L 156.109375 198.46875 L 155.664062 198.488281 L 155.015625 193.710938 Z M 216.96875 177.9375 C 217.777344 178.769531 218.363281 180.203125 218.46875 182.574219 L 219.007812 144.308594 L 233.3125 145.695312 L 233.394531 146.085938 C 233.429688 146.054688 233.46875 146.019531 233.503906 145.988281 C 233.894531 145.089844 234.417969 144.472656 235.003906 144.292969 C 235.121094 144.253906 235.242188 144.238281 235.363281 144.238281 C 236.800781 144.238281 237.964844 146.835938 237.964844 150.039062 C 237.964844 153.179688 236.847656 155.734375 235.453125 155.839844 L 242.433594 188.925781 L 218.378906 188.925781 L 218.449219 184.117188 C 218.191406 186.828125 216.695312 190 215.988281 190 C 215.210938 190 213.929688 190.066406 214.0625 190.019531 C 214.125 190 214.183594 189.972656 214.246094 189.933594 C 214.070312 190.023438 213.898438 190.070312 213.730469 190.070312 C 212.324219 190.070312 211.179688 187.421875 211.179688 184.15625 L 211.035156 176.152344 L 210.410156 174.808594 L 205.9375 173.066406 L 203.019531 170.867188 C 201.933594 170.234375 201.148438 168.371094 201.148438 166.171875 C 201.148438 163.621094 202.5 161.523438 203.613281 161.269531 C 203.585938 161.269531 203.570312 161.269531 203.570312 161.269531 C 204.699219 160.941406 206.265625 160.710938 206.675781 160.878906 C 207.089844 161.046875 207.574219 161.09375 208.066406 162.132812 L 208.066406 162.136719 L 208.070312 162.140625 C 208.183594 162.378906 210.855469 168.023438 212.035156 170.515625 C 213.242188 173.0625 216.96875 177.9375 216.96875 177.9375 Z M 214.117188 176.914062 C 212.921875 175.261719 211.164062 172.734375 210.402344 171.132812 C 209.222656 168.636719 206.550781 162.996094 206.4375 162.757812 L 206.433594 162.753906 L 206.433594 162.75 L 206.433594 162.753906 L 206.4375 162.757812 M 206.433594 162.75 L 206.433594 162.753906 C 206.546875 162.992188 208.542969 167.820312 209.738281 170.339844 C 210.925781 172.839844 214.070312 176.851562 214.117188 176.914062 M 203.296875 148.082031 C 204 147.929688 204.835938 147.71875 205.828125 147.433594 C 209.128906 146.488281 211.242188 145.054688 212.492188 143.933594 C 212.882812 143.03125 213.40625 142.417969 213.992188 142.234375 C 214.109375 142.199219 214.230469 142.179688 214.351562 142.179688 C 215.789062 142.179688 216.953125 144.777344 216.953125 147.984375 C 216.953125 151.1875 215.789062 153.785156 214.351562 153.785156 C 214.101562 153.785156 213.863281 153.707031 213.632812 153.558594 C 212.339844 153.191406 209.511719 152.542969 206.898438 153.039062 C 206.5 153.117188 206.101562 153.210938 205.699219 153.320312 L 207.472656 157.183594 L 205.863281 158.972656 L 201.929688 160.132812 L 199.210938 155.917969 C 198.695312 155.714844 198.257812 155.011719 198.003906 154.042969 L 174.597656 117.730469 L 174.136719 95.9375 L 175.015625 92.898438 L 177.25 91.285156 Z M 193.632812 97.128906 L 192.898438 97.144531 L 203.449219 111.808594 C 203.453125 111.8125 205.167969 112.183594 205.167969 112.183594 C 206.300781 113.308594 207.640625 115.949219 207.875 116.097656 L 208.054688 117.617188 C 208.054688 117.617188 207.417969 116.210938 205.449219 116.703125 C 204.3125 116.984375 203.425781 117.269531 202.96875 118.699219 C 202.632812 119.746094 203.375 122.003906 203.089844 121.554688 C 202.421875 120.480469 188.605469 100.316406 188.605469 100.316406 C 188.605469 100.316406 190.296875 96.542969 193.632812 97.128906 Z M 185.164062 89.410156 L 184.671875 89.902344 L 188.652344 92.316406 L 187.128906 97.679688 L 188.382812 99.648438 C 188.382812 99.648438 190.125 97.054688 191.332031 96.875 C 192.539062 96.695312 193.882812 96.695312 193.882812 96.695312 C 193.882812 96.695312 193.925781 94.460938 192.941406 93.566406 C 191.957031 92.671875 191.289062 91.6875 190.796875 92.179688 C 190.304688 92.671875 189.097656 91.375 189.097656 91.375 Z M 179.886719 88.960938 L 185.253906 98.933594 L 187.042969 94.28125 C 187.042969 94.28125 187.3125 93.242188 185.386719 91.644531 C 183.21875 89.847656 180.738281 88.515625 180.738281 88.515625 Z M 157.695312 193.957031 L 158.390625 194.582031 L 158.949219 194.828125 L 159.820312 194.714844 L 160.289062 194.425781 L 163.480469 171.285156 L 163.859375 170.773438 L 164.0625 168.382812 L 163.636719 167.175781 L 163.59375 166.84375 L 162.96875 166.863281 L 162.320312 166.820312 L 161.785156 166.664062 L 161.160156 167.824219 L 160.734375 168.40625 L 160.578125 170.707031 L 160.800781 170.996094 L 161.429688 171.152344 L 161.886719 171.195312 L 162.601562 171.21875 L 162.179688 171.394531 L 161.417969 171.40625 L 160.734375 171.503906 Z M 161.738281 189.953125 L 161.828125 197.328125 C 161.828125 197.328125 161.960938 199.476562 162.855469 199.476562 C 163.75 199.476562 164.464844 199.074219 164.464844 199.074219 L 174.03125 199.339844 L 176.535156 194.738281 L 168.21875 194.648438 C 168.21875 194.648438 165.984375 194.378906 165.851562 190.667969 C 165.714844 186.957031 165.046875 170.730469 165.046875 170.730469 C 165.046875 170.730469 164.644531 169.96875 166.433594 169.835938 C 168.21875 169.699219 177.339844 170.328125 177.339844 170.328125 C 177.339844 170.328125 178.90625 170.460938 179.171875 172.027344 C 179.441406 173.589844 179.777344 182.394531 179.777344 182.394531 L 180.648438 177.808594 L 180.054688 171.175781 C 180.054688 171.175781 179.761719 170.148438 179.203125 169.835938 C 178.644531 169.523438 177.738281 168.988281 177.09375 168.988281 C 176.445312 168.988281 164.316406 168.566406 164.316406 168.566406 L 164.117188 170.996094 L 163.671875 171.5625 L 163.503906 173.101562 L 164.351562 189.734375 C 164.351562 189.734375 163.480469 190.25 163.167969 190.25 C 162.855469 190.25 161.738281 189.953125 161.738281 189.953125 Z M 143.292969 211.441406 L 143.269531 208.652344 L 143.089844 207.109375 L 142.6875 206.171875 L 165.539062 206.269531 L 165.671875 208.71875 L 165.402344 210.953125 Z M 171.589844 205.503906 L 168.707031 203.960938 L 168.304688 203.960938 L 166.585938 212.15625 C 166.585938 212.15625 166.453125 212.871094 167.144531 213.429688 C 167.835938 213.988281 172.929688 218.34375 172.929688 218.34375 L 188.046875 175.953125 C 188.046875 175.953125 188.964844 174.324219 187.757812 173.765625 C 186.550781 173.207031 184.050781 171.511719 184.050781 171.511719 L 183.113281 171.890625 L 180.566406 182.273438 L 178.199219 192.503906 L 177.195312 195.765625 L 174.761719 201.035156 L 172.058594 205.703125 Z M 168.664062 216.855469 C 170.007812 218.742188 170.523438 219.148438 172.511719 222.007812 L 174.746094 221.335938 L 185.699219 235.285156 C 185.699219 235.285156 189.054688 238.859375 192.539062 231.753906 C 196.027344 224.644531 192.761719 203.140625 192.761719 203.140625 L 190.082031 175.511719 L 188.921875 174.8125 L 176.535156 212.441406 L 174.570312 217.445312 L 173.550781 220.320312 Z M 189.140625 172.832031 L 191.378906 174.707031 L 194.953125 216.285156 C 194.953125 216.285156 195.957031 231.320312 192.628906 234.523438 C 189.304688 237.730469 248.957031 230.949219 248.957031 230.949219 C 248.957031 230.949219 253.789062 225.761719 254.144531 217.984375 C 254.503906 210.203125 253.160156 179 253.160156 179 L 246.632812 175.601562 L 241.761719 175.871094 L 242.164062 178.105469 C 242.164062 178.105469 246.5 180.832031 246.457031 182.621094 C 246.410156 184.410156 246.992188 184.410156 245.652344 187.71875 C 244.308594 191.027344 243.371094 192.589844 243.28125 195.71875 C 243.191406 198.847656 243.71875 205.71875 243.976562 208.625 C 244.238281 211.53125 242 212.742188 241 215.660156 C 240.46875 217.214844 240.199219 216 240.199219 216 C 240.199219 216 240.109375 214.125 241.046875 212.917969 C 241.984375 211.710938 242.765625 210.503906 242.902344 210.035156 C 243.035156 209.566406 243.042969 208.21875 242.796875 206.097656 C 242.554688 203.980469 242.371094 198.789062 242.296875 196.546875 C 242.222656 194.304688 243.28125 190.597656 243.414062 190.292969 C 243.605469 189.859375 244.683594 187.453125 244.625 187.53125 C 243.167969 189.46875 242.378906 190.125 242.273438 190.136719 C 242.273438 190.136719 241.046875 195.609375 241.070312 199.113281 C 241.089844 202.621094 241.617188 207.78125 241.617188 207.78125 C 241.617188 207.78125 242.097656 209.746094 241.226562 210.863281 C 240.355469 211.980469 238.164062 216.109375 238.164062 216.109375 L 235.414062 190.890625 L 218.023438 190.710938 C 218.023438 190.710938 217.355469 195.421875 217.132812 200.964844 C 216.910156 206.507812 217.664062 208.238281 217.664062 208.238281 C 217.664062 208.238281 218.113281 210.5625 217.351562 211.679688 C 216.589844 212.796875 214.671875 216.3125 214.671875 216.3125 L 214.132812 216.402344 C 214.132812 216.402344 215.140625 213.542969 216.210938 212.070312 C 217.285156 210.59375 217.128906 209.566406 217.128906 209.253906 C 217.128906 208.941406 216.390625 203.089844 216.5 201.570312 C 216.613281 200.054688 217.507812 190.292969 217.507812 190.292969 L 217.058594 190.113281 L 215.675781 190.492188 C 215.675781 190.492188 214.445312 197.777344 214.625 200.054688 C 214.804688 202.335938 215.339844 207.253906 215.339844 207.253906 C 215.339844 207.253906 215.652344 209.9375 214.980469 211.457031 C 214.3125 212.976562 212.300781 216.6875 212.300781 216.6875 L 211.539062 190.085938 C 211.539062 190.085938 209.976562 189.101562 209.929688 183.558594 C 209.886719 178.015625 210.78125 178.464844 210.78125 178.464844 C 210.78125 178.464844 211.046875 174.574219 207.964844 174.171875 C 204.878906 173.769531 197.1875 173.8125 197.1875 173.8125 L 196.5625 172.964844 Z M 197.367188 228.625 C 197.367188 228.625 196.652344 232.648438 195.847656 233.71875 C 195.042969 234.792969 245.074219 230.613281 247.886719 229.605469 C 250.695312 228.601562 253.964844 217.535156 252.625 210.472656 C 251.105469 220.84375 248.691406 225.851562 248.691406 225.851562 L 234.652344 226.566406 L 232.597656 196.972656 C 232.597656 196.972656 232.507812 226.566406 228.214844 227.015625 C 223.925781 227.460938 197.367188 228.625 197.367188 228.625 Z M 150.886719 147.566406 L 150.839844 149.800781 L 154.769531 149.824219 L 154.839844 147.65625 L 153.945312 145.558594 L 149.546875 145.601562 L 149.65625 147.34375 L 150.640625 146.316406 L 153.007812 146.472656 L 153.8125 147.769531 Z M 149.144531 186.585938 L 149.546875 187.324219 L 154.703125 187.34375 L 156.15625 185.757812 L 156 183.925781 L 155.96875 183.425781 C 155.96875 183.425781 158.585938 171.382812 160.441406 163.398438 C 160.441406 163.386719 159.589844 157.003906 158.207031 154.992188 C 156.820312 152.980469 155.746094 152.847656 155.746094 152.847656 L 163.234375 153.71875 L 163.75 152.625 L 164.910156 150.476562 L 166.65625 148.019531 L 168.667969 145.46875 L 178.613281 133.078125 L 174.300781 121.597656 L 170.140625 128.167969 L 165.179688 136.039062 L 156.105469 150.386719 L 155.121094 152.445312 L 154.808594 153.515625 L 154.046875 155.664062 L 151.679688 167.109375 L 151.589844 167.867188 L 151.457031 170.503906 L 150.886719 171.027344 Z M 178.949219 90.035156 L 204.34375 146.902344 L 213.910156 139.660156 L 209.347656 131.433594 L 204.699219 123.652344 C 204.699219 123.652344 201.929688 123.207031 200.140625 119.628906 C 198.351562 116.054688 198.417969 118.90625 197.277344 117.039062 L 188.71875 102.976562 L 185.476562 101.703125 L 179.65625 89.941406 Z M 176.535156 99.066406 L 177.519531 117.304688 L 179.039062 102.375 L 194.148438 130.71875 L 177.25 93.433594 L 176.175781 93.96875 Z M 152.550781 144.6875 L 154.316406 144.710938 L 155.703125 147.078125 L 155.636719 148.621094 L 173.691406 119.386719 L 173.5625 105.996094 L 168.644531 114.667969 L 167.773438 120.078125 L 155.460938 137.449219 L 155.039062 138.457031 Z M 152.351562 151.117188 L 150.875 165.140625 L 153.066406 155.4375 L 153.941406 152.148438 L 154.742188 150.355469 L 153.824219 151.144531 Z M 148.449219 165.816406 C 148.449219 165.816406 149.121094 166.328125 150.328125 165.992188 C 151.53125 165.660156 150.394531 166.707031 150.394531 166.707031 L 151.128906 167.757812 L 150.996094 170.191406 L 150.4375 170.550781 L 149.558594 170.515625 L 150.40625 170.886719 L 148.058594 194.601562 C 148.058594 194.601562 147.492188 194.914062 146.664062 194.847656 C 145.835938 194.78125 145.28125 194.425781 145.28125 194.425781 L 146.402344 182.085938 L 147.433594 170.328125 L 147.628906 167.058594 L 147.996094 166.757812 L 148.132812 165.933594 Z M 127.804688 199.652344 C 127.804688 199.652344 126.734375 200.101562 126.777344 196.570312 C 126.824219 193.035156 127.269531 184.140625 127.269531 184.140625 L 128.835938 182.890625 L 141.84375 183.15625 L 142.066406 189.863281 C 142.066406 189.863281 143.453125 189.773438 143.453125 191.292969 C 143.453125 192.8125 143.453125 199.027344 143.453125 199.027344 C 143.453125 199.027344 143.632812 199.789062 142.558594 199.742188 C 141.484375 199.699219 127.804688 199.652344 127.804688 199.652344 Z M 126.921875 184.398438 L 126.519531 197.507812 C 126.519531 197.507812 126.519531 198.691406 126.875 199.359375 C 127.234375 200.03125 125.871094 201.167969 125.871094 201.167969 C 125.636719 201.046875 125.535156 199.996094 125.625 197.675781 C 125.679688 196.222656 125.609375 193.972656 125.660156 191.652344 C 125.691406 190.257812 125.914062 188.828125 125.914062 188.828125 Z M 127.324219 199.984375 L 126.386719 201.480469 L 126.898438 201.75 L 138.691406 201.882812 L 140.433594 200.945312 L 144.652344 200.207031 Z M 121.761719 209.140625 L 120.398438 209.121094 L 120.019531 209.679688 L 119.996094 214.191406 L 120.265625 214.4375 L 121.25 214.546875 L 121.425781 214.816406 L 129.132812 216.824219 C 129.542969 216.933594 129.980469 210.527344 129.289062 210.324219 C 127.078125 210.125 122.164062 209.789062 122.164062 209.789062 Z M 121.761719 209.140625 " fill-opacity="1" fill-rule="evenodd"/><path fill="#000000" d="M 219.945312 145.359375 L 219.347656 187.96875 L 241.253906 187.96875 L 232.523438 146.578125 Z M 217.425781 188.914062 L 217.453125 186.949219 C 219.085938 184.042969 218.160156 181.011719 217.554688 179.609375 L 218.050781 144.296875 L 218.066406 143.257812 L 219.09375 143.359375 L 233.402344 144.742188 L 234.101562 144.8125 L 234.246094 145.5 L 243.367188 188.730469 L 242.867188 189.207031 L 242.433594 189.882812 L 217.414062 189.882812 Z M 217.425781 188.914062 " fill-opacity="1" fill-rule="nonzero"/><path fill="#000000" d="M 199.515625 147.761719 C 199.6875 147.761719 199.851562 147.796875 200.007812 147.867188 C 200.121094 147.914062 200.230469 147.980469 200.332031 148.0625 C 200.679688 148.085938 201.199219 148.066406 201.972656 147.945312 C 202.855469 147.808594 204.066406 147.539062 205.722656 147.066406 C 207.34375 146.601562 208.667969 146.019531 209.742188 145.417969 C 210.777344 144.835938 211.574219 144.234375 212.175781 143.703125 C 212.382812 143.242188 212.625 142.855469 212.894531 142.550781 C 213.191406 142.214844 213.523438 141.980469 213.878906 141.871094 L 213.882812 141.871094 C 213.957031 141.847656 214.035156 141.828125 214.113281 141.816406 L 214.117188 141.816406 C 214.195312 141.804688 214.273438 141.796875 214.351562 141.796875 C 215.234375 141.796875 216.007812 142.535156 216.539062 143.722656 C 217.03125 144.820312 217.335938 146.328125 217.335938 147.984375 C 217.335938 149.636719 217.03125 151.144531 216.539062 152.242188 C 216.007812 153.433594 215.234375 154.167969 214.351562 154.167969 C 214.191406 154.167969 214.03125 154.144531 213.875 154.09375 C 213.738281 154.050781 213.605469 153.992188 213.476562 153.914062 C 212.839844 153.734375 211.855469 153.496094 210.714844 153.355469 C 209.550781 153.214844 208.230469 153.175781 206.96875 153.417969 C 205.960938 153.609375 204.925781 153.933594 203.960938 154.300781 C 202.578125 154.820312 201.347656 155.425781 200.570312 155.835938 C 200.429688 155.988281 200.28125 156.109375 200.121094 156.199219 C 199.929688 156.304688 199.726562 156.359375 199.515625 156.359375 C 198.867188 156.359375 198.308594 155.835938 197.925781 154.984375 C 197.589844 154.230469 197.378906 153.195312 197.378906 152.058594 C 197.378906 150.925781 197.589844 149.890625 197.925781 149.136719 C 198.308594 148.285156 198.867188 147.761719 199.515625 147.761719 Z M 199.703125 148.566406 C 199.640625 148.539062 199.578125 148.523438 199.515625 148.523438 L 199.515625 148.527344 C 199.195312 148.527344 198.878906 148.878906 198.625 149.445312 C 198.328125 150.109375 198.144531 151.035156 198.144531 152.058594 C 198.144531 153.085938 198.328125 154.011719 198.625 154.675781 C 198.878906 155.242188 199.195312 155.59375 199.515625 155.59375 C 199.597656 155.59375 199.675781 155.570312 199.753906 155.527344 C 199.855469 155.472656 199.949219 155.390625 200.042969 155.28125 L 200.09375 155.222656 L 200.15625 155.1875 C 200.949219 154.769531 202.234375 154.132812 203.691406 153.582031 C 204.691406 153.203125 205.769531 152.867188 206.828125 152.664062 C 208.179688 152.410156 209.578125 152.445312 210.804688 152.597656 C 212.027344 152.746094 213.078125 153.003906 213.738281 153.191406 L 213.789062 153.207031 L 213.839844 153.238281 C 213.925781 153.292969 214.015625 153.335938 214.101562 153.363281 C 214.183594 153.390625 214.265625 153.402344 214.351562 153.402344 C 214.90625 153.402344 215.4375 152.839844 215.84375 151.929688 C 216.292969 150.929688 216.570312 149.53125 216.570312 147.984375 C 216.570312 146.433594 216.292969 145.039062 215.84375 144.035156 C 215.4375 143.125 214.90625 142.5625 214.351562 142.5625 C 214.3125 142.5625 214.269531 142.566406 214.230469 142.574219 L 214.230469 142.570312 C 214.191406 142.578125 214.148438 142.585938 214.109375 142.601562 L 214.105469 142.601562 C 213.886719 142.667969 213.667969 142.824219 213.464844 143.054688 C 213.234375 143.316406 213.023438 143.664062 212.839844 144.085938 L 212.808594 144.164062 L 212.746094 144.21875 C 212.105469 144.792969 211.242188 145.453125 210.117188 146.085938 C 208.996094 146.714844 207.613281 147.320312 205.929688 147.804688 C 204.253906 148.28125 203.011719 148.554688 202.089844 148.699219 C 201.148438 148.847656 200.535156 148.855469 200.136719 148.8125 L 200.015625 148.796875 L 199.921875 148.714844 C 199.847656 148.648438 199.773438 148.597656 199.703125 148.566406 Z M 199.703125 148.566406 " fill-opacity="1" fill-rule="nonzero"/><path fill="#000000" d="M 201.371094 147.917969 C 201.257812 147.882812 201.140625 147.863281 201.027344 147.863281 L 199.648438 147.769531 L 199.640625 147.765625 L 199.621094 147.765625 L 199.558594 147.761719 L 199.535156 147.761719 L 199.492188 148.523438 L 199.574219 148.53125 L 199.625 148.539062 L 199.683594 148.558594 L 199.746094 148.585938 L 199.808594 148.625 L 199.859375 148.660156 L 199.933594 148.722656 L 200.027344 148.804688 L 200.144531 148.8125 L 200.300781 148.828125 L 200.316406 148.828125 L 200.433594 148.832031 L 200.445312 148.832031 L 200.578125 148.835938 L 200.625 148.835938 L 200.730469 148.832031 L 200.738281 148.832031 L 200.859375 148.828125 L 200.871094 148.828125 C 200.984375 148.824219 201.089844 148.816406 201.183594 148.808594 L 201.1875 148.808594 C 201.289062 148.800781 201.40625 148.789062 201.539062 148.773438 L 202.609375 148.652344 L 201.699219 148.074219 C 201.59375 148.003906 201.480469 147.953125 201.371094 147.917969 Z M 199.464844 156.359375 L 200.882812 156.453125 L 200.917969 156.457031 L 200.945312 156.457031 L 201 156.460938 L 201.011719 156.460938 C 201.222656 156.460938 201.425781 156.40625 201.617188 156.300781 C 201.777344 156.210938 201.929688 156.089844 202.070312 155.933594 C 202.726562 155.589844 203.699219 155.109375 204.796875 154.660156 L 204.800781 154.660156 C 205.9375 154.191406 207.222656 153.753906 208.464844 153.519531 C 208.824219 153.449219 209.1875 153.402344 209.558594 153.375 C 209.933594 153.347656 210.300781 153.339844 210.65625 153.347656 L 213.964844 153.402344 C 213.914062 153.460938 213.886719 153.570312 213.886719 153.78125 L 213.886719 154.117188 L 214.21875 154.160156 L 214.230469 154.164062 L 214.257812 154.164062 L 215.714844 154.265625 L 215.769531 154.269531 L 215.847656 154.269531 C 216.40625 154.269531 216.917969 153.976562 217.355469 153.464844 L 218.453125 153.480469 L 217.4375 153.363281 C 217.660156 153.082031 217.859375 152.738281 218.035156 152.34375 C 218.527344 151.246094 218.832031 149.738281 218.832031 148.085938 C 218.832031 146.449219 218.523438 144.976562 218.027344 143.882812 C 217.484375 142.6875 216.703125 141.925781 215.828125 141.855469 L 215.734375 141.847656 C 215.253906 141.8125 214.976562 141.789062 214.398438 141.796875 L 214.320312 141.800781 L 214.292969 141.800781 L 214.320312 142.5625 L 214.378906 142.5625 C 214.632812 142.566406 214.8125 142.691406 214.921875 142.765625 L 214.957031 142.789062 C 215.414062 143.132812 215.8125 143.816406 216.101562 144.714844 C 216.398438 145.628906 216.570312 146.757812 216.570312 147.984375 C 216.570312 149.21875 216.394531 150.355469 216.09375 151.273438 C 215.828125 152.09375 215.46875 152.730469 215.0625 153.089844 L 210.703125 152.585938 C 210.066406 152.511719 209.375 152.46875 208.671875 152.480469 C 208.058594 152.492188 207.4375 152.550781 206.828125 152.664062 C 205.785156 152.863281 204.714844 153.195312 203.730469 153.570312 C 202.316406 154.101562 201.050781 154.71875 200.246094 155.144531 L 200.246094 155.140625 L 200.222656 155.152344 L 200.21875 155.15625 L 200.15625 155.1875 L 200.097656 155.222656 L 200.050781 155.269531 L 199.980469 155.347656 L 199.976562 155.351562 L 199.96875 155.363281 L 199.964844 155.363281 L 199.917969 155.410156 L 199.769531 155.519531 L 199.691406 155.558594 L 199.625 155.578125 L 199.523438 155.59375 L 199.488281 155.59375 Z M 200.933594 155.691406 L 200.863281 155.683594 C 201.085938 155.570312 201.335938 155.445312 201.609375 155.3125 L 201.585938 155.324219 L 201.539062 155.378906 C 201.445312 155.492188 201.347656 155.574219 201.25 155.628906 C 201.171875 155.671875 201.09375 155.695312 201.011719 155.695312 L 200.988281 155.695312 L 200.945312 155.691406 L 200.929688 155.691406 Z M 215.792969 153.4375 L 216.171875 153.441406 C 216.066406 153.484375 215.957031 153.503906 215.847656 153.503906 L 215.847656 153.507812 L 215.824219 153.503906 L 215.765625 153.5 L 215.738281 153.5 Z M 216.488281 153.253906 L 215.992188 153.195312 C 216.320312 152.757812 216.601562 152.183594 216.820312 151.511719 C 217.144531 150.515625 217.335938 149.296875 217.335938 147.984375 C 217.335938 146.683594 217.148438 145.46875 216.828125 144.480469 C 216.585938 143.726562 216.265625 143.09375 215.886719 142.636719 C 216.421875 142.746094 216.933594 143.320312 217.332031 144.199219 C 217.78125 145.195312 218.066406 146.558594 218.066406 148.085938 C 218.066406 149.632812 217.789062 151.03125 217.339844 152.03125 C 217.09375 152.582031 216.804688 153.003906 216.488281 153.253906 Z M 216.488281 153.253906 " fill-opacity="1" fill-rule="nonzero"/><path fill="#f07d05" d="M 201.011719 148.246094 C 201.179688 148.246094 201.339844 148.296875 201.496094 148.394531 C 201.253906 148.421875 201.042969 148.4375 200.855469 148.445312 L 200.855469 148.449219 L 200.847656 148.449219 C 200.761719 148.449219 200.683594 148.453125 200.613281 148.453125 L 200.585938 148.453125 C 200.539062 148.453125 200.492188 148.453125 200.449219 148.449219 L 200.332031 148.445312 L 200.179688 148.433594 L 200.101562 148.363281 L 200.019531 148.304688 L 199.921875 148.25 L 199.820312 148.203125 L 199.71875 148.167969 L 199.597656 148.148438 L 199.515625 148.144531 Z M 199.492188 155.976562 L 200.90625 156.070312 C 200.941406 156.074219 200.976562 156.078125 201.011719 156.078125 C 201.308594 156.078125 201.585938 155.914062 201.828125 155.628906 C 203.148438 154.933594 205.855469 153.625 208.394531 153.140625 C 209.144531 153 209.914062 152.953125 210.660156 152.964844 C 209.488281 152.828125 208.167969 152.800781 206.898438 153.039062 C 204.410156 153.511719 201.765625 154.777344 200.417969 155.484375 L 200.398438 155.492188 L 200.332031 155.527344 L 200.25 155.617188 L 200.25 155.621094 L 200.15625 155.707031 L 199.972656 155.84375 L 199.832031 155.914062 L 199.710938 155.953125 L 199.5625 155.976562 Z M 214.28125 153.785156 L 215.738281 153.882812 C 215.757812 153.882812 215.777344 153.886719 215.796875 153.886719 L 215.800781 153.886719 C 215.816406 153.886719 215.832031 153.886719 215.847656 153.886719 C 217.285156 153.886719 218.449219 151.289062 218.449219 148.085938 C 218.449219 144.878906 217.230469 142.351562 215.796875 142.238281 C 215.234375 142.195312 214.960938 142.167969 214.308594 142.179688 C 214.757812 142.160156 215.03125 142.378906 215.175781 142.476562 C 216.210938 143.246094 216.953125 145.421875 216.953125 147.984375 C 216.953125 150.566406 216.195312 152.753906 215.152344 153.507812 L 215.035156 153.582031 C 215.019531 153.589844 215.007812 153.597656 214.996094 153.605469 L 214.921875 153.648438 L 214.738281 153.722656 L 214.632812 153.753906 L 214.496094 153.777344 C 214.425781 153.78125 214.210938 153.777344 214.28125 153.785156 Z M 214.28125 153.785156 " fill-opacity="1" fill-rule="evenodd"/><path fill="#000000" d="M 199.5 149.65625 C 199.871094 149.65625 200.171875 150.695312 200.171875 151.984375 C 200.171875 153.269531 199.871094 154.308594 199.5 154.308594 C 199.132812 154.308594 198.832031 153.269531 198.832031 151.984375 C 198.832031 150.695312 199.132812 149.65625 199.5 149.65625 Z M 199.5 149.65625 " fill-opacity="1" fill-rule="evenodd"/><path fill="#000000" d="M 214.472656 145.027344 C 215.035156 145.027344 215.492188 146.304688 215.492188 147.878906 C 215.492188 149.453125 215.035156 150.730469 214.472656 150.730469 C 213.910156 150.730469 213.453125 149.453125 213.453125 147.878906 C 213.453125 146.304688 213.910156 145.027344 214.472656 145.027344 Z M 214.472656 145.027344 " fill-opacity="1" fill-rule="evenodd"/><path fill="#000000" d="M 232.324219 146.460938 C 232.5 146.328125 232.664062 146.199219 232.816406 146.074219 C 232.941406 145.972656 233.0625 145.867188 233.1875 145.757812 C 233.394531 145.300781 233.636719 144.910156 233.90625 144.605469 C 234.203125 144.273438 234.535156 144.039062 234.890625 143.925781 L 234.894531 143.925781 C 234.96875 143.902344 235.046875 143.886719 235.125 143.875 L 235.128906 143.871094 C 235.207031 143.859375 235.285156 143.855469 235.363281 143.855469 C 236.246094 143.855469 237.019531 144.589844 237.550781 145.78125 C 238.042969 146.878906 238.347656 148.386719 238.347656 150.039062 C 238.347656 151.695312 238.042969 153.199219 237.550781 154.296875 C 237.019531 155.488281 236.246094 156.226562 235.363281 156.226562 C 235.332031 156.226562 235.296875 156.222656 235.253906 156.222656 C 235.21875 156.21875 235.179688 156.214844 235.144531 156.210938 L 234.898438 156.175781 L 234.828125 155.941406 C 234.378906 154.425781 233.792969 152.449219 233.214844 150.476562 C 232.8125 149.09375 232.445312 147.808594 232.183594 146.867188 L 232.113281 146.617188 Z M 233.300781 146.664062 C 233.199219 146.746094 233.097656 146.832031 232.988281 146.914062 C 233.246094 147.839844 233.585938 149.015625 233.949219 150.261719 C 234.429688 151.90625 235.003906 153.839844 235.484375 155.449219 C 235.992188 155.378906 236.476562 154.832031 236.855469 153.988281 C 237.304688 152.984375 237.582031 151.589844 237.582031 150.039062 C 237.582031 148.492188 237.304688 147.09375 236.855469 146.09375 C 236.449219 145.183594 235.917969 144.621094 235.363281 144.621094 C 235.324219 144.621094 235.28125 144.625 235.242188 144.628906 C 235.203125 144.632812 235.160156 144.644531 235.121094 144.65625 L 235.117188 144.65625 C 234.898438 144.726562 234.679688 144.882812 234.476562 145.113281 C 234.246094 145.371094 234.035156 145.722656 233.851562 146.140625 L 233.820312 146.21875 L 233.757812 146.273438 C 233.625 146.394531 233.472656 146.523438 233.300781 146.664062 Z M 233.300781 146.664062 " fill-opacity="1" fill-rule="nonzero"/><path fill="#000000" d="M 235.292969 155.839844 L 236.75 155.9375 C 236.769531 155.941406 236.789062 155.941406 236.808594 155.945312 L 236.8125 155.945312 C 236.828125 155.945312 236.84375 155.945312 236.859375 155.945312 C 238.296875 155.945312 239.460938 153.347656 239.460938 150.140625 C 239.460938 146.9375 238.242188 144.40625 236.8125 144.292969 C 236.246094 144.25 235.972656 144.222656 235.320312 144.238281 C 235.769531 144.21875 236.042969 144.4375 236.1875 144.535156 C 237.222656 145.304688 237.964844 147.476562 237.964844 150.039062 C 237.964844 152.621094 237.207031 154.8125 236.164062 155.5625 L 236.046875 155.640625 C 236.03125 155.648438 236.019531 155.65625 236.007812 155.664062 L 235.933594 155.703125 L 235.75 155.78125 L 235.644531 155.808594 L 235.507812 155.835938 C 235.4375 155.835938 235.222656 155.835938 235.292969 155.839844 Z M 235.292969 155.839844 " fill-opacity="1" fill-rule="evenodd"/><path fill="#000000" d="M 223.207031 149.40625 L 222.941406 184.453125 L 236.976562 184.453125 L 230.363281 149.941406 Z M 230.082031 150.667969 L 229.492188 151.277344 L 235.089844 183.6875 L 236.054688 183.675781 Z M 223.773438 150 L 229.671875 150.34375 L 229.023438 151.015625 L 223.742188 150.703125 Z M 223.773438 150 " fill-opacity="1" fill-rule="evenodd"/><path fill="#000000" d="M 215.625 178.304688 C 216.105469 178.804688 216.511719 179.492188 216.792969 180.429688 C 217.074219 181.347656 217.234375 182.507812 217.234375 183.964844 C 217.234375 185.433594 216.796875 187.011719 216.171875 188.230469 C 215.503906 189.539062 214.59375 190.453125 213.730469 190.453125 C 212.109375 190.453125 210.796875 187.632812 210.796875 184.15625 L 210.800781 184.15625 L 210.65625 176.238281 L 210.128906 175.113281 L 205.800781 173.421875 L 205.753906 173.40625 L 205.710938 173.371094 L 202.8125 171.191406 C 202.195312 170.828125 201.671875 170.125 201.308594 169.21875 C 200.96875 168.359375 200.765625 167.304688 200.765625 166.171875 C 200.765625 163.238281 202.523438 160.863281 203.832031 160.863281 C 204.488281 160.863281 205.097656 161.003906 205.613281 161.300781 C 206.105469 161.585938 206.503906 162.007812 206.777344 162.585938 L 206.78125 162.589844 C 206.804688 162.640625 206.9375 162.957031 207.144531 163.445312 C 207.792969 164.980469 209.167969 168.242188 210.085938 170.175781 C 211.261719 172.660156 214.410156 176.667969 214.421875 176.679688 L 214.425781 176.6875 Z M 216.0625 180.648438 C 215.816406 179.832031 215.46875 179.238281 215.058594 178.820312 L 215.042969 178.804688 L 215.027344 178.78125 L 213.8125 177.144531 C 213.667969 176.957031 210.578125 173.003906 209.394531 170.503906 C 208.484375 168.582031 207.09375 165.289062 206.441406 163.742188 C 206.246094 163.28125 206.117188 162.976562 206.089844 162.917969 L 206.089844 162.914062 L 206.085938 162.910156 C 205.882812 162.484375 205.589844 162.171875 205.230469 161.960938 C 204.835938 161.734375 204.359375 161.628906 203.832031 161.628906 C 202.851562 161.628906 201.53125 163.664062 201.53125 166.171875 C 201.53125 167.210938 201.714844 168.167969 202.019531 168.9375 C 202.320312 169.691406 202.738281 170.261719 203.210938 170.539062 L 203.449219 170.675781 L 203.441406 170.710938 L 206.125 172.730469 L 210.546875 174.453125 L 210.691406 174.507812 L 210.753906 174.648438 L 211.382812 175.988281 L 211.414062 176.0625 L 211.417969 176.144531 L 211.5625 184.152344 L 211.566406 184.15625 C 211.566406 187.210938 212.535156 189.6875 213.730469 189.6875 C 214.285156 189.6875 214.949219 188.945312 215.492188 187.882812 C 216.066406 186.765625 216.46875 185.316406 216.46875 183.964844 C 216.46875 182.582031 216.320312 181.496094 216.0625 180.648438 Z M 216.0625 180.648438 " fill-opacity="1" fill-rule="nonzero"/><path fill="#000000" d="M 217.261719 177.691406 C 217.738281 178.191406 218.144531 178.878906 218.425781 179.8125 C 218.707031 180.734375 218.867188 181.894531 218.867188 183.347656 C 218.867188 184.707031 218.492188 186.273438 218.007812 187.566406 C 217.402344 189.171875 216.566406 190.382812 215.988281 190.382812 C 215.617188 190.382812 215.230469 190.394531 214.890625 190.402344 C 214.285156 190.421875 213.789062 190.433594 213.691406 190.152344 L 213.691406 190.148438 C 213.609375 189.910156 213.691406 189.746094 213.9375 189.660156 C 214.433594 189.488281 215.066406 188.597656 215.585938 187.472656 C 216.097656 186.359375 216.472656 185.046875 216.472656 183.964844 C 216.472656 182.84375 216.320312 181.765625 216.066406 180.851562 C 215.816406 179.957031 215.464844 179.238281 215.058594 178.820312 L 214.9375 178.695312 L 214.9375 178.667969 C 214.359375 177.902344 211.171875 173.644531 210.058594 171.296875 C 209.171875 169.425781 207.449219 165.789062 206.59375 163.984375 L 206.089844 162.921875 L 206.089844 162.917969 L 206.085938 162.910156 C 205.464844 161.714844 203.558594 161.648438 203.554688 161.648438 L 201.234375 161.546875 L 203.464844 160.902344 C 204.074219 160.722656 204.800781 160.574219 205.417969 160.5 C 206.027344 160.421875 206.558594 160.417969 206.820312 160.523438 C 206.894531 160.554688 206.929688 160.566406 206.96875 160.578125 C 207.378906 160.726562 207.839844 160.894531 208.300781 161.75 L 208.308594 161.75 L 208.410156 161.96875 L 208.414062 161.972656 L 208.414062 161.980469 L 208.917969 163.039062 C 209.773438 164.847656 211.496094 168.484375 212.382812 170.351562 C 213.535156 172.789062 217.042969 177.410156 217.261719 177.691406 Z M 217.695312 180.035156 C 217.449219 179.214844 217.101562 178.625 216.695312 178.207031 L 216.570312 178.078125 L 216.570312 178.050781 C 215.992188 177.285156 212.804688 173.027344 211.691406 170.679688 C 210.804688 168.808594 209.082031 165.171875 208.226562 163.367188 L 207.824219 162.515625 L 207.71875 162.296875 C 207.359375 161.53125 207.015625 161.40625 206.710938 161.296875 C 206.636719 161.273438 206.566406 161.246094 206.535156 161.234375 C 206.398438 161.179688 206.003906 161.195312 205.511719 161.257812 C 205.441406 161.265625 205.371094 161.277344 205.300781 161.285156 C 205.804688 161.507812 206.3125 161.84375 206.652344 162.367188 L 206.675781 162.367188 L 206.777344 162.585938 L 206.78125 162.589844 L 206.78125 162.59375 L 207.285156 163.65625 C 208.140625 165.460938 209.863281 169.097656 210.75 170.96875 C 211.902344 173.40625 215.414062 178.027344 215.628906 178.308594 C 216.113281 178.820312 216.523438 179.644531 216.800781 180.644531 C 217.074219 181.617188 217.234375 182.769531 217.234375 183.964844 C 217.234375 185.164062 216.832031 186.59375 216.28125 187.792969 C 215.949219 188.515625 215.550781 189.160156 215.148438 189.632812 C 215.457031 189.625 215.769531 189.617188 215.988281 189.617188 C 216.246094 189.617188 216.792969 188.617188 217.289062 187.296875 C 217.746094 186.082031 218.101562 184.613281 218.101562 183.347656 C 218.101562 181.964844 217.953125 180.878906 217.695312 180.035156 Z M 217.695312 180.035156 " fill-opacity="1" fill-rule="nonzero"/><path fill="#000000" d="M 204.757812 163.199219 C 205.367188 163.394531 205.46875 164.792969 204.980469 166.324219 C 204.496094 167.851562 203.605469 168.933594 202.992188 168.738281 C 202.378906 168.542969 202.28125 167.144531 202.765625 165.617188 C 203.253906 164.089844 204.144531 163.007812 204.757812 163.199219 Z M 204.757812 163.199219 " fill-opacity="1" fill-rule="evenodd"/><path fill="#000000" d="M 214.101562 179.964844 C 214.945312 179.988281 215.582031 181.714844 215.527344 183.824219 C 215.46875 185.933594 214.742188 187.625 213.898438 187.601562 C 213.054688 187.582031 212.414062 185.851562 212.472656 183.742188 C 212.527344 181.632812 213.257812 179.941406 214.101562 179.964844 Z M 214.101562 179.964844 " fill-opacity="1" fill-rule="evenodd"/><path fill="#c6c6c6" d="M 203.671875 120.300781 C 203.671875 120.300781 203.628906 118.511719 204.253906 118.199219 C 204.878906 117.886719 205.683594 117.484375 206.042969 117.617188 C 206.398438 117.753906 223.746094 143.546875 223.746094 143.546875 L 219.050781 142.878906 Z M 203.671875 120.300781 " fill-opacity="1" fill-rule="evenodd"/><path fill="#c6c6c6" d="M 148.585938 165.503906 C 148.585938 165.503906 149.144531 166.015625 150.148438 165.703125 C 150.214844 161.367188 151.800781 150.449219 151.800781 150.449219 L 150.347656 150.40625 L 150.214844 150.070312 Z M 148.585938 165.503906 " fill-opacity="1" fill-rule="evenodd"/><path fill="#c6c6c6" d="M 165.15625 151.644531 L 163.324219 155.363281 L 161.96875 166.117188 C 161.96875 166.117188 162.386719 166.441406 162.589844 166.464844 C 162.789062 166.484375 163.414062 166.335938 163.414062 166.335938 Z M 165.15625 151.644531 " fill-opacity="1" fill-rule="evenodd"/><path fill="#c6c6c6" d="M 166.65625 170.195312 L 177.074219 170.734375 C 177.933594 170.777344 178.582031 171.4375 178.636719 172.292969 L 179.351562 183.332031 L 176.792969 194.078125 L 168.285156 193.84375 C 167.429688 193.820312 166.625 192.539062 166.582031 191.679688 L 165.507812 171.761719 C 165.460938 170.902344 165.796875 170.152344 166.65625 170.195312 Z M 166.65625 170.195312 " fill-opacity="1" fill-rule="evenodd"/><path fill="#c6c6c6" d="M 129.773438 204.9375 C 129.773438 204.9375 129.941406 204.785156 130.140625 205.824219 L 141.875 205.824219 C 141.765625 205.234375 141.609375 205.171875 141.292969 204.800781 C 141.292969 204.800781 129.773438 204.9375 129.773438 204.9375 Z M 130.292969 206.671875 C 130.347656 207.003906 130.402344 207.359375 130.453125 207.738281 L 142.175781 207.738281 C 142.132812 207.386719 142.082031 207.03125 142.023438 206.671875 Z M 130.558594 208.589844 C 130.585938 208.808594 130.609375 209.039062 130.632812 209.269531 L 142.335938 209.269531 C 142.316406 209.046875 142.296875 208.816406 142.273438 208.589844 Z M 130.703125 210.121094 C 130.722656 210.40625 130.742188 210.699219 130.757812 210.996094 L 142.429688 210.996094 C 142.421875 210.707031 142.410156 210.417969 142.394531 210.121094 Z M 130.785156 211.84375 C 130.796875 212.316406 130.796875 212.800781 130.785156 213.292969 L 142.425781 213.292969 C 142.441406 212.828125 142.449219 212.34375 142.445312 211.84375 Z M 130.753906 214.144531 C 130.734375 214.558594 130.703125 214.976562 130.660156 215.402344 L 142.296875 215.402344 C 142.332031 215 142.363281 214.578125 142.390625 214.144531 Z M 130.5625 216.25 C 130.527344 216.542969 130.480469 216.832031 130.433594 217.125 L 142.097656 217.125 C 142.136719 216.847656 142.171875 216.554688 142.207031 216.25 Z M 130.273438 217.972656 C 130.199219 218.332031 130.117188 218.6875 130.023438 219.039062 L 141.769531 219.039062 C 141.832031 218.730469 141.898438 218.375 141.964844 217.972656 Z M 129.777344 219.890625 C 129.71875 220.074219 129.34375 221.285156 129.28125 221.46875 C 129.28125 221.46875 141.015625 221.402344 141.015625 221.402344 C 141.015625 221.402344 141.496094 220.25 141.582031 219.890625 Z M 129.777344 219.890625 " fill-opacity="1" fill-rule="evenodd"/><path fill="#ffffff" d="M 166.019531 181.253906 C 166.566406 180.292969 167.652344 178.53125 168.152344 177.582031 C 169.238281 175.519531 170.429688 172 172.605469 170.503906 L 177.074219 170.734375 C 177.933594 170.777344 178.582031 171.4375 178.636719 172.292969 L 178.75 174.015625 C 178.320312 174.507812 177.886719 175.136719 177.542969 175.972656 C 176.757812 177.871094 172.082031 178.695312 170.566406 181.960938 C 169.800781 183.613281 167.636719 184.257812 166.242188 185.386719 Z M 166.304688 186.5625 C 167.097656 186.25 168.089844 185.699219 168.464844 185.359375 C 170.988281 183.097656 175.304688 182.058594 177.898438 180.488281 C 178.371094 180.199219 178.78125 179.992188 179.125 179.847656 L 179.253906 181.828125 C 179.152344 181.902344 179.042969 181.976562 178.925781 182.050781 C 174.480469 184.910156 170.742188 188.257812 167.125 192.15625 C 167.011719 192.277344 166.902344 192.390625 166.796875 192.496094 C 166.671875 192.214844 166.59375 191.929688 166.582031 191.679688 Z M 166.304688 186.5625 " fill-opacity="1" fill-rule="evenodd"/><g fill="#000000" fill-opacity="1"><g transform="translate(123.689558, 282.427602)"><g><path d="M 1.5 -4.15625 L 4.484375 -4.96875 L 4.484375 -20.484375 C 4.484375 -21.191406 4.425781 -21.660156 4.3125 -21.890625 C 4.207031 -22.117188 3.925781 -22.328125 3.46875 -22.515625 L 1.34375 -23.703125 L 1.59375 -27 C 3.65625 -27.320312 5.609375 -27.554688 7.453125 -27.703125 C 9.296875 -27.859375 11.273438 -27.9375 13.390625 -27.9375 C 16.328125 -27.9375 18.679688 -27.625 20.453125 -27 C 22.234375 -26.375 23.535156 -25.394531 24.359375 -24.0625 C 25.191406 -22.726562 25.609375 -20.960938 25.609375 -18.765625 C 25.609375 -15.921875 24.582031 -13.679688 22.53125 -12.046875 C 20.488281 -10.421875 17.6875 -9.609375 14.125 -9.609375 L 11.890625 -9.6875 L 11.890625 -6.59375 C 11.890625 -5.945312 11.9375 -5.523438 12.03125 -5.328125 C 12.125 -5.140625 12.363281 -4.953125 12.75 -4.765625 L 15.234375 -3.296875 L 15.0625 0 L 1.703125 0 Z M 14.5 -14.125 C 15.957031 -14.125 17.03125 -14.273438 17.71875 -14.578125 C 18.007812 -15.910156 18.15625 -17.304688 18.15625 -18.765625 C 18.15625 -20.367188 17.847656 -21.507812 17.234375 -22.1875 C 16.628906 -22.863281 15.648438 -23.203125 14.296875 -23.203125 C 13.828125 -23.203125 13.023438 -23.148438 11.890625 -23.046875 L 11.890625 -14.375 C 12.617188 -14.207031 13.488281 -14.125 14.5 -14.125 Z M 14.5 -14.125 "/></g></g></g><g fill="#000000" fill-opacity="1"><g transform="translate(148.353835, 282.427602)"><g><path d="M 13.890625 0.609375 C 9.765625 0.609375 6.585938 -0.648438 4.359375 -3.171875 C 2.128906 -5.703125 1.015625 -9.273438 1.015625 -13.890625 C 1.015625 -16.816406 1.550781 -19.34375 2.625 -21.46875 C 3.695312 -23.601562 5.25 -25.234375 7.28125 -26.359375 C 9.320312 -27.492188 11.738281 -28.0625 14.53125 -28.0625 C 17.707031 -28.0625 20.976562 -27.335938 24.34375 -25.890625 C 24.101562 -23.453125 23.710938 -20.753906 23.171875 -17.796875 L 20.078125 -17.59375 L 17.265625 -21.703125 C 16.066406 -22.054688 14.75 -22.234375 13.3125 -22.234375 C 12.226562 -22.234375 11.195312 -22.140625 10.21875 -21.953125 C 9.78125 -21.109375 9.425781 -19.992188 9.15625 -18.609375 C 8.882812 -17.222656 8.75 -15.828125 8.75 -14.421875 C 8.75 -11.398438 9.296875 -9.160156 10.390625 -7.703125 C 11.492188 -6.253906 13.242188 -5.503906 15.640625 -5.453125 C 16.585938 -5.453125 17.785156 -5.59375 19.234375 -5.875 C 20.691406 -6.164062 22.113281 -6.539062 23.5 -7 L 24.75 -2.53125 C 23.34375 -1.601562 21.640625 -0.847656 19.640625 -0.265625 C 17.648438 0.316406 15.734375 0.609375 13.890625 0.609375 Z M 13.890625 0.609375 "/></g></g></g><g fill="#000000" fill-opacity="1"><g transform="translate(172.855313, 282.427602)"><g><path d="M 0.65625 -3.625 L 1.90625 -4.390625 L 11.4375 -27.484375 L 18.359375 -28.09375 L 26.515625 -6.109375 C 26.785156 -5.398438 26.972656 -4.9375 27.078125 -4.71875 C 27.179688 -4.5 27.382812 -4.203125 27.6875 -3.828125 L 28.421875 -2.890625 L 28.171875 0 L 16.734375 0 L 16.328125 -3.875 L 19.21875 -4.59375 L 17.921875 -8.71875 L 9.65625 -8.59375 L 8.75 -6.03125 C 8.664062 -5.78125 8.625 -5.578125 8.625 -5.421875 C 8.625 -5.222656 8.660156 -5.078125 8.734375 -4.984375 C 8.804688 -4.890625 8.921875 -4.816406 9.078125 -4.765625 L 11.890625 -3.578125 L 11.484375 0 L 0.8125 0 Z M 13.96875 -21.140625 L 11.28125 -13.3125 L 16.53125 -13.078125 Z M 13.96875 -21.140625 "/></g></g></g><g fill="#000000" fill-opacity="1"><g transform="translate(200.165188, 282.427602)"><g><path d="M 1.5 -4.15625 L 4.484375 -4.96875 L 4.484375 -20.484375 C 4.484375 -21.191406 4.425781 -21.660156 4.3125 -21.890625 C 4.207031 -22.117188 3.925781 -22.328125 3.46875 -22.515625 L 1.34375 -23.703125 L 1.59375 -27.03125 C 5.664062 -27.632812 9.585938 -27.9375 13.359375 -27.9375 C 16.285156 -27.9375 18.644531 -27.644531 20.4375 -27.0625 C 22.226562 -26.476562 23.535156 -25.566406 24.359375 -24.328125 C 25.191406 -23.097656 25.609375 -21.460938 25.609375 -19.421875 C 25.609375 -17.734375 25.171875 -16.257812 24.296875 -15 C 23.429688 -13.738281 22.203125 -12.769531 20.609375 -12.09375 L 27.125 -1.59375 L 27.078125 0 L 19.671875 0 L 13.640625 -10.875 L 11.84375 -10.90625 L 11.84375 -6.359375 C 11.84375 -5.703125 11.890625 -5.285156 11.984375 -5.109375 C 12.085938 -4.929688 12.328125 -4.734375 12.703125 -4.515625 L 14.453125 -3.5 L 14.296875 0 L 1.703125 0 Z M 14.453125 -15.46875 C 15.890625 -15.46875 16.945312 -15.601562 17.625 -15.875 C 17.894531 -16.851562 18.03125 -18.019531 18.03125 -19.375 C 18.03125 -20.738281 17.738281 -21.703125 17.15625 -22.265625 C 16.570312 -22.835938 15.601562 -23.125 14.25 -23.125 C 13.488281 -23.125 12.71875 -23.082031 11.9375 -23 L 11.9375 -15.71875 C 12.632812 -15.550781 13.472656 -15.46875 14.453125 -15.46875 Z M 14.453125 -15.46875 "/></g></g></g><g fill="#000000" fill-opacity="1"><g transform="translate(225.928407, 282.427602)"><g><path d="M 1.09375 -4.15625 L 4.078125 -4.96875 L 4.078125 -20.5625 C 4.078125 -21.269531 4.019531 -21.738281 3.90625 -21.96875 C 3.800781 -22.195312 3.515625 -22.40625 3.046875 -22.59375 L 1.015625 -23.78125 L 1.140625 -27.4375 L 23.25 -27.4375 C 23.4375 -24.59375 23.53125 -21.8125 23.53125 -19.09375 L 20.515625 -18.890625 L 17.625 -22.484375 L 11.484375 -22.640625 L 11.484375 -16 L 20.15625 -16.734375 L 20.15625 -10.46875 L 11.484375 -11.40625 L 11.484375 -4.84375 L 18.234375 -4.96875 L 21.375 -8.546875 L 24.390625 -8.34375 C 24.285156 -5.5 24.082031 -2.71875 23.78125 0 L 1.296875 0 Z M 1.09375 -4.15625 "/></g></g></g><g fill="#703900" fill-opacity="1"><g transform="translate(73.011114, 306.629929)"><g><path d="M 3.8125 0.0625 C 2.75 0.0625 1.6875 0.0195312 0.625 -0.0625 L 0.546875 -1.5 L 1.625 -1.796875 L 1.625 -7.421875 C 1.625 -7.679688 1.601562 -7.851562 1.5625 -7.9375 C 1.519531 -8.019531 1.414062 -8.097656 1.25 -8.171875 L 0.484375 -8.59375 L 0.578125 -9.8125 C 2.171875 -10.019531 3.539062 -10.125 4.6875 -10.125 C 6.082031 -10.125 7.101562 -9.914062 7.75 -9.5 C 8.394531 -9.09375 8.71875 -8.441406 8.71875 -7.546875 C 8.71875 -7.097656 8.648438 -6.703125 8.515625 -6.359375 C 8.378906 -6.023438 8.171875 -5.722656 7.890625 -5.453125 C 8.867188 -5.003906 9.359375 -4.285156 9.359375 -3.296875 C 9.359375 -2.410156 9.113281 -1.695312 8.625 -1.15625 C 8.132812 -0.613281 7.410156 -0.257812 6.453125 -0.09375 C 6.097656 0.0078125 5.21875 0.0625 3.8125 0.0625 Z M 5.984375 -5.921875 C 6.078125 -6.179688 6.125 -6.609375 6.125 -7.203125 C 6.125 -7.617188 6.023438 -7.925781 5.828125 -8.125 C 5.640625 -8.320312 5.351562 -8.429688 4.96875 -8.453125 C 4.707031 -8.453125 4.445312 -8.441406 4.1875 -8.421875 L 4.1875 -5.953125 C 4.351562 -5.960938 4.570312 -5.96875 4.84375 -5.96875 C 5.25 -5.96875 5.628906 -5.953125 5.984375 -5.921875 Z M 5.359375 -1.765625 C 5.921875 -1.765625 6.320312 -1.816406 6.5625 -1.921875 C 6.65625 -2.316406 6.703125 -2.664062 6.703125 -2.96875 C 6.703125 -3.457031 6.570312 -3.804688 6.3125 -4.015625 C 6.0625 -4.222656 5.628906 -4.328125 5.015625 -4.328125 C 4.890625 -4.328125 4.726562 -4.316406 4.53125 -4.296875 L 4.1875 -4.28125 L 4.1875 -1.875 C 4.53125 -1.800781 4.921875 -1.765625 5.359375 -1.765625 Z M 5.359375 -1.765625 "/></g></g></g><g fill="#703900" fill-opacity="1"><g transform="translate(85.642834, 306.629929)"><g><path d="M 3.828125 0.171875 C 2.671875 0.171875 1.78125 -0.175781 1.15625 -0.875 C 0.53125 -1.570312 0.21875 -2.535156 0.21875 -3.765625 C 0.21875 -4.617188 0.367188 -5.351562 0.671875 -5.96875 C 0.984375 -6.582031 1.414062 -7.050781 1.96875 -7.375 C 2.53125 -7.707031 3.1875 -7.875 3.9375 -7.875 C 5.050781 -7.875 5.90625 -7.519531 6.5 -6.8125 C 7.09375 -6.101562 7.378906 -5.09375 7.359375 -3.78125 L 2.859375 -2.953125 C 3.003906 -2.535156 3.203125 -2.226562 3.453125 -2.03125 C 3.703125 -1.84375 4.03125 -1.75 4.4375 -1.75 C 4.726562 -1.75 5.066406 -1.789062 5.453125 -1.875 C 5.847656 -1.96875 6.25 -2.085938 6.65625 -2.234375 L 7 -0.765625 C 6.632812 -0.492188 6.160156 -0.269531 5.578125 -0.09375 C 4.992188 0.0820312 4.410156 0.171875 3.828125 0.171875 Z M 4.9375 -5.015625 C 4.914062 -5.390625 4.804688 -5.660156 4.609375 -5.828125 C 4.421875 -6.003906 4.15625 -6.09375 3.8125 -6.09375 C 3.519531 -6.09375 3.25 -6.054688 3 -5.984375 C 2.789062 -5.492188 2.695312 -4.972656 2.71875 -4.421875 Z M 4.9375 -5.015625 "/></g></g></g><g fill="#703900" fill-opacity="1"><g transform="translate(96.400724, 306.629929)"><g><path d="M 3.109375 0.25 C 2.335938 0.25 1.4375 0.113281 0.40625 -0.15625 C 0.46875 -1.125 0.535156 -1.835938 0.609375 -2.296875 L 1.453125 -2.46875 L 2.375 -1.484375 C 2.695312 -1.378906 3.0625 -1.328125 3.46875 -1.328125 C 3.695312 -1.328125 3.875 -1.34375 4 -1.375 C 4.03125 -1.445312 4.046875 -1.554688 4.046875 -1.703125 C 4.046875 -1.816406 4.019531 -1.910156 3.96875 -1.984375 C 3.914062 -2.066406 3.796875 -2.160156 3.609375 -2.265625 C 3.421875 -2.378906 3.09375 -2.550781 2.625 -2.78125 C 2.039062 -3.082031 1.597656 -3.351562 1.296875 -3.59375 C 0.992188 -3.832031 0.773438 -4.078125 0.640625 -4.328125 C 0.503906 -4.585938 0.4375 -4.894531 0.4375 -5.25 C 0.4375 -6.039062 0.726562 -6.664062 1.3125 -7.125 C 1.90625 -7.59375 2.703125 -7.828125 3.703125 -7.828125 C 4.117188 -7.828125 4.554688 -7.78125 5.015625 -7.6875 C 5.472656 -7.59375 5.882812 -7.46875 6.25 -7.3125 C 6.25 -6.664062 6.203125 -5.953125 6.109375 -5.171875 L 5.34375 -5.046875 L 4.359375 -6.109375 C 4.097656 -6.191406 3.722656 -6.234375 3.234375 -6.234375 C 3.148438 -6.234375 2.992188 -6.222656 2.765625 -6.203125 C 2.734375 -6.140625 2.71875 -6.046875 2.71875 -5.921875 C 2.71875 -5.785156 2.753906 -5.664062 2.828125 -5.5625 C 2.910156 -5.457031 3.050781 -5.34375 3.25 -5.21875 C 3.457031 -5.09375 3.78125 -4.921875 4.21875 -4.703125 C 4.875 -4.378906 5.363281 -4.101562 5.6875 -3.875 C 6.019531 -3.644531 6.25 -3.410156 6.375 -3.171875 C 6.507812 -2.929688 6.578125 -2.644531 6.578125 -2.3125 C 6.578125 -1.507812 6.269531 -0.878906 5.65625 -0.421875 C 5.039062 0.0234375 4.191406 0.25 3.109375 0.25 Z M 3.109375 0.25 "/></g></g></g><g fill="#703900" fill-opacity="1"><g transform="translate(106.273353, 306.629929)"><g><path d="M 3.28125 0.1875 C 2.414062 0.1875 1.773438 -0.0234375 1.359375 -0.453125 C 0.941406 -0.878906 0.734375 -1.53125 0.734375 -2.40625 L 0.734375 -6 L -0.296875 -6 L -0.296875 -7.078125 L 2.359375 -9.5 L 3.21875 -9.390625 L 3.21875 -7.71875 L 5.703125 -7.71875 L 5.703125 -5.984375 L 3.21875 -5.984375 L 3.21875 -2.9375 C 3.21875 -2.46875 3.285156 -2.148438 3.421875 -1.984375 C 3.554688 -1.828125 3.8125 -1.75 4.1875 -1.75 C 4.519531 -1.75 4.972656 -1.796875 5.546875 -1.890625 L 5.734375 -0.390625 C 5.378906 -0.222656 4.984375 -0.0859375 4.546875 0.015625 C 4.109375 0.128906 3.6875 0.1875 3.28125 0.1875 Z M 3.28125 0.1875 "/></g></g></g><g fill="#703900" fill-opacity="1"><g transform="translate(115.482022, 306.629929)"><g/></g></g><g fill="#703900" fill-opacity="1"><g transform="translate(121.592242, 306.629929)"><g><path d="M 3.359375 -6.53125 L 3.046875 -2.15625 L 3.046875 -2.09375 C 3.046875 -1.90625 3.113281 -1.785156 3.25 -1.734375 L 4.15625 -1.34375 L 4.015625 0 L 0.34375 0 L 0.1875 -1.3125 L 0.875 -1.734375 L 1.71875 -7.421875 C 1.726562 -7.492188 1.734375 -7.578125 1.734375 -7.671875 C 1.734375 -7.796875 1.703125 -7.882812 1.640625 -7.9375 C 1.585938 -8 1.488281 -8.078125 1.34375 -8.171875 L 0.671875 -8.546875 L 0.75 -9.953125 L 4.984375 -9.953125 L 7.109375 -3.078125 L 9.203125 -9.953125 L 13.15625 -9.953125 L 13.21875 -8.40625 L 12.265625 -8.171875 L 13.0625 -2.375 C 13.09375 -2.175781 13.132812 -2.019531 13.1875 -1.90625 C 13.25 -1.800781 13.375 -1.628906 13.5625 -1.390625 L 13.875 -0.984375 L 13.796875 0 L 9.390625 0 L 9.265625 -1.359375 L 10.46875 -1.671875 L 9.96875 -6.609375 L 8.078125 0.0625 L 5.546875 0.28125 Z M 3.359375 -6.53125 "/></g></g></g><g fill="#703900" fill-opacity="1"><g transform="translate(138.709329, 306.629929)"><g><path d="M 0.984375 -10.921875 L 3.5 -11.59375 L 4.109375 -9.34375 L 1.609375 -8.671875 Z M 0.375 -1.359375 L 1.40625 -1.671875 L 1.40625 -5.25 C 1.40625 -5.46875 1.382812 -5.609375 1.34375 -5.671875 C 1.3125 -5.734375 1.226562 -5.804688 1.09375 -5.890625 L 0.4375 -6.25 L 0.515625 -7.359375 C 1.335938 -7.515625 1.972656 -7.628906 2.421875 -7.703125 C 2.867188 -7.773438 3.273438 -7.816406 3.640625 -7.828125 C 3.773438 -7.398438 3.859375 -7.082031 3.890625 -6.875 L 3.890625 -2.15625 C 3.890625 -1.945312 3.898438 -1.804688 3.921875 -1.734375 C 3.953125 -1.671875 4.035156 -1.597656 4.171875 -1.515625 L 4.90625 -1.109375 L 4.84375 0 L 0.40625 0 Z M 0.375 -1.359375 "/></g></g></g><g fill="#703900" fill-opacity="1"><g transform="translate(146.899938, 306.629929)"><g><path d="M 0.390625 -1.421875 L 1.296875 -1.6875 L 1.296875 -5.25 C 1.296875 -5.46875 1.28125 -5.609375 1.25 -5.671875 C 1.21875 -5.734375 1.140625 -5.804688 1.015625 -5.890625 L 0.375 -6.25 L 0.40625 -7.359375 L 0.734375 -7.40625 C 2.023438 -7.664062 2.957031 -7.804688 3.53125 -7.828125 C 3.601562 -7.617188 3.664062 -7.390625 3.71875 -7.140625 C 4.320312 -7.421875 4.8125 -7.613281 5.1875 -7.71875 C 5.570312 -7.820312 5.929688 -7.875 6.265625 -7.875 C 7.828125 -7.875 8.609375 -6.9375 8.609375 -5.0625 L 8.609375 -2.171875 C 8.609375 -1.960938 8.625 -1.820312 8.65625 -1.75 C 8.6875 -1.6875 8.769531 -1.613281 8.90625 -1.53125 L 9.609375 -1.125 L 9.546875 -0.015625 L 5.484375 -0.015625 L 5.40625 -1.421875 L 6.125 -1.625 L 6.125 -4.421875 C 6.125 -4.859375 6.109375 -5.164062 6.078125 -5.34375 C 6.054688 -5.519531 5.976562 -5.65625 5.84375 -5.75 C 5.707031 -5.851562 5.472656 -5.90625 5.140625 -5.90625 C 4.785156 -5.90625 4.335938 -5.851562 3.796875 -5.75 L 3.796875 -2.171875 C 3.796875 -1.960938 3.8125 -1.820312 3.84375 -1.75 C 3.875 -1.6875 3.953125 -1.613281 4.078125 -1.53125 L 4.796875 -1.125 L 4.734375 -0.015625 L 0.453125 -0.015625 Z M 0.390625 -1.421875 "/></g></g></g><g fill="#703900" fill-opacity="1"><g transform="translate(159.708702, 306.629929)"><g><path d="M 0.984375 -10.921875 L 3.5 -11.59375 L 4.109375 -9.34375 L 1.609375 -8.671875 Z M 0.375 -1.359375 L 1.40625 -1.671875 L 1.40625 -5.25 C 1.40625 -5.46875 1.382812 -5.609375 1.34375 -5.671875 C 1.3125 -5.734375 1.226562 -5.804688 1.09375 -5.890625 L 0.4375 -6.25 L 0.515625 -7.359375 C 1.335938 -7.515625 1.972656 -7.628906 2.421875 -7.703125 C 2.867188 -7.773438 3.273438 -7.816406 3.640625 -7.828125 C 3.773438 -7.398438 3.859375 -7.082031 3.890625 -6.875 L 3.890625 -2.15625 C 3.890625 -1.945312 3.898438 -1.804688 3.921875 -1.734375 C 3.953125 -1.671875 4.035156 -1.597656 4.171875 -1.515625 L 4.90625 -1.109375 L 4.84375 0 L 0.40625 0 Z M 0.375 -1.359375 "/></g></g></g><g fill="#703900" fill-opacity="1"><g transform="translate(167.899312, 306.629929)"><g><path d="M 0.390625 -1.421875 L 1.296875 -1.6875 L 1.296875 -5.25 C 1.296875 -5.46875 1.28125 -5.609375 1.25 -5.671875 C 1.21875 -5.734375 1.140625 -5.804688 1.015625 -5.890625 L 0.375 -6.25 L 0.40625 -7.359375 L 0.734375 -7.40625 C 2.023438 -7.664062 2.957031 -7.804688 3.53125 -7.828125 C 3.601562 -7.617188 3.664062 -7.390625 3.71875 -7.140625 C 4.320312 -7.421875 4.8125 -7.613281 5.1875 -7.71875 C 5.570312 -7.820312 5.929688 -7.875 6.265625 -7.875 C 7.828125 -7.875 8.609375 -6.9375 8.609375 -5.0625 L 8.609375 -2.171875 C 8.609375 -1.960938 8.625 -1.820312 8.65625 -1.75 C 8.6875 -1.6875 8.769531 -1.613281 8.90625 -1.53125 L 9.609375 -1.125 L 9.546875 -0.015625 L 5.484375 -0.015625 L 5.40625 -1.421875 L 6.125 -1.625 L 6.125 -4.421875 C 6.125 -4.859375 6.109375 -5.164062 6.078125 -5.34375 C 6.054688 -5.519531 5.976562 -5.65625 5.84375 -5.75 C 5.707031 -5.851562 5.472656 -5.90625 5.140625 -5.90625 C 4.785156 -5.90625 4.335938 -5.851562 3.796875 -5.75 L 3.796875 -2.171875 C 3.796875 -1.960938 3.8125 -1.820312 3.84375 -1.75 C 3.875 -1.6875 3.953125 -1.613281 4.078125 -1.53125 L 4.796875 -1.125 L 4.734375 -0.015625 L 0.453125 -0.015625 Z M 0.390625 -1.421875 "/></g></g></g><g fill="#703900" fill-opacity="1"><g transform="translate(180.708082, 306.629929)"><g><path d="M 3.421875 3.359375 C 2.296875 3.359375 1.441406 3.179688 0.859375 2.828125 C 0.285156 2.472656 0 1.953125 0 1.265625 C 0 0.535156 0.332031 -0.101562 1 -0.65625 C 0.789062 -0.851562 0.6875 -1.078125 0.6875 -1.328125 C 0.6875 -1.679688 0.921875 -2.179688 1.390625 -2.828125 C 0.578125 -3.253906 0.171875 -3.984375 0.171875 -5.015625 C 0.171875 -5.921875 0.476562 -6.625 1.09375 -7.125 C 1.707031 -7.625 2.597656 -7.875 3.765625 -7.875 C 4.578125 -7.875 5.242188 -7.75 5.765625 -7.5 L 7.546875 -8.046875 L 8.234375 -8.046875 L 8.234375 -5.90625 L 7.09375 -5.90625 C 7.132812 -5.65625 7.15625 -5.414062 7.15625 -5.1875 C 7.15625 -4.28125 6.847656 -3.585938 6.234375 -3.109375 C 5.628906 -2.640625 4.738281 -2.40625 3.5625 -2.40625 C 3.15625 -2.40625 2.789062 -2.4375 2.46875 -2.5 L 2.46875 -2.28125 C 2.46875 -2.125 2.53125 -2.015625 2.65625 -1.953125 C 2.789062 -1.890625 3.082031 -1.828125 3.53125 -1.765625 L 4.859375 -1.578125 C 5.898438 -1.429688 6.617188 -1.175781 7.015625 -0.8125 C 7.421875 -0.445312 7.625 0.0195312 7.625 0.59375 C 7.625 1.476562 7.257812 2.160156 6.53125 2.640625 C 5.800781 3.117188 4.765625 3.359375 3.421875 3.359375 Z M 3.78125 -3.859375 C 3.988281 -3.859375 4.222656 -3.882812 4.484375 -3.9375 C 4.523438 -4.0625 4.5625 -4.238281 4.59375 -4.46875 C 4.632812 -4.707031 4.65625 -4.925781 4.65625 -5.125 C 4.65625 -5.5625 4.554688 -5.890625 4.359375 -6.109375 C 4.171875 -6.328125 3.875 -6.4375 3.46875 -6.4375 C 3.269531 -6.4375 3.050781 -6.40625 2.8125 -6.34375 C 2.769531 -6.226562 2.726562 -6.054688 2.6875 -5.828125 C 2.65625 -5.609375 2.640625 -5.394531 2.640625 -5.1875 C 2.640625 -4.726562 2.734375 -4.390625 2.921875 -4.171875 C 3.109375 -3.960938 3.394531 -3.859375 3.78125 -3.859375 Z M 4.109375 1.703125 C 4.554688 1.703125 4.898438 1.660156 5.140625 1.578125 C 5.203125 1.460938 5.234375 1.304688 5.234375 1.109375 C 5.234375 0.867188 5.144531 0.6875 4.96875 0.5625 C 4.800781 0.445312 4.503906 0.359375 4.078125 0.296875 L 3.609375 0.21875 C 3.171875 0.164062 2.726562 0.0976562 2.28125 0.015625 C 2.226562 0.273438 2.203125 0.488281 2.203125 0.65625 C 2.203125 1.007812 2.359375 1.269531 2.671875 1.4375 C 2.984375 1.613281 3.460938 1.703125 4.109375 1.703125 Z M 4.109375 1.703125 "/></g></g></g><g fill="#703900" fill-opacity="1"><g transform="translate(192.218461, 306.629929)"><g/></g></g><g fill="#703900" fill-opacity="1"><g transform="translate(198.328686, 306.629929)"><g><path d="M 5.03125 0.21875 C 3.539062 0.21875 2.390625 -0.238281 1.578125 -1.15625 C 0.773438 -2.070312 0.375 -3.363281 0.375 -5.03125 C 0.375 -6.09375 0.566406 -7.007812 0.953125 -7.78125 C 1.335938 -8.5625 1.898438 -9.15625 2.640625 -9.5625 C 3.378906 -9.96875 4.253906 -10.171875 5.265625 -10.171875 C 6.421875 -10.171875 7.609375 -9.910156 8.828125 -9.390625 C 8.742188 -8.503906 8.601562 -7.523438 8.40625 -6.453125 L 7.28125 -6.375 L 6.265625 -7.875 C 5.828125 -8 5.347656 -8.0625 4.828125 -8.0625 C 4.429688 -8.0625 4.054688 -8.023438 3.703125 -7.953125 C 3.546875 -7.648438 3.414062 -7.25 3.3125 -6.75 C 3.21875 -6.25 3.171875 -5.742188 3.171875 -5.234375 C 3.171875 -4.140625 3.367188 -3.328125 3.765625 -2.796875 C 4.171875 -2.273438 4.804688 -2.003906 5.671875 -1.984375 C 6.015625 -1.984375 6.445312 -2.03125 6.96875 -2.125 C 7.5 -2.226562 8.015625 -2.367188 8.515625 -2.546875 L 8.984375 -0.921875 C 8.460938 -0.578125 7.84375 -0.300781 7.125 -0.09375 C 6.40625 0.113281 5.707031 0.21875 5.03125 0.21875 Z M 5.03125 0.21875 "/></g></g></g><g fill="#703900" fill-opacity="1"><g transform="translate(210.886628, 306.629929)"><g><path d="M 3.9375 0.1875 C 2.6875 0.1875 1.753906 -0.128906 1.140625 -0.765625 C 0.523438 -1.410156 0.21875 -2.390625 0.21875 -3.703125 C 0.21875 -4.546875 0.375 -5.28125 0.6875 -5.90625 C 1 -6.539062 1.441406 -7.023438 2.015625 -7.359375 C 2.597656 -7.703125 3.285156 -7.875 4.078125 -7.875 C 6.628906 -7.875 7.90625 -6.550781 7.90625 -3.90625 C 7.90625 -2.625 7.554688 -1.617188 6.859375 -0.890625 C 6.160156 -0.171875 5.1875 0.1875 3.9375 0.1875 Z M 4.171875 -1.53125 C 4.367188 -1.53125 4.539062 -1.546875 4.6875 -1.578125 C 4.84375 -1.617188 5.003906 -1.675781 5.171875 -1.75 C 5.222656 -1.976562 5.269531 -2.269531 5.3125 -2.625 C 5.351562 -2.976562 5.375 -3.316406 5.375 -3.640625 C 5.375 -4.441406 5.25 -5.046875 5 -5.453125 C 4.75 -5.867188 4.378906 -6.078125 3.890625 -6.078125 C 3.554688 -6.078125 3.222656 -6.035156 2.890625 -5.953125 C 2.828125 -5.804688 2.773438 -5.566406 2.734375 -5.234375 C 2.691406 -4.898438 2.671875 -4.523438 2.671875 -4.109375 C 2.671875 -3.273438 2.800781 -2.632812 3.0625 -2.1875 C 3.320312 -1.75 3.691406 -1.53125 4.171875 -1.53125 Z M 4.171875 -1.53125 "/></g></g></g><g fill="#703900" fill-opacity="1"><g transform="translate(222.116666, 306.629929)"><g><path d="M 0.390625 -1.421875 L 1.296875 -1.6875 L 1.296875 -5.25 C 1.296875 -5.46875 1.28125 -5.609375 1.25 -5.671875 C 1.21875 -5.734375 1.140625 -5.804688 1.015625 -5.890625 L 0.375 -6.25 L 0.40625 -7.359375 L 0.734375 -7.40625 C 2.023438 -7.664062 2.957031 -7.804688 3.53125 -7.828125 C 3.601562 -7.617188 3.664062 -7.390625 3.71875 -7.140625 C 4.320312 -7.421875 4.8125 -7.613281 5.1875 -7.71875 C 5.570312 -7.820312 5.929688 -7.875 6.265625 -7.875 C 7.828125 -7.875 8.609375 -6.9375 8.609375 -5.0625 L 8.609375 -2.171875 C 8.609375 -1.960938 8.625 -1.820312 8.65625 -1.75 C 8.6875 -1.6875 8.769531 -1.613281 8.90625 -1.53125 L 9.609375 -1.125 L 9.546875 -0.015625 L 5.484375 -0.015625 L 5.40625 -1.421875 L 6.125 -1.625 L 6.125 -4.421875 C 6.125 -4.859375 6.109375 -5.164062 6.078125 -5.34375 C 6.054688 -5.519531 5.976562 -5.65625 5.84375 -5.75 C 5.707031 -5.851562 5.472656 -5.90625 5.140625 -5.90625 C 4.785156 -5.90625 4.335938 -5.851562 3.796875 -5.75 L 3.796875 -2.171875 C 3.796875 -1.960938 3.8125 -1.820312 3.84375 -1.75 C 3.875 -1.6875 3.953125 -1.613281 4.078125 -1.53125 L 4.796875 -1.125 L 4.734375 -0.015625 L 0.453125 -0.015625 Z M 0.390625 -1.421875 "/></g></g></g><g fill="#703900" fill-opacity="1"><g transform="translate(234.925436, 306.629929)"><g><path d="M 3.28125 0.1875 C 2.414062 0.1875 1.773438 -0.0234375 1.359375 -0.453125 C 0.941406 -0.878906 0.734375 -1.53125 0.734375 -2.40625 L 0.734375 -6 L -0.296875 -6 L -0.296875 -7.078125 L 2.359375 -9.5 L 3.21875 -9.390625 L 3.21875 -7.71875 L 5.703125 -7.71875 L 5.703125 -5.984375 L 3.21875 -5.984375 L 3.21875 -2.9375 C 3.21875 -2.46875 3.285156 -2.148438 3.421875 -1.984375 C 3.554688 -1.828125 3.8125 -1.75 4.1875 -1.75 C 4.519531 -1.75 4.972656 -1.796875 5.546875 -1.890625 L 5.734375 -0.390625 C 5.378906 -0.222656 4.984375 -0.0859375 4.546875 0.015625 C 4.109375 0.128906 3.6875 0.1875 3.28125 0.1875 Z M 3.28125 0.1875 "/></g></g></g><g fill="#703900" fill-opacity="1"><g transform="translate(244.13411, 306.629929)"><g><path d="M 0.40625 -1.40625 L 1.296875 -1.671875 L 1.296875 -5.25 C 1.296875 -5.46875 1.28125 -5.609375 1.25 -5.671875 C 1.21875 -5.734375 1.140625 -5.804688 1.015625 -5.890625 L 0.375 -6.25 L 0.40625 -7.359375 C 0.582031 -7.390625 0.726562 -7.410156 0.84375 -7.421875 C 2.03125 -7.671875 2.910156 -7.804688 3.484375 -7.828125 C 3.578125 -7.566406 3.660156 -7.242188 3.734375 -6.859375 C 4.328125 -7.328125 4.828125 -7.648438 5.234375 -7.828125 L 6.078125 -7.828125 C 6.066406 -7.453125 6.039062 -7.046875 6 -6.609375 C 5.96875 -6.171875 5.921875 -5.816406 5.859375 -5.546875 C 5.503906 -5.566406 5.242188 -5.578125 5.078125 -5.578125 C 4.660156 -5.578125 4.234375 -5.550781 3.796875 -5.5 L 3.796875 -2.15625 C 3.796875 -1.945312 3.8125 -1.804688 3.84375 -1.734375 C 3.875 -1.671875 3.953125 -1.597656 4.078125 -1.515625 L 4.96875 -1.046875 L 4.90625 0 L 0.46875 0 Z M 0.40625 -1.40625 "/></g></g></g><g fill="#703900" fill-opacity="1"><g transform="translate(253.490318, 306.629929)"><g><path d="M 2.515625 0.1875 C 1.835938 0.1875 1.296875 0.00390625 0.890625 -0.359375 C 0.492188 -0.734375 0.296875 -1.207031 0.296875 -1.78125 C 0.296875 -2.5625 0.6875 -3.171875 1.46875 -3.609375 C 2.25 -4.054688 3.390625 -4.3125 4.890625 -4.375 C 4.890625 -4.832031 4.851562 -5.171875 4.78125 -5.390625 C 4.707031 -5.617188 4.570312 -5.773438 4.375 -5.859375 C 4.1875 -5.941406 3.894531 -5.984375 3.5 -5.984375 C 3.09375 -5.984375 2.804688 -5.96875 2.640625 -5.9375 L 2.03125 -4.734375 L 0.9375 -4.8125 C 0.769531 -5.601562 0.65625 -6.421875 0.59375 -7.265625 C 1.144531 -7.453125 1.742188 -7.597656 2.390625 -7.703125 C 3.046875 -7.816406 3.660156 -7.875 4.234375 -7.875 C 5.273438 -7.875 6.019531 -7.664062 6.46875 -7.25 C 6.925781 -6.84375 7.15625 -6.171875 7.15625 -5.234375 L 7.15625 -2.140625 C 7.15625 -1.960938 7.171875 -1.835938 7.203125 -1.765625 C 7.242188 -1.703125 7.320312 -1.632812 7.4375 -1.5625 L 8.03125 -1.21875 L 7.96875 -0.3125 C 6.832031 -0.0390625 5.929688 0.109375 5.265625 0.140625 C 5.242188 0.078125 5.210938 -0.0234375 5.171875 -0.171875 C 5.140625 -0.328125 5.109375 -0.476562 5.078125 -0.625 C 4.691406 -0.375 4.269531 -0.175781 3.8125 -0.03125 C 3.351562 0.113281 2.921875 0.1875 2.515625 0.1875 Z M 3.5 -1.484375 C 3.894531 -1.484375 4.375 -1.613281 4.9375 -1.875 L 4.875 -3 C 4.632812 -3.019531 4.476562 -3.03125 4.40625 -3.03125 C 4.132812 -3.03125 3.820312 -3 3.46875 -2.9375 C 3.113281 -2.882812 2.832031 -2.828125 2.625 -2.765625 C 2.59375 -2.628906 2.578125 -2.507812 2.578125 -2.40625 C 2.578125 -2.113281 2.660156 -1.882812 2.828125 -1.71875 C 2.992188 -1.5625 3.21875 -1.484375 3.5 -1.484375 Z M 3.5 -1.484375 "/></g></g></g><g fill="#703900" fill-opacity="1"><g transform="translate(264.735112, 306.629929)"><g><path d="M 3.828125 0.1875 C 2.679688 0.1875 1.789062 -0.160156 1.15625 -0.859375 C 0.53125 -1.566406 0.21875 -2.539062 0.21875 -3.78125 C 0.21875 -5.070312 0.554688 -6.078125 1.234375 -6.796875 C 1.910156 -7.515625 2.832031 -7.875 4 -7.875 C 4.882812 -7.875 5.832031 -7.671875 6.84375 -7.265625 C 6.832031 -6.984375 6.789062 -6.609375 6.71875 -6.140625 C 6.644531 -5.671875 6.570312 -5.238281 6.5 -4.84375 L 5.5 -4.75 L 4.59375 -5.921875 C 4.34375 -5.972656 4.066406 -6 3.765625 -6 C 3.515625 -6 3.289062 -5.984375 3.09375 -5.953125 C 2.863281 -5.515625 2.75 -4.90625 2.75 -4.125 C 2.75 -3.3125 2.890625 -2.710938 3.171875 -2.328125 C 3.460938 -1.941406 3.894531 -1.75 4.46875 -1.75 C 4.75 -1.75 5.082031 -1.789062 5.46875 -1.875 C 5.863281 -1.957031 6.269531 -2.078125 6.6875 -2.234375 L 7.046875 -0.75 C 6.648438 -0.476562 6.160156 -0.253906 5.578125 -0.078125 C 4.992188 0.0976562 4.410156 0.1875 3.828125 0.1875 Z M 3.828125 0.1875 "/></g></g></g><g fill="#703900" fill-opacity="1"><g transform="translate(275.242188, 306.629929)"><g><path d="M 3.28125 0.1875 C 2.414062 0.1875 1.773438 -0.0234375 1.359375 -0.453125 C 0.941406 -0.878906 0.734375 -1.53125 0.734375 -2.40625 L 0.734375 -6 L -0.296875 -6 L -0.296875 -7.078125 L 2.359375 -9.5 L 3.21875 -9.390625 L 3.21875 -7.71875 L 5.703125 -7.71875 L 5.703125 -5.984375 L 3.21875 -5.984375 L 3.21875 -2.9375 C 3.21875 -2.46875 3.285156 -2.148438 3.421875 -1.984375 C 3.554688 -1.828125 3.8125 -1.75 4.1875 -1.75 C 4.519531 -1.75 4.972656 -1.796875 5.546875 -1.890625 L 5.734375 -0.390625 C 5.378906 -0.222656 4.984375 -0.0859375 4.546875 0.015625 C 4.109375 0.128906 3.6875 0.1875 3.28125 0.1875 Z M 3.28125 0.1875 "/></g></g></g><g fill="#703900" fill-opacity="1"><g transform="translate(284.450862, 306.629929)"><g><path d="M 3.9375 0.1875 C 2.6875 0.1875 1.753906 -0.128906 1.140625 -0.765625 C 0.523438 -1.410156 0.21875 -2.390625 0.21875 -3.703125 C 0.21875 -4.546875 0.375 -5.28125 0.6875 -5.90625 C 1 -6.539062 1.441406 -7.023438 2.015625 -7.359375 C 2.597656 -7.703125 3.285156 -7.875 4.078125 -7.875 C 6.628906 -7.875 7.90625 -6.550781 7.90625 -3.90625 C 7.90625 -2.625 7.554688 -1.617188 6.859375 -0.890625 C 6.160156 -0.171875 5.1875 0.1875 3.9375 0.1875 Z M 4.171875 -1.53125 C 4.367188 -1.53125 4.539062 -1.546875 4.6875 -1.578125 C 4.84375 -1.617188 5.003906 -1.675781 5.171875 -1.75 C 5.222656 -1.976562 5.269531 -2.269531 5.3125 -2.625 C 5.351562 -2.976562 5.375 -3.316406 5.375 -3.640625 C 5.375 -4.441406 5.25 -5.046875 5 -5.453125 C 4.75 -5.867188 4.378906 -6.078125 3.890625 -6.078125 C 3.554688 -6.078125 3.222656 -6.035156 2.890625 -5.953125 C 2.828125 -5.804688 2.773438 -5.566406 2.734375 -5.234375 C 2.691406 -4.898438 2.671875 -4.523438 2.671875 -4.109375 C 2.671875 -3.273438 2.800781 -2.632812 3.0625 -2.1875 C 3.320312 -1.75 3.691406 -1.53125 4.171875 -1.53125 Z M 4.171875 -1.53125 "/></g></g></g><g fill="#703900" fill-opacity="1"><g transform="translate(295.6809, 306.629929)"><g><path d="M 0.40625 -1.40625 L 1.296875 -1.671875 L 1.296875 -5.25 C 1.296875 -5.46875 1.28125 -5.609375 1.25 -5.671875 C 1.21875 -5.734375 1.140625 -5.804688 1.015625 -5.890625 L 0.375 -6.25 L 0.40625 -7.359375 C 0.582031 -7.390625 0.726562 -7.410156 0.84375 -7.421875 C 2.03125 -7.671875 2.910156 -7.804688 3.484375 -7.828125 C 3.578125 -7.566406 3.660156 -7.242188 3.734375 -6.859375 C 4.328125 -7.328125 4.828125 -7.648438 5.234375 -7.828125 L 6.078125 -7.828125 C 6.066406 -7.453125 6.039062 -7.046875 6 -6.609375 C 5.96875 -6.171875 5.921875 -5.816406 5.859375 -5.546875 C 5.503906 -5.566406 5.242188 -5.578125 5.078125 -5.578125 C 4.660156 -5.578125 4.234375 -5.550781 3.796875 -5.5 L 3.796875 -2.15625 C 3.796875 -1.945312 3.8125 -1.804688 3.84375 -1.734375 C 3.875 -1.671875 3.953125 -1.597656 4.078125 -1.515625 L 4.96875 -1.046875 L 4.90625 0 L 0.46875 0 Z M 0.40625 -1.40625 "/></g></g></g></svg>