<svg xmlns="http://www.w3.org/2000/svg" xmlns:xlink="http://www.w3.org/1999/xlink" width="500" zoomAndPan="magnify" viewBox="0 0 375 374.999991" height="500" preserveAspectRatio="xMidYMid meet" version="1.0"><defs><g/><clipPath id="45d4e98168"><path d="M 20.929688 0 L 353.929688 0 L 353.929688 265 L 20.929688 265 Z M 20.929688 0 " clip-rule="nonzero"/></clipPath><clipPath id="6de308302f"><path d="M 83.671875 36.933594 L 291 36.933594 L 291 264.933594 L 83.671875 264.933594 Z M 83.671875 36.933594 " clip-rule="nonzero"/></clipPath></defs><g clip-path="url(#45d4e98168)"><path fill="#f07d05" d="M 98.125 264.097656 C 90.542969 253.953125 66.160156 264.082031 68.90625 254.324219 L 42.621094 254.210938 L 187.222656 18.246094 L 332.265625 253.492188 L 308.285156 253.492188 C 311.308594 265.003906 281.167969 252.070312 280.191406 264.097656 L 354.070312 264.097656 L 187.515625 0.261719 L 20.984375 264.097656 Z M 98.125 264.097656 " fill-opacity="1" fill-rule="evenodd"/></g><path fill="#000000" d="M 144.832031 235.441406 C 150.460938 235.710938 160.507812 235.882812 160.507812 235.882812 C 160.507812 235.882812 164.902344 241.507812 164.902344 241.507812 L 167.933594 241.578125 C 167.933594 241.578125 174.621094 251.238281 177.246094 254.234375 C 179.871094 257.230469 184.417969 263.761719 187.277344 263.761719 C 190.140625 263.761719 275.957031 257.210938 275.957031 257.210938 C 275.957031 257.210938 287.074219 256.804688 290.039062 232.816406 C 290.847656 228.976562 289.164062 188.070312 289.164062 188.070312 L 289.03125 172.4375 L 278.855469 167.855469 C 278.855469 167.855469 276.292969 167.046875 275.285156 169.132812 C 272.222656 169.289062 269.402344 168.800781 267.148438 168.117188 L 261.289062 140.351562 C 261.421875 140.339844 261.554688 140.324219 261.691406 140.300781 L 261.734375 140.304688 C 261.761719 140.304688 261.792969 140.308594 261.820312 140.308594 L 261.824219 140.308594 C 261.847656 140.3125 261.875 140.3125 261.898438 140.3125 C 262.414062 140.3125 262.90625 140.089844 263.355469 139.6875 C 263.640625 139.480469 263.882812 139.21875 264.042969 138.886719 L 264.046875 138.882812 C 264.320312 138.480469 264.570312 138.007812 264.789062 137.472656 C 265.605469 135.902344 266.453125 133.777344 266.050781 129.574219 C 265.535156 124.152344 262.488281 122.160156 260.027344 122.121094 C 259.902344 122.097656 259.773438 122.085938 259.644531 122.085938 C 259.523438 122.085938 259.40625 122.097656 259.285156 122.113281 L 259.285156 122.117188 C 259.164062 122.136719 259.046875 122.164062 258.933594 122.199219 L 258.929688 122.199219 C 258.390625 122.363281 257.890625 122.71875 257.445312 123.222656 C 257.371094 123.304688 257.300781 123.390625 257.230469 123.480469 L 256.683594 123.429688 L 243.558594 122.15625 L 218.949219 85.441406 C 218.949219 85.441406 219.757812 82.070312 218.949219 79.777344 C 218.136719 77.488281 214.703125 73.578125 214.703125 73.578125 C 214.703125 73.578125 213.421875 73.242188 212.207031 72.03125 C 210.996094 70.816406 197.789062 51.542969 197.789062 51.542969 C 197.789062 51.542969 198.664062 47.027344 195.632812 45.277344 C 192.597656 43.523438 195.023438 42.246094 193.40625 42.917969 C 191.789062 43.59375 188.960938 40.964844 188.355469 40.761719 C 187.746094 40.558594 184.78125 39.011719 184.78125 39.011719 L 183.636719 38.941406 L 182.492188 40.019531 L 180.804688 39.886719 L 176.695312 37.460938 L 175.550781 37.390625 L 174.605469 38.605469 L 172.179688 38.335938 L 167.933594 41.839844 L 165.914062 49.992188 L 165.296875 64.867188 L 158.164062 77.757812 L 156.679688 85.976562 L 138.417969 111.992188 L 134.039062 123.917969 L 129.726562 124.121094 L 129.726562 128.972656 L 131.074219 128.972656 L 128.582031 154.308594 C 128.582031 154.308594 127.570312 155.117188 127.570312 155.925781 C 127.570312 156.734375 126.695312 156.261719 126.695312 158.285156 C 126.695312 160.308594 125.347656 177.960938 125.347656 177.960938 L 110.316406 177.4375 L 109.59375 164.730469 C 109.40625 164.53125 109.105469 164.4375 108.78125 164.382812 C 108.53125 164.339844 107.953125 164.382812 107.867188 164.441406 L 107.386719 177.410156 L 105.238281 177.445312 L 103.050781 180.371094 L 98.371094 180.441406 L 96.113281 181.753906 L 94.464844 189.898438 C 93.835938 193.007812 94.0625 197.699219 93.992188 200.738281 C 93.890625 205.117188 93.824219 208.144531 94.496094 208.71875 C 94.808594 209.601562 95.914062 209.808594 95.914062 209.808594 C 94.921875 209.789062 93.875 209.773438 92.78125 209.761719 L 85.945312 213.699219 C 85.945312 213.699219 83.691406 216.730469 84.363281 224.640625 C 85.039062 232.550781 85.746094 234.605469 86.992188 235.582031 C 88.238281 236.558594 97.648438 240.566406 97.648438 240.566406 L 117.527344 239.757812 C 117.527344 239.757812 120.628906 235.714844 120.695312 224.929688 C 135.992188 224.121094 140.386719 224.40625 140.386719 224.40625 C 140.386719 224.40625 137.183594 232.585938 144.832031 235.441406 Z M 208.4375 148.769531 L 208.195312 148.757812 L 208.394531 148.703125 L 178.648438 102.960938 L 176.425781 104.242188 L 157.691406 127.554688 L 158.367188 127.894531 L 158.835938 129.578125 L 158.300781 133.621094 L 154.324219 133.285156 L 151.425781 155.996094 C 151.425781 155.996094 151.558594 155.925781 151.898438 157.207031 C 152.234375 158.488281 152.636719 158.488281 152.636719 158.488281 L 173.191406 159.363281 C 173.191406 159.363281 176.628906 160.039062 176.964844 163.003906 C 177.300781 165.96875 177.503906 170.414062 177.503906 170.414062 L 177.671875 172.503906 L 178.648438 168.054688 L 180.066406 163.675781 L 180.804688 162.664062 L 183.164062 162.734375 L 185.929688 164.484375 L 201.761719 165.359375 L 205 164.890625 L 209.109375 163.203125 C 204.914062 158.984375 206.6875 151.613281 208.4375 148.769531 Z M 150.414062 139.6875 L 148.730469 155.523438 C 148.730469 155.523438 148.394531 155.65625 147.652344 157.273438 C 146.910156 158.890625 146.777344 157.410156 146.640625 159.902344 C 146.507812 162.394531 144.484375 164.550781 144.484375 164.550781 L 145.160156 159.09375 L 147.921875 148.582031 Z M 150.414062 139.6875 " fill-opacity="1" fill-rule="evenodd"/><g clip-path="url(#6de308302f)"><path stroke-linecap="butt" transform="matrix(0.076735, 0, 0, 0.076735, 72.147957, 35.473987)" fill="none" stroke-linejoin="round" d="M 947.209264 2605.949033 C 1020.564428 2609.461529 1151.493978 2611.701381 1151.493978 2611.701381 C 1151.493978 2611.701381 1208.76293 2685.005639 1208.76293 2685.005639 L 1248.26578 2685.921943 C 1248.26578 2685.921943 1335.416398 2811.811825 1369.625052 2850.856523 C 1403.833706 2889.901222 1463.087981 2975.01561 1500.350979 2975.01561 C 1537.664882 2975.01561 2656.01297 2889.646693 2656.01297 2889.646693 C 2656.01297 2889.646693 2800.890691 2884.352497 2839.528144 2571.740379 C 2850.065631 2521.700042 2828.12526 1988.615187 2828.12526 1988.615187 L 2826.394465 1784.890437 L 2693.785025 1725.17801 C 2693.785025 1725.17801 2660.390863 1714.640523 2647.257184 1741.824185 C 2607.347088 1743.860414 2570.593147 1737.497198 2541.220538 1728.588694 L 2464.861936 1366.750731 C 2466.592731 1366.598014 2468.323526 1366.394391 2470.105227 1366.088956 L 2470.66519 1366.139862 C 2471.02153 1366.139862 2471.428776 1366.190768 2471.785116 1366.190768 L 2471.836022 1366.190768 C 2472.141456 1366.241674 2472.497796 1366.241674 2472.803231 1366.241674 C 2479.522788 1366.241674 2485.93691 1363.340047 2491.79107 1358.096756 C 2495.507188 1355.398752 2498.663344 1351.988068 2500.750479 1347.66108 L 2500.801385 1347.610175 C 2504.364786 1342.366884 2507.622753 1336.20729 2510.473474 1329.233204 C 2521.112773 1308.769099 2532.159317 1281.076379 2526.916027 1226.301809 C 2520.19647 1155.644649 2480.489997 1129.682724 2448.419384 1129.173667 C 2446.7904 1128.868232 2445.110511 1128.715515 2443.430622 1128.715515 C 2441.852544 1128.715515 2440.325372 1128.868232 2438.747294 1129.071855 L 2438.747294 1129.122761 C 2437.169216 1129.37729 2435.642044 1129.73363 2434.165778 1130.191781 L 2434.114872 1130.191781 C 2427.089881 1132.329822 2420.573947 1136.962244 2414.770693 1143.529084 C 2413.803484 1144.598104 2412.887181 1145.718031 2411.970878 1146.888862 L 2404.844075 1146.227088 L 2233.800806 1129.631818 L 1913.094677 651.168817 C 1913.094677 651.168817 1923.632164 607.237168 1913.094677 577.355502 C 1902.506284 547.524741 1857.760143 496.5681 1857.760143 496.5681 C 1857.760143 496.5681 1841.063062 492.190207 1825.231378 476.409429 C 1809.4506 460.577746 1637.338311 209.40885 1637.338311 209.40885 C 1637.338311 209.40885 1648.741196 150.561821 1609.238346 127.756052 C 1569.68459 104.899377 1601.297051 88.253202 1580.222077 97.008988 C 1559.147102 105.81568 1522.29135 71.556121 1514.400962 68.909022 C 1506.459667 66.261924 1467.822214 46.103253 1467.822214 46.103253 L 1452.906834 45.18695 L 1437.991454 59.236933 L 1416.000176 57.506138 L 1362.447343 25.893676 L 1347.531963 24.977373 L 1335.212775 40.809057 L 1303.600314 37.296561 L 1248.26578 82.959005 L 1221.947515 189.199274 L 1213.904409 383.048312 L 1120.950537 551.037237 L 1101.606358 658.142903 L 863.622048 997.175096 L 806.556719 1152.590305 L 750.356788 1155.237403 L 750.356788 1218.462326 L 767.919267 1218.462326 L 735.441408 1548.636921 C 735.441408 1548.636921 722.256822 1559.174409 722.256822 1569.711896 C 722.256822 1580.249383 710.853938 1574.089789 710.853938 1600.458959 C 710.853938 1626.82813 693.291459 1856.871146 693.291459 1856.871146 L 497.406192 1850.049777 L 487.988631 1684.453422 C 485.545156 1681.857229 481.625414 1680.635492 477.400238 1679.922812 C 474.142271 1679.362848 466.608222 1679.922812 465.488296 1680.686398 L 459.226891 1849.693437 L 431.228737 1850.151589 L 402.721525 1888.279984 L 341.736455 1889.196287 L 312.31294 1906.300614 L 290.83072 2012.439071 C 282.634897 2052.960036 285.587429 2114.097824 284.671126 2153.702485 C 283.347577 2210.767814 282.482179 2250.219758 291.237966 2257.702901 C 295.310425 2269.207598 309.716748 2271.905601 309.716748 2271.905601 C 296.786691 2271.651073 283.143954 2271.44745 268.890348 2271.294733 L 179.805312 2322.607713 C 179.805312 2322.607713 150.432703 2362.110564 159.18849 2465.194676 C 167.995182 2568.278789 177.20912 2595.055206 193.448049 2607.78164 C 209.686979 2620.508073 332.318894 2672.737357 332.318894 2672.737357 L 591.378178 2662.19987 C 591.378178 2662.19987 631.797332 2609.512435 632.662729 2468.961701 C 832.009587 2458.424214 889.278538 2462.140332 889.278538 2462.140332 C 889.278538 2462.140332 847.535836 2568.736941 947.209264 2605.949033 Z M 1776.107344 1476.45259 L 1772.951189 1476.299872 L 1775.547381 1475.587192 L 1387.900211 879.481038 L 1358.934848 896.178119 L 1114.790943 1199.983544 L 1123.597636 1204.412343 L 1129.706324 1226.352714 L 1122.732238 1279.04015 L 1070.9102 1274.662257 L 1033.138145 1570.628199 C 1033.138145 1570.628199 1034.86894 1569.711896 1039.297739 1586.408977 C 1043.675632 1603.106058 1048.918923 1603.106058 1048.918923 1603.106058 L 1316.784899 1614.508942 C 1316.784899 1614.508942 1361.581946 1623.315634 1365.959839 1661.953087 C 1370.337732 1700.59054 1372.98483 1758.521266 1372.98483 1758.521266 L 1375.173777 1785.755834 L 1387.900211 1727.774202 L 1406.378992 1670.708874 L 1416.000176 1657.524288 L 1446.74724 1658.440591 L 1482.7885 1681.246361 L 1689.109443 1692.649245 L 1731.310298 1686.540557 L 1784.863131 1664.54928 C 1730.190371 1609.571086 1753.301575 1513.511964 1776.107344 1476.45259 Z M 1019.953559 1358.096756 L 998.013188 1564.468605 C 998.013188 1564.468605 993.635295 1566.1994 983.963205 1587.274374 C 974.291115 1608.349348 972.56032 1589.056075 970.77862 1621.533934 C 969.047825 1654.011792 942.678654 1682.111758 942.678654 1682.111758 L 951.485346 1610.996447 L 987.475701 1474.009114 Z M 1019.953559 1358.096756 " stroke="#3d3c3b" stroke-width="11.811" stroke-opacity="1" stroke-miterlimit="4"/></g><path fill="#000000" d="M 144.832031 235.441406 C 150.460938 235.710938 160.507812 235.882812 160.507812 235.882812 C 160.507812 235.882812 164.902344 241.507812 164.902344 241.507812 L 167.9375 241.578125 C 167.9375 241.578125 174.621094 251.238281 177.246094 254.234375 C 179.871094 257.230469 184.417969 263.761719 187.277344 263.761719 C 190.140625 263.761719 275.957031 257.210938 275.957031 257.210938 C 275.957031 257.210938 287.078125 256.804688 290.042969 232.816406 C 290.851562 228.976562 289.164062 188.070312 289.164062 188.070312 L 289.03125 172.4375 L 278.855469 167.855469 C 278.855469 167.855469 276.292969 167.046875 275.285156 169.132812 C 268.652344 169.472656 263.152344 166.777344 262.074219 165.628906 C 260.996094 164.484375 259.917969 140.359375 259.917969 140.359375 C 259.917969 140.359375 263.167969 140.707031 264.042969 138.886719 C 264.921875 137.066406 266.585938 135.144531 266.054688 129.574219 C 265.519531 124.003906 262.320312 122.050781 259.828125 122.121094 C 257.335938 122.1875 256.550781 124.859375 256.550781 124.859375 L 252.171875 124.457031 C 252.171875 124.457031 250.621094 123.3125 248.464844 123.3125 C 246.308594 123.3125 244.152344 123.042969 244.152344 123.042969 L 218.949219 85.441406 C 218.949219 85.441406 219.757812 82.070312 218.949219 79.777344 C 218.140625 77.488281 214.703125 73.578125 214.703125 73.578125 C 214.703125 73.578125 213.421875 73.242188 212.210938 72.03125 C 210.996094 70.816406 197.789062 51.542969 197.789062 51.542969 C 197.789062 51.542969 198.664062 47.027344 195.632812 45.277344 C 192.601562 43.523438 195.027344 42.246094 193.410156 42.917969 C 191.792969 43.59375 188.960938 40.964844 188.355469 40.761719 C 187.746094 40.558594 184.78125 39.007812 184.78125 39.007812 L 183.636719 38.941406 L 182.492188 40.019531 L 180.808594 39.886719 L 176.695312 37.460938 L 175.550781 37.390625 L 174.605469 38.605469 L 172.179688 38.335938 L 167.9375 41.839844 L 165.914062 49.992188 L 165.296875 64.867188 L 158.164062 77.757812 L 156.683594 85.980469 L 138.421875 111.988281 L 134.039062 123.917969 L 129.726562 124.121094 L 129.726562 128.972656 L 131.074219 128.972656 L 128.582031 154.308594 C 128.582031 154.308594 127.570312 155.117188 127.570312 155.925781 C 127.570312 156.734375 126.695312 156.261719 126.695312 158.285156 C 126.695312 160.308594 125.347656 177.960938 125.347656 177.960938 L 110.316406 177.4375 L 109.59375 164.730469 C 109.40625 164.53125 109.105469 164.4375 108.785156 164.382812 C 108.53125 164.339844 107.953125 164.382812 107.867188 164.441406 L 107.386719 177.410156 L 105.238281 177.445312 L 103.050781 180.371094 L 98.371094 180.441406 L 96.113281 181.753906 L 94.464844 189.898438 C 93.835938 193.007812 94.0625 197.699219 93.992188 200.738281 C 93.894531 205.117188 93.824219 208.144531 94.5 208.71875 C 94.8125 209.601562 95.914062 209.808594 95.914062 209.808594 C 94.921875 209.789062 93.875 209.773438 92.78125 209.761719 L 85.949219 213.699219 C 85.949219 213.699219 83.691406 216.730469 84.367188 224.640625 C 85.039062 232.554688 85.746094 234.605469 86.992188 235.582031 C 88.238281 236.558594 97.652344 240.566406 97.652344 240.566406 L 117.53125 239.757812 C 117.53125 239.757812 120.628906 235.714844 120.699219 224.929688 C 135.996094 224.121094 140.386719 224.40625 140.386719 224.40625 C 140.386719 224.40625 137.183594 232.585938 144.832031 235.441406 Z M 150.414062 139.6875 L 148.730469 155.523438 C 148.730469 155.523438 148.394531 155.65625 147.652344 157.273438 C 146.910156 158.890625 146.777344 157.410156 146.640625 159.902344 C 146.507812 162.394531 144.484375 164.550781 144.484375 164.550781 L 145.160156 159.09375 L 147.921875 148.582031 Z M 178.648438 102.960938 L 176.425781 104.242188 L 157.691406 127.554688 L 158.367188 127.894531 L 158.839844 129.578125 L 158.300781 133.621094 L 154.324219 133.285156 L 151.425781 155.992188 C 151.425781 155.992188 151.5625 155.925781 151.898438 157.207031 C 152.234375 158.488281 152.640625 158.488281 152.640625 158.488281 L 173.191406 159.363281 C 173.191406 159.363281 176.628906 160.039062 176.964844 163.003906 C 177.300781 165.96875 177.503906 170.414062 177.503906 170.414062 L 177.671875 172.503906 L 178.648438 168.054688 L 180.066406 163.675781 L 180.808594 162.664062 L 183.164062 162.734375 L 185.929688 164.484375 L 201.765625 165.359375 L 205 164.890625 L 209.109375 163.203125 C 204.914062 158.984375 206.6875 151.613281 208.4375 148.769531 L 178.652344 102.960938 Z M 178.648438 102.960938 " fill-opacity="1" fill-rule="evenodd"/><path fill="#f07d05" d="M 128.636719 195.320312 C 128.367188 195.292969 139.945312 195.65625 139.945312 195.65625 L 140.183594 204.410156 L 139.507812 204.441406 L 138.53125 197.238281 Z M 231.914062 173.464844 C 233.132812 174.71875 234.019531 176.878906 234.175781 180.453125 L 234.988281 122.773438 L 256.550781 124.859375 L 256.675781 125.449219 C 256.730469 125.402344 256.785156 125.351562 256.835938 125.304688 C 257.429688 123.949219 258.21875 123.019531 259.101562 122.746094 C 259.28125 122.691406 259.460938 122.664062 259.644531 122.664062 C 261.808594 122.664062 263.566406 126.582031 263.566406 131.410156 C 263.566406 136.140625 261.878906 139.996094 259.777344 140.152344 L 270.296875 190.023438 L 234.042969 190.023438 L 234.144531 182.777344 C 233.757812 186.863281 231.503906 191.644531 230.4375 191.644531 C 229.265625 191.644531 227.335938 191.746094 227.535156 191.675781 C 227.625 191.644531 227.71875 191.601562 227.8125 191.546875 C 227.550781 191.679688 227.289062 191.75 227.035156 191.75 C 224.914062 191.75 223.191406 187.761719 223.191406 182.835938 L 222.972656 170.769531 L 222.027344 168.75 L 215.289062 166.121094 L 210.886719 162.808594 C 209.253906 161.851562 208.070312 159.042969 208.070312 155.726562 C 208.070312 151.882812 210.109375 148.71875 211.785156 148.339844 C 211.742188 148.335938 211.71875 148.335938 211.71875 148.335938 C 213.421875 147.84375 215.78125 147.496094 216.402344 147.75 C 217.023438 148 217.753906 148.074219 218.496094 149.640625 L 218.5 149.644531 L 218.5 149.652344 L 218.503906 149.652344 C 218.671875 150.011719 222.699219 158.515625 224.480469 162.277344 C 226.300781 166.117188 231.914062 173.464844 231.914062 173.464844 Z M 227.617188 171.917969 C 225.8125 169.429688 223.164062 165.621094 222.019531 163.203125 C 220.238281 159.445312 216.210938 150.941406 216.039062 150.582031 L 216.039062 150.574219 L 216.035156 150.566406 L 216.039062 150.574219 L 216.039062 150.582031 M 216.035156 150.566406 L 216.039062 150.574219 C 216.207031 150.933594 219.21875 158.210938 221.019531 162.011719 C 222.804688 165.78125 227.542969 171.824219 227.617188 171.917969 M 211.308594 128.460938 C 212.371094 128.226562 213.628906 127.910156 215.121094 127.484375 C 220.101562 126.058594 223.285156 123.898438 225.164062 122.207031 C 225.757812 120.847656 226.546875 119.921875 227.429688 119.648438 C 227.609375 119.59375 227.789062 119.5625 227.972656 119.5625 C 230.136719 119.5625 231.894531 123.480469 231.894531 128.3125 C 231.894531 133.140625 230.136719 137.058594 227.972656 137.058594 C 227.597656 137.058594 227.230469 136.9375 226.886719 136.71875 C 224.9375 136.160156 220.671875 135.1875 216.734375 135.933594 C 216.136719 136.046875 215.53125 136.191406 214.929688 136.359375 L 217.601562 142.179688 L 215.175781 144.875 L 209.246094 146.625 L 205.148438 140.269531 C 204.371094 139.964844 203.714844 138.90625 203.328125 137.445312 L 168.050781 82.710938 L 167.355469 49.859375 L 168.675781 45.277344 L 172.046875 42.851562 Z M 196.742188 51.652344 L 195.632812 51.679688 L 211.535156 73.78125 C 211.542969 73.792969 214.125 74.347656 214.125 74.347656 C 215.839844 76.046875 217.855469 80.023438 218.207031 80.25 L 218.476562 82.542969 C 218.476562 82.542969 217.519531 80.417969 214.554688 81.160156 C 212.839844 81.585938 211.5 82.011719 210.8125 84.171875 C 210.308594 85.746094 211.421875 89.152344 210.996094 88.472656 C 209.984375 86.855469 189.164062 56.460938 189.164062 56.460938 C 189.164062 56.460938 191.710938 50.769531 196.742188 51.652344 Z M 183.972656 40.019531 L 183.234375 40.761719 L 189.230469 44.398438 L 186.9375 52.488281 L 188.828125 55.453125 C 188.828125 55.453125 191.453125 51.542969 193.273438 51.273438 C 195.09375 51.003906 197.113281 51.003906 197.113281 51.003906 C 197.113281 51.003906 197.183594 47.632812 195.699219 46.285156 C 194.21875 44.9375 193.207031 43.457031 192.464844 44.199219 C 191.722656 44.9375 189.90625 42.984375 189.90625 42.984375 Z M 176.023438 39.347656 L 184.109375 54.375 L 186.804688 47.363281 C 186.804688 47.363281 187.214844 45.796875 184.3125 43.390625 C 181.046875 40.683594 177.304688 38.671875 177.304688 38.671875 Z M 142.574219 197.609375 L 143.617188 198.550781 L 144.457031 198.921875 L 145.769531 198.753906 L 146.476562 198.316406 L 151.292969 163.4375 L 151.863281 162.664062 L 152.167969 159.0625 L 151.527344 157.242188 L 151.460938 156.738281 L 150.515625 156.773438 L 149.542969 156.707031 L 148.734375 156.46875 L 147.789062 158.21875 L 147.152344 159.09375 L 146.914062 162.5625 L 147.25 163 L 148.199219 163.234375 L 148.890625 163.300781 L 149.964844 163.335938 L 149.328125 163.601562 L 148.183594 163.621094 L 147.148438 163.761719 Z M 148.664062 191.574219 L 148.796875 202.691406 C 148.796875 202.691406 149 205.925781 150.347656 205.925781 C 151.695312 205.925781 152.773438 205.320312 152.773438 205.320312 L 167.195312 205.726562 L 170.96875 198.785156 L 158.433594 198.648438 C 158.433594 198.648438 155.066406 198.246094 154.863281 192.652344 C 154.660156 187.058594 153.648438 162.597656 153.648438 162.597656 C 153.648438 162.597656 153.042969 161.453125 155.738281 161.25 C 158.433594 161.046875 172.179688 161.992188 172.179688 161.992188 C 172.179688 161.992188 174.539062 162.191406 174.945312 164.550781 C 175.347656 166.910156 175.855469 180.179688 175.855469 180.179688 L 177.171875 173.269531 L 176.269531 163.269531 C 176.269531 163.269531 175.832031 161.722656 174.992188 161.25 C 174.148438 160.777344 172.785156 159.972656 171.808594 159.972656 C 170.835938 159.972656 152.554688 159.335938 152.554688 159.335938 L 152.25 163 L 151.578125 163.855469 L 151.328125 166.175781 L 152.605469 191.246094 C 152.605469 191.246094 151.292969 192.019531 150.820312 192.019531 C 150.347656 192.019531 148.664062 191.574219 148.664062 191.574219 Z M 120.859375 223.96875 L 120.824219 219.757812 L 120.554688 217.4375 L 119.949219 216.023438 L 154.390625 216.171875 L 154.589844 219.859375 L 154.1875 223.226562 Z M 163.511719 215.011719 L 159.167969 212.691406 L 158.5625 212.691406 L 155.972656 225.042969 C 155.972656 225.042969 155.769531 226.121094 156.8125 226.964844 C 157.855469 227.804688 165.53125 234.371094 165.53125 234.371094 L 188.324219 170.472656 C 188.324219 170.472656 189.703125 168.015625 187.886719 167.175781 C 186.066406 166.332031 182.296875 163.773438 182.296875 163.773438 L 180.882812 164.347656 L 177.046875 180 L 173.476562 195.417969 L 171.960938 200.335938 L 168.292969 208.28125 L 164.21875 215.316406 Z M 159.105469 232.125 C 161.128906 234.96875 161.90625 235.582031 164.902344 239.890625 L 168.273438 238.878906 L 184.78125 259.90625 C 184.78125 259.90625 189.835938 265.296875 195.09375 254.582031 C 200.347656 243.867188 195.429688 211.453125 195.429688 211.453125 L 191.386719 169.808594 L 189.640625 168.753906 L 170.96875 225.46875 L 168.003906 233.015625 L 166.46875 237.347656 Z M 189.972656 165.765625 L 193.339844 168.59375 L 198.730469 231.265625 C 198.730469 231.265625 200.242188 253.925781 195.226562 258.757812 C 190.214844 263.59375 280.136719 253.367188 280.136719 253.367188 C 280.136719 253.367188 287.414062 245.550781 287.953125 233.824219 C 288.492188 222.101562 286.46875 175.0625 286.46875 175.0625 L 276.632812 169.941406 L 269.285156 170.347656 L 269.894531 173.714844 C 269.894531 173.714844 276.429688 177.828125 276.363281 180.523438 C 276.292969 183.21875 277.171875 183.21875 275.148438 188.203125 C 273.128906 193.191406 271.710938 195.550781 271.578125 200.265625 C 271.441406 204.984375 272.234375 215.335938 272.628906 219.71875 C 273.019531 224.101562 269.644531 225.921875 268.140625 230.320312 C 267.339844 232.667969 266.929688 230.835938 266.929688 230.835938 C 266.929688 230.835938 266.796875 228.007812 268.210938 226.1875 C 269.625 224.371094 270.800781 222.554688 271.003906 221.847656 C 271.207031 221.140625 271.21875 219.105469 270.851562 215.914062 C 270.480469 212.71875 270.207031 204.890625 270.09375 201.511719 C 269.984375 198.136719 271.578125 192.546875 271.777344 192.085938 C 272.066406 191.433594 273.691406 187.808594 273.601562 187.921875 C 271.40625 190.84375 270.21875 191.832031 270.0625 191.851562 C 270.0625 191.851562 268.210938 200.097656 268.242188 205.382812 C 268.277344 210.667969 269.070312 218.449219 269.070312 218.449219 C 269.070312 218.449219 269.792969 221.410156 268.480469 223.09375 C 267.164062 224.773438 263.867188 231.003906 263.867188 231.003906 L 259.71875 192.988281 L 233.503906 192.71875 C 233.503906 192.71875 232.5 199.816406 232.160156 208.171875 C 231.824219 216.527344 232.964844 219.136719 232.964844 219.136719 C 232.964844 219.136719 233.636719 222.640625 232.492188 224.324219 C 231.347656 226.007812 228.453125 231.304688 228.453125 231.304688 L 227.644531 231.441406 C 227.644531 231.441406 229.160156 227.132812 230.773438 224.910156 C 232.390625 222.6875 232.15625 221.140625 232.15625 220.667969 C 232.15625 220.195312 231.042969 211.375 231.210938 209.085938 C 231.378906 206.796875 232.726562 192.085938 232.726562 192.085938 L 232.054688 191.816406 L 229.964844 192.390625 C 229.964844 192.390625 228.113281 203.367188 228.382812 206.804688 C 228.652344 210.238281 229.460938 217.652344 229.460938 217.652344 C 229.460938 217.652344 229.933594 221.695312 228.921875 223.988281 C 227.910156 226.277344 224.878906 231.871094 224.878906 231.871094 L 223.734375 191.777344 C 223.734375 191.777344 221.375 190.292969 221.308594 181.9375 C 221.238281 173.582031 222.585938 174.253906 222.585938 174.253906 C 222.585938 174.253906 222.992188 168.390625 218.339844 167.785156 C 213.691406 167.179688 202.101562 167.246094 202.101562 167.246094 L 201.15625 165.964844 Z M 202.371094 249.863281 C 202.371094 249.863281 201.292969 255.929688 200.078125 257.546875 C 198.867188 259.164062 274.28125 252.863281 278.519531 251.347656 C 282.757812 249.828125 287.683594 233.152344 285.664062 222.503906 C 283.371094 238.136719 279.730469 245.6875 279.730469 245.6875 L 258.574219 246.765625 L 255.472656 202.152344 C 255.472656 202.152344 255.335938 246.765625 248.867188 247.4375 C 242.398438 248.113281 202.371094 249.863281 202.371094 249.863281 Z M 132.304688 127.6875 L 132.238281 131.050781 L 138.164062 131.085938 L 138.261719 127.820312 L 136.917969 124.65625 L 130.285156 124.722656 L 130.453125 127.347656 L 131.933594 125.800781 L 135.503906 126.035156 L 136.714844 127.988281 Z M 129.679688 186.5 L 130.285156 187.609375 L 138.0625 187.644531 L 140.25 185.253906 L 140.015625 182.492188 L 139.96875 181.734375 C 139.96875 181.734375 143.914062 163.585938 146.710938 151.546875 C 146.707031 151.53125 145.425781 141.90625 143.339844 138.875 C 141.25 135.84375 139.632812 135.640625 139.632812 135.640625 L 150.921875 136.957031 L 151.695312 135.304688 L 153.449219 132.070312 L 156.074219 128.363281 L 159.109375 124.523438 L 174.101562 105.84375 L 167.597656 88.539062 L 161.332031 98.445312 L 153.851562 110.304688 L 140.171875 131.9375 L 138.691406 135.035156 L 138.21875 136.652344 L 137.074219 139.886719 L 133.5 157.136719 L 133.367188 158.285156 L 133.164062 162.261719 L 132.304688 163.046875 L 129.679688 186.496094 Z M 174.605469 40.960938 L 212.882812 126.679688 L 227.304688 115.761719 L 220.429688 103.363281 L 213.421875 91.636719 C 213.421875 91.636719 209.246094 90.964844 206.550781 85.574219 C 203.855469 80.183594 203.953125 84.480469 202.234375 81.664062 L 189.332031 60.472656 L 184.445312 58.550781 L 175.675781 40.824219 Z M 170.96875 54.574219 L 172.449219 82.070312 L 174.742188 59.5625 L 197.519531 102.285156 L 172.046875 46.082031 L 170.429688 46.890625 Z M 134.816406 123.34375 L 137.476562 123.378906 L 139.566406 126.949219 L 139.464844 129.273438 L 166.679688 85.203125 L 166.488281 65.023438 L 159.074219 78.09375 L 157.761719 86.246094 L 139.203125 112.433594 L 138.566406 113.949219 Z M 134.515625 133.035156 L 132.289062 154.171875 L 135.589844 139.550781 L 136.914062 134.585938 L 138.117188 131.886719 L 136.738281 133.078125 Z M 128.636719 155.191406 C 128.636719 155.191406 129.644531 155.964844 131.464844 155.457031 C 133.28125 154.953125 131.5625 156.535156 131.5625 156.535156 L 132.675781 158.117188 L 132.472656 161.789062 L 131.632812 162.328125 L 130.304688 162.273438 L 131.582031 162.832031 L 128.042969 198.582031 C 128.042969 198.582031 127.1875 199.054688 125.941406 198.953125 C 124.695312 198.851562 123.855469 198.3125 123.855469 198.3125 L 125.550781 179.714844 L 127.097656 161.992188 L 127.398438 157.066406 L 127.953125 156.613281 L 128.152344 155.367188 Z M 97.515625 206.195312 C 97.515625 206.195312 95.898438 206.871094 95.964844 201.546875 C 96.035156 196.222656 96.707031 182.8125 96.707031 182.8125 L 99.066406 180.925781 L 118.675781 181.332031 L 119.011719 191.4375 C 119.011719 191.4375 121.101562 191.304688 121.101562 193.59375 C 121.101562 195.886719 121.101562 205.253906 121.101562 205.253906 C 121.101562 205.253906 121.371094 206.398438 119.753906 206.332031 C 118.136719 206.265625 97.515625 206.195312 97.515625 206.195312 Z M 96.183594 183.199219 L 95.578125 202.960938 C 95.578125 202.960938 95.578125 204.746094 96.113281 205.753906 C 96.652344 206.765625 94.601562 208.480469 94.601562 208.480469 C 94.246094 208.300781 94.09375 206.714844 94.230469 203.214844 C 94.3125 201.027344 94.203125 197.632812 94.28125 194.132812 C 94.332031 192.035156 94.667969 189.882812 94.667969 189.882812 Z M 96.789062 206.695312 L 95.375 208.953125 L 96.148438 209.355469 L 113.921875 209.558594 L 116.550781 208.144531 L 122.914062 207.035156 Z M 88.40625 220.5 L 86.351562 220.464844 L 85.78125 221.308594 L 85.746094 228.109375 L 86.148438 228.476562 L 87.632812 228.644531 L 87.902344 229.050781 L 99.515625 232.082031 C 100.132812 232.242188 100.792969 222.585938 99.75 222.285156 C 96.417969 221.980469 89.011719 221.476562 89.011719 221.476562 Z M 88.40625 220.5 " fill-opacity="1" fill-rule="evenodd"/><path fill="#000000" d="M 236.402344 124.355469 L 235.5 188.582031 L 268.519531 188.582031 L 255.359375 126.191406 Z M 232.605469 190.007812 L 232.644531 187.046875 C 235.105469 182.664062 233.710938 178.09375 232.800781 175.984375 L 233.546875 122.753906 L 233.570312 121.1875 L 235.121094 121.339844 L 256.6875 123.429688 L 257.742188 123.53125 L 257.960938 124.566406 L 271.707031 189.730469 L 270.957031 190.449219 L 270.296875 191.46875 L 232.585938 191.46875 Z M 232.605469 190.007812 " fill-opacity="1" fill-rule="nonzero"/><path fill="#000000" d="M 205.609375 127.976562 C 205.867188 127.976562 206.113281 128.03125 206.347656 128.136719 C 206.519531 128.210938 206.683594 128.308594 206.839844 128.429688 C 207.363281 128.46875 208.144531 128.433594 209.3125 128.253906 C 210.644531 128.046875 212.46875 127.644531 214.960938 126.929688 C 217.40625 126.230469 219.40625 125.351562 221.023438 124.441406 C 222.582031 123.566406 223.785156 122.660156 224.691406 121.859375 C 225.003906 121.167969 225.367188 120.578125 225.773438 120.121094 C 226.21875 119.617188 226.722656 119.265625 227.261719 119.097656 C 227.375 119.0625 227.492188 119.035156 227.613281 119.015625 L 227.617188 119.015625 C 227.734375 118.996094 227.851562 118.988281 227.972656 118.988281 C 229.304688 118.988281 230.464844 120.097656 231.269531 121.890625 C 232.011719 123.546875 232.472656 125.816406 232.472656 128.3125 C 232.472656 130.804688 232.011719 133.078125 231.269531 134.730469 C 230.464844 136.527344 229.304688 137.636719 227.972656 137.636719 C 227.730469 137.636719 227.488281 137.597656 227.253906 137.523438 C 227.046875 137.460938 226.847656 137.367188 226.652344 137.253906 C 225.695312 136.980469 224.207031 136.621094 222.488281 136.410156 C 220.734375 136.195312 218.742188 136.140625 216.84375 136.5 C 215.324219 136.789062 213.761719 137.28125 212.304688 137.832031 C 210.222656 138.621094 208.371094 139.53125 207.199219 140.144531 C 206.988281 140.378906 206.761719 140.5625 206.523438 140.695312 C 206.234375 140.851562 205.929688 140.9375 205.609375 140.9375 C 204.632812 140.9375 203.789062 140.144531 203.214844 138.867188 C 202.703125 137.730469 202.386719 136.167969 202.386719 134.457031 C 202.386719 132.742188 202.703125 131.183594 203.214844 130.046875 C 203.789062 128.769531 204.632812 127.976562 205.609375 127.976562 Z M 205.890625 129.191406 C 205.796875 129.148438 205.703125 129.128906 205.609375 129.128906 C 205.128906 129.128906 204.648438 129.660156 204.265625 130.515625 C 203.816406 131.515625 203.539062 132.910156 203.539062 134.457031 C 203.539062 136.003906 203.816406 137.394531 204.265625 138.394531 C 204.648438 139.253906 205.128906 139.78125 205.609375 139.78125 C 205.730469 139.78125 205.851562 139.75 205.96875 139.683594 C 206.117188 139.601562 206.265625 139.472656 206.402344 139.308594 L 206.476562 139.222656 L 206.574219 139.171875 C 207.765625 138.542969 209.707031 137.582031 211.898438 136.753906 C 213.40625 136.183594 215.035156 135.671875 216.628906 135.367188 C 218.667969 134.980469 220.777344 135.039062 222.625 135.265625 C 224.464844 135.488281 226.050781 135.878906 227.046875 136.164062 L 227.125 136.1875 L 227.199219 136.234375 C 227.328125 136.316406 227.460938 136.382812 227.59375 136.421875 C 227.71875 136.460938 227.84375 136.480469 227.972656 136.480469 C 228.808594 136.480469 229.605469 135.632812 230.21875 134.261719 C 230.898438 132.75 231.316406 130.648438 231.316406 128.3125 C 231.316406 125.976562 230.898438 123.871094 230.21875 122.359375 C 229.605469 120.988281 228.808594 120.140625 227.972656 120.140625 C 227.910156 120.140625 227.847656 120.148438 227.789062 120.15625 L 227.785156 120.152344 C 227.726562 120.164062 227.667969 120.175781 227.601562 120.195312 L 227.597656 120.199219 C 227.269531 120.300781 226.941406 120.539062 226.636719 120.882812 C 226.289062 121.277344 225.96875 121.804688 225.691406 122.4375 L 225.640625 122.554688 L 225.550781 122.636719 C 224.585938 123.503906 223.285156 124.496094 221.585938 125.449219 C 219.898438 126.398438 217.816406 127.3125 215.277344 128.039062 C 212.753906 128.761719 210.878906 129.171875 209.488281 129.390625 C 208.066406 129.613281 207.144531 129.628906 206.546875 129.5625 L 206.359375 129.539062 L 206.21875 129.414062 C 206.109375 129.3125 206 129.238281 205.890625 129.191406 Z M 205.890625 129.191406 " fill-opacity="1" fill-rule="nonzero"/><path fill="#000000" d="M 208.402344 128.210938 C 208.234375 128.160156 208.058594 128.132812 207.886719 128.128906 L 205.808594 127.988281 L 205.792969 127.984375 L 205.765625 127.984375 L 205.675781 127.980469 L 205.648438 127.976562 L 205.640625 127.976562 L 205.570312 129.128906 L 205.695312 129.136719 L 205.773438 129.152344 L 205.859375 129.179688 L 205.953125 129.222656 L 206.046875 129.277344 L 206.125 129.332031 L 206.234375 129.425781 L 206.375 129.546875 L 206.558594 129.5625 L 206.789062 129.582031 L 206.816406 129.582031 L 206.992188 129.589844 L 207.011719 129.589844 L 207.207031 129.59375 L 207.449219 129.59375 L 207.632812 129.585938 L 207.652344 129.585938 C 207.824219 129.578125 207.984375 129.570312 208.125 129.558594 C 208.28125 129.546875 208.457031 129.527344 208.65625 129.503906 L 210.269531 129.320312 L 208.898438 128.445312 C 208.738281 128.34375 208.570312 128.265625 208.402344 128.210938 Z M 205.53125 140.933594 L 207.664062 141.078125 L 207.722656 141.082031 L 207.761719 141.085938 L 207.84375 141.089844 L 207.863281 141.089844 C 208.179688 141.089844 208.488281 141.007812 208.777344 140.847656 C 209.019531 140.714844 209.25 140.527344 209.460938 140.296875 C 210.449219 139.777344 211.910156 139.050781 213.570312 138.375 L 213.574219 138.375 C 215.289062 137.671875 217.226562 137.007812 219.097656 136.652344 C 219.636719 136.550781 220.191406 136.480469 220.746094 136.441406 C 221.308594 136.398438 221.863281 136.386719 222.398438 136.394531 L 227.386719 136.480469 C 227.3125 136.566406 227.269531 136.734375 227.269531 137.050781 L 227.269531 137.554688 L 227.769531 137.621094 L 227.789062 137.625 L 227.828125 137.628906 L 230.023438 137.777344 L 230.152344 137.789062 L 230.152344 137.785156 L 230.214844 137.785156 L 230.226562 137.789062 C 231.066406 137.789062 231.839844 137.347656 232.5 136.570312 L 234.15625 136.601562 L 232.621094 136.421875 C 232.957031 135.996094 233.261719 135.476562 233.527344 134.882812 C 234.265625 133.230469 234.726562 130.957031 234.726562 128.464844 C 234.726562 125.996094 234.257812 123.777344 233.511719 122.132812 C 232.695312 120.328125 231.515625 119.179688 230.199219 119.074219 L 230.054688 119.066406 C 229.332031 119.007812 228.910156 118.976562 228.039062 118.988281 L 227.882812 118.988281 L 227.921875 120.140625 L 228.011719 120.140625 C 228.398438 120.148438 228.667969 120.332031 228.828125 120.445312 L 228.832031 120.449219 L 228.882812 120.484375 C 229.570312 121 230.171875 122.027344 230.609375 123.382812 C 231.054688 124.761719 231.316406 126.464844 231.316406 128.3125 C 231.316406 130.171875 231.050781 131.886719 230.597656 133.273438 C 230.195312 134.503906 229.65625 135.464844 229.042969 136.007812 L 222.472656 135.246094 C 221.507812 135.136719 220.472656 135.070312 219.40625 135.09375 C 218.484375 135.109375 217.546875 135.195312 216.628906 135.367188 C 215.054688 135.667969 213.449219 136.167969 211.957031 136.730469 C 209.828125 137.53125 207.925781 138.464844 206.707031 139.101562 L 206.667969 139.121094 L 206.574219 139.171875 L 206.484375 139.21875 L 206.414062 139.292969 L 206.304688 139.414062 L 206.289062 139.433594 L 206.285156 139.4375 L 206.214844 139.503906 L 205.988281 139.667969 L 205.875 139.726562 L 205.777344 139.761719 L 205.621094 139.785156 L 205.566406 139.785156 Z M 207.742188 139.925781 L 207.636719 139.921875 C 207.972656 139.746094 208.351562 139.558594 208.761719 139.359375 L 208.730469 139.378906 L 208.660156 139.460938 C 208.515625 139.628906 208.371094 139.757812 208.222656 139.835938 C 208.105469 139.902344 207.984375 139.9375 207.863281 139.9375 L 207.828125 139.9375 L 207.761719 139.929688 Z M 230.144531 136.53125 L 230.714844 136.539062 C 230.554688 136.601562 230.390625 136.632812 230.226562 136.632812 L 230.226562 136.636719 L 230.191406 136.636719 L 230.105469 136.628906 L 230.101562 136.628906 L 230.058594 136.625 Z M 231.191406 136.257812 L 230.441406 136.171875 C 230.9375 135.507812 231.363281 134.640625 231.691406 133.628906 C 232.183594 132.128906 232.472656 130.292969 232.472656 128.3125 C 232.472656 126.347656 232.1875 124.523438 231.703125 123.03125 C 231.339844 121.894531 230.851562 120.945312 230.28125 120.25 C 231.089844 120.414062 231.859375 121.28125 232.460938 122.605469 C 233.144531 124.109375 233.570312 126.164062 233.570312 128.464844 C 233.570312 130.800781 233.152344 132.902344 232.472656 134.414062 C 232.101562 135.242188 231.667969 135.882812 231.191406 136.257812 Z M 231.191406 136.257812 " fill-opacity="1" fill-rule="nonzero"/><path fill="#f07d05" d="M 207.863281 128.707031 C 208.117188 128.707031 208.359375 128.785156 208.589844 128.933594 C 208.226562 128.972656 207.910156 129 207.628906 129.011719 L 207.613281 129.011719 C 207.488281 129.015625 207.371094 129.019531 207.261719 129.019531 L 207.21875 129.019531 C 207.148438 129.019531 207.082031 129.019531 207.015625 129.015625 L 206.839844 129.007812 L 206.609375 128.988281 L 206.488281 128.886719 L 206.367188 128.796875 L 206.222656 128.710938 L 206.066406 128.640625 L 205.917969 128.59375 L 205.734375 128.558594 L 205.609375 128.554688 Z M 205.570312 140.359375 L 207.703125 140.503906 C 207.757812 140.507812 207.808594 140.511719 207.863281 140.511719 C 208.308594 140.511719 208.726562 140.269531 209.097656 139.835938 C 211.082031 138.785156 215.164062 136.8125 218.992188 136.085938 C 220.125 135.871094 221.285156 135.800781 222.40625 135.820312 C 220.640625 135.613281 218.648438 135.570312 216.734375 135.933594 C 212.988281 136.644531 208.996094 138.550781 206.96875 139.617188 L 206.9375 139.632812 L 206.839844 139.683594 L 206.714844 139.820312 L 206.714844 139.824219 L 206.710938 139.824219 L 206.574219 139.953125 L 206.296875 140.15625 L 206.085938 140.265625 L 205.90625 140.324219 L 205.679688 140.359375 Z M 227.867188 137.054688 L 230.0625 137.203125 C 230.09375 137.207031 230.121094 137.207031 230.152344 137.210938 C 230.175781 137.210938 230.203125 137.210938 230.226562 137.210938 C 232.390625 137.210938 234.148438 133.292969 234.148438 128.464844 C 234.148438 123.632812 232.3125 119.820312 230.152344 119.652344 C 229.304688 119.585938 228.890625 119.546875 227.910156 119.566406 C 228.582031 119.535156 228.992188 119.863281 229.214844 120.011719 C 230.769531 121.171875 231.894531 124.449219 231.894531 128.3125 C 231.894531 132.203125 230.753906 135.503906 229.175781 136.636719 L 229 136.753906 C 228.980469 136.765625 228.960938 136.777344 228.941406 136.789062 L 228.828125 136.847656 L 228.554688 136.960938 L 228.394531 137.007812 L 228.1875 137.046875 C 228.082031 137.046875 227.761719 137.046875 227.867188 137.054688 Z M 227.867188 137.054688 " fill-opacity="1" fill-rule="evenodd"/><path fill="#000000" d="M 205.585938 130.832031 C 206.144531 130.832031 206.59375 132.402344 206.59375 134.339844 C 206.59375 136.277344 206.144531 137.847656 205.585938 137.847656 C 205.027344 137.847656 204.578125 136.277344 204.578125 134.339844 C 204.578125 132.402344 205.027344 130.832031 205.585938 130.832031 Z M 205.585938 130.832031 " fill-opacity="1" fill-rule="evenodd"/><path fill="#000000" d="M 228.152344 123.851562 C 229.003906 123.851562 229.691406 125.777344 229.691406 128.152344 C 229.691406 130.527344 229.003906 132.453125 228.152344 132.453125 C 227.304688 132.453125 226.617188 130.527344 226.617188 128.152344 C 226.617188 125.777344 227.304688 123.851562 228.152344 123.851562 Z M 228.152344 123.851562 " fill-opacity="1" fill-rule="evenodd"/><path fill="#000000" d="M 255.058594 126.015625 C 255.328125 125.816406 255.578125 125.621094 255.804688 125.433594 C 255.992188 125.28125 256.175781 125.121094 256.363281 124.957031 C 256.675781 124.265625 257.039062 123.679688 257.445312 123.222656 C 257.894531 122.71875 258.394531 122.363281 258.933594 122.199219 C 259.046875 122.164062 259.164062 122.136719 259.285156 122.117188 L 259.289062 122.113281 C 259.40625 122.097656 259.527344 122.085938 259.644531 122.085938 C 260.976562 122.085938 262.136719 123.195312 262.941406 124.992188 C 263.683594 126.644531 264.144531 128.917969 264.144531 131.410156 C 264.144531 133.90625 263.683594 136.175781 262.941406 137.832031 C 262.136719 139.625 260.976562 140.734375 259.644531 140.734375 C 259.597656 140.734375 259.539062 140.734375 259.476562 140.730469 C 259.421875 140.726562 259.367188 140.71875 259.308594 140.710938 L 258.945312 140.660156 L 258.839844 140.304688 C 258.160156 138.023438 257.273438 135.039062 256.40625 132.066406 C 255.800781 129.984375 255.242188 128.050781 254.847656 126.632812 L 254.742188 126.25 Z M 256.535156 126.324219 C 256.382812 126.449219 256.226562 126.574219 256.0625 126.699219 C 256.453125 128.09375 256.964844 129.867188 257.511719 131.746094 C 258.234375 134.226562 259.097656 137.140625 259.820312 139.566406 C 260.59375 139.457031 261.320312 138.636719 261.890625 137.363281 C 262.570312 135.851562 262.988281 133.746094 262.988281 131.410156 C 262.988281 129.074219 262.570312 126.972656 261.890625 125.460938 C 261.277344 124.089844 260.480469 123.242188 259.644531 123.242188 C 259.582031 123.242188 259.519531 123.246094 259.460938 123.253906 C 259.398438 123.261719 259.339844 123.277344 259.273438 123.296875 L 259.269531 123.296875 C 258.941406 123.402344 258.613281 123.636719 258.308594 123.984375 C 257.960938 124.375 257.640625 124.902344 257.363281 125.535156 L 257.3125 125.652344 L 257.222656 125.734375 C 257.023438 125.914062 256.796875 126.109375 256.535156 126.324219 Z M 256.535156 126.324219 " fill-opacity="1" fill-rule="nonzero"/><path fill="#000000" d="M 259.539062 140.15625 L 261.734375 140.304688 C 261.765625 140.308594 261.792969 140.308594 261.824219 140.308594 C 261.847656 140.3125 261.875 140.3125 261.898438 140.3125 C 264.0625 140.3125 265.820312 136.394531 265.820312 131.566406 C 265.820312 126.734375 263.984375 122.921875 261.824219 122.75 C 260.976562 122.683594 260.5625 122.644531 259.582031 122.664062 C 260.253906 122.636719 260.664062 122.964844 260.886719 123.113281 C 262.441406 124.273438 263.566406 127.550781 263.566406 131.410156 C 263.566406 135.304688 262.425781 138.601562 260.847656 139.738281 L 260.671875 139.851562 C 260.652344 139.867188 260.632812 139.875 260.613281 139.886719 L 260.5 139.949219 L 260.226562 140.0625 L 260.066406 140.109375 L 259.859375 140.144531 C 259.753906 140.148438 259.433594 140.148438 259.539062 140.15625 Z M 259.539062 140.15625 " fill-opacity="1" fill-rule="evenodd"/><path fill="#000000" d="M 241.320312 130.453125 L 240.917969 183.285156 L 262.078125 183.285156 L 252.105469 131.261719 Z M 251.683594 132.359375 L 250.792969 133.277344 L 259.226562 182.128906 L 260.683594 182.113281 Z M 242.175781 131.351562 L 251.066406 131.871094 L 250.089844 132.882812 L 242.125 132.410156 Z M 242.175781 131.351562 " fill-opacity="1" fill-rule="evenodd"/><path fill="#000000" d="M 229.890625 174.019531 C 230.613281 174.769531 231.222656 175.808594 231.652344 177.21875 C 232.074219 178.605469 232.316406 180.355469 232.316406 182.546875 C 232.316406 184.761719 231.65625 187.140625 230.714844 188.976562 C 229.707031 190.949219 228.332031 192.328125 227.035156 192.328125 C 224.59375 192.328125 222.613281 188.078125 222.613281 182.835938 L 222.617188 182.835938 L 222.398438 170.902344 L 221.605469 169.203125 L 215.082031 166.65625 L 215.011719 166.632812 L 214.945312 166.582031 L 210.578125 163.296875 C 209.648438 162.746094 208.859375 161.6875 208.3125 160.316406 C 207.796875 159.023438 207.492188 157.4375 207.492188 155.726562 C 207.492188 151.308594 210.144531 147.722656 212.113281 147.722656 C 213.105469 147.722656 214.019531 147.9375 214.796875 148.386719 C 215.539062 148.8125 216.144531 149.453125 216.554688 150.320312 L 216.554688 150.324219 L 216.558594 150.328125 C 216.59375 150.402344 216.796875 150.882812 217.105469 151.617188 C 218.082031 153.929688 220.15625 158.847656 221.539062 161.765625 C 223.3125 165.507812 228.058594 171.550781 228.074219 171.566406 L 228.082031 171.578125 Z M 230.550781 177.550781 C 230.175781 176.316406 229.652344 175.425781 229.039062 174.792969 L 229.011719 174.765625 L 228.988281 174.734375 L 227.160156 172.265625 C 226.9375 171.984375 222.28125 166.027344 220.496094 162.257812 C 219.125 159.359375 217.03125 154.398438 216.046875 152.0625 C 215.753906 151.367188 215.5625 150.914062 215.515625 150.820312 L 215.515625 150.816406 L 215.511719 150.8125 C 215.207031 150.167969 214.761719 149.695312 214.21875 149.382812 C 213.628906 149.039062 212.90625 148.878906 212.113281 148.878906 C 210.636719 148.878906 208.648438 151.945312 208.648438 155.726562 C 208.648438 157.292969 208.921875 158.734375 209.382812 159.894531 C 209.835938 161.03125 210.464844 161.890625 211.179688 162.308594 L 211.535156 162.515625 L 211.523438 162.566406 L 215.570312 165.613281 L 222.238281 168.210938 L 222.453125 168.296875 L 222.550781 168.503906 L 223.492188 170.527344 L 223.546875 170.636719 L 223.546875 170.761719 L 223.765625 182.828125 L 223.769531 182.835938 C 223.769531 187.441406 225.230469 191.175781 227.035156 191.175781 C 227.871094 191.175781 228.871094 190.054688 229.691406 188.453125 C 230.554688 186.765625 231.164062 184.582031 231.164062 182.550781 C 231.164062 180.460938 230.9375 178.824219 230.550781 177.550781 Z M 230.550781 177.550781 " fill-opacity="1" fill-rule="nonzero"/><path fill="#000000" d="M 232.355469 173.09375 C 233.078125 173.84375 233.6875 174.882812 234.113281 176.289062 C 234.535156 177.675781 234.78125 179.425781 234.78125 181.621094 C 234.78125 183.667969 234.210938 186.027344 233.480469 187.976562 C 232.570312 190.394531 231.308594 192.222656 230.4375 192.222656 C 229.882812 192.222656 229.292969 192.238281 228.785156 192.253906 C 227.867188 192.277344 227.125 192.300781 226.976562 191.871094 C 226.855469 191.511719 226.972656 191.261719 227.347656 191.132812 L 227.347656 191.128906 C 228.09375 190.875 229.050781 189.53125 229.832031 187.835938 C 230.601562 186.160156 231.164062 184.175781 231.164062 182.550781 C 231.164062 180.859375 230.941406 179.230469 230.554688 177.855469 C 230.175781 176.507812 229.648438 175.421875 229.039062 174.792969 L 228.851562 174.601562 L 228.855469 174.5625 C 227.984375 173.40625 223.175781 166.992188 221.496094 163.449219 C 220.164062 160.632812 217.566406 155.148438 216.277344 152.429688 L 215.519531 150.828125 L 215.519531 150.824219 L 215.515625 150.820312 L 215.511719 150.8125 L 215.515625 150.8125 C 214.574219 149.011719 211.703125 148.910156 211.695312 148.910156 L 208.199219 148.757812 L 211.558594 147.785156 C 212.480469 147.515625 213.578125 147.292969 214.503906 147.175781 C 215.425781 147.058594 216.222656 147.054688 216.617188 147.214844 C 216.726562 147.257812 216.785156 147.277344 216.839844 147.296875 C 217.460938 147.523438 218.15625 147.773438 218.851562 149.0625 L 218.859375 149.0625 L 219.015625 149.394531 L 219.019531 149.402344 L 219.023438 149.40625 L 219.78125 151.007812 C 221.070312 153.730469 223.667969 159.210938 225 162.03125 C 226.742188 165.703125 232.03125 172.667969 232.355469 173.09375 Z M 233.011719 176.625 C 232.636719 175.386719 232.113281 174.496094 231.5 173.867188 L 231.3125 173.675781 L 231.316406 173.632812 C 230.445312 172.480469 225.636719 166.0625 223.960938 162.523438 C 222.625 159.703125 220.027344 154.222656 218.738281 151.5 L 218.132812 150.21875 L 217.976562 149.886719 C 217.429688 148.734375 216.910156 148.546875 216.453125 148.382812 C 216.34375 148.339844 216.234375 148.304688 216.1875 148.28125 C 215.984375 148.203125 215.390625 148.226562 214.644531 148.320312 C 214.539062 148.335938 214.433594 148.347656 214.328125 148.363281 C 215.089844 148.695312 215.855469 149.203125 216.363281 149.992188 L 216.398438 149.992188 L 216.554688 150.324219 L 216.5625 150.332031 L 216.5625 150.335938 L 217.320312 151.9375 C 218.609375 154.65625 221.207031 160.140625 222.539062 162.957031 C 224.28125 166.632812 229.574219 173.601562 229.894531 174.023438 C 230.628906 174.792969 231.242188 176.035156 231.664062 177.546875 C 232.078125 179.011719 232.316406 180.746094 232.316406 182.550781 C 232.316406 184.351562 231.710938 186.511719 230.878906 188.316406 C 230.375 189.40625 229.78125 190.378906 229.171875 191.089844 C 229.636719 191.078125 230.109375 191.066406 230.4375 191.066406 C 230.828125 191.066406 231.652344 189.5625 232.402344 187.570312 C 233.089844 185.738281 233.625 183.523438 233.625 181.621094 C 233.625 179.535156 233.398438 177.898438 233.011719 176.625 Z M 233.011719 176.625 " fill-opacity="1" fill-rule="nonzero"/><path fill="#000000" d="M 213.507812 151.25 C 214.429688 151.542969 214.582031 153.648438 213.847656 155.953125 C 213.113281 158.257812 211.769531 159.890625 210.847656 159.597656 C 209.925781 159.304688 209.773438 157.195312 210.507812 154.890625 C 211.242188 152.585938 212.585938 150.957031 213.507812 151.25 Z M 213.507812 151.25 " fill-opacity="1" fill-rule="evenodd"/><path fill="#000000" d="M 227.59375 176.515625 C 228.863281 176.550781 229.828125 179.15625 229.742188 182.335938 C 229.65625 185.515625 228.558594 188.066406 227.285156 188.03125 C 226.011719 188 225.050781 185.394531 225.136719 182.214844 C 225.21875 179.035156 226.320312 176.484375 227.59375 176.515625 Z M 227.59375 176.515625 " fill-opacity="1" fill-rule="evenodd"/><path fill="#c6c6c6" d="M 211.871094 86.585938 C 211.871094 86.585938 211.804688 83.890625 212.75 83.417969 C 213.691406 82.945312 214.90625 82.339844 215.445312 82.542969 C 215.984375 82.742188 242.128906 121.625 242.128906 121.625 L 235.054688 120.617188 Z M 211.871094 86.585938 " fill-opacity="1" fill-rule="evenodd"/><path fill="#c6c6c6" d="M 128.835938 154.71875 C 128.835938 154.71875 129.679688 155.492188 131.195312 155.023438 C 131.292969 148.484375 133.683594 132.03125 133.683594 132.03125 L 131.496094 131.960938 L 131.292969 131.457031 Z M 128.835938 154.71875 " fill-opacity="1" fill-rule="evenodd"/><path fill="#c6c6c6" d="M 153.816406 133.832031 L 151.054688 139.433594 L 149.011719 155.644531 C 149.011719 155.644531 149.640625 156.132812 149.945312 156.167969 C 150.25 156.199219 151.1875 155.972656 151.1875 155.972656 Z M 153.816406 133.832031 " fill-opacity="1" fill-rule="evenodd"/><path fill="#c6c6c6" d="M 156.074219 161.792969 L 171.78125 162.601562 C 173.074219 162.667969 174.050781 163.664062 174.136719 164.957031 L 175.214844 181.597656 L 171.355469 197.792969 L 158.535156 197.4375 C 157.242188 197.402344 156.03125 195.46875 155.960938 194.179688 L 154.34375 164.152344 C 154.273438 162.859375 154.785156 161.726562 156.074219 161.792969 Z M 156.074219 161.792969 " fill-opacity="1" fill-rule="evenodd"/><path fill="#c6c6c6" d="M 100.480469 214.160156 C 100.480469 214.160156 100.734375 213.929688 101.035156 215.496094 L 118.726562 215.496094 C 118.558594 214.609375 118.324219 214.515625 117.847656 213.957031 C 117.847656 213.957031 100.480469 214.160156 100.480469 214.160156 Z M 101.261719 216.777344 C 101.34375 217.273438 101.429688 217.8125 101.507812 218.382812 L 119.179688 218.382812 C 119.109375 217.855469 119.035156 217.316406 118.949219 216.777344 Z M 101.667969 219.664062 C 101.707031 220 101.742188 220.34375 101.777344 220.695312 L 119.417969 220.695312 C 119.390625 220.351562 119.359375 220.011719 119.324219 219.664062 Z M 101.882812 221.972656 C 101.914062 222.402344 101.941406 222.84375 101.964844 223.292969 L 119.5625 223.292969 C 119.546875 222.859375 119.527344 222.417969 119.503906 221.972656 Z M 102.007812 224.574219 C 102.023438 225.285156 102.023438 226.015625 102.007812 226.757812 L 119.554688 226.757812 C 119.578125 226.050781 119.589844 225.324219 119.585938 224.574219 Z M 101.960938 228.039062 C 101.929688 228.664062 101.882812 229.296875 101.820312 229.933594 L 119.359375 229.933594 C 119.414062 229.328125 119.460938 228.695312 119.496094 228.039062 Z M 101.675781 231.214844 C 101.617188 231.652344 101.550781 232.089844 101.476562 232.53125 L 119.058594 232.53125 C 119.117188 232.113281 119.171875 231.671875 119.226562 231.214844 Z M 101.234375 233.8125 C 101.125 234.347656 100.996094 234.886719 100.855469 235.417969 L 118.566406 235.417969 C 118.660156 234.949219 118.761719 234.414062 118.859375 233.8125 Z M 100.484375 236.699219 C 100.398438 236.976562 99.835938 238.804688 99.738281 239.082031 C 99.738281 239.082031 117.429688 238.980469 117.429688 238.980469 C 117.429688 238.980469 118.152344 237.242188 118.285156 236.699219 Z M 100.484375 236.699219 " fill-opacity="1" fill-rule="evenodd"/><path fill="#ffffff" d="M 155.117188 178.457031 C 155.941406 177.011719 157.578125 174.355469 158.332031 172.925781 C 159.96875 169.816406 161.761719 164.511719 165.042969 162.253906 L 171.78125 162.601562 C 173.074219 162.667969 174.050781 163.664062 174.136719 164.953125 L 174.304688 167.554688 C 173.660156 168.292969 173.003906 169.238281 172.484375 170.5 C 171.300781 173.363281 164.253906 174.605469 161.972656 179.53125 C 160.816406 182.019531 157.554688 182.992188 155.453125 184.695312 Z M 155.546875 186.464844 C 156.746094 185.988281 158.238281 185.160156 158.804688 184.652344 C 162.609375 181.242188 169.113281 179.671875 173.023438 177.304688 C 173.738281 176.875 174.351562 176.558594 174.875 176.34375 L 175.066406 179.328125 C 174.910156 179.441406 174.746094 179.554688 174.574219 179.664062 C 167.871094 183.972656 162.238281 189.023438 156.78125 194.894531 C 156.609375 195.078125 156.445312 195.246094 156.285156 195.40625 C 156.097656 194.984375 155.984375 194.554688 155.960938 194.179688 Z M 155.546875 186.464844 " fill-opacity="1" fill-rule="evenodd"/><g fill="#000000" fill-opacity="1"><g transform="translate(91.319263, 330.954063)"><g><path d="M 2.265625 -6.265625 L 6.75 -7.484375 L 6.75 -30.859375 C 6.75 -31.921875 6.664062 -32.625 6.5 -32.96875 C 6.34375 -33.320312 5.914062 -33.644531 5.21875 -33.9375 L 2.03125 -35.71875 L 2.390625 -40.6875 C 5.503906 -41.175781 8.453125 -41.53125 11.234375 -41.75 C 14.015625 -41.976562 17 -42.09375 20.1875 -42.09375 C 24.601562 -42.09375 28.148438 -41.617188 30.828125 -40.671875 C 33.515625 -39.734375 35.476562 -38.257812 36.71875 -36.25 C 37.96875 -34.25 38.59375 -31.59375 38.59375 -28.28125 C 38.59375 -23.988281 37.046875 -20.613281 33.953125 -18.15625 C 30.867188 -15.707031 26.648438 -14.484375 21.296875 -14.484375 L 17.921875 -14.609375 L 17.921875 -9.9375 C 17.921875 -8.957031 17.988281 -8.320312 18.125 -8.03125 C 18.269531 -7.75 18.628906 -7.460938 19.203125 -7.171875 L 22.953125 -4.96875 L 22.703125 0 L 2.578125 0 Z M 21.84375 -21.296875 C 24.050781 -21.296875 25.664062 -21.519531 26.6875 -21.96875 C 27.132812 -23.96875 27.359375 -26.070312 27.359375 -28.28125 C 27.359375 -30.695312 26.898438 -32.414062 25.984375 -33.4375 C 25.066406 -34.457031 23.582031 -34.96875 21.53125 -34.96875 C 20.84375 -34.96875 19.640625 -34.890625 17.921875 -34.734375 L 17.921875 -21.65625 C 19.023438 -21.414062 20.332031 -21.296875 21.84375 -21.296875 Z M 21.84375 -21.296875 "/></g></g></g><g fill="#000000" fill-opacity="1"><g transform="translate(128.495447, 330.954063)"><g><path d="M 20.921875 0.921875 C 14.703125 0.921875 9.914062 -0.976562 6.5625 -4.78125 C 3.207031 -8.59375 1.53125 -13.972656 1.53125 -20.921875 C 1.53125 -25.335938 2.335938 -29.148438 3.953125 -32.359375 C 5.566406 -35.578125 7.90625 -38.035156 10.96875 -39.734375 C 14.039062 -41.429688 17.6875 -42.28125 21.90625 -42.28125 C 26.6875 -42.28125 31.613281 -41.195312 36.6875 -39.03125 C 36.320312 -35.34375 35.726562 -31.269531 34.90625 -26.8125 L 30.25 -26.5 L 26.015625 -32.703125 C 24.210938 -33.234375 22.226562 -33.5 20.0625 -33.5 C 18.425781 -33.5 16.875 -33.359375 15.40625 -33.078125 C 14.75 -31.804688 14.210938 -30.125 13.796875 -28.03125 C 13.390625 -25.945312 13.1875 -23.84375 13.1875 -21.71875 C 13.1875 -17.175781 14.015625 -13.8125 15.671875 -11.625 C 17.328125 -9.4375 19.957031 -8.300781 23.5625 -8.21875 C 24.988281 -8.21875 26.796875 -8.429688 28.984375 -8.859375 C 31.179688 -9.296875 33.320312 -9.859375 35.40625 -10.546875 L 37.3125 -3.796875 C 35.175781 -2.410156 32.601562 -1.273438 29.59375 -0.390625 C 26.59375 0.484375 23.703125 0.921875 20.921875 0.921875 Z M 20.921875 0.921875 "/></g></g></g><g fill="#000000" fill-opacity="1"><g transform="translate(165.426245, 330.954063)"><g><path d="M 0.984375 -5.46875 L 2.890625 -6.625 L 17.234375 -41.421875 L 27.671875 -42.34375 L 39.9375 -9.203125 C 40.351562 -8.140625 40.640625 -7.441406 40.796875 -7.109375 C 40.960938 -6.785156 41.269531 -6.335938 41.71875 -5.765625 L 42.828125 -4.359375 L 42.453125 0 L 25.21875 0 L 24.609375 -5.828125 L 28.96875 -6.9375 L 27 -13.125 L 14.546875 -12.953125 L 13.1875 -9.078125 C 13.070312 -8.710938 13.015625 -8.40625 13.015625 -8.15625 C 13.015625 -7.875 13.0625 -7.660156 13.15625 -7.515625 C 13.257812 -7.367188 13.4375 -7.253906 13.6875 -7.171875 L 17.921875 -5.40625 L 17.296875 0 L 1.234375 0 Z M 21.046875 -31.84375 L 17 -20.0625 L 24.90625 -19.703125 Z M 21.046875 -31.84375 "/></g></g></g><g fill="#000000" fill-opacity="1"><g transform="translate(206.59011, 330.954063)"><g><path d="M 2.265625 -6.265625 L 6.75 -7.484375 L 6.75 -30.859375 C 6.75 -31.921875 6.664062 -32.625 6.5 -32.96875 C 6.34375 -33.320312 5.914062 -33.644531 5.21875 -33.9375 L 2.03125 -35.71875 L 2.390625 -40.75 C 8.523438 -41.644531 14.4375 -42.09375 20.125 -42.09375 C 24.539062 -42.09375 28.097656 -41.648438 30.796875 -40.765625 C 33.503906 -39.890625 35.476562 -38.519531 36.71875 -36.65625 C 37.96875 -34.800781 38.59375 -32.335938 38.59375 -29.265625 C 38.59375 -26.734375 37.9375 -24.515625 36.625 -22.609375 C 35.320312 -20.703125 33.460938 -19.238281 31.046875 -18.21875 L 40.859375 -2.390625 L 40.796875 0 L 29.640625 0 L 20.5625 -16.390625 L 17.859375 -16.4375 L 17.859375 -9.578125 C 17.859375 -8.585938 17.925781 -7.957031 18.0625 -7.6875 C 18.207031 -7.425781 18.566406 -7.132812 19.140625 -6.8125 L 21.78125 -5.28125 L 21.53125 0 L 2.578125 0 Z M 21.78125 -23.3125 C 23.945312 -23.3125 25.539062 -23.519531 26.5625 -23.9375 C 26.976562 -25.40625 27.1875 -27.160156 27.1875 -29.203125 C 27.1875 -31.253906 26.742188 -32.707031 25.859375 -33.5625 C 24.984375 -34.425781 23.519531 -34.859375 21.46875 -34.859375 C 20.320312 -34.859375 19.160156 -34.796875 17.984375 -34.671875 L 17.984375 -23.6875 C 19.046875 -23.4375 20.3125 -23.3125 21.78125 -23.3125 Z M 21.78125 -23.3125 "/></g></g></g><g fill="#000000" fill-opacity="1"><g transform="translate(245.422716, 330.954063)"><g><path d="M 1.65625 -6.265625 L 6.140625 -7.484375 L 6.140625 -30.984375 C 6.140625 -32.046875 6.054688 -32.75 5.890625 -33.09375 C 5.722656 -33.445312 5.296875 -33.765625 4.609375 -34.046875 L 1.53125 -35.828125 L 1.71875 -41.359375 L 35.03125 -41.359375 C 35.320312 -37.054688 35.46875 -32.863281 35.46875 -28.78125 L 30.921875 -28.46875 L 26.5625 -33.875 L 17.296875 -34.109375 L 17.296875 -24.109375 L 30.375 -25.21875 L 30.375 -15.765625 L 17.296875 -17.1875 L 17.296875 -7.296875 L 27.484375 -7.484375 L 32.21875 -12.890625 L 36.75 -12.578125 C 36.59375 -8.285156 36.285156 -4.09375 35.828125 0 L 1.96875 0 Z M 1.65625 -6.265625 "/></g></g></g><g fill="#703900" fill-opacity="1"><g transform="translate(14.932221, 367.433965)"><g><path d="M 5.734375 0.09375 C 4.140625 0.09375 2.539062 0.03125 0.9375 -0.09375 L 0.828125 -2.265625 L 2.453125 -2.71875 L 2.453125 -11.1875 C 2.453125 -11.570312 2.421875 -11.828125 2.359375 -11.953125 C 2.296875 -12.085938 2.140625 -12.203125 1.890625 -12.296875 L 0.734375 -12.953125 L 0.875 -14.796875 C 3.269531 -15.109375 5.328125 -15.265625 7.046875 -15.265625 C 9.160156 -15.265625 10.707031 -14.953125 11.6875 -14.328125 C 12.664062 -13.703125 13.15625 -12.71875 13.15625 -11.375 C 13.15625 -10.707031 13.050781 -10.113281 12.84375 -9.59375 C 12.632812 -9.082031 12.3125 -8.617188 11.875 -8.203125 C 13.363281 -7.535156 14.109375 -6.457031 14.109375 -4.96875 C 14.109375 -3.625 13.734375 -2.546875 12.984375 -1.734375 C 12.242188 -0.921875 11.15625 -0.390625 9.71875 -0.140625 C 9.1875 0.015625 7.859375 0.09375 5.734375 0.09375 Z M 9.015625 -8.921875 C 9.160156 -9.304688 9.234375 -9.953125 9.234375 -10.859375 C 9.234375 -11.484375 9.085938 -11.941406 8.796875 -12.234375 C 8.503906 -12.535156 8.0625 -12.703125 7.46875 -12.734375 C 7.082031 -12.734375 6.695312 -12.71875 6.3125 -12.6875 L 6.3125 -8.96875 C 6.570312 -8.976562 6.898438 -8.984375 7.296875 -8.984375 C 7.898438 -8.984375 8.472656 -8.960938 9.015625 -8.921875 Z M 8.078125 -2.671875 C 8.921875 -2.671875 9.519531 -2.742188 9.875 -2.890625 C 10.019531 -3.484375 10.09375 -4.007812 10.09375 -4.46875 C 10.09375 -5.207031 9.898438 -5.734375 9.515625 -6.046875 C 9.128906 -6.359375 8.476562 -6.515625 7.5625 -6.515625 C 7.375 -6.515625 7.128906 -6.5 6.828125 -6.46875 L 6.3125 -6.453125 L 6.3125 -2.828125 C 6.832031 -2.722656 7.421875 -2.671875 8.078125 -2.671875 Z M 8.078125 -2.671875 "/></g></g></g><g fill="#703900" fill-opacity="1"><g transform="translate(33.971868, 367.433965)"><g><path d="M 5.765625 0.265625 C 4.023438 0.265625 2.679688 -0.257812 1.734375 -1.3125 C 0.796875 -2.363281 0.328125 -3.816406 0.328125 -5.671875 C 0.328125 -6.960938 0.554688 -8.070312 1.015625 -9 C 1.484375 -9.925781 2.140625 -10.632812 2.984375 -11.125 C 3.828125 -11.613281 4.8125 -11.859375 5.9375 -11.859375 C 7.613281 -11.859375 8.898438 -11.320312 9.796875 -10.25 C 10.691406 -9.1875 11.117188 -7.671875 11.078125 -5.703125 L 4.3125 -4.453125 C 4.519531 -3.828125 4.8125 -3.367188 5.1875 -3.078125 C 5.570312 -2.785156 6.078125 -2.640625 6.703125 -2.640625 C 7.128906 -2.640625 7.640625 -2.703125 8.234375 -2.828125 C 8.828125 -2.960938 9.425781 -3.140625 10.03125 -3.359375 L 10.546875 -1.15625 C 9.992188 -0.738281 9.28125 -0.394531 8.40625 -0.125 C 7.53125 0.132812 6.648438 0.265625 5.765625 0.265625 Z M 7.4375 -7.5625 C 7.40625 -8.125 7.242188 -8.535156 6.953125 -8.796875 C 6.660156 -9.054688 6.253906 -9.1875 5.734375 -9.1875 C 5.304688 -9.1875 4.898438 -9.128906 4.515625 -9.015625 C 4.203125 -8.285156 4.0625 -7.5 4.09375 -6.65625 Z M 7.4375 -7.5625 "/></g></g></g><g fill="#703900" fill-opacity="1"><g transform="translate(50.187112, 367.433965)"><g><path d="M 4.6875 0.375 C 3.519531 0.375 2.164062 0.164062 0.625 -0.25 C 0.707031 -1.695312 0.800781 -2.769531 0.90625 -3.46875 L 2.1875 -3.71875 L 3.578125 -2.21875 C 4.066406 -2.070312 4.617188 -2 5.234375 -2 C 5.566406 -2 5.832031 -2.019531 6.03125 -2.0625 C 6.070312 -2.1875 6.09375 -2.351562 6.09375 -2.5625 C 6.09375 -2.738281 6.050781 -2.882812 5.96875 -3 C 5.894531 -3.125 5.710938 -3.265625 5.421875 -3.421875 C 5.140625 -3.585938 4.648438 -3.84375 3.953125 -4.1875 C 3.078125 -4.644531 2.410156 -5.054688 1.953125 -5.421875 C 1.492188 -5.785156 1.164062 -6.160156 0.96875 -6.546875 C 0.769531 -6.929688 0.671875 -7.390625 0.671875 -7.921875 C 0.671875 -9.109375 1.109375 -10.050781 1.984375 -10.75 C 2.867188 -11.445312 4.066406 -11.796875 5.578125 -11.796875 C 6.203125 -11.796875 6.859375 -11.722656 7.546875 -11.578125 C 8.242188 -11.441406 8.863281 -11.253906 9.40625 -11.015625 C 9.40625 -10.046875 9.34375 -8.96875 9.21875 -7.78125 L 8.046875 -7.609375 L 6.5625 -9.21875 C 6.175781 -9.332031 5.613281 -9.390625 4.875 -9.390625 C 4.75 -9.390625 4.507812 -9.375 4.15625 -9.34375 C 4.113281 -9.257812 4.09375 -9.117188 4.09375 -8.921875 C 4.09375 -8.710938 4.148438 -8.53125 4.265625 -8.375 C 4.390625 -8.21875 4.601562 -8.046875 4.90625 -7.859375 C 5.207031 -7.679688 5.691406 -7.421875 6.359375 -7.078125 C 7.335938 -6.597656 8.078125 -6.179688 8.578125 -5.828125 C 9.078125 -5.484375 9.425781 -5.132812 9.625 -4.78125 C 9.820312 -4.425781 9.921875 -4 9.921875 -3.5 C 9.921875 -2.28125 9.457031 -1.328125 8.53125 -0.640625 C 7.601562 0.0351562 6.320312 0.375 4.6875 0.375 Z M 4.6875 0.375 "/></g></g></g><g fill="#703900" fill-opacity="1"><g transform="translate(65.068013, 367.433965)"><g><path d="M 4.9375 0.296875 C 3.632812 0.296875 2.671875 -0.0234375 2.046875 -0.671875 C 1.421875 -1.316406 1.109375 -2.300781 1.109375 -3.625 L 1.109375 -9.03125 L -0.4375 -9.03125 L -0.4375 -10.65625 L 3.5625 -14.3125 L 4.84375 -14.15625 L 4.84375 -11.640625 L 8.59375 -11.640625 L 8.59375 -9.015625 L 4.84375 -9.015625 L 4.84375 -4.421875 C 4.84375 -3.710938 4.941406 -3.238281 5.140625 -3 C 5.347656 -2.757812 5.738281 -2.640625 6.3125 -2.640625 C 6.800781 -2.640625 7.484375 -2.707031 8.359375 -2.84375 L 8.640625 -0.578125 C 8.097656 -0.328125 7.5 -0.117188 6.84375 0.046875 C 6.1875 0.210938 5.550781 0.296875 4.9375 0.296875 Z M 4.9375 0.296875 "/></g></g></g><g fill="#703900" fill-opacity="1"><g transform="translate(78.948135, 367.433965)"><g/></g></g><g fill="#703900" fill-opacity="1"><g transform="translate(88.157999, 367.433965)"><g><path d="M 5.078125 -9.828125 L 4.578125 -3.25 L 4.578125 -3.15625 C 4.578125 -2.875 4.679688 -2.691406 4.890625 -2.609375 L 6.28125 -2.03125 L 6.046875 0 L 0.515625 0 L 0.296875 -1.984375 L 1.3125 -2.609375 L 2.578125 -11.1875 C 2.597656 -11.289062 2.609375 -11.414062 2.609375 -11.5625 C 2.609375 -11.75 2.566406 -11.882812 2.484375 -11.96875 C 2.398438 -12.0625 2.25 -12.171875 2.03125 -12.296875 L 1 -12.875 L 1.140625 -15 L 7.515625 -15 L 10.703125 -4.625 L 13.859375 -15 L 19.828125 -15 L 19.90625 -12.65625 L 18.484375 -12.296875 L 19.6875 -3.578125 C 19.738281 -3.285156 19.800781 -3.054688 19.875 -2.890625 C 19.957031 -2.722656 20.148438 -2.457031 20.453125 -2.09375 L 20.921875 -1.484375 L 20.78125 0 L 14.15625 0 L 13.953125 -2.046875 L 15.78125 -2.515625 L 15.015625 -9.96875 L 12.171875 0.09375 L 8.359375 0.421875 Z M 5.078125 -9.828125 "/></g></g></g><g fill="#703900" fill-opacity="1"><g transform="translate(113.958389, 367.433965)"><g><path d="M 1.484375 -16.46875 L 5.265625 -17.46875 L 6.1875 -14.078125 L 2.421875 -13.0625 Z M 0.5625 -2.046875 L 2.109375 -2.515625 L 2.109375 -7.921875 C 2.109375 -8.242188 2.082031 -8.453125 2.03125 -8.546875 C 1.976562 -8.648438 1.847656 -8.757812 1.640625 -8.875 L 0.671875 -9.40625 L 0.78125 -11.078125 C 2.007812 -11.316406 2.960938 -11.488281 3.640625 -11.59375 C 4.316406 -11.707031 4.9375 -11.773438 5.5 -11.796875 C 5.6875 -11.148438 5.804688 -10.675781 5.859375 -10.375 L 5.859375 -3.25 C 5.859375 -2.9375 5.878906 -2.726562 5.921875 -2.625 C 5.960938 -2.519531 6.085938 -2.410156 6.296875 -2.296875 L 7.390625 -1.671875 L 7.296875 0 L 0.625 0 Z M 0.5625 -2.046875 "/></g></g></g><g fill="#703900" fill-opacity="1"><g transform="translate(126.304001, 367.433965)"><g><path d="M 0.578125 -2.140625 L 1.953125 -2.53125 L 1.953125 -7.921875 C 1.953125 -8.242188 1.929688 -8.453125 1.890625 -8.546875 C 1.847656 -8.648438 1.726562 -8.757812 1.53125 -8.875 L 0.5625 -9.40625 L 0.625 -11.078125 L 1.109375 -11.171875 C 3.054688 -11.554688 4.457031 -11.765625 5.3125 -11.796875 C 5.4375 -11.484375 5.535156 -11.140625 5.609375 -10.765625 C 6.515625 -11.179688 7.25 -11.46875 7.8125 -11.625 C 8.382812 -11.78125 8.925781 -11.859375 9.4375 -11.859375 C 11.789062 -11.859375 12.96875 -10.445312 12.96875 -7.625 L 12.96875 -3.265625 C 12.96875 -2.953125 12.988281 -2.742188 13.03125 -2.640625 C 13.082031 -2.535156 13.210938 -2.425781 13.421875 -2.3125 L 14.484375 -1.6875 L 14.390625 -0.015625 L 8.25 -0.015625 L 8.140625 -2.140625 L 9.234375 -2.453125 L 9.234375 -6.65625 C 9.234375 -7.320312 9.207031 -7.785156 9.15625 -8.046875 C 9.113281 -8.316406 8.992188 -8.523438 8.796875 -8.671875 C 8.597656 -8.828125 8.25 -8.90625 7.75 -8.90625 C 7.207031 -8.90625 6.53125 -8.820312 5.71875 -8.65625 L 5.71875 -3.265625 C 5.71875 -2.953125 5.738281 -2.742188 5.78125 -2.640625 C 5.832031 -2.535156 5.953125 -2.425781 6.140625 -2.3125 L 7.234375 -1.6875 L 7.140625 -0.015625 L 0.6875 -0.015625 Z M 0.578125 -2.140625 "/></g></g></g><g fill="#703900" fill-opacity="1"><g transform="translate(145.610505, 367.433965)"><g><path d="M 1.484375 -16.46875 L 5.265625 -17.46875 L 6.1875 -14.078125 L 2.421875 -13.0625 Z M 0.5625 -2.046875 L 2.109375 -2.515625 L 2.109375 -7.921875 C 2.109375 -8.242188 2.082031 -8.453125 2.03125 -8.546875 C 1.976562 -8.648438 1.847656 -8.757812 1.640625 -8.875 L 0.671875 -9.40625 L 0.78125 -11.078125 C 2.007812 -11.316406 2.960938 -11.488281 3.640625 -11.59375 C 4.316406 -11.707031 4.9375 -11.773438 5.5 -11.796875 C 5.6875 -11.148438 5.804688 -10.675781 5.859375 -10.375 L 5.859375 -3.25 C 5.859375 -2.9375 5.878906 -2.726562 5.921875 -2.625 C 5.960938 -2.519531 6.085938 -2.410156 6.296875 -2.296875 L 7.390625 -1.671875 L 7.296875 0 L 0.625 0 Z M 0.5625 -2.046875 "/></g></g></g><g fill="#703900" fill-opacity="1"><g transform="translate(157.956117, 367.433965)"><g><path d="M 0.578125 -2.140625 L 1.953125 -2.53125 L 1.953125 -7.921875 C 1.953125 -8.242188 1.929688 -8.453125 1.890625 -8.546875 C 1.847656 -8.648438 1.726562 -8.757812 1.53125 -8.875 L 0.5625 -9.40625 L 0.625 -11.078125 L 1.109375 -11.171875 C 3.054688 -11.554688 4.457031 -11.765625 5.3125 -11.796875 C 5.4375 -11.484375 5.535156 -11.140625 5.609375 -10.765625 C 6.515625 -11.179688 7.25 -11.46875 7.8125 -11.625 C 8.382812 -11.78125 8.925781 -11.859375 9.4375 -11.859375 C 11.789062 -11.859375 12.96875 -10.445312 12.96875 -7.625 L 12.96875 -3.265625 C 12.96875 -2.953125 12.988281 -2.742188 13.03125 -2.640625 C 13.082031 -2.535156 13.210938 -2.425781 13.421875 -2.3125 L 14.484375 -1.6875 L 14.390625 -0.015625 L 8.25 -0.015625 L 8.140625 -2.140625 L 9.234375 -2.453125 L 9.234375 -6.65625 C 9.234375 -7.320312 9.207031 -7.785156 9.15625 -8.046875 C 9.113281 -8.316406 8.992188 -8.523438 8.796875 -8.671875 C 8.597656 -8.828125 8.25 -8.90625 7.75 -8.90625 C 7.207031 -8.90625 6.53125 -8.820312 5.71875 -8.65625 L 5.71875 -3.265625 C 5.71875 -2.953125 5.738281 -2.742188 5.78125 -2.640625 C 5.832031 -2.535156 5.953125 -2.425781 6.140625 -2.3125 L 7.234375 -1.6875 L 7.140625 -0.015625 L 0.6875 -0.015625 Z M 0.578125 -2.140625 "/></g></g></g><g fill="#703900" fill-opacity="1"><g transform="translate(177.262629, 367.433965)"><g><path d="M 5.15625 5.078125 C 3.457031 5.078125 2.171875 4.804688 1.296875 4.265625 C 0.429688 3.734375 0 2.945312 0 1.90625 C 0 0.8125 0.503906 -0.148438 1.515625 -0.984375 C 1.203125 -1.296875 1.046875 -1.632812 1.046875 -2 C 1.046875 -2.53125 1.394531 -3.285156 2.09375 -4.265625 C 0.875 -4.910156 0.265625 -6.007812 0.265625 -7.5625 C 0.265625 -8.925781 0.726562 -9.984375 1.65625 -10.734375 C 2.582031 -11.484375 3.921875 -11.859375 5.671875 -11.859375 C 6.898438 -11.859375 7.910156 -11.671875 8.703125 -11.296875 L 11.375 -12.125 L 12.421875 -12.125 L 12.421875 -8.90625 L 10.6875 -8.90625 C 10.757812 -8.53125 10.796875 -8.164062 10.796875 -7.8125 C 10.796875 -6.445312 10.332031 -5.40625 9.40625 -4.6875 C 8.488281 -3.976562 7.140625 -3.625 5.359375 -3.625 C 4.753906 -3.625 4.207031 -3.671875 3.71875 -3.765625 L 3.71875 -3.453125 C 3.71875 -3.210938 3.816406 -3.039062 4.015625 -2.9375 C 4.210938 -2.84375 4.644531 -2.753906 5.3125 -2.671875 L 7.3125 -2.375 C 8.882812 -2.15625 9.972656 -1.769531 10.578125 -1.21875 C 11.179688 -0.675781 11.484375 0.0234375 11.484375 0.890625 C 11.484375 2.222656 10.929688 3.253906 9.828125 3.984375 C 8.734375 4.710938 7.175781 5.078125 5.15625 5.078125 Z M 5.703125 -5.8125 C 6.003906 -5.8125 6.359375 -5.851562 6.765625 -5.9375 C 6.828125 -6.113281 6.882812 -6.378906 6.9375 -6.734375 C 6.988281 -7.097656 7.015625 -7.425781 7.015625 -7.71875 C 7.015625 -8.382812 6.867188 -8.878906 6.578125 -9.203125 C 6.285156 -9.535156 5.835938 -9.703125 5.234375 -9.703125 C 4.929688 -9.703125 4.601562 -9.65625 4.25 -9.5625 C 4.175781 -9.382812 4.113281 -9.125 4.0625 -8.78125 C 4.007812 -8.445312 3.984375 -8.125 3.984375 -7.8125 C 3.984375 -7.125 4.125 -6.617188 4.40625 -6.296875 C 4.6875 -5.972656 5.117188 -5.8125 5.703125 -5.8125 Z M 6.1875 2.5625 C 6.863281 2.5625 7.382812 2.5 7.75 2.375 C 7.832031 2.195312 7.875 1.960938 7.875 1.671875 C 7.875 1.316406 7.75 1.046875 7.5 0.859375 C 7.25 0.671875 6.796875 0.53125 6.140625 0.4375 L 5.421875 0.328125 C 4.773438 0.253906 4.117188 0.148438 3.453125 0.015625 C 3.359375 0.421875 3.3125 0.742188 3.3125 0.984375 C 3.3125 1.515625 3.546875 1.910156 4.015625 2.171875 C 4.492188 2.429688 5.21875 2.5625 6.1875 2.5625 Z M 6.1875 2.5625 "/></g></g></g><g fill="#703900" fill-opacity="1"><g transform="translate(194.612093, 367.433965)"><g/></g></g><g fill="#703900" fill-opacity="1"><g transform="translate(203.821965, 367.433965)"><g><path d="M 7.59375 0.328125 C 5.332031 0.328125 3.59375 -0.359375 2.375 -1.734375 C 1.164062 -3.117188 0.5625 -5.070312 0.5625 -7.59375 C 0.5625 -9.1875 0.851562 -10.566406 1.4375 -11.734375 C 2.019531 -12.898438 2.867188 -13.789062 3.984375 -14.40625 C 5.097656 -15.019531 6.414062 -15.328125 7.9375 -15.328125 C 9.675781 -15.328125 11.46875 -14.9375 13.3125 -14.15625 C 13.175781 -12.820312 12.957031 -11.34375 12.65625 -9.71875 L 10.96875 -9.609375 L 9.4375 -11.859375 C 8.78125 -12.054688 8.0625 -12.15625 7.28125 -12.15625 C 6.6875 -12.15625 6.117188 -12.101562 5.578125 -12 C 5.347656 -11.53125 5.15625 -10.914062 5 -10.15625 C 4.851562 -9.40625 4.78125 -8.644531 4.78125 -7.875 C 4.78125 -6.226562 5.082031 -5.007812 5.6875 -4.21875 C 6.289062 -3.425781 7.242188 -3.015625 8.546875 -2.984375 C 9.066406 -2.984375 9.722656 -3.0625 10.515625 -3.21875 C 11.304688 -3.375 12.082031 -3.578125 12.84375 -3.828125 L 13.53125 -1.375 C 12.757812 -0.875 11.828125 -0.460938 10.734375 -0.140625 C 9.640625 0.171875 8.59375 0.328125 7.59375 0.328125 Z M 7.59375 0.328125 "/></g></g></g><g fill="#703900" fill-opacity="1"><g transform="translate(222.750408, 367.433965)"><g><path d="M 5.9375 0.296875 C 4.050781 0.296875 2.644531 -0.1875 1.71875 -1.15625 C 0.789062 -2.125 0.328125 -3.597656 0.328125 -5.578125 C 0.328125 -6.859375 0.5625 -7.972656 1.03125 -8.921875 C 1.5 -9.867188 2.171875 -10.59375 3.046875 -11.09375 C 3.921875 -11.601562 4.953125 -11.859375 6.140625 -11.859375 C 9.984375 -11.859375 11.90625 -9.867188 11.90625 -5.890625 C 11.90625 -3.953125 11.378906 -2.4375 10.328125 -1.34375 C 9.285156 -0.25 7.820312 0.296875 5.9375 0.296875 Z M 6.296875 -2.3125 C 6.585938 -2.3125 6.84375 -2.335938 7.0625 -2.390625 C 7.289062 -2.441406 7.53125 -2.523438 7.78125 -2.640625 C 7.875 -2.984375 7.945312 -3.421875 8 -3.953125 C 8.0625 -4.492188 8.09375 -5.007812 8.09375 -5.5 C 8.09375 -6.695312 7.90625 -7.609375 7.53125 -8.234375 C 7.15625 -8.859375 6.597656 -9.171875 5.859375 -9.171875 C 5.367188 -9.171875 4.867188 -9.101562 4.359375 -8.96875 C 4.253906 -8.75 4.171875 -8.390625 4.109375 -7.890625 C 4.054688 -7.390625 4.03125 -6.820312 4.03125 -6.1875 C 4.03125 -4.9375 4.222656 -3.976562 4.609375 -3.3125 C 5.003906 -2.644531 5.566406 -2.3125 6.296875 -2.3125 Z M 6.296875 -2.3125 "/></g></g></g><g fill="#703900" fill-opacity="1"><g transform="translate(239.677315, 367.433965)"><g><path d="M 0.578125 -2.140625 L 1.953125 -2.53125 L 1.953125 -7.921875 C 1.953125 -8.242188 1.929688 -8.453125 1.890625 -8.546875 C 1.847656 -8.648438 1.726562 -8.757812 1.53125 -8.875 L 0.5625 -9.40625 L 0.625 -11.078125 L 1.109375 -11.171875 C 3.054688 -11.554688 4.457031 -11.765625 5.3125 -11.796875 C 5.4375 -11.484375 5.535156 -11.140625 5.609375 -10.765625 C 6.515625 -11.179688 7.25 -11.46875 7.8125 -11.625 C 8.382812 -11.78125 8.925781 -11.859375 9.4375 -11.859375 C 11.789062 -11.859375 12.96875 -10.445312 12.96875 -7.625 L 12.96875 -3.265625 C 12.96875 -2.953125 12.988281 -2.742188 13.03125 -2.640625 C 13.082031 -2.535156 13.210938 -2.425781 13.421875 -2.3125 L 14.484375 -1.6875 L 14.390625 -0.015625 L 8.25 -0.015625 L 8.140625 -2.140625 L 9.234375 -2.453125 L 9.234375 -6.65625 C 9.234375 -7.320312 9.207031 -7.785156 9.15625 -8.046875 C 9.113281 -8.316406 8.992188 -8.523438 8.796875 -8.671875 C 8.597656 -8.828125 8.25 -8.90625 7.75 -8.90625 C 7.207031 -8.90625 6.53125 -8.820312 5.71875 -8.65625 L 5.71875 -3.265625 C 5.71875 -2.953125 5.738281 -2.742188 5.78125 -2.640625 C 5.832031 -2.535156 5.953125 -2.425781 6.140625 -2.3125 L 7.234375 -1.6875 L 7.140625 -0.015625 L 0.6875 -0.015625 Z M 0.578125 -2.140625 "/></g></g></g><g fill="#703900" fill-opacity="1"><g transform="translate(258.983828, 367.433965)"><g><path d="M 4.9375 0.296875 C 3.632812 0.296875 2.671875 -0.0234375 2.046875 -0.671875 C 1.421875 -1.316406 1.109375 -2.300781 1.109375 -3.625 L 1.109375 -9.03125 L -0.4375 -9.03125 L -0.4375 -10.65625 L 3.5625 -14.3125 L 4.84375 -14.15625 L 4.84375 -11.640625 L 8.59375 -11.640625 L 8.59375 -9.015625 L 4.84375 -9.015625 L 4.84375 -4.421875 C 4.84375 -3.710938 4.941406 -3.238281 5.140625 -3 C 5.347656 -2.757812 5.738281 -2.640625 6.3125 -2.640625 C 6.800781 -2.640625 7.484375 -2.707031 8.359375 -2.84375 L 8.640625 -0.578125 C 8.097656 -0.328125 7.5 -0.117188 6.84375 0.046875 C 6.1875 0.210938 5.550781 0.296875 4.9375 0.296875 Z M 4.9375 0.296875 "/></g></g></g><g fill="#703900" fill-opacity="1"><g transform="translate(272.863958, 367.433965)"><g><path d="M 0.59375 -2.109375 L 1.953125 -2.515625 L 1.953125 -7.921875 C 1.953125 -8.242188 1.929688 -8.453125 1.890625 -8.546875 C 1.847656 -8.648438 1.726562 -8.757812 1.53125 -8.875 L 0.5625 -9.40625 L 0.625 -11.078125 C 0.875 -11.140625 1.085938 -11.175781 1.265625 -11.1875 C 3.054688 -11.5625 4.382812 -11.765625 5.25 -11.796875 C 5.382812 -11.410156 5.507812 -10.925781 5.625 -10.34375 C 6.519531 -11.039062 7.28125 -11.523438 7.90625 -11.796875 L 9.171875 -11.796875 C 9.148438 -11.234375 9.109375 -10.617188 9.046875 -9.953125 C 8.992188 -9.296875 8.921875 -8.765625 8.828125 -8.359375 C 8.296875 -8.390625 7.90625 -8.40625 7.65625 -8.40625 C 7.03125 -8.40625 6.382812 -8.367188 5.71875 -8.296875 L 5.71875 -3.25 C 5.71875 -2.9375 5.738281 -2.726562 5.78125 -2.625 C 5.832031 -2.519531 5.953125 -2.410156 6.140625 -2.296875 L 7.46875 -1.578125 L 7.390625 0 L 0.71875 0 Z M 0.59375 -2.109375 "/></g></g></g><g fill="#703900" fill-opacity="1"><g transform="translate(286.966463, 367.433965)"><g><path d="M 3.78125 0.296875 C 2.769531 0.296875 1.957031 0.0195312 1.34375 -0.53125 C 0.738281 -1.09375 0.4375 -1.8125 0.4375 -2.6875 C 0.4375 -3.863281 1.023438 -4.785156 2.203125 -5.453125 C 3.390625 -6.117188 5.109375 -6.5 7.359375 -6.59375 C 7.359375 -7.28125 7.300781 -7.789062 7.1875 -8.125 C 7.082031 -8.46875 6.882812 -8.703125 6.59375 -8.828125 C 6.300781 -8.953125 5.859375 -9.015625 5.265625 -9.015625 C 4.660156 -9.015625 4.234375 -8.988281 3.984375 -8.9375 L 3.078125 -7.140625 L 1.421875 -7.25 C 1.171875 -8.4375 0.992188 -9.671875 0.890625 -10.953125 C 1.722656 -11.234375 2.628906 -11.453125 3.609375 -11.609375 C 4.597656 -11.773438 5.523438 -11.859375 6.390625 -11.859375 C 7.960938 -11.859375 9.085938 -11.550781 9.765625 -10.9375 C 10.453125 -10.320312 10.796875 -9.300781 10.796875 -7.875 L 10.796875 -3.21875 C 10.796875 -2.957031 10.820312 -2.773438 10.875 -2.671875 C 10.925781 -2.566406 11.039062 -2.460938 11.21875 -2.359375 L 12.109375 -1.84375 L 12.015625 -0.46875 C 10.296875 -0.0625 8.9375 0.160156 7.9375 0.203125 C 7.914062 0.109375 7.875 -0.0507812 7.8125 -0.28125 C 7.75 -0.507812 7.695312 -0.726562 7.65625 -0.9375 C 7.070312 -0.5625 6.4375 -0.257812 5.75 -0.03125 C 5.0625 0.1875 4.40625 0.296875 3.78125 0.296875 Z M 5.265625 -2.21875 C 5.859375 -2.21875 6.582031 -2.421875 7.4375 -2.828125 L 7.34375 -4.515625 C 6.988281 -4.546875 6.75 -4.5625 6.625 -4.5625 C 6.226562 -4.5625 5.757812 -4.519531 5.21875 -4.4375 C 4.6875 -4.351562 4.265625 -4.257812 3.953125 -4.15625 C 3.910156 -3.96875 3.890625 -3.789062 3.890625 -3.625 C 3.890625 -3.175781 4.007812 -2.828125 4.25 -2.578125 C 4.5 -2.335938 4.835938 -2.21875 5.265625 -2.21875 Z M 5.265625 -2.21875 "/></g></g></g><g fill="#703900" fill-opacity="1"><g transform="translate(303.915613, 367.433965)"><g><path d="M 5.765625 0.296875 C 4.046875 0.296875 2.707031 -0.234375 1.75 -1.296875 C 0.800781 -2.359375 0.328125 -3.828125 0.328125 -5.703125 C 0.328125 -7.640625 0.832031 -9.148438 1.84375 -10.234375 C 2.863281 -11.316406 4.257812 -11.859375 6.03125 -11.859375 C 7.363281 -11.859375 8.796875 -11.554688 10.328125 -10.953125 C 10.296875 -10.515625 10.226562 -9.941406 10.125 -9.234375 C 10.019531 -8.535156 9.910156 -7.890625 9.796875 -7.296875 L 8.296875 -7.171875 L 6.921875 -8.921875 C 6.546875 -8.992188 6.128906 -9.03125 5.671875 -9.03125 C 5.304688 -9.03125 4.96875 -9.007812 4.65625 -8.96875 C 4.3125 -8.3125 4.140625 -7.390625 4.140625 -6.203125 C 4.140625 -4.992188 4.351562 -4.09375 4.78125 -3.5 C 5.207031 -2.914062 5.859375 -2.625 6.734375 -2.625 C 7.148438 -2.625 7.65625 -2.6875 8.25 -2.8125 C 8.84375 -2.9375 9.453125 -3.117188 10.078125 -3.359375 L 10.609375 -1.140625 C 10.015625 -0.722656 9.273438 -0.378906 8.390625 -0.109375 C 7.515625 0.160156 6.640625 0.296875 5.765625 0.296875 Z M 5.765625 0.296875 "/></g></g></g><g fill="#703900" fill-opacity="1"><g transform="translate(319.752808, 367.433965)"><g><path d="M 4.9375 0.296875 C 3.632812 0.296875 2.671875 -0.0234375 2.046875 -0.671875 C 1.421875 -1.316406 1.109375 -2.300781 1.109375 -3.625 L 1.109375 -9.03125 L -0.4375 -9.03125 L -0.4375 -10.65625 L 3.5625 -14.3125 L 4.84375 -14.15625 L 4.84375 -11.640625 L 8.59375 -11.640625 L 8.59375 -9.015625 L 4.84375 -9.015625 L 4.84375 -4.421875 C 4.84375 -3.710938 4.941406 -3.238281 5.140625 -3 C 5.347656 -2.757812 5.738281 -2.640625 6.3125 -2.640625 C 6.800781 -2.640625 7.484375 -2.707031 8.359375 -2.84375 L 8.640625 -0.578125 C 8.097656 -0.328125 7.5 -0.117188 6.84375 0.046875 C 6.1875 0.210938 5.550781 0.296875 4.9375 0.296875 Z M 4.9375 0.296875 "/></g></g></g><g fill="#703900" fill-opacity="1"><g transform="translate(333.632938, 367.433965)"><g><path d="M 5.9375 0.296875 C 4.050781 0.296875 2.644531 -0.1875 1.71875 -1.15625 C 0.789062 -2.125 0.328125 -3.597656 0.328125 -5.578125 C 0.328125 -6.859375 0.5625 -7.972656 1.03125 -8.921875 C 1.5 -9.867188 2.171875 -10.59375 3.046875 -11.09375 C 3.921875 -11.601562 4.953125 -11.859375 6.140625 -11.859375 C 9.984375 -11.859375 11.90625 -9.867188 11.90625 -5.890625 C 11.90625 -3.953125 11.378906 -2.4375 10.328125 -1.34375 C 9.285156 -0.25 7.820312 0.296875 5.9375 0.296875 Z M 6.296875 -2.3125 C 6.585938 -2.3125 6.84375 -2.335938 7.0625 -2.390625 C 7.289062 -2.441406 7.53125 -2.523438 7.78125 -2.640625 C 7.875 -2.984375 7.945312 -3.421875 8 -3.953125 C 8.0625 -4.492188 8.09375 -5.007812 8.09375 -5.5 C 8.09375 -6.695312 7.90625 -7.609375 7.53125 -8.234375 C 7.15625 -8.859375 6.597656 -9.171875 5.859375 -9.171875 C 5.367188 -9.171875 4.867188 -9.101562 4.359375 -8.96875 C 4.253906 -8.75 4.171875 -8.390625 4.109375 -7.890625 C 4.054688 -7.390625 4.03125 -6.820312 4.03125 -6.1875 C 4.03125 -4.9375 4.222656 -3.976562 4.609375 -3.3125 C 5.003906 -2.644531 5.566406 -2.3125 6.296875 -2.3125 Z M 6.296875 -2.3125 "/></g></g></g><g fill="#703900" fill-opacity="1"><g transform="translate(350.559845, 367.433965)"><g><path d="M 0.59375 -2.109375 L 1.953125 -2.515625 L 1.953125 -7.921875 C 1.953125 -8.242188 1.929688 -8.453125 1.890625 -8.546875 C 1.847656 -8.648438 1.726562 -8.757812 1.53125 -8.875 L 0.5625 -9.40625 L 0.625 -11.078125 C 0.875 -11.140625 1.085938 -11.175781 1.265625 -11.1875 C 3.054688 -11.5625 4.382812 -11.765625 5.25 -11.796875 C 5.382812 -11.410156 5.507812 -10.925781 5.625 -10.34375 C 6.519531 -11.039062 7.28125 -11.523438 7.90625 -11.796875 L 9.171875 -11.796875 C 9.148438 -11.234375 9.109375 -10.617188 9.046875 -9.953125 C 8.992188 -9.296875 8.921875 -8.765625 8.828125 -8.359375 C 8.296875 -8.390625 7.90625 -8.40625 7.65625 -8.40625 C 7.03125 -8.40625 6.382812 -8.367188 5.71875 -8.296875 L 5.71875 -3.25 C 5.71875 -2.9375 5.738281 -2.726562 5.78125 -2.625 C 5.832031 -2.519531 5.953125 -2.410156 6.140625 -2.296875 L 7.46875 -1.578125 L 7.390625 0 L 0.71875 0 Z M 0.59375 -2.109375 "/></g></g></g></svg>