<svg xmlns="http://www.w3.org/2000/svg" xmlns:xlink="http://www.w3.org/1999/xlink" width="500" zoomAndPan="magnify" viewBox="0 0 375 374.999991" height="500" preserveAspectRatio="xMidYMid meet" version="1.0"><defs><g/><clipPath id="8cb26cb8f1"><path d="M 77 0 L 298.238281 0 L 298.238281 176 L 77 176 Z M 77 0 " clip-rule="nonzero"/></clipPath><clipPath id="3b57fda2bc"><path d="M 118.617188 24.503906 L 256 24.503906 L 256 175 L 118.617188 175 Z M 118.617188 24.503906 " clip-rule="nonzero"/></clipPath><clipPath id="de588ec17a"><path d="M 118.617188 24.503906 L 256 24.503906 L 256 176 L 118.617188 176 Z M 118.617188 24.503906 " clip-rule="nonzero"/></clipPath><clipPath id="65fbe0f115"><path d="M 119 24.503906 L 256 24.503906 L 256 175 L 119 175 Z M 119 24.503906 " clip-rule="nonzero"/></clipPath></defs><rect x="-37.5" width="450" fill="#ffffff" y="-37.499999" height="449.999989" fill-opacity="1"/><rect x="-37.5" width="450" fill="#fffdf6" y="-37.499999" height="449.999989" fill-opacity="1"/><g clip-path="url(#8cb26cb8f1)"><path fill="#f07d05" d="M 128.203125 175.207031 C 123.175781 168.476562 106.996094 175.195312 108.820312 168.722656 L 91.378906 168.648438 L 187.3125 12.101562 L 283.539062 168.171875 L 267.628906 168.171875 C 269.636719 175.808594 249.640625 167.230469 248.992188 175.207031 L 298.003906 175.207031 L 187.507812 0.171875 L 77.027344 175.207031 Z M 128.203125 175.207031 " fill-opacity="1" fill-rule="evenodd"/></g><g clip-path="url(#3b57fda2bc)"><path fill="#000000" d="M 159.195312 156.195312 C 162.929688 156.375 169.59375 156.492188 169.59375 156.492188 C 169.59375 156.492188 172.511719 160.222656 172.511719 160.222656 L 174.523438 160.265625 C 174.523438 160.265625 178.957031 166.675781 180.699219 168.664062 C 182.441406 170.652344 185.457031 174.984375 187.355469 174.984375 C 189.253906 174.984375 246.1875 170.636719 246.1875 170.636719 C 246.1875 170.636719 253.5625 170.371094 255.53125 154.453125 C 256.066406 151.90625 254.949219 124.769531 254.949219 124.769531 L 254.859375 114.398438 L 248.109375 111.359375 C 248.109375 111.359375 246.410156 110.820312 245.738281 112.207031 C 243.710938 112.3125 241.835938 111.988281 240.339844 111.53125 L 236.457031 93.113281 C 236.542969 93.105469 236.632812 93.09375 236.722656 93.078125 L 236.75 93.082031 C 236.769531 93.082031 236.789062 93.085938 236.808594 93.085938 L 236.8125 93.085938 C 236.828125 93.085938 236.84375 93.085938 236.859375 93.085938 C 237.203125 93.085938 237.527344 92.9375 237.828125 92.671875 C 238.015625 92.535156 238.175781 92.363281 238.285156 92.140625 L 238.285156 92.136719 C 238.464844 91.871094 238.632812 91.558594 238.777344 91.203125 C 239.320312 90.160156 239.882812 88.75 239.613281 85.964844 C 239.269531 82.367188 237.253906 81.042969 235.621094 81.015625 C 235.535156 81.003906 235.449219 80.996094 235.363281 80.996094 C 235.285156 80.996094 235.207031 81 235.128906 81.011719 L 235.125 81.015625 C 235.046875 81.027344 234.96875 81.046875 234.890625 81.070312 C 234.535156 81.179688 234.203125 81.414062 233.90625 81.75 C 233.855469 81.804688 233.808594 81.859375 233.761719 81.921875 L 233.402344 81.886719 L 224.691406 81.042969 L 208.367188 56.683594 C 208.367188 56.683594 208.902344 54.449219 208.367188 52.925781 C 207.828125 51.40625 205.546875 48.816406 205.546875 48.816406 C 205.546875 48.816406 204.699219 48.589844 203.894531 47.785156 C 203.089844 46.980469 194.328125 34.195312 194.328125 34.195312 C 194.328125 34.195312 194.910156 31.199219 192.898438 30.039062 C 190.886719 28.875 192.496094 28.027344 191.421875 28.472656 C 190.347656 28.921875 188.472656 27.175781 188.070312 27.042969 C 187.667969 26.910156 185.699219 25.878906 185.699219 25.878906 L 184.941406 25.835938 L 184.179688 26.550781 L 183.0625 26.460938 L 180.335938 24.851562 L 179.574219 24.808594 L 178.949219 25.613281 L 177.339844 25.433594 L 174.523438 27.757812 L 173.183594 33.167969 L 172.773438 43.035156 L 168.039062 51.585938 L 167.058594 57.039062 L 154.941406 74.296875 L 152.035156 82.210938 L 149.175781 82.34375 L 149.175781 85.5625 L 150.070312 85.5625 L 148.414062 102.371094 C 148.414062 102.371094 147.742188 102.910156 147.742188 103.445312 C 147.742188 103.980469 147.164062 103.667969 147.164062 105.011719 C 147.164062 106.351562 146.269531 118.0625 146.269531 118.0625 L 136.296875 117.714844 L 135.820312 109.285156 C 135.691406 109.15625 135.496094 109.089844 135.28125 109.054688 C 135.113281 109.027344 134.730469 109.054688 134.671875 109.09375 L 134.351562 117.699219 L 132.929688 117.71875 L 131.476562 119.664062 L 128.371094 119.707031 L 126.875 120.578125 L 125.78125 125.984375 C 125.363281 128.042969 125.515625 131.15625 125.46875 133.175781 C 125.402344 136.078125 125.355469 138.089844 125.804688 138.46875 C 126.011719 139.054688 126.742188 139.191406 126.742188 139.191406 C 126.082031 139.179688 125.390625 139.167969 124.664062 139.160156 L 120.128906 141.773438 C 120.128906 141.773438 118.632812 143.785156 119.082031 149.03125 C 119.527344 154.28125 119.996094 155.640625 120.824219 156.289062 C 121.648438 156.9375 127.894531 159.597656 127.894531 159.597656 L 141.082031 159.058594 C 141.082031 159.058594 143.140625 156.378906 143.183594 149.222656 C 153.332031 148.6875 156.246094 148.875 156.246094 148.875 C 156.246094 148.875 154.121094 154.304688 159.195312 156.195312 Z M 201.390625 98.699219 L 201.234375 98.691406 L 201.363281 98.652344 L 181.632812 68.308594 L 180.15625 69.15625 L 167.726562 84.625 L 168.175781 84.847656 L 168.488281 85.964844 L 168.128906 88.648438 L 165.492188 88.425781 L 163.570312 103.492188 C 163.570312 103.492188 163.660156 103.445312 163.882812 104.292969 C 164.105469 105.144531 164.375 105.144531 164.375 105.144531 L 178.011719 105.726562 C 178.011719 105.726562 180.289062 106.171875 180.515625 108.140625 C 180.738281 110.105469 180.871094 113.058594 180.871094 113.058594 L 180.980469 114.441406 L 181.632812 111.492188 L 182.570312 108.585938 L 183.0625 107.917969 L 184.625 107.960938 L 186.460938 109.125 L 196.964844 109.703125 L 199.113281 109.390625 L 201.839844 108.273438 C 199.054688 105.476562 200.230469 100.582031 201.390625 98.699219 Z M 162.898438 92.671875 L 161.78125 103.175781 C 161.78125 103.175781 161.558594 103.265625 161.066406 104.339844 C 160.574219 105.414062 160.484375 104.429688 160.394531 106.082031 C 160.304688 107.738281 158.964844 109.167969 158.964844 109.167969 L 159.414062 105.546875 L 161.246094 98.574219 Z M 162.898438 92.671875 " fill-opacity="1" fill-rule="evenodd"/></g><g clip-path="url(#de588ec17a)"><path stroke-linecap="butt" transform="matrix(0.0509073, 0, 0, 0.0509073, 110.976194, 23.535008)" fill="none" stroke-linejoin="round" d="M 947.195354 2605.921227 C 1020.551789 2609.45093 1151.457729 2611.752911 1151.457729 2611.752911 C 1151.457729 2611.752911 1208.777036 2685.032613 1208.777036 2685.032613 L 1248.294362 2685.876673 C 1248.294362 2685.876673 1335.385946 2811.794989 1369.608718 2850.85192 C 1403.831491 2889.90885 1463.069114 2975.005385 1500.361193 2975.005385 C 1537.653272 2975.005385 2656.031981 2889.601919 2656.031981 2889.601919 C 2656.031981 2889.601919 2800.903267 2884.384098 2839.576535 2571.698455 C 2850.088911 2521.668753 2828.143366 1988.606873 2828.143366 1988.606873 L 2826.378515 1784.881627 L 2693.784456 1725.183607 C 2693.784456 1725.183607 2660.405743 1714.594498 2647.207723 1741.834597 C 2607.383466 1743.906379 2570.551783 1737.537567 2541.163169 1728.559845 L 2464.890892 1366.765292 C 2466.579011 1366.611826 2468.343863 1366.381628 2470.108714 1366.074698 L 2470.645843 1366.15143 C 2471.029506 1366.15143 2471.41317 1366.228163 2471.796833 1366.228163 L 2471.873566 1366.228163 C 2472.180496 1366.228163 2472.487427 1366.228163 2472.794358 1366.228163 C 2479.546833 1366.228163 2485.915645 1363.312321 2491.824061 1358.0945 C 2495.507229 1355.408856 2498.653269 1352.032618 2500.801783 1347.658856 L 2500.801783 1347.582123 C 2504.331486 1342.364302 2507.630991 1336.225688 2510.4701 1329.243014 C 2521.135942 1308.755391 2532.185447 1281.054896 2526.890892 1226.3445 C 2520.138417 1155.673708 2480.544358 1129.661332 2448.4701 1129.124203 C 2446.781982 1128.894005 2445.093863 1128.74054 2443.405744 1128.74054 C 2441.871091 1128.74054 2440.336437 1128.817273 2438.801784 1129.047471 L 2438.725051 1129.124203 C 2437.190398 1129.354401 2435.655744 1129.738065 2434.121091 1130.198461 C 2427.138417 1132.346976 2420.61614 1136.950936 2414.784457 1143.549946 C 2413.786932 1144.624203 2412.86614 1145.698461 2411.945348 1146.926184 L 2404.885942 1146.235589 L 2233.772081 1129.661332 L 1913.106241 651.156383 C 1913.106241 651.156383 1923.618617 607.265294 1913.106241 577.339552 C 1902.517132 547.490542 1857.705251 496.61678 1857.705251 496.61678 C 1857.705251 496.61678 1841.054261 492.166285 1825.247331 476.359354 C 1809.4404 460.552424 1637.329014 209.406385 1637.329014 209.406385 C 1637.329014 209.406385 1648.762183 150.552425 1609.244856 127.762821 C 1569.727529 104.896484 1601.341391 88.245494 1580.239906 96.993019 C 1559.138421 105.817277 1522.306738 71.517772 1514.403272 68.908861 C 1506.499807 66.29995 1467.82654 46.042524 1467.82654 46.042524 L 1452.940401 45.198465 L 1437.97753 59.240544 L 1416.031986 57.475693 L 1362.47258 25.861831 L 1347.509709 25.017772 L 1335.232481 40.824703 L 1303.61862 37.295 L 1248.294362 82.95094 L 1221.975056 189.225692 L 1213.918125 383.052424 L 1120.918125 551.020245 L 1101.658224 658.139057 L 863.633473 997.144006 L 806.544364 1152.604401 L 750.376047 1155.213312 L 750.376047 1218.441035 L 767.94783 1218.441035 L 735.413176 1548.621727 C 735.413176 1548.621727 722.215156 1559.210835 722.215156 1569.723212 C 722.215156 1580.235588 710.858721 1574.096974 710.858721 1600.493013 C 710.858721 1626.81232 693.286939 1856.856874 693.286939 1856.856874 L 497.388425 1850.027666 L 488.027039 1684.438558 C 485.49486 1681.90638 481.658227 1680.601924 477.43793 1679.91133 C 474.138425 1679.374201 466.618623 1679.91133 465.467633 1680.678657 L 459.175554 1849.720735 L 431.244861 1850.104399 L 402.700306 1888.31727 L 341.697831 1889.161329 L 312.309217 1906.272715 L 290.824069 2012.470735 C 282.613673 2052.908853 285.606247 2114.064794 284.685455 2153.735586 C 283.381 2210.747962 282.460208 2250.265288 291.284465 2257.708358 C 295.351297 2269.218258 309.700307 2271.903902 309.700307 2271.903902 C 296.732485 2271.673704 283.150802 2271.443506 268.878525 2271.290041 L 179.791891 2322.624199 C 179.791891 2322.624199 150.403277 2362.141525 159.227535 2465.193505 C 167.97506 2568.322218 177.18298 2595.025188 193.450307 2607.762812 C 209.640901 2620.500435 332.336445 2672.755386 332.336445 2672.755386 L 591.385949 2662.166277 C 591.385949 2662.166277 631.824068 2609.527663 632.668127 2468.953406 C 832.019611 2458.44103 889.262186 2462.124198 889.262186 2462.124198 C 889.262186 2462.124198 847.519611 2568.782614 947.195354 2605.921227 Z M 1776.061687 1476.493014 L 1772.99238 1476.339549 L 1775.524558 1475.572222 L 1387.947827 879.512818 L 1358.942877 896.163808 L 1114.779511 1200.025193 L 1123.603769 1204.398956 L 1129.742383 1226.3445 L 1122.682977 1279.059846 L 1070.888422 1274.686084 L 1033.135947 1570.644004 C 1033.135947 1570.644004 1034.900799 1569.723212 1039.274561 1586.374202 C 1043.648324 1603.101924 1048.942878 1603.101924 1048.942878 1603.101924 L 1316.816639 1614.535093 C 1316.816639 1614.535093 1361.551788 1623.282617 1366.002283 1661.955885 C 1370.376045 1700.552419 1372.984956 1758.56232 1372.984956 1758.56232 L 1375.133471 1785.725686 L 1387.947827 1727.792518 L 1406.363669 1670.703409 L 1416.031986 1657.582122 L 1446.725055 1658.426182 L 1482.789411 1681.292518 L 1689.123569 1692.648954 L 1731.326539 1686.51034 L 1784.885945 1664.564795 C 1730.175549 1609.624202 1753.272083 1513.478162 1776.061687 1476.493014 Z M 1019.937928 1358.0945 L 997.992383 1564.428657 C 997.992383 1564.428657 993.618621 1566.193509 983.950304 1587.294994 C 974.281987 1608.396479 972.517136 1589.059845 970.752284 1621.517766 C 968.987433 1654.052419 942.668126 1682.136578 942.668126 1682.136578 L 951.492383 1611.00539 L 987.480007 1474.037568 Z M 1019.937928 1358.0945 " stroke="#3d3c3b" stroke-width="11.811" stroke-opacity="1" stroke-miterlimit="4"/></g><g clip-path="url(#65fbe0f115)"><path fill="#000000" d="M 159.195312 156.195312 C 162.929688 156.375 169.59375 156.492188 169.59375 156.492188 C 169.59375 156.492188 172.511719 160.222656 172.511719 160.222656 L 174.523438 160.265625 C 174.523438 160.265625 178.957031 166.675781 180.699219 168.664062 C 182.441406 170.652344 185.457031 174.984375 187.355469 174.984375 C 189.253906 174.984375 246.1875 170.636719 246.1875 170.636719 C 246.1875 170.636719 253.5625 170.371094 255.53125 154.453125 C 256.066406 151.90625 254.949219 124.769531 254.949219 124.769531 L 254.859375 114.398438 L 248.109375 111.359375 C 248.109375 111.359375 246.410156 110.820312 245.738281 112.207031 C 241.339844 112.433594 237.691406 110.644531 236.976562 109.882812 C 236.261719 109.125 235.546875 93.117188 235.546875 93.117188 C 235.546875 93.117188 237.703125 93.347656 238.285156 92.140625 C 238.863281 90.933594 239.96875 89.660156 239.617188 85.964844 C 239.261719 82.269531 237.140625 80.972656 235.488281 81.015625 C 233.832031 81.0625 233.3125 82.835938 233.3125 82.835938 L 230.40625 82.566406 C 230.40625 82.566406 229.378906 81.808594 227.945312 81.808594 C 226.515625 81.808594 225.085938 81.628906 225.085938 81.628906 L 208.367188 56.683594 C 208.367188 56.683594 208.902344 54.449219 208.367188 52.925781 C 207.828125 51.40625 205.550781 48.816406 205.550781 48.816406 C 205.550781 48.816406 204.699219 48.589844 203.894531 47.785156 C 203.089844 46.980469 194.328125 34.195312 194.328125 34.195312 C 194.328125 34.195312 194.910156 31.199219 192.898438 30.039062 C 190.886719 28.875 192.496094 28.027344 191.421875 28.472656 C 190.347656 28.921875 188.472656 27.175781 188.070312 27.042969 C 187.667969 26.910156 185.699219 25.878906 185.699219 25.878906 L 184.941406 25.835938 L 184.179688 26.550781 L 183.0625 26.460938 L 180.335938 24.851562 L 179.574219 24.808594 L 178.949219 25.613281 L 177.339844 25.433594 L 174.523438 27.757812 L 173.183594 33.167969 L 172.773438 43.035156 L 168.042969 51.585938 L 167.058594 57.039062 L 154.941406 74.296875 L 152.035156 82.210938 L 149.175781 82.34375 L 149.175781 85.5625 L 150.070312 85.5625 L 148.414062 102.371094 C 148.414062 102.371094 147.746094 102.910156 147.746094 103.445312 C 147.746094 103.980469 147.164062 103.667969 147.164062 105.011719 C 147.164062 106.351562 146.269531 118.0625 146.269531 118.0625 L 136.300781 117.714844 L 135.820312 109.285156 C 135.695312 109.15625 135.496094 109.089844 135.28125 109.054688 C 135.113281 109.027344 134.730469 109.054688 134.675781 109.09375 L 134.355469 117.699219 L 132.929688 117.71875 L 131.476562 119.664062 L 128.371094 119.707031 L 126.875 120.578125 L 125.78125 125.984375 C 125.363281 128.042969 125.515625 131.15625 125.46875 133.175781 C 125.402344 136.078125 125.359375 138.089844 125.804688 138.46875 C 126.011719 139.054688 126.746094 139.191406 126.746094 139.191406 C 126.085938 139.179688 125.390625 139.167969 124.664062 139.160156 L 120.132812 141.773438 C 120.132812 141.773438 118.636719 143.785156 119.082031 149.03125 C 119.527344 154.28125 119.996094 155.644531 120.824219 156.289062 C 121.648438 156.9375 127.894531 159.597656 127.894531 159.597656 L 141.082031 159.058594 C 141.082031 159.058594 143.140625 156.378906 143.183594 149.222656 C 153.332031 148.6875 156.246094 148.875 156.246094 148.875 C 156.246094 148.875 154.121094 154.304688 159.195312 156.195312 Z M 162.898438 92.671875 L 161.78125 103.175781 C 161.78125 103.175781 161.558594 103.265625 161.066406 104.339844 C 160.574219 105.414062 160.484375 104.429688 160.394531 106.082031 C 160.308594 107.738281 158.964844 109.167969 158.964844 109.167969 L 159.414062 105.546875 L 161.246094 98.574219 Z M 181.632812 68.304688 L 180.15625 69.15625 L 167.726562 84.625 L 168.175781 84.847656 L 168.488281 85.964844 L 168.128906 88.648438 L 165.492188 88.425781 L 163.570312 103.488281 C 163.570312 103.488281 163.660156 103.445312 163.882812 104.292969 C 164.105469 105.144531 164.375 105.144531 164.375 105.144531 L 178.011719 105.726562 C 178.011719 105.726562 180.289062 106.171875 180.515625 108.140625 C 180.738281 110.105469 180.871094 113.058594 180.871094 113.058594 L 180.980469 114.441406 L 181.632812 111.492188 L 182.570312 108.585938 L 183.0625 107.914062 L 184.625 107.960938 L 186.460938 109.121094 L 196.964844 109.703125 L 199.113281 109.390625 L 201.839844 108.273438 C 199.054688 105.476562 200.230469 100.582031 201.394531 98.695312 Z M 181.632812 68.304688 " fill-opacity="1" fill-rule="evenodd"/></g><path fill="#f07d05" d="M 148.449219 129.578125 C 148.273438 129.5625 155.953125 129.800781 155.953125 129.800781 L 156.109375 135.609375 L 155.664062 135.632812 L 155.015625 130.851562 Z M 216.96875 115.082031 C 217.777344 115.910156 218.363281 117.34375 218.46875 119.714844 L 219.007812 81.449219 L 233.3125 82.835938 L 233.394531 83.226562 C 233.429688 83.195312 233.46875 83.164062 233.503906 83.128906 C 233.894531 82.230469 234.417969 81.613281 235.003906 81.433594 C 235.121094 81.398438 235.242188 81.378906 235.363281 81.378906 C 236.800781 81.378906 237.964844 83.976562 237.964844 87.179688 C 237.964844 90.320312 236.847656 92.878906 235.453125 92.980469 L 242.433594 126.066406 L 218.378906 126.066406 L 218.449219 121.257812 C 218.191406 123.96875 216.695312 127.140625 215.988281 127.140625 C 215.210938 127.140625 213.929688 127.207031 214.0625 127.160156 C 214.125 127.140625 214.183594 127.113281 214.246094 127.078125 C 214.070312 127.164062 213.898438 127.210938 213.730469 127.210938 C 212.324219 127.210938 211.179688 124.5625 211.179688 121.296875 L 211.035156 113.292969 L 210.410156 111.953125 L 205.9375 110.207031 L 203.019531 108.011719 C 201.933594 107.378906 201.148438 105.511719 201.148438 103.3125 C 201.148438 100.761719 202.5 98.664062 203.613281 98.410156 C 203.585938 98.410156 203.570312 98.410156 203.570312 98.410156 C 204.699219 98.082031 206.265625 97.851562 206.675781 98.019531 C 207.089844 98.1875 207.574219 98.234375 208.066406 99.273438 L 208.066406 99.277344 L 208.070312 99.28125 C 208.183594 99.519531 210.855469 105.164062 212.035156 107.65625 C 213.242188 110.207031 216.96875 115.078125 216.96875 115.078125 Z M 214.117188 114.054688 C 212.921875 112.402344 211.164062 109.878906 210.402344 108.273438 C 209.222656 105.777344 206.550781 100.136719 206.4375 99.898438 L 206.433594 99.894531 L 206.433594 99.890625 L 206.433594 99.894531 L 206.4375 99.898438 M 206.433594 99.890625 L 206.433594 99.894531 C 206.546875 100.132812 208.542969 104.960938 209.738281 107.480469 C 210.925781 109.984375 214.070312 113.992188 214.117188 114.054688 M 203.296875 85.222656 C 204 85.070312 204.835938 84.859375 205.828125 84.578125 C 209.128906 83.632812 211.242188 82.199219 212.492188 81.074219 C 212.882812 80.175781 213.40625 79.558594 213.992188 79.378906 C 214.109375 79.339844 214.230469 79.320312 214.351562 79.320312 C 215.789062 79.320312 216.953125 81.921875 216.953125 85.125 C 216.953125 88.328125 215.789062 90.925781 214.351562 90.925781 C 214.101562 90.925781 213.863281 90.847656 213.632812 90.703125 C 212.339844 90.332031 209.511719 89.6875 206.898438 90.183594 C 206.5 90.257812 206.101562 90.351562 205.699219 90.464844 L 207.472656 94.324219 L 205.863281 96.113281 L 201.929688 97.277344 L 199.210938 93.058594 C 198.695312 92.855469 198.257812 92.152344 198.003906 91.183594 L 174.597656 54.871094 L 174.136719 33.078125 L 175.015625 30.039062 L 177.25 28.429688 Z M 193.632812 34.269531 L 192.898438 34.285156 L 203.449219 48.949219 C 203.453125 48.957031 205.167969 49.324219 205.167969 49.324219 C 206.300781 50.453125 207.640625 53.089844 207.875 53.242188 L 208.054688 54.761719 C 208.054688 54.761719 207.417969 53.351562 205.449219 53.84375 C 204.3125 54.128906 203.425781 54.410156 202.96875 55.839844 C 202.632812 56.886719 203.375 59.148438 203.089844 58.695312 C 202.421875 57.621094 188.605469 37.460938 188.605469 37.460938 C 188.605469 37.460938 190.296875 33.683594 193.632812 34.269531 Z M 185.164062 26.550781 L 184.671875 27.042969 L 188.652344 29.457031 L 187.128906 34.820312 L 188.382812 36.789062 C 188.382812 36.789062 190.125 34.195312 191.332031 34.015625 C 192.539062 33.835938 193.882812 33.835938 193.882812 33.835938 C 193.882812 33.835938 193.925781 31.601562 192.941406 30.707031 C 191.957031 29.8125 191.289062 28.832031 190.796875 29.324219 C 190.304688 29.8125 189.097656 28.519531 189.097656 28.519531 Z M 179.886719 26.105469 L 185.253906 36.074219 L 187.042969 31.421875 C 187.042969 31.421875 187.3125 30.382812 185.386719 28.785156 C 183.21875 26.992188 180.738281 25.65625 180.738281 25.65625 Z M 157.695312 131.097656 L 158.390625 131.722656 L 158.949219 131.96875 L 159.820312 131.855469 L 160.289062 131.566406 L 163.480469 108.429688 L 163.859375 107.914062 L 164.0625 105.523438 L 163.636719 104.320312 L 163.59375 103.984375 L 162.96875 104.007812 L 162.320312 103.960938 L 161.785156 103.804688 L 161.160156 104.96875 L 160.734375 105.546875 L 160.578125 107.847656 L 160.800781 108.136719 L 161.429688 108.292969 L 161.886719 108.335938 L 162.601562 108.359375 L 162.179688 108.539062 L 161.417969 108.550781 L 160.734375 108.644531 Z M 161.738281 127.09375 L 161.828125 134.472656 C 161.828125 134.472656 161.960938 136.617188 162.855469 136.617188 C 163.75 136.617188 164.464844 136.214844 164.464844 136.214844 L 174.03125 136.484375 L 176.535156 131.878906 L 168.21875 131.789062 C 168.21875 131.789062 165.984375 131.519531 165.851562 127.808594 C 165.714844 124.097656 165.046875 107.871094 165.046875 107.871094 C 165.046875 107.871094 164.644531 107.109375 166.433594 106.976562 C 168.21875 106.84375 177.339844 107.46875 177.339844 107.46875 C 177.339844 107.46875 178.90625 107.601562 179.171875 109.167969 C 179.441406 110.730469 179.777344 119.535156 179.777344 119.535156 L 180.648438 114.953125 L 180.054688 108.316406 C 180.054688 108.316406 179.761719 107.289062 179.203125 106.976562 C 178.644531 106.664062 177.738281 106.128906 177.09375 106.128906 C 176.445312 106.128906 164.316406 105.707031 164.316406 105.707031 L 164.117188 108.136719 L 163.671875 108.707031 L 163.503906 110.242188 L 164.351562 126.875 C 164.351562 126.875 163.480469 127.390625 163.167969 127.390625 C 162.855469 127.390625 161.738281 127.09375 161.738281 127.09375 Z M 143.292969 148.585938 L 143.269531 145.792969 L 143.089844 144.253906 L 142.6875 143.3125 L 165.539062 143.410156 L 165.671875 145.859375 L 165.402344 148.09375 Z M 171.589844 142.644531 L 168.707031 141.101562 L 168.304688 141.101562 L 166.585938 149.300781 C 166.585938 149.300781 166.453125 150.015625 167.144531 150.574219 C 167.835938 151.132812 172.929688 155.484375 172.929688 155.484375 L 188.046875 113.097656 C 188.046875 113.097656 188.964844 111.464844 187.757812 110.90625 C 186.550781 110.347656 184.050781 108.652344 184.050781 108.652344 L 183.113281 109.03125 L 180.566406 119.417969 L 178.199219 129.644531 L 177.195312 132.90625 L 174.761719 138.175781 L 172.058594 142.84375 Z M 168.664062 153.996094 C 170.007812 155.882812 170.523438 156.289062 172.511719 159.148438 L 174.746094 158.476562 L 185.699219 172.425781 C 185.699219 172.425781 189.054688 176.003906 192.539062 168.894531 C 196.027344 161.785156 192.761719 140.28125 192.761719 140.28125 L 190.082031 112.65625 L 188.921875 111.957031 L 176.535156 149.582031 L 174.570312 154.589844 L 173.550781 157.460938 Z M 189.140625 109.972656 L 191.378906 111.851562 L 194.953125 153.425781 C 194.953125 153.425781 195.957031 168.460938 192.628906 171.667969 C 189.304688 174.871094 248.957031 168.089844 248.957031 168.089844 C 248.957031 168.089844 253.789062 162.902344 254.144531 155.125 C 254.503906 147.347656 253.160156 116.140625 253.160156 116.140625 L 246.632812 112.742188 L 241.761719 113.011719 L 242.164062 115.246094 C 242.164062 115.246094 246.5 117.972656 246.457031 119.761719 C 246.410156 121.550781 246.992188 121.550781 245.652344 124.859375 C 244.308594 128.167969 243.371094 129.730469 243.28125 132.863281 C 243.191406 135.992188 243.71875 142.859375 243.976562 145.765625 C 244.238281 148.671875 242 149.882812 241 152.800781 C 240.46875 154.355469 240.199219 153.140625 240.199219 153.140625 C 240.199219 153.140625 240.109375 151.265625 241.046875 150.058594 C 241.984375 148.851562 242.765625 147.648438 242.902344 147.179688 C 243.035156 146.707031 243.042969 145.359375 242.796875 143.242188 C 242.554688 141.121094 242.371094 135.929688 242.296875 133.6875 C 242.222656 131.445312 243.28125 127.738281 243.414062 127.433594 C 243.605469 127 244.683594 124.59375 244.625 124.671875 C 243.167969 126.609375 242.378906 127.265625 242.273438 127.277344 C 242.273438 127.277344 241.046875 132.75 241.070312 136.257812 C 241.089844 139.761719 241.617188 144.925781 241.617188 144.925781 C 241.617188 144.925781 242.097656 146.886719 241.226562 148.003906 C 240.355469 149.121094 238.164062 153.253906 238.164062 153.253906 L 235.414062 128.03125 L 218.023438 127.855469 C 218.023438 127.855469 217.355469 132.5625 217.132812 138.105469 C 216.910156 143.648438 217.664062 145.378906 217.664062 145.378906 C 217.664062 145.378906 218.113281 147.703125 217.351562 148.820312 C 216.589844 149.9375 214.671875 153.453125 214.671875 153.453125 L 214.132812 153.542969 C 214.132812 153.542969 215.140625 150.683594 216.210938 149.210938 C 217.285156 147.734375 217.128906 146.707031 217.128906 146.394531 C 217.128906 146.082031 216.390625 140.230469 216.5 138.714844 C 216.613281 137.195312 217.507812 127.433594 217.507812 127.433594 L 217.058594 127.253906 L 217.058594 127.257812 L 215.675781 127.636719 C 215.675781 127.636719 214.445312 134.917969 214.625 137.199219 C 214.804688 139.476562 215.339844 144.394531 215.339844 144.394531 C 215.339844 144.394531 215.652344 147.078125 214.980469 148.597656 C 214.3125 150.117188 212.300781 153.828125 212.300781 153.828125 L 211.539062 127.226562 C 211.539062 127.226562 209.976562 126.246094 209.929688 120.703125 C 209.886719 115.15625 210.78125 115.605469 210.78125 115.605469 C 210.78125 115.605469 211.046875 111.714844 207.964844 111.3125 C 204.878906 110.910156 197.1875 110.957031 197.1875 110.957031 L 196.5625 110.105469 Z M 197.367188 165.765625 C 197.367188 165.765625 196.652344 169.789062 195.847656 170.863281 C 195.042969 171.933594 245.074219 167.753906 247.886719 166.75 C 250.695312 165.742188 253.964844 154.679688 252.625 147.613281 C 251.105469 157.984375 248.691406 162.992188 248.691406 162.992188 L 234.652344 163.707031 L 232.597656 134.113281 C 232.597656 134.113281 232.507812 163.707031 228.214844 164.15625 C 223.925781 164.601562 197.367188 165.765625 197.367188 165.765625 Z M 150.886719 84.710938 L 150.839844 86.941406 L 154.769531 86.964844 L 154.839844 84.800781 L 153.945312 82.699219 L 149.546875 82.746094 L 149.65625 84.488281 L 150.640625 83.460938 L 153.007812 83.617188 L 153.8125 84.910156 Z M 149.144531 123.726562 L 149.546875 124.464844 L 154.703125 124.484375 L 156.15625 122.902344 L 156 121.070312 L 155.96875 120.566406 C 155.96875 120.566406 158.585938 108.527344 160.441406 100.539062 C 160.441406 100.53125 159.589844 94.144531 158.207031 92.132812 C 156.820312 90.121094 155.746094 89.988281 155.746094 89.988281 L 163.234375 90.859375 L 163.75 89.765625 L 164.910156 87.617188 L 166.65625 85.160156 L 168.667969 82.613281 L 178.613281 70.21875 L 174.300781 58.738281 L 170.140625 65.308594 L 165.179688 73.179688 L 156.105469 87.527344 L 155.121094 89.585938 L 154.808594 90.660156 L 154.046875 92.804688 L 151.679688 104.25 L 151.589844 105.007812 L 151.457031 107.648438 L 150.886719 108.167969 Z M 178.949219 27.175781 L 204.34375 84.042969 L 213.910156 76.800781 L 209.347656 68.574219 L 204.699219 60.796875 C 204.699219 60.796875 201.929688 60.347656 200.140625 56.773438 C 198.351562 53.195312 198.417969 56.046875 197.277344 54.179688 L 188.71875 40.121094 L 185.476562 38.84375 L 179.65625 27.082031 Z M 176.535156 36.207031 L 177.519531 54.445312 L 179.039062 39.515625 L 194.148438 67.859375 L 177.25 30.574219 L 176.175781 31.109375 Z M 152.550781 81.828125 L 154.316406 81.851562 L 155.703125 84.222656 L 155.636719 85.761719 L 173.691406 56.527344 L 173.5625 43.136719 L 168.644531 51.808594 L 167.773438 57.21875 L 155.460938 74.59375 L 155.039062 75.597656 Z M 152.351562 88.257812 L 150.875 102.28125 L 153.066406 92.582031 L 153.941406 89.289062 L 154.742188 87.496094 L 153.824219 88.289062 Z M 148.449219 102.957031 C 148.449219 102.957031 149.121094 103.46875 150.328125 103.136719 C 151.53125 102.800781 150.394531 103.851562 150.394531 103.851562 L 151.128906 104.898438 L 150.996094 107.332031 L 150.4375 107.691406 L 149.558594 107.65625 L 150.40625 108.027344 L 148.058594 131.742188 C 148.058594 131.742188 147.492188 132.058594 146.664062 131.992188 C 145.835938 131.921875 145.28125 131.566406 145.28125 131.566406 L 146.402344 119.226562 L 147.433594 107.46875 L 147.628906 104.199219 L 147.996094 103.898438 L 148.132812 103.074219 Z M 127.804688 136.796875 C 127.804688 136.796875 126.734375 137.242188 126.777344 133.710938 C 126.824219 130.179688 127.269531 121.28125 127.269531 121.28125 L 128.835938 120.03125 L 141.84375 120.296875 L 142.066406 127.003906 C 142.066406 127.003906 143.453125 126.914062 143.453125 128.433594 C 143.453125 129.957031 143.453125 136.167969 143.453125 136.167969 C 143.453125 136.167969 143.632812 136.929688 142.558594 136.882812 C 141.484375 136.839844 127.804688 136.796875 127.804688 136.796875 Z M 126.921875 121.539062 L 126.519531 134.648438 C 126.519531 134.648438 126.519531 135.832031 126.875 136.5 C 127.234375 137.171875 125.871094 138.3125 125.871094 138.3125 C 125.636719 138.191406 125.535156 137.140625 125.625 134.816406 C 125.679688 133.363281 125.609375 131.113281 125.660156 128.792969 C 125.691406 127.398438 125.914062 125.972656 125.914062 125.972656 Z M 127.324219 137.128906 L 126.386719 138.625 L 126.898438 138.890625 L 138.691406 139.027344 L 140.433594 138.085938 L 144.652344 137.351562 Z M 121.761719 146.285156 L 120.398438 146.261719 L 120.019531 146.820312 L 119.996094 151.332031 L 120.265625 151.578125 L 121.25 151.6875 L 121.425781 151.957031 L 129.132812 153.964844 C 129.542969 154.074219 129.980469 147.667969 129.289062 147.46875 C 127.078125 147.265625 122.164062 146.933594 122.164062 146.933594 Z M 121.761719 146.285156 " fill-opacity="1" fill-rule="evenodd"/><path fill="#000000" d="M 219.945312 82.5 L 219.347656 125.109375 L 241.253906 125.109375 L 232.523438 83.71875 Z M 217.425781 126.054688 L 217.453125 124.089844 C 219.085938 121.183594 218.160156 118.152344 217.554688 116.753906 L 218.050781 81.4375 L 218.066406 80.398438 L 219.09375 80.5 L 233.402344 81.886719 L 234.101562 81.953125 L 234.246094 82.640625 L 243.367188 125.871094 L 242.867188 126.347656 L 242.433594 127.023438 L 217.414062 127.023438 Z M 217.425781 126.054688 " fill-opacity="1" fill-rule="nonzero"/><path fill="#000000" d="M 199.515625 84.902344 C 199.6875 84.902344 199.851562 84.941406 200.007812 85.007812 C 200.121094 85.058594 200.230469 85.121094 200.332031 85.203125 C 200.679688 85.226562 201.199219 85.207031 201.972656 85.085938 C 202.855469 84.949219 204.066406 84.683594 205.722656 84.207031 C 207.34375 83.746094 208.667969 83.164062 209.742188 82.558594 C 210.777344 81.976562 211.574219 81.375 212.175781 80.84375 C 212.382812 80.386719 212.625 79.996094 212.894531 79.691406 C 213.191406 79.355469 213.523438 79.125 213.878906 79.011719 L 213.882812 79.011719 C 213.957031 78.988281 214.035156 78.972656 214.113281 78.957031 L 214.117188 78.957031 C 214.195312 78.945312 214.273438 78.9375 214.351562 78.9375 C 215.234375 78.9375 216.007812 79.675781 216.539062 80.867188 C 217.03125 81.964844 217.335938 83.46875 217.335938 85.125 C 217.335938 86.78125 217.03125 88.285156 216.539062 89.382812 C 216.007812 90.574219 215.234375 91.3125 214.351562 91.3125 C 214.191406 91.3125 214.03125 91.285156 213.875 91.234375 C 213.738281 91.195312 213.605469 91.132812 213.476562 91.054688 C 212.839844 90.875 211.855469 90.636719 210.714844 90.496094 C 209.550781 90.355469 208.230469 90.320312 206.96875 90.558594 C 205.960938 90.75 204.925781 91.074219 203.960938 91.441406 C 202.578125 91.964844 201.347656 92.566406 200.570312 92.976562 C 200.429688 93.128906 200.28125 93.253906 200.121094 93.339844 C 199.929688 93.445312 199.726562 93.5 199.515625 93.5 C 198.867188 93.5 198.308594 92.976562 197.925781 92.125 C 197.589844 91.371094 197.378906 90.339844 197.378906 89.203125 C 197.378906 88.066406 197.589844 87.03125 197.925781 86.277344 C 198.308594 85.425781 198.867188 84.902344 199.515625 84.902344 Z M 199.703125 85.707031 C 199.640625 85.679688 199.578125 85.667969 199.515625 85.667969 C 199.195312 85.667969 198.878906 86.019531 198.625 86.589844 C 198.328125 87.25 198.144531 88.175781 198.144531 89.203125 C 198.144531 90.226562 198.328125 91.152344 198.625 91.816406 C 198.878906 92.382812 199.195312 92.734375 199.515625 92.734375 C 199.597656 92.734375 199.675781 92.710938 199.753906 92.667969 C 199.855469 92.613281 199.949219 92.53125 200.042969 92.421875 L 200.09375 92.363281 L 200.15625 92.332031 C 200.949219 91.914062 202.234375 91.277344 203.691406 90.726562 C 204.691406 90.347656 205.769531 90.007812 206.828125 89.808594 C 208.179688 89.550781 209.578125 89.589844 210.804688 89.738281 C 212.027344 89.886719 213.078125 90.144531 213.738281 90.335938 L 213.789062 90.347656 L 213.839844 90.378906 C 213.925781 90.4375 214.015625 90.476562 214.101562 90.507812 C 214.183594 90.53125 214.265625 90.542969 214.351562 90.542969 C 214.90625 90.542969 215.4375 89.980469 215.84375 89.074219 C 216.292969 88.070312 216.570312 86.675781 216.570312 85.125 C 216.570312 83.574219 216.292969 82.179688 215.84375 81.175781 C 215.4375 80.269531 214.90625 79.703125 214.351562 79.703125 C 214.3125 79.703125 214.269531 79.707031 214.230469 79.714844 C 214.191406 79.71875 214.148438 79.730469 214.109375 79.742188 L 214.105469 79.742188 C 213.886719 79.8125 213.667969 79.96875 213.464844 80.199219 C 213.234375 80.457031 213.023438 80.808594 212.839844 81.226562 L 212.808594 81.304688 L 212.746094 81.359375 C 212.105469 81.9375 211.242188 82.59375 210.117188 83.226562 C 208.996094 83.855469 207.613281 84.464844 205.929688 84.945312 C 204.253906 85.425781 203.011719 85.695312 202.089844 85.839844 C 201.148438 85.988281 200.535156 86 200.136719 85.953125 L 200.015625 85.941406 L 199.921875 85.855469 C 199.847656 85.789062 199.773438 85.738281 199.703125 85.707031 Z M 199.703125 85.707031 " fill-opacity="1" fill-rule="nonzero"/><path fill="#000000" d="M 201.371094 85.058594 C 201.257812 85.023438 201.140625 85.007812 201.027344 85.003906 L 199.648438 84.910156 L 199.640625 84.910156 L 199.621094 84.90625 L 199.558594 84.90625 L 199.542969 84.902344 L 199.535156 84.902344 L 199.492188 85.667969 L 199.574219 85.671875 L 199.625 85.679688 L 199.683594 85.699219 L 199.746094 85.726562 L 199.808594 85.765625 L 199.859375 85.800781 L 199.933594 85.867188 L 200.027344 85.945312 L 200.144531 85.957031 L 200.300781 85.96875 L 200.316406 85.96875 L 200.433594 85.972656 L 200.445312 85.972656 L 200.578125 85.976562 L 200.738281 85.976562 L 200.859375 85.972656 L 200.871094 85.96875 C 200.984375 85.964844 201.089844 85.957031 201.183594 85.953125 L 201.1875 85.953125 C 201.289062 85.941406 201.40625 85.929688 201.539062 85.917969 L 202.609375 85.792969 L 201.699219 85.214844 C 201.59375 85.148438 201.480469 85.09375 201.371094 85.058594 Z M 199.464844 93.5 L 200.882812 93.59375 L 200.917969 93.597656 L 200.945312 93.597656 L 201 93.601562 L 201.011719 93.601562 C 201.222656 93.601562 201.425781 93.546875 201.617188 93.441406 C 201.777344 93.351562 201.929688 93.230469 202.070312 93.078125 C 202.726562 92.730469 203.699219 92.25 204.796875 91.800781 L 204.800781 91.800781 C 205.9375 91.335938 207.222656 90.894531 208.464844 90.660156 C 208.824219 90.589844 209.1875 90.546875 209.558594 90.519531 C 209.933594 90.488281 210.300781 90.480469 210.65625 90.488281 L 213.964844 90.546875 C 213.914062 90.601562 213.886719 90.714844 213.886719 90.921875 L 213.886719 91.257812 L 214.21875 91.300781 L 214.230469 91.304688 L 214.257812 91.308594 L 215.714844 91.40625 L 215.769531 91.410156 L 215.839844 91.410156 L 215.847656 91.414062 C 216.40625 91.414062 216.917969 91.121094 217.355469 90.605469 L 218.453125 90.625 L 217.4375 90.503906 C 217.660156 90.222656 217.859375 89.878906 218.035156 89.484375 C 218.527344 88.386719 218.832031 86.878906 218.832031 85.226562 C 218.832031 83.589844 218.523438 82.117188 218.027344 81.027344 C 217.484375 79.828125 216.703125 79.066406 215.828125 78.996094 L 215.734375 78.992188 C 215.253906 78.953125 214.976562 78.929688 214.398438 78.941406 L 214.292969 78.941406 L 214.320312 79.703125 L 214.378906 79.703125 C 214.632812 79.707031 214.8125 79.832031 214.921875 79.90625 L 214.921875 79.910156 L 214.957031 79.933594 C 215.414062 80.277344 215.8125 80.957031 216.101562 81.855469 C 216.398438 82.769531 216.570312 83.898438 216.570312 85.125 C 216.570312 86.359375 216.394531 87.496094 216.09375 88.417969 C 215.828125 89.234375 215.46875 89.871094 215.0625 90.230469 L 210.703125 89.726562 C 210.066406 89.652344 209.375 89.609375 208.671875 89.625 C 208.058594 89.636719 207.4375 89.691406 206.828125 89.808594 C 205.785156 90.003906 204.714844 90.335938 203.730469 90.710938 C 202.316406 91.242188 201.050781 91.863281 200.246094 92.285156 L 200.222656 92.292969 L 200.21875 92.296875 L 200.15625 92.332031 L 200.097656 92.363281 L 200.050781 92.410156 L 199.980469 92.492188 L 199.976562 92.492188 L 199.96875 92.503906 L 199.964844 92.507812 L 199.917969 92.550781 L 199.769531 92.660156 L 199.691406 92.699219 L 199.625 92.71875 L 199.523438 92.734375 L 199.488281 92.734375 Z M 200.933594 92.832031 L 200.863281 92.828125 C 201.085938 92.710938 201.335938 92.585938 201.609375 92.453125 L 201.585938 92.464844 L 201.539062 92.523438 C 201.445312 92.632812 201.347656 92.71875 201.25 92.769531 C 201.171875 92.8125 201.09375 92.835938 201.011719 92.835938 L 201.011719 92.839844 L 200.988281 92.835938 L 200.945312 92.832031 L 200.929688 92.832031 Z M 215.792969 90.578125 L 216.171875 90.582031 C 216.066406 90.625 215.957031 90.644531 215.847656 90.644531 L 215.847656 90.648438 L 215.824219 90.648438 L 215.765625 90.640625 L 215.738281 90.640625 Z M 216.488281 90.394531 L 215.992188 90.339844 C 216.320312 89.898438 216.601562 89.324219 216.820312 88.652344 C 217.144531 87.660156 217.335938 86.4375 217.335938 85.125 C 217.335938 83.824219 217.148438 82.613281 216.828125 81.621094 C 216.585938 80.867188 216.265625 80.238281 215.886719 79.777344 C 216.421875 79.886719 216.933594 80.460938 217.332031 81.339844 C 217.78125 82.335938 218.066406 83.699219 218.066406 85.226562 C 218.066406 86.777344 217.789062 88.171875 217.339844 89.175781 C 217.09375 89.722656 216.804688 90.148438 216.488281 90.394531 Z M 216.488281 90.394531 " fill-opacity="1" fill-rule="nonzero"/><path fill="#f07d05" d="M 201.011719 85.386719 C 201.179688 85.386719 201.339844 85.4375 201.496094 85.535156 C 201.253906 85.5625 201.042969 85.582031 200.855469 85.589844 L 200.847656 85.589844 C 200.761719 85.59375 200.683594 85.59375 200.613281 85.59375 L 200.585938 85.59375 C 200.539062 85.59375 200.492188 85.59375 200.449219 85.59375 L 200.332031 85.585938 L 200.179688 85.574219 L 200.101562 85.507812 L 200.019531 85.449219 L 199.921875 85.390625 L 199.820312 85.34375 L 199.71875 85.3125 L 199.597656 85.289062 L 199.515625 85.285156 Z M 199.492188 93.117188 L 200.90625 93.210938 C 200.941406 93.21875 200.976562 93.21875 201.011719 93.21875 C 201.308594 93.21875 201.585938 93.058594 201.828125 92.769531 C 203.148438 92.074219 205.855469 90.765625 208.394531 90.285156 C 209.144531 90.140625 209.914062 90.09375 210.660156 90.105469 C 209.488281 89.96875 208.167969 89.941406 206.898438 90.183594 C 204.410156 90.652344 201.765625 91.917969 200.417969 92.625 L 200.398438 92.636719 L 200.332031 92.667969 L 200.25 92.761719 L 200.15625 92.847656 L 199.972656 92.984375 L 199.832031 93.054688 L 199.710938 93.09375 L 199.5625 93.117188 Z M 214.28125 90.925781 L 215.738281 91.023438 C 215.757812 91.027344 215.777344 91.027344 215.796875 91.027344 L 215.800781 91.027344 C 215.816406 91.027344 215.832031 91.027344 215.847656 91.027344 C 217.285156 91.027344 218.449219 88.429688 218.449219 85.226562 C 218.449219 82.023438 217.230469 79.492188 215.796875 79.378906 C 215.234375 79.335938 214.960938 79.308594 214.308594 79.324219 C 214.757812 79.300781 215.03125 79.519531 215.175781 79.621094 C 216.210938 80.386719 216.953125 82.5625 216.953125 85.125 C 216.953125 87.707031 216.195312 89.894531 215.152344 90.648438 L 215.035156 90.726562 C 215.019531 90.734375 215.007812 90.742188 214.996094 90.75 L 214.921875 90.789062 L 214.738281 90.863281 L 214.632812 90.894531 L 214.496094 90.917969 C 214.425781 90.921875 214.210938 90.921875 214.28125 90.925781 Z M 214.28125 90.925781 " fill-opacity="1" fill-rule="evenodd"/><path fill="#000000" d="M 199.5 86.796875 C 199.871094 86.796875 200.171875 87.839844 200.171875 89.125 C 200.171875 90.410156 199.871094 91.453125 199.5 91.453125 C 199.132812 91.453125 198.832031 90.410156 198.832031 89.125 C 198.832031 87.839844 199.132812 86.796875 199.5 86.796875 Z M 199.5 86.796875 " fill-opacity="1" fill-rule="evenodd"/><path fill="#000000" d="M 214.472656 82.167969 C 215.035156 82.167969 215.492188 83.445312 215.492188 85.019531 C 215.492188 86.597656 215.035156 87.875 214.472656 87.875 C 213.910156 87.875 213.453125 86.597656 213.453125 85.019531 C 213.453125 83.445312 213.910156 82.167969 214.472656 82.167969 Z M 214.472656 82.167969 " fill-opacity="1" fill-rule="evenodd"/><path fill="#000000" d="M 232.324219 83.601562 C 232.5 83.46875 232.664062 83.339844 232.816406 83.21875 C 232.941406 83.117188 233.0625 83.007812 233.1875 82.898438 C 233.394531 82.441406 233.636719 82.050781 233.90625 81.75 C 234.203125 81.414062 234.535156 81.179688 234.890625 81.070312 L 234.894531 81.070312 C 234.96875 81.046875 235.046875 81.027344 235.125 81.015625 L 235.128906 81.011719 C 235.207031 81 235.285156 80.996094 235.363281 80.996094 C 236.246094 80.996094 237.019531 81.730469 237.550781 82.921875 C 238.042969 84.019531 238.347656 85.527344 238.347656 87.179688 C 238.347656 88.835938 238.042969 90.34375 237.550781 91.441406 C 237.019531 92.628906 236.246094 93.367188 235.363281 93.367188 C 235.332031 93.367188 235.296875 93.367188 235.253906 93.363281 C 235.21875 93.359375 235.179688 93.355469 235.144531 93.351562 L 234.898438 93.316406 L 234.828125 93.082031 C 234.378906 91.566406 233.792969 89.589844 233.214844 87.617188 C 232.8125 86.234375 232.445312 84.949219 232.183594 84.011719 L 232.113281 83.757812 Z M 233.300781 83.804688 C 233.199219 83.890625 233.097656 83.972656 232.988281 84.054688 C 233.246094 84.980469 233.585938 86.15625 233.949219 87.402344 C 234.429688 89.046875 235.003906 90.980469 235.484375 92.59375 C 235.992188 92.519531 236.476562 91.972656 236.855469 91.128906 C 237.304688 90.125 237.582031 88.730469 237.582031 87.179688 C 237.582031 85.632812 237.304688 84.238281 236.855469 83.234375 C 236.449219 82.324219 235.917969 81.761719 235.363281 81.761719 C 235.324219 81.761719 235.28125 81.765625 235.242188 81.769531 C 235.203125 81.777344 235.160156 81.785156 235.121094 81.796875 L 235.117188 81.800781 C 234.898438 81.867188 234.679688 82.023438 234.476562 82.253906 C 234.246094 82.515625 234.035156 82.863281 233.851562 83.285156 L 233.820312 83.359375 L 233.757812 83.414062 C 233.625 83.535156 233.472656 83.664062 233.300781 83.804688 Z M 233.300781 83.804688 " fill-opacity="1" fill-rule="nonzero"/><path fill="#000000" d="M 235.292969 92.980469 L 236.75 93.082031 C 236.769531 93.082031 236.789062 93.085938 236.808594 93.085938 L 236.8125 93.085938 C 236.828125 93.085938 236.84375 93.085938 236.859375 93.085938 C 238.296875 93.085938 239.460938 90.488281 239.460938 87.28125 C 239.460938 84.078125 238.242188 81.546875 236.8125 81.4375 C 236.246094 81.390625 235.972656 81.367188 235.320312 81.378906 C 235.769531 81.359375 236.042969 81.578125 236.1875 81.675781 C 237.222656 82.445312 237.964844 84.621094 237.964844 87.179688 C 237.964844 89.765625 237.207031 91.953125 236.164062 92.703125 L 236.046875 92.78125 C 236.03125 92.789062 236.019531 92.796875 236.007812 92.804688 L 235.933594 92.84375 L 235.75 92.921875 L 235.644531 92.949219 L 235.507812 92.976562 C 235.4375 92.976562 235.222656 92.976562 235.292969 92.980469 Z M 235.292969 92.980469 " fill-opacity="1" fill-rule="evenodd"/><path fill="#000000" d="M 223.207031 86.546875 L 222.941406 121.597656 L 236.976562 121.597656 L 230.363281 87.082031 Z M 230.082031 87.8125 L 229.492188 88.417969 L 235.089844 120.828125 L 236.054688 120.816406 L 230.082031 87.808594 Z M 223.773438 87.140625 L 229.671875 87.488281 L 229.023438 88.15625 L 223.742188 87.84375 Z M 223.773438 87.140625 " fill-opacity="1" fill-rule="evenodd"/><path fill="#000000" d="M 215.625 115.449219 C 216.105469 115.945312 216.511719 116.636719 216.792969 117.570312 C 217.074219 118.488281 217.234375 119.652344 217.234375 121.105469 C 217.234375 122.574219 216.796875 124.152344 216.171875 125.371094 C 215.503906 126.679688 214.59375 127.59375 213.730469 127.59375 C 212.109375 127.59375 210.796875 124.777344 210.796875 121.296875 L 210.800781 121.296875 L 210.65625 113.382812 L 210.128906 112.253906 L 205.800781 110.566406 L 205.753906 110.546875 L 205.710938 110.515625 L 202.8125 108.335938 C 202.195312 107.96875 201.671875 107.269531 201.308594 106.359375 C 200.96875 105.5 200.765625 104.445312 200.765625 103.3125 C 200.765625 100.382812 202.523438 98.003906 203.832031 98.003906 C 204.488281 98.003906 205.097656 98.144531 205.613281 98.441406 C 206.105469 98.726562 206.503906 99.152344 206.777344 99.726562 L 206.777344 99.730469 L 206.78125 99.730469 C 206.804688 99.78125 206.9375 100.101562 207.144531 100.585938 C 207.792969 102.121094 209.167969 105.382812 210.085938 107.316406 C 211.261719 109.800781 214.410156 113.808594 214.421875 113.820312 L 214.425781 113.828125 Z M 216.0625 117.792969 C 215.816406 116.972656 215.46875 116.378906 215.058594 115.960938 L 215.042969 115.945312 L 215.027344 115.921875 L 213.8125 114.285156 C 213.667969 114.097656 210.578125 110.144531 209.394531 107.644531 C 208.484375 105.722656 207.09375 102.429688 206.441406 100.882812 C 206.246094 100.421875 206.117188 100.121094 206.089844 100.058594 L 206.089844 100.054688 L 206.085938 100.054688 C 205.882812 99.625 205.589844 99.3125 205.230469 99.105469 C 204.835938 98.875 204.359375 98.769531 203.832031 98.769531 C 202.851562 98.769531 201.53125 100.804688 201.53125 103.3125 C 201.53125 104.351562 201.714844 105.308594 202.019531 106.078125 C 202.320312 106.832031 202.738281 107.402344 203.210938 107.679688 L 203.449219 107.816406 L 203.441406 107.851562 L 206.125 109.871094 L 210.546875 111.597656 L 210.691406 111.652344 L 210.753906 111.789062 L 211.382812 113.132812 L 211.414062 113.207031 L 211.417969 113.289062 L 211.5625 121.292969 L 211.566406 121.296875 C 211.566406 124.351562 212.535156 126.828125 213.730469 126.828125 C 214.285156 126.828125 214.949219 126.085938 215.492188 125.023438 C 216.066406 123.90625 216.46875 122.457031 216.46875 121.105469 C 216.46875 119.722656 216.320312 118.636719 216.0625 117.792969 Z M 216.0625 117.792969 " fill-opacity="1" fill-rule="nonzero"/><path fill="#000000" d="M 217.261719 114.835938 C 217.738281 115.332031 218.144531 116.019531 218.425781 116.953125 C 218.707031 117.875 218.867188 119.035156 218.867188 120.492188 C 218.867188 121.847656 218.492188 123.414062 218.007812 124.707031 C 217.402344 126.3125 216.566406 127.523438 215.988281 127.523438 C 215.617188 127.523438 215.230469 127.535156 214.890625 127.542969 C 214.285156 127.5625 213.789062 127.578125 213.691406 127.292969 C 213.609375 127.054688 213.691406 126.886719 213.9375 126.800781 C 214.433594 126.628906 215.066406 125.738281 215.585938 124.613281 C 216.097656 123.503906 216.472656 122.1875 216.472656 121.105469 C 216.472656 119.984375 216.320312 118.90625 216.066406 117.996094 C 215.816406 117.097656 215.464844 116.378906 215.058594 115.960938 L 214.9375 115.835938 L 214.9375 115.808594 C 214.359375 115.042969 211.171875 110.785156 210.058594 108.4375 C 209.171875 106.566406 207.449219 102.929688 206.59375 101.125 L 206.089844 100.0625 L 206.089844 100.058594 L 206.085938 100.054688 C 205.464844 98.855469 203.558594 98.792969 203.554688 98.792969 L 201.234375 98.691406 L 203.464844 98.042969 C 204.074219 97.867188 204.800781 97.71875 205.417969 97.640625 C 206.027344 97.5625 206.558594 97.558594 206.820312 97.664062 C 206.894531 97.695312 206.929688 97.707031 206.96875 97.722656 C 207.378906 97.871094 207.839844 98.035156 208.300781 98.890625 L 208.308594 98.890625 L 208.410156 99.113281 L 208.414062 99.117188 L 208.414062 99.121094 L 208.917969 100.183594 C 209.773438 101.988281 211.496094 105.625 212.382812 107.496094 C 213.535156 109.929688 217.042969 114.550781 217.261719 114.835938 Z M 217.695312 117.175781 C 217.449219 116.355469 217.101562 115.765625 216.695312 115.347656 L 216.570312 115.21875 L 216.570312 115.191406 C 215.992188 114.425781 212.804688 110.171875 211.691406 107.820312 C 210.804688 105.953125 209.082031 102.3125 208.226562 100.507812 L 207.824219 99.65625 L 207.71875 99.4375 C 207.359375 98.671875 207.015625 98.550781 206.710938 98.441406 C 206.636719 98.414062 206.566406 98.386719 206.535156 98.375 C 206.398438 98.320312 206.003906 98.339844 205.511719 98.398438 C 205.441406 98.410156 205.371094 98.417969 205.300781 98.429688 C 205.804688 98.648438 206.3125 98.984375 206.652344 99.507812 L 206.675781 99.507812 L 206.777344 99.726562 L 206.78125 99.730469 L 206.78125 99.734375 L 207.285156 100.796875 C 208.140625 102.601562 209.863281 106.242188 210.75 108.109375 C 211.902344 110.546875 215.414062 115.171875 215.628906 115.449219 C 216.113281 115.960938 216.523438 116.785156 216.800781 117.789062 C 217.074219 118.757812 217.234375 119.910156 217.234375 121.105469 C 217.234375 122.304688 216.832031 123.734375 216.28125 124.933594 C 215.949219 125.65625 215.550781 126.300781 215.148438 126.773438 C 215.457031 126.765625 215.769531 126.757812 215.988281 126.757812 C 216.246094 126.757812 216.792969 125.757812 217.289062 124.4375 C 217.746094 123.222656 218.101562 121.753906 218.101562 120.492188 C 218.101562 119.105469 217.953125 118.019531 217.695312 117.175781 Z M 217.695312 117.175781 " fill-opacity="1" fill-rule="nonzero"/><path fill="#000000" d="M 204.757812 100.34375 C 205.367188 100.539062 205.46875 101.933594 204.980469 103.464844 C 204.496094 104.992188 203.605469 106.074219 202.992188 105.878906 C 202.378906 105.683594 202.28125 104.289062 202.765625 102.757812 C 203.253906 101.230469 204.144531 100.148438 204.757812 100.34375 Z M 204.757812 100.34375 " fill-opacity="1" fill-rule="evenodd"/><path fill="#000000" d="M 214.101562 117.105469 C 214.945312 117.128906 215.582031 118.855469 215.527344 120.964844 C 215.46875 123.074219 214.742188 124.765625 213.898438 124.746094 C 213.054688 124.722656 212.414062 122.992188 212.472656 120.882812 C 212.527344 118.773438 213.257812 117.082031 214.101562 117.105469 Z M 214.101562 117.105469 " fill-opacity="1" fill-rule="evenodd"/><path fill="#c6c6c6" d="M 203.671875 57.441406 C 203.671875 57.441406 203.628906 55.65625 204.253906 55.339844 C 204.878906 55.027344 205.683594 54.625 206.042969 54.761719 C 206.398438 54.894531 223.746094 80.691406 223.746094 80.691406 L 219.050781 80.019531 Z M 203.671875 57.441406 " fill-opacity="1" fill-rule="evenodd"/><path fill="#c6c6c6" d="M 148.585938 102.644531 C 148.585938 102.644531 149.144531 103.15625 150.148438 102.84375 C 150.214844 98.507812 151.800781 87.589844 151.800781 87.589844 L 150.347656 87.546875 L 150.214844 87.210938 Z M 148.585938 102.644531 " fill-opacity="1" fill-rule="evenodd"/><path fill="#c6c6c6" d="M 165.15625 88.785156 L 163.324219 92.503906 L 161.96875 103.257812 C 161.96875 103.257812 162.386719 103.582031 162.589844 103.605469 C 162.789062 103.625 163.414062 103.476562 163.414062 103.476562 Z M 165.15625 88.785156 " fill-opacity="1" fill-rule="evenodd"/><path fill="#c6c6c6" d="M 166.65625 107.335938 L 177.074219 107.875 C 177.933594 107.917969 178.582031 108.578125 178.636719 109.433594 L 179.351562 120.476562 L 176.792969 131.21875 L 168.285156 130.984375 C 167.429688 130.960938 166.625 129.679688 166.582031 128.820312 L 165.507812 108.902344 C 165.460938 108.042969 165.796875 107.292969 166.65625 107.335938 Z M 166.65625 107.335938 " fill-opacity="1" fill-rule="evenodd"/><path fill="#c6c6c6" d="M 129.773438 142.078125 C 129.773438 142.078125 129.941406 141.925781 130.140625 142.964844 L 141.875 142.964844 C 141.765625 142.375 141.609375 142.3125 141.292969 141.941406 C 141.292969 141.941406 129.773438 142.078125 129.773438 142.078125 Z M 130.292969 143.816406 C 130.347656 144.144531 130.402344 144.5 130.453125 144.878906 L 142.175781 144.878906 C 142.132812 144.527344 142.082031 144.171875 142.023438 143.816406 Z M 130.558594 145.730469 C 130.585938 145.953125 130.609375 146.179688 130.632812 146.414062 L 142.335938 146.414062 C 142.316406 146.1875 142.296875 145.960938 142.273438 145.730469 Z M 130.703125 147.261719 C 130.722656 147.546875 130.742188 147.839844 130.757812 148.136719 L 142.429688 148.136719 C 142.421875 147.847656 142.410156 147.558594 142.394531 147.261719 Z M 130.785156 148.984375 C 130.796875 149.457031 130.796875 149.941406 130.785156 150.433594 L 142.425781 150.433594 C 142.441406 149.96875 142.449219 149.484375 142.445312 148.984375 Z M 130.753906 151.285156 C 130.734375 151.699219 130.703125 152.121094 130.660156 152.542969 L 142.296875 152.542969 C 142.332031 152.140625 142.363281 151.722656 142.390625 151.285156 Z M 130.5625 153.390625 C 130.527344 153.683594 130.480469 153.972656 130.433594 154.265625 L 142.097656 154.265625 C 142.136719 153.988281 142.171875 153.695312 142.207031 153.390625 Z M 130.273438 155.117188 C 130.199219 155.472656 130.117188 155.828125 130.023438 156.179688 L 141.769531 156.179688 C 141.832031 155.871094 141.898438 155.515625 141.964844 155.117188 Z M 129.777344 157.03125 C 129.71875 157.214844 129.34375 158.429688 129.28125 158.609375 C 129.28125 158.609375 141.015625 158.542969 141.015625 158.542969 C 141.015625 158.542969 141.496094 157.390625 141.582031 157.03125 Z M 129.777344 157.03125 " fill-opacity="1" fill-rule="evenodd"/><path fill="#ffffff" d="M 166.019531 118.394531 C 166.566406 117.433594 167.652344 115.671875 168.152344 114.722656 C 169.238281 112.660156 170.429688 109.140625 172.605469 107.644531 L 177.074219 107.875 C 177.933594 107.917969 178.582031 108.578125 178.636719 109.433594 L 178.75 111.160156 C 178.320312 111.648438 177.886719 112.277344 177.542969 113.113281 C 176.757812 115.011719 172.082031 115.839844 170.566406 119.105469 C 169.800781 120.757812 167.636719 121.402344 166.242188 122.53125 Z M 166.304688 123.707031 C 167.097656 123.390625 168.089844 122.839844 168.464844 122.503906 C 170.988281 120.238281 175.304688 119.199219 177.898438 117.628906 C 178.371094 117.34375 178.78125 117.132812 179.125 116.988281 L 179.253906 118.96875 C 179.152344 119.046875 179.042969 119.121094 178.925781 119.195312 C 174.480469 122.050781 170.742188 125.402344 167.125 129.296875 C 167.011719 129.421875 166.902344 129.53125 166.796875 129.636719 C 166.671875 129.355469 166.59375 129.070312 166.582031 128.820312 Z M 166.304688 123.707031 " fill-opacity="1" fill-rule="evenodd"/><g fill="#000000" fill-opacity="1"><g transform="translate(123.689558, 219.569142)"><g><path d="M 1.5 -4.15625 L 4.484375 -4.96875 L 4.484375 -20.484375 C 4.484375 -21.191406 4.425781 -21.660156 4.3125 -21.890625 C 4.207031 -22.117188 3.925781 -22.328125 3.46875 -22.515625 L 1.34375 -23.703125 L 1.59375 -27 C 3.65625 -27.320312 5.609375 -27.554688 7.453125 -27.703125 C 9.296875 -27.859375 11.273438 -27.9375 13.390625 -27.9375 C 16.328125 -27.9375 18.679688 -27.625 20.453125 -27 C 22.234375 -26.375 23.535156 -25.394531 24.359375 -24.0625 C 25.191406 -22.726562 25.609375 -20.960938 25.609375 -18.765625 C 25.609375 -15.921875 24.582031 -13.679688 22.53125 -12.046875 C 20.488281 -10.421875 17.6875 -9.609375 14.125 -9.609375 L 11.890625 -9.6875 L 11.890625 -6.59375 C 11.890625 -5.945312 11.9375 -5.523438 12.03125 -5.328125 C 12.125 -5.140625 12.363281 -4.953125 12.75 -4.765625 L 15.234375 -3.296875 L 15.0625 0 L 1.703125 0 Z M 14.5 -14.125 C 15.957031 -14.125 17.03125 -14.273438 17.71875 -14.578125 C 18.007812 -15.910156 18.15625 -17.304688 18.15625 -18.765625 C 18.15625 -20.367188 17.847656 -21.507812 17.234375 -22.1875 C 16.628906 -22.863281 15.648438 -23.203125 14.296875 -23.203125 C 13.828125 -23.203125 13.023438 -23.148438 11.890625 -23.046875 L 11.890625 -14.375 C 12.617188 -14.207031 13.488281 -14.125 14.5 -14.125 Z M 14.5 -14.125 "/></g></g></g><g fill="#000000" fill-opacity="1"><g transform="translate(148.353835, 219.569142)"><g><path d="M 13.890625 0.609375 C 9.765625 0.609375 6.585938 -0.648438 4.359375 -3.171875 C 2.128906 -5.703125 1.015625 -9.273438 1.015625 -13.890625 C 1.015625 -16.816406 1.550781 -19.34375 2.625 -21.46875 C 3.695312 -23.601562 5.25 -25.234375 7.28125 -26.359375 C 9.320312 -27.492188 11.738281 -28.0625 14.53125 -28.0625 C 17.707031 -28.0625 20.976562 -27.335938 24.34375 -25.890625 C 24.101562 -23.453125 23.710938 -20.753906 23.171875 -17.796875 L 20.078125 -17.59375 L 17.265625 -21.703125 C 16.066406 -22.054688 14.75 -22.234375 13.3125 -22.234375 C 12.226562 -22.234375 11.195312 -22.140625 10.21875 -21.953125 C 9.78125 -21.109375 9.425781 -19.992188 9.15625 -18.609375 C 8.882812 -17.222656 8.75 -15.828125 8.75 -14.421875 C 8.75 -11.398438 9.296875 -9.160156 10.390625 -7.703125 C 11.492188 -6.253906 13.242188 -5.503906 15.640625 -5.453125 C 16.585938 -5.453125 17.785156 -5.59375 19.234375 -5.875 C 20.691406 -6.164062 22.113281 -6.539062 23.5 -7 L 24.75 -2.53125 C 23.34375 -1.601562 21.640625 -0.847656 19.640625 -0.265625 C 17.648438 0.316406 15.734375 0.609375 13.890625 0.609375 Z M 13.890625 0.609375 "/></g></g></g><g fill="#000000" fill-opacity="1"><g transform="translate(172.855313, 219.569142)"><g><path d="M 0.65625 -3.625 L 1.90625 -4.390625 L 11.4375 -27.484375 L 18.359375 -28.09375 L 26.515625 -6.109375 C 26.785156 -5.398438 26.972656 -4.9375 27.078125 -4.71875 C 27.179688 -4.5 27.382812 -4.203125 27.6875 -3.828125 L 28.421875 -2.890625 L 28.171875 0 L 16.734375 0 L 16.328125 -3.875 L 19.21875 -4.59375 L 17.921875 -8.71875 L 9.65625 -8.59375 L 8.75 -6.03125 C 8.664062 -5.78125 8.625 -5.578125 8.625 -5.421875 C 8.625 -5.222656 8.660156 -5.078125 8.734375 -4.984375 C 8.804688 -4.890625 8.921875 -4.816406 9.078125 -4.765625 L 11.890625 -3.578125 L 11.484375 0 L 0.8125 0 Z M 13.96875 -21.140625 L 11.28125 -13.3125 L 16.53125 -13.078125 Z M 13.96875 -21.140625 "/></g></g></g><g fill="#000000" fill-opacity="1"><g transform="translate(200.165188, 219.569142)"><g><path d="M 1.5 -4.15625 L 4.484375 -4.96875 L 4.484375 -20.484375 C 4.484375 -21.191406 4.425781 -21.660156 4.3125 -21.890625 C 4.207031 -22.117188 3.925781 -22.328125 3.46875 -22.515625 L 1.34375 -23.703125 L 1.59375 -27.03125 C 5.664062 -27.632812 9.585938 -27.9375 13.359375 -27.9375 C 16.285156 -27.9375 18.644531 -27.644531 20.4375 -27.0625 C 22.226562 -26.476562 23.535156 -25.566406 24.359375 -24.328125 C 25.191406 -23.097656 25.609375 -21.460938 25.609375 -19.421875 C 25.609375 -17.734375 25.171875 -16.257812 24.296875 -15 C 23.429688 -13.738281 22.203125 -12.769531 20.609375 -12.09375 L 27.125 -1.59375 L 27.078125 0 L 19.671875 0 L 13.640625 -10.875 L 11.84375 -10.90625 L 11.84375 -6.359375 C 11.84375 -5.703125 11.890625 -5.285156 11.984375 -5.109375 C 12.085938 -4.929688 12.328125 -4.734375 12.703125 -4.515625 L 14.453125 -3.5 L 14.296875 0 L 1.703125 0 Z M 14.453125 -15.46875 C 15.890625 -15.46875 16.945312 -15.601562 17.625 -15.875 C 17.894531 -16.851562 18.03125 -18.019531 18.03125 -19.375 C 18.03125 -20.738281 17.738281 -21.703125 17.15625 -22.265625 C 16.570312 -22.835938 15.601562 -23.125 14.25 -23.125 C 13.488281 -23.125 12.71875 -23.082031 11.9375 -23 L 11.9375 -15.71875 C 12.632812 -15.550781 13.472656 -15.46875 14.453125 -15.46875 Z M 14.453125 -15.46875 "/></g></g></g><g fill="#000000" fill-opacity="1"><g transform="translate(225.928407, 219.569142)"><g><path d="M 1.09375 -4.15625 L 4.078125 -4.96875 L 4.078125 -20.5625 C 4.078125 -21.269531 4.019531 -21.738281 3.90625 -21.96875 C 3.800781 -22.195312 3.515625 -22.40625 3.046875 -22.59375 L 1.015625 -23.78125 L 1.140625 -27.4375 L 23.25 -27.4375 C 23.4375 -24.59375 23.53125 -21.8125 23.53125 -19.09375 L 20.515625 -18.890625 L 17.625 -22.484375 L 11.484375 -22.640625 L 11.484375 -16 L 20.15625 -16.734375 L 20.15625 -10.46875 L 11.484375 -11.40625 L 11.484375 -4.84375 L 18.234375 -4.96875 L 21.375 -8.546875 L 24.390625 -8.34375 C 24.285156 -5.5 24.082031 -2.71875 23.78125 0 L 1.296875 0 Z M 1.09375 -4.15625 "/></g></g></g><g fill="#703900" fill-opacity="1"><g transform="translate(73.011114, 243.77148)"><g><path d="M 3.8125 0.0625 C 2.75 0.0625 1.6875 0.0195312 0.625 -0.0625 L 0.546875 -1.5 L 1.625 -1.796875 L 1.625 -7.421875 C 1.625 -7.679688 1.601562 -7.851562 1.5625 -7.9375 C 1.519531 -8.019531 1.414062 -8.097656 1.25 -8.171875 L 0.484375 -8.59375 L 0.578125 -9.8125 C 2.171875 -10.019531 3.539062 -10.125 4.6875 -10.125 C 6.082031 -10.125 7.101562 -9.914062 7.75 -9.5 C 8.394531 -9.09375 8.71875 -8.441406 8.71875 -7.546875 C 8.71875 -7.097656 8.648438 -6.703125 8.515625 -6.359375 C 8.378906 -6.023438 8.171875 -5.722656 7.890625 -5.453125 C 8.867188 -5.003906 9.359375 -4.285156 9.359375 -3.296875 C 9.359375 -2.410156 9.113281 -1.695312 8.625 -1.15625 C 8.132812 -0.613281 7.410156 -0.257812 6.453125 -0.09375 C 6.097656 0.0078125 5.21875 0.0625 3.8125 0.0625 Z M 5.984375 -5.921875 C 6.078125 -6.179688 6.125 -6.609375 6.125 -7.203125 C 6.125 -7.617188 6.023438 -7.925781 5.828125 -8.125 C 5.640625 -8.320312 5.351562 -8.429688 4.96875 -8.453125 C 4.707031 -8.453125 4.445312 -8.441406 4.1875 -8.421875 L 4.1875 -5.953125 C 4.351562 -5.960938 4.570312 -5.96875 4.84375 -5.96875 C 5.25 -5.96875 5.628906 -5.953125 5.984375 -5.921875 Z M 5.359375 -1.765625 C 5.921875 -1.765625 6.320312 -1.816406 6.5625 -1.921875 C 6.65625 -2.316406 6.703125 -2.664062 6.703125 -2.96875 C 6.703125 -3.457031 6.570312 -3.804688 6.3125 -4.015625 C 6.0625 -4.222656 5.628906 -4.328125 5.015625 -4.328125 C 4.890625 -4.328125 4.726562 -4.316406 4.53125 -4.296875 L 4.1875 -4.28125 L 4.1875 -1.875 C 4.53125 -1.800781 4.921875 -1.765625 5.359375 -1.765625 Z M 5.359375 -1.765625 "/></g></g></g><g fill="#703900" fill-opacity="1"><g transform="translate(85.642834, 243.77148)"><g><path d="M 3.828125 0.171875 C 2.671875 0.171875 1.78125 -0.175781 1.15625 -0.875 C 0.53125 -1.570312 0.21875 -2.535156 0.21875 -3.765625 C 0.21875 -4.617188 0.367188 -5.351562 0.671875 -5.96875 C 0.984375 -6.582031 1.414062 -7.050781 1.96875 -7.375 C 2.53125 -7.707031 3.1875 -7.875 3.9375 -7.875 C 5.050781 -7.875 5.90625 -7.519531 6.5 -6.8125 C 7.09375 -6.101562 7.378906 -5.09375 7.359375 -3.78125 L 2.859375 -2.953125 C 3.003906 -2.535156 3.203125 -2.226562 3.453125 -2.03125 C 3.703125 -1.84375 4.03125 -1.75 4.4375 -1.75 C 4.726562 -1.75 5.066406 -1.789062 5.453125 -1.875 C 5.847656 -1.96875 6.25 -2.085938 6.65625 -2.234375 L 7 -0.765625 C 6.632812 -0.492188 6.160156 -0.269531 5.578125 -0.09375 C 4.992188 0.0820312 4.410156 0.171875 3.828125 0.171875 Z M 4.9375 -5.015625 C 4.914062 -5.390625 4.804688 -5.660156 4.609375 -5.828125 C 4.421875 -6.003906 4.15625 -6.09375 3.8125 -6.09375 C 3.519531 -6.09375 3.25 -6.054688 3 -5.984375 C 2.789062 -5.492188 2.695312 -4.972656 2.71875 -4.421875 Z M 4.9375 -5.015625 "/></g></g></g><g fill="#703900" fill-opacity="1"><g transform="translate(96.400724, 243.77148)"><g><path d="M 3.109375 0.25 C 2.335938 0.25 1.4375 0.113281 0.40625 -0.15625 C 0.46875 -1.125 0.535156 -1.835938 0.609375 -2.296875 L 1.453125 -2.46875 L 2.375 -1.484375 C 2.695312 -1.378906 3.0625 -1.328125 3.46875 -1.328125 C 3.695312 -1.328125 3.875 -1.34375 4 -1.375 C 4.03125 -1.445312 4.046875 -1.554688 4.046875 -1.703125 C 4.046875 -1.816406 4.019531 -1.910156 3.96875 -1.984375 C 3.914062 -2.066406 3.796875 -2.160156 3.609375 -2.265625 C 3.421875 -2.378906 3.09375 -2.550781 2.625 -2.78125 C 2.039062 -3.082031 1.597656 -3.351562 1.296875 -3.59375 C 0.992188 -3.832031 0.773438 -4.078125 0.640625 -4.328125 C 0.503906 -4.585938 0.4375 -4.894531 0.4375 -5.25 C 0.4375 -6.039062 0.726562 -6.664062 1.3125 -7.125 C 1.90625 -7.59375 2.703125 -7.828125 3.703125 -7.828125 C 4.117188 -7.828125 4.554688 -7.78125 5.015625 -7.6875 C 5.472656 -7.59375 5.882812 -7.46875 6.25 -7.3125 C 6.25 -6.664062 6.203125 -5.953125 6.109375 -5.171875 L 5.34375 -5.046875 L 4.359375 -6.109375 C 4.097656 -6.191406 3.722656 -6.234375 3.234375 -6.234375 C 3.148438 -6.234375 2.992188 -6.222656 2.765625 -6.203125 C 2.734375 -6.140625 2.71875 -6.046875 2.71875 -5.921875 C 2.71875 -5.785156 2.753906 -5.664062 2.828125 -5.5625 C 2.910156 -5.457031 3.050781 -5.34375 3.25 -5.21875 C 3.457031 -5.09375 3.78125 -4.921875 4.21875 -4.703125 C 4.875 -4.378906 5.363281 -4.101562 5.6875 -3.875 C 6.019531 -3.644531 6.25 -3.410156 6.375 -3.171875 C 6.507812 -2.929688 6.578125 -2.644531 6.578125 -2.3125 C 6.578125 -1.507812 6.269531 -0.878906 5.65625 -0.421875 C 5.039062 0.0234375 4.191406 0.25 3.109375 0.25 Z M 3.109375 0.25 "/></g></g></g><g fill="#703900" fill-opacity="1"><g transform="translate(106.273353, 243.77148)"><g><path d="M 3.28125 0.1875 C 2.414062 0.1875 1.773438 -0.0234375 1.359375 -0.453125 C 0.941406 -0.878906 0.734375 -1.53125 0.734375 -2.40625 L 0.734375 -6 L -0.296875 -6 L -0.296875 -7.078125 L 2.359375 -9.5 L 3.21875 -9.390625 L 3.21875 -7.71875 L 5.703125 -7.71875 L 5.703125 -5.984375 L 3.21875 -5.984375 L 3.21875 -2.9375 C 3.21875 -2.46875 3.285156 -2.148438 3.421875 -1.984375 C 3.554688 -1.828125 3.8125 -1.75 4.1875 -1.75 C 4.519531 -1.75 4.972656 -1.796875 5.546875 -1.890625 L 5.734375 -0.390625 C 5.378906 -0.222656 4.984375 -0.0859375 4.546875 0.015625 C 4.109375 0.128906 3.6875 0.1875 3.28125 0.1875 Z M 3.28125 0.1875 "/></g></g></g><g fill="#703900" fill-opacity="1"><g transform="translate(115.482022, 243.77148)"><g/></g></g><g fill="#703900" fill-opacity="1"><g transform="translate(121.592242, 243.77148)"><g><path d="M 3.359375 -6.53125 L 3.046875 -2.15625 L 3.046875 -2.09375 C 3.046875 -1.90625 3.113281 -1.785156 3.25 -1.734375 L 4.15625 -1.34375 L 4.015625 0 L 0.34375 0 L 0.1875 -1.3125 L 0.875 -1.734375 L 1.71875 -7.421875 C 1.726562 -7.492188 1.734375 -7.578125 1.734375 -7.671875 C 1.734375 -7.796875 1.703125 -7.882812 1.640625 -7.9375 C 1.585938 -8 1.488281 -8.078125 1.34375 -8.171875 L 0.671875 -8.546875 L 0.75 -9.953125 L 4.984375 -9.953125 L 7.109375 -3.078125 L 9.203125 -9.953125 L 13.15625 -9.953125 L 13.21875 -8.40625 L 12.265625 -8.171875 L 13.0625 -2.375 C 13.09375 -2.175781 13.132812 -2.019531 13.1875 -1.90625 C 13.25 -1.800781 13.375 -1.628906 13.5625 -1.390625 L 13.875 -0.984375 L 13.796875 0 L 9.390625 0 L 9.265625 -1.359375 L 10.46875 -1.671875 L 9.96875 -6.609375 L 8.078125 0.0625 L 5.546875 0.28125 Z M 3.359375 -6.53125 "/></g></g></g><g fill="#703900" fill-opacity="1"><g transform="translate(138.709329, 243.77148)"><g><path d="M 0.984375 -10.921875 L 3.5 -11.59375 L 4.109375 -9.34375 L 1.609375 -8.671875 Z M 0.375 -1.359375 L 1.40625 -1.671875 L 1.40625 -5.25 C 1.40625 -5.46875 1.382812 -5.609375 1.34375 -5.671875 C 1.3125 -5.734375 1.226562 -5.804688 1.09375 -5.890625 L 0.4375 -6.25 L 0.515625 -7.359375 C 1.335938 -7.515625 1.972656 -7.628906 2.421875 -7.703125 C 2.867188 -7.773438 3.273438 -7.816406 3.640625 -7.828125 C 3.773438 -7.398438 3.859375 -7.082031 3.890625 -6.875 L 3.890625 -2.15625 C 3.890625 -1.945312 3.898438 -1.804688 3.921875 -1.734375 C 3.953125 -1.671875 4.035156 -1.597656 4.171875 -1.515625 L 4.90625 -1.109375 L 4.84375 0 L 0.40625 0 Z M 0.375 -1.359375 "/></g></g></g><g fill="#703900" fill-opacity="1"><g transform="translate(146.899938, 243.77148)"><g><path d="M 0.390625 -1.421875 L 1.296875 -1.6875 L 1.296875 -5.25 C 1.296875 -5.46875 1.28125 -5.609375 1.25 -5.671875 C 1.21875 -5.734375 1.140625 -5.804688 1.015625 -5.890625 L 0.375 -6.25 L 0.40625 -7.359375 L 0.734375 -7.40625 C 2.023438 -7.664062 2.957031 -7.804688 3.53125 -7.828125 C 3.601562 -7.617188 3.664062 -7.390625 3.71875 -7.140625 C 4.320312 -7.421875 4.8125 -7.613281 5.1875 -7.71875 C 5.570312 -7.820312 5.929688 -7.875 6.265625 -7.875 C 7.828125 -7.875 8.609375 -6.9375 8.609375 -5.0625 L 8.609375 -2.171875 C 8.609375 -1.960938 8.625 -1.820312 8.65625 -1.75 C 8.6875 -1.6875 8.769531 -1.613281 8.90625 -1.53125 L 9.609375 -1.125 L 9.546875 -0.015625 L 5.484375 -0.015625 L 5.40625 -1.421875 L 6.125 -1.625 L 6.125 -4.421875 C 6.125 -4.859375 6.109375 -5.164062 6.078125 -5.34375 C 6.054688 -5.519531 5.976562 -5.65625 5.84375 -5.75 C 5.707031 -5.851562 5.472656 -5.90625 5.140625 -5.90625 C 4.785156 -5.90625 4.335938 -5.851562 3.796875 -5.75 L 3.796875 -2.171875 C 3.796875 -1.960938 3.8125 -1.820312 3.84375 -1.75 C 3.875 -1.6875 3.953125 -1.613281 4.078125 -1.53125 L 4.796875 -1.125 L 4.734375 -0.015625 L 0.453125 -0.015625 Z M 0.390625 -1.421875 "/></g></g></g><g fill="#703900" fill-opacity="1"><g transform="translate(159.708702, 243.77148)"><g><path d="M 0.984375 -10.921875 L 3.5 -11.59375 L 4.109375 -9.34375 L 1.609375 -8.671875 Z M 0.375 -1.359375 L 1.40625 -1.671875 L 1.40625 -5.25 C 1.40625 -5.46875 1.382812 -5.609375 1.34375 -5.671875 C 1.3125 -5.734375 1.226562 -5.804688 1.09375 -5.890625 L 0.4375 -6.25 L 0.515625 -7.359375 C 1.335938 -7.515625 1.972656 -7.628906 2.421875 -7.703125 C 2.867188 -7.773438 3.273438 -7.816406 3.640625 -7.828125 C 3.773438 -7.398438 3.859375 -7.082031 3.890625 -6.875 L 3.890625 -2.15625 C 3.890625 -1.945312 3.898438 -1.804688 3.921875 -1.734375 C 3.953125 -1.671875 4.035156 -1.597656 4.171875 -1.515625 L 4.90625 -1.109375 L 4.84375 0 L 0.40625 0 Z M 0.375 -1.359375 "/></g></g></g><g fill="#703900" fill-opacity="1"><g transform="translate(167.899312, 243.77148)"><g><path d="M 0.390625 -1.421875 L 1.296875 -1.6875 L 1.296875 -5.25 C 1.296875 -5.46875 1.28125 -5.609375 1.25 -5.671875 C 1.21875 -5.734375 1.140625 -5.804688 1.015625 -5.890625 L 0.375 -6.25 L 0.40625 -7.359375 L 0.734375 -7.40625 C 2.023438 -7.664062 2.957031 -7.804688 3.53125 -7.828125 C 3.601562 -7.617188 3.664062 -7.390625 3.71875 -7.140625 C 4.320312 -7.421875 4.8125 -7.613281 5.1875 -7.71875 C 5.570312 -7.820312 5.929688 -7.875 6.265625 -7.875 C 7.828125 -7.875 8.609375 -6.9375 8.609375 -5.0625 L 8.609375 -2.171875 C 8.609375 -1.960938 8.625 -1.820312 8.65625 -1.75 C 8.6875 -1.6875 8.769531 -1.613281 8.90625 -1.53125 L 9.609375 -1.125 L 9.546875 -0.015625 L 5.484375 -0.015625 L 5.40625 -1.421875 L 6.125 -1.625 L 6.125 -4.421875 C 6.125 -4.859375 6.109375 -5.164062 6.078125 -5.34375 C 6.054688 -5.519531 5.976562 -5.65625 5.84375 -5.75 C 5.707031 -5.851562 5.472656 -5.90625 5.140625 -5.90625 C 4.785156 -5.90625 4.335938 -5.851562 3.796875 -5.75 L 3.796875 -2.171875 C 3.796875 -1.960938 3.8125 -1.820312 3.84375 -1.75 C 3.875 -1.6875 3.953125 -1.613281 4.078125 -1.53125 L 4.796875 -1.125 L 4.734375 -0.015625 L 0.453125 -0.015625 Z M 0.390625 -1.421875 "/></g></g></g><g fill="#703900" fill-opacity="1"><g transform="translate(180.708082, 243.77148)"><g><path d="M 3.421875 3.359375 C 2.296875 3.359375 1.441406 3.179688 0.859375 2.828125 C 0.285156 2.472656 0 1.953125 0 1.265625 C 0 0.535156 0.332031 -0.101562 1 -0.65625 C 0.789062 -0.851562 0.6875 -1.078125 0.6875 -1.328125 C 0.6875 -1.679688 0.921875 -2.179688 1.390625 -2.828125 C 0.578125 -3.253906 0.171875 -3.984375 0.171875 -5.015625 C 0.171875 -5.921875 0.476562 -6.625 1.09375 -7.125 C 1.707031 -7.625 2.597656 -7.875 3.765625 -7.875 C 4.578125 -7.875 5.242188 -7.75 5.765625 -7.5 L 7.546875 -8.046875 L 8.234375 -8.046875 L 8.234375 -5.90625 L 7.09375 -5.90625 C 7.132812 -5.65625 7.15625 -5.414062 7.15625 -5.1875 C 7.15625 -4.28125 6.847656 -3.585938 6.234375 -3.109375 C 5.628906 -2.640625 4.738281 -2.40625 3.5625 -2.40625 C 3.15625 -2.40625 2.789062 -2.4375 2.46875 -2.5 L 2.46875 -2.28125 C 2.46875 -2.125 2.53125 -2.015625 2.65625 -1.953125 C 2.789062 -1.890625 3.082031 -1.828125 3.53125 -1.765625 L 4.859375 -1.578125 C 5.898438 -1.429688 6.617188 -1.175781 7.015625 -0.8125 C 7.421875 -0.445312 7.625 0.0195312 7.625 0.59375 C 7.625 1.476562 7.257812 2.160156 6.53125 2.640625 C 5.800781 3.117188 4.765625 3.359375 3.421875 3.359375 Z M 3.78125 -3.859375 C 3.988281 -3.859375 4.222656 -3.882812 4.484375 -3.9375 C 4.523438 -4.0625 4.5625 -4.238281 4.59375 -4.46875 C 4.632812 -4.707031 4.65625 -4.925781 4.65625 -5.125 C 4.65625 -5.5625 4.554688 -5.890625 4.359375 -6.109375 C 4.171875 -6.328125 3.875 -6.4375 3.46875 -6.4375 C 3.269531 -6.4375 3.050781 -6.40625 2.8125 -6.34375 C 2.769531 -6.226562 2.726562 -6.054688 2.6875 -5.828125 C 2.65625 -5.609375 2.640625 -5.394531 2.640625 -5.1875 C 2.640625 -4.726562 2.734375 -4.390625 2.921875 -4.171875 C 3.109375 -3.960938 3.394531 -3.859375 3.78125 -3.859375 Z M 4.109375 1.703125 C 4.554688 1.703125 4.898438 1.660156 5.140625 1.578125 C 5.203125 1.460938 5.234375 1.304688 5.234375 1.109375 C 5.234375 0.867188 5.144531 0.6875 4.96875 0.5625 C 4.800781 0.445312 4.503906 0.359375 4.078125 0.296875 L 3.609375 0.21875 C 3.171875 0.164062 2.726562 0.0976562 2.28125 0.015625 C 2.226562 0.273438 2.203125 0.488281 2.203125 0.65625 C 2.203125 1.007812 2.359375 1.269531 2.671875 1.4375 C 2.984375 1.613281 3.460938 1.703125 4.109375 1.703125 Z M 4.109375 1.703125 "/></g></g></g><g fill="#703900" fill-opacity="1"><g transform="translate(192.218461, 243.77148)"><g/></g></g><g fill="#703900" fill-opacity="1"><g transform="translate(198.328686, 243.77148)"><g><path d="M 5.03125 0.21875 C 3.539062 0.21875 2.390625 -0.238281 1.578125 -1.15625 C 0.773438 -2.070312 0.375 -3.363281 0.375 -5.03125 C 0.375 -6.09375 0.566406 -7.007812 0.953125 -7.78125 C 1.335938 -8.5625 1.898438 -9.15625 2.640625 -9.5625 C 3.378906 -9.96875 4.253906 -10.171875 5.265625 -10.171875 C 6.421875 -10.171875 7.609375 -9.910156 8.828125 -9.390625 C 8.742188 -8.503906 8.601562 -7.523438 8.40625 -6.453125 L 7.28125 -6.375 L 6.265625 -7.875 C 5.828125 -8 5.347656 -8.0625 4.828125 -8.0625 C 4.429688 -8.0625 4.054688 -8.023438 3.703125 -7.953125 C 3.546875 -7.648438 3.414062 -7.25 3.3125 -6.75 C 3.21875 -6.25 3.171875 -5.742188 3.171875 -5.234375 C 3.171875 -4.140625 3.367188 -3.328125 3.765625 -2.796875 C 4.171875 -2.273438 4.804688 -2.003906 5.671875 -1.984375 C 6.015625 -1.984375 6.445312 -2.03125 6.96875 -2.125 C 7.5 -2.226562 8.015625 -2.367188 8.515625 -2.546875 L 8.984375 -0.921875 C 8.460938 -0.578125 7.84375 -0.300781 7.125 -0.09375 C 6.40625 0.113281 5.707031 0.21875 5.03125 0.21875 Z M 5.03125 0.21875 "/></g></g></g><g fill="#703900" fill-opacity="1"><g transform="translate(210.886628, 243.77148)"><g><path d="M 3.9375 0.1875 C 2.6875 0.1875 1.753906 -0.128906 1.140625 -0.765625 C 0.523438 -1.410156 0.21875 -2.390625 0.21875 -3.703125 C 0.21875 -4.546875 0.375 -5.28125 0.6875 -5.90625 C 1 -6.539062 1.441406 -7.023438 2.015625 -7.359375 C 2.597656 -7.703125 3.285156 -7.875 4.078125 -7.875 C 6.628906 -7.875 7.90625 -6.550781 7.90625 -3.90625 C 7.90625 -2.625 7.554688 -1.617188 6.859375 -0.890625 C 6.160156 -0.171875 5.1875 0.1875 3.9375 0.1875 Z M 4.171875 -1.53125 C 4.367188 -1.53125 4.539062 -1.546875 4.6875 -1.578125 C 4.84375 -1.617188 5.003906 -1.675781 5.171875 -1.75 C 5.222656 -1.976562 5.269531 -2.269531 5.3125 -2.625 C 5.351562 -2.976562 5.375 -3.316406 5.375 -3.640625 C 5.375 -4.441406 5.25 -5.046875 5 -5.453125 C 4.75 -5.867188 4.378906 -6.078125 3.890625 -6.078125 C 3.554688 -6.078125 3.222656 -6.035156 2.890625 -5.953125 C 2.828125 -5.804688 2.773438 -5.566406 2.734375 -5.234375 C 2.691406 -4.898438 2.671875 -4.523438 2.671875 -4.109375 C 2.671875 -3.273438 2.800781 -2.632812 3.0625 -2.1875 C 3.320312 -1.75 3.691406 -1.53125 4.171875 -1.53125 Z M 4.171875 -1.53125 "/></g></g></g><g fill="#703900" fill-opacity="1"><g transform="translate(222.116666, 243.77148)"><g><path d="M 0.390625 -1.421875 L 1.296875 -1.6875 L 1.296875 -5.25 C 1.296875 -5.46875 1.28125 -5.609375 1.25 -5.671875 C 1.21875 -5.734375 1.140625 -5.804688 1.015625 -5.890625 L 0.375 -6.25 L 0.40625 -7.359375 L 0.734375 -7.40625 C 2.023438 -7.664062 2.957031 -7.804688 3.53125 -7.828125 C 3.601562 -7.617188 3.664062 -7.390625 3.71875 -7.140625 C 4.320312 -7.421875 4.8125 -7.613281 5.1875 -7.71875 C 5.570312 -7.820312 5.929688 -7.875 6.265625 -7.875 C 7.828125 -7.875 8.609375 -6.9375 8.609375 -5.0625 L 8.609375 -2.171875 C 8.609375 -1.960938 8.625 -1.820312 8.65625 -1.75 C 8.6875 -1.6875 8.769531 -1.613281 8.90625 -1.53125 L 9.609375 -1.125 L 9.546875 -0.015625 L 5.484375 -0.015625 L 5.40625 -1.421875 L 6.125 -1.625 L 6.125 -4.421875 C 6.125 -4.859375 6.109375 -5.164062 6.078125 -5.34375 C 6.054688 -5.519531 5.976562 -5.65625 5.84375 -5.75 C 5.707031 -5.851562 5.472656 -5.90625 5.140625 -5.90625 C 4.785156 -5.90625 4.335938 -5.851562 3.796875 -5.75 L 3.796875 -2.171875 C 3.796875 -1.960938 3.8125 -1.820312 3.84375 -1.75 C 3.875 -1.6875 3.953125 -1.613281 4.078125 -1.53125 L 4.796875 -1.125 L 4.734375 -0.015625 L 0.453125 -0.015625 Z M 0.390625 -1.421875 "/></g></g></g><g fill="#703900" fill-opacity="1"><g transform="translate(234.925436, 243.77148)"><g><path d="M 3.28125 0.1875 C 2.414062 0.1875 1.773438 -0.0234375 1.359375 -0.453125 C 0.941406 -0.878906 0.734375 -1.53125 0.734375 -2.40625 L 0.734375 -6 L -0.296875 -6 L -0.296875 -7.078125 L 2.359375 -9.5 L 3.21875 -9.390625 L 3.21875 -7.71875 L 5.703125 -7.71875 L 5.703125 -5.984375 L 3.21875 -5.984375 L 3.21875 -2.9375 C 3.21875 -2.46875 3.285156 -2.148438 3.421875 -1.984375 C 3.554688 -1.828125 3.8125 -1.75 4.1875 -1.75 C 4.519531 -1.75 4.972656 -1.796875 5.546875 -1.890625 L 5.734375 -0.390625 C 5.378906 -0.222656 4.984375 -0.0859375 4.546875 0.015625 C 4.109375 0.128906 3.6875 0.1875 3.28125 0.1875 Z M 3.28125 0.1875 "/></g></g></g><g fill="#703900" fill-opacity="1"><g transform="translate(244.13411, 243.77148)"><g><path d="M 0.40625 -1.40625 L 1.296875 -1.671875 L 1.296875 -5.25 C 1.296875 -5.46875 1.28125 -5.609375 1.25 -5.671875 C 1.21875 -5.734375 1.140625 -5.804688 1.015625 -5.890625 L 0.375 -6.25 L 0.40625 -7.359375 C 0.582031 -7.390625 0.726562 -7.410156 0.84375 -7.421875 C 2.03125 -7.671875 2.910156 -7.804688 3.484375 -7.828125 C 3.578125 -7.566406 3.660156 -7.242188 3.734375 -6.859375 C 4.328125 -7.328125 4.828125 -7.648438 5.234375 -7.828125 L 6.078125 -7.828125 C 6.066406 -7.453125 6.039062 -7.046875 6 -6.609375 C 5.96875 -6.171875 5.921875 -5.816406 5.859375 -5.546875 C 5.503906 -5.566406 5.242188 -5.578125 5.078125 -5.578125 C 4.660156 -5.578125 4.234375 -5.550781 3.796875 -5.5 L 3.796875 -2.15625 C 3.796875 -1.945312 3.8125 -1.804688 3.84375 -1.734375 C 3.875 -1.671875 3.953125 -1.597656 4.078125 -1.515625 L 4.96875 -1.046875 L 4.90625 0 L 0.46875 0 Z M 0.40625 -1.40625 "/></g></g></g><g fill="#703900" fill-opacity="1"><g transform="translate(253.490318, 243.77148)"><g><path d="M 2.515625 0.1875 C 1.835938 0.1875 1.296875 0.00390625 0.890625 -0.359375 C 0.492188 -0.734375 0.296875 -1.207031 0.296875 -1.78125 C 0.296875 -2.5625 0.6875 -3.171875 1.46875 -3.609375 C 2.25 -4.054688 3.390625 -4.3125 4.890625 -4.375 C 4.890625 -4.832031 4.851562 -5.171875 4.78125 -5.390625 C 4.707031 -5.617188 4.570312 -5.773438 4.375 -5.859375 C 4.1875 -5.941406 3.894531 -5.984375 3.5 -5.984375 C 3.09375 -5.984375 2.804688 -5.96875 2.640625 -5.9375 L 2.03125 -4.734375 L 0.9375 -4.8125 C 0.769531 -5.601562 0.65625 -6.421875 0.59375 -7.265625 C 1.144531 -7.453125 1.742188 -7.597656 2.390625 -7.703125 C 3.046875 -7.816406 3.660156 -7.875 4.234375 -7.875 C 5.273438 -7.875 6.019531 -7.664062 6.46875 -7.25 C 6.925781 -6.84375 7.15625 -6.171875 7.15625 -5.234375 L 7.15625 -2.140625 C 7.15625 -1.960938 7.171875 -1.835938 7.203125 -1.765625 C 7.242188 -1.703125 7.320312 -1.632812 7.4375 -1.5625 L 8.03125 -1.21875 L 7.96875 -0.3125 C 6.832031 -0.0390625 5.929688 0.109375 5.265625 0.140625 C 5.242188 0.078125 5.210938 -0.0234375 5.171875 -0.171875 C 5.140625 -0.328125 5.109375 -0.476562 5.078125 -0.625 C 4.691406 -0.375 4.269531 -0.175781 3.8125 -0.03125 C 3.351562 0.113281 2.921875 0.1875 2.515625 0.1875 Z M 3.5 -1.484375 C 3.894531 -1.484375 4.375 -1.613281 4.9375 -1.875 L 4.875 -3 C 4.632812 -3.019531 4.476562 -3.03125 4.40625 -3.03125 C 4.132812 -3.03125 3.820312 -3 3.46875 -2.9375 C 3.113281 -2.882812 2.832031 -2.828125 2.625 -2.765625 C 2.59375 -2.628906 2.578125 -2.507812 2.578125 -2.40625 C 2.578125 -2.113281 2.660156 -1.882812 2.828125 -1.71875 C 2.992188 -1.5625 3.21875 -1.484375 3.5 -1.484375 Z M 3.5 -1.484375 "/></g></g></g><g fill="#703900" fill-opacity="1"><g transform="translate(264.735112, 243.77148)"><g><path d="M 3.828125 0.1875 C 2.679688 0.1875 1.789062 -0.160156 1.15625 -0.859375 C 0.53125 -1.566406 0.21875 -2.539062 0.21875 -3.78125 C 0.21875 -5.070312 0.554688 -6.078125 1.234375 -6.796875 C 1.910156 -7.515625 2.832031 -7.875 4 -7.875 C 4.882812 -7.875 5.832031 -7.671875 6.84375 -7.265625 C 6.832031 -6.984375 6.789062 -6.609375 6.71875 -6.140625 C 6.644531 -5.671875 6.570312 -5.238281 6.5 -4.84375 L 5.5 -4.75 L 4.59375 -5.921875 C 4.34375 -5.972656 4.066406 -6 3.765625 -6 C 3.515625 -6 3.289062 -5.984375 3.09375 -5.953125 C 2.863281 -5.515625 2.75 -4.90625 2.75 -4.125 C 2.75 -3.3125 2.890625 -2.710938 3.171875 -2.328125 C 3.460938 -1.941406 3.894531 -1.75 4.46875 -1.75 C 4.75 -1.75 5.082031 -1.789062 5.46875 -1.875 C 5.863281 -1.957031 6.269531 -2.078125 6.6875 -2.234375 L 7.046875 -0.75 C 6.648438 -0.476562 6.160156 -0.253906 5.578125 -0.078125 C 4.992188 0.0976562 4.410156 0.1875 3.828125 0.1875 Z M 3.828125 0.1875 "/></g></g></g><g fill="#703900" fill-opacity="1"><g transform="translate(275.242188, 243.77148)"><g><path d="M 3.28125 0.1875 C 2.414062 0.1875 1.773438 -0.0234375 1.359375 -0.453125 C 0.941406 -0.878906 0.734375 -1.53125 0.734375 -2.40625 L 0.734375 -6 L -0.296875 -6 L -0.296875 -7.078125 L 2.359375 -9.5 L 3.21875 -9.390625 L 3.21875 -7.71875 L 5.703125 -7.71875 L 5.703125 -5.984375 L 3.21875 -5.984375 L 3.21875 -2.9375 C 3.21875 -2.46875 3.285156 -2.148438 3.421875 -1.984375 C 3.554688 -1.828125 3.8125 -1.75 4.1875 -1.75 C 4.519531 -1.75 4.972656 -1.796875 5.546875 -1.890625 L 5.734375 -0.390625 C 5.378906 -0.222656 4.984375 -0.0859375 4.546875 0.015625 C 4.109375 0.128906 3.6875 0.1875 3.28125 0.1875 Z M 3.28125 0.1875 "/></g></g></g><g fill="#703900" fill-opacity="1"><g transform="translate(284.450862, 243.77148)"><g><path d="M 3.9375 0.1875 C 2.6875 0.1875 1.753906 -0.128906 1.140625 -0.765625 C 0.523438 -1.410156 0.21875 -2.390625 0.21875 -3.703125 C 0.21875 -4.546875 0.375 -5.28125 0.6875 -5.90625 C 1 -6.539062 1.441406 -7.023438 2.015625 -7.359375 C 2.597656 -7.703125 3.285156 -7.875 4.078125 -7.875 C 6.628906 -7.875 7.90625 -6.550781 7.90625 -3.90625 C 7.90625 -2.625 7.554688 -1.617188 6.859375 -0.890625 C 6.160156 -0.171875 5.1875 0.1875 3.9375 0.1875 Z M 4.171875 -1.53125 C 4.367188 -1.53125 4.539062 -1.546875 4.6875 -1.578125 C 4.84375 -1.617188 5.003906 -1.675781 5.171875 -1.75 C 5.222656 -1.976562 5.269531 -2.269531 5.3125 -2.625 C 5.351562 -2.976562 5.375 -3.316406 5.375 -3.640625 C 5.375 -4.441406 5.25 -5.046875 5 -5.453125 C 4.75 -5.867188 4.378906 -6.078125 3.890625 -6.078125 C 3.554688 -6.078125 3.222656 -6.035156 2.890625 -5.953125 C 2.828125 -5.804688 2.773438 -5.566406 2.734375 -5.234375 C 2.691406 -4.898438 2.671875 -4.523438 2.671875 -4.109375 C 2.671875 -3.273438 2.800781 -2.632812 3.0625 -2.1875 C 3.320312 -1.75 3.691406 -1.53125 4.171875 -1.53125 Z M 4.171875 -1.53125 "/></g></g></g><g fill="#703900" fill-opacity="1"><g transform="translate(295.6809, 243.77148)"><g><path d="M 0.40625 -1.40625 L 1.296875 -1.671875 L 1.296875 -5.25 C 1.296875 -5.46875 1.28125 -5.609375 1.25 -5.671875 C 1.21875 -5.734375 1.140625 -5.804688 1.015625 -5.890625 L 0.375 -6.25 L 0.40625 -7.359375 C 0.582031 -7.390625 0.726562 -7.410156 0.84375 -7.421875 C 2.03125 -7.671875 2.910156 -7.804688 3.484375 -7.828125 C 3.578125 -7.566406 3.660156 -7.242188 3.734375 -6.859375 C 4.328125 -7.328125 4.828125 -7.648438 5.234375 -7.828125 L 6.078125 -7.828125 C 6.066406 -7.453125 6.039062 -7.046875 6 -6.609375 C 5.96875 -6.171875 5.921875 -5.816406 5.859375 -5.546875 C 5.503906 -5.566406 5.242188 -5.578125 5.078125 -5.578125 C 4.660156 -5.578125 4.234375 -5.550781 3.796875 -5.5 L 3.796875 -2.15625 C 3.796875 -1.945312 3.8125 -1.804688 3.84375 -1.734375 C 3.875 -1.671875 3.953125 -1.597656 4.078125 -1.515625 L 4.96875 -1.046875 L 4.90625 0 L 0.46875 0 Z M 0.40625 -1.40625 "/></g></g></g></svg>