<svg xmlns="http://www.w3.org/2000/svg" xmlns:xlink="http://www.w3.org/1999/xlink" width="500" zoomAndPan="magnify" viewBox="0 0 375 374.999991" height="500" preserveAspectRatio="xMidYMid meet" version="1.0"><defs><g/><clipPath id="10e7485731"><path d="M 86.191406 15.519531 L 288.691406 15.519531 L 288.691406 176.769531 L 86.191406 176.769531 Z M 86.191406 15.519531 " clip-rule="nonzero"/></clipPath><clipPath id="38e58d9a93"><path d="M 124.363281 38 L 250.363281 38 L 250.363281 176 L 124.363281 176 Z M 124.363281 38 " clip-rule="nonzero"/></clipPath><clipPath id="b8ed6a82ce"><path d="M 124.363281 37.988281 L 250.363281 37.988281 L 250.363281 176.738281 L 124.363281 176.738281 Z M 124.363281 37.988281 " clip-rule="nonzero"/></clipPath><clipPath id="66038784d4"><path d="M 124.363281 38 L 250.363281 38 L 250.363281 176 L 124.363281 176 Z M 124.363281 38 " clip-rule="nonzero"/></clipPath></defs><rect x="-37.5" width="450" fill="#ffffff" y="-37.499999" height="449.999989" fill-opacity="1"/><rect x="-37.5" width="450" fill="#fffdf6" y="-37.499999" height="449.999989" fill-opacity="1"/><g clip-path="url(#10e7485731)"><path fill="#f07d05" d="M 133.15625 176.191406 C 128.542969 170.015625 113.707031 176.179688 115.378906 170.242188 L 99.386719 170.175781 L 187.359375 26.617188 L 275.601562 169.738281 L 261.011719 169.738281 C 262.851562 176.738281 244.515625 168.871094 243.917969 176.191406 L 288.867188 176.191406 L 187.539062 15.675781 L 86.222656 176.191406 Z M 133.15625 176.191406 " fill-opacity="1" fill-rule="evenodd"/></g><g clip-path="url(#38e58d9a93)"><path fill="#000000" d="M 161.570312 158.761719 C 164.996094 158.925781 171.105469 159.03125 171.105469 159.03125 C 171.105469 159.03125 173.78125 162.453125 173.78125 162.453125 L 175.625 162.492188 C 175.625 162.492188 179.695312 168.371094 181.292969 170.195312 C 182.890625 172.015625 185.65625 175.992188 187.394531 175.992188 C 189.136719 175.992188 241.347656 172.003906 241.347656 172.003906 C 241.347656 172.003906 248.113281 171.757812 249.917969 157.164062 C 250.410156 154.828125 249.382812 129.941406 249.382812 129.941406 L 249.300781 120.429688 L 243.109375 117.640625 C 243.109375 117.640625 241.554688 117.148438 240.9375 118.417969 C 239.074219 118.515625 237.359375 118.21875 235.988281 117.800781 L 232.421875 100.910156 C 232.503906 100.902344 232.585938 100.890625 232.667969 100.878906 L 232.695312 100.878906 C 232.710938 100.878906 232.730469 100.882812 232.75 100.882812 C 232.765625 100.882812 232.78125 100.882812 232.792969 100.882812 C 233.109375 100.882812 233.40625 100.75 233.679688 100.503906 C 233.855469 100.378906 234.003906 100.21875 234.101562 100.015625 L 234.101562 100.011719 C 234.265625 99.769531 234.417969 99.484375 234.554688 99.15625 C 235.050781 98.203125 235.566406 96.90625 235.320312 94.351562 C 235.007812 91.054688 233.152344 89.839844 231.65625 89.816406 C 231.578125 89.800781 231.503906 89.796875 231.421875 89.796875 C 231.351562 89.796875 231.277344 89.800781 231.207031 89.8125 L 231.203125 89.8125 C 231.128906 89.824219 231.058594 89.84375 230.988281 89.863281 C 230.660156 89.964844 230.355469 90.179688 230.085938 90.488281 C 230.039062 90.535156 229.996094 90.589844 229.953125 90.644531 L 229.621094 90.613281 L 221.636719 89.839844 L 206.664062 67.5 C 206.664062 67.5 207.15625 65.449219 206.664062 64.054688 C 206.171875 62.660156 204.078125 60.285156 204.078125 60.285156 C 204.078125 60.285156 203.300781 60.078125 202.5625 59.339844 C 201.824219 58.601562 193.789062 46.878906 193.789062 46.878906 C 193.789062 46.878906 194.320312 44.128906 192.476562 43.0625 C 190.632812 41.996094 192.109375 41.21875 191.125 41.628906 C 190.140625 42.039062 188.417969 40.441406 188.050781 40.316406 C 187.679688 40.195312 185.875 39.25 185.875 39.25 L 185.179688 39.210938 L 184.484375 39.867188 L 183.457031 39.785156 L 180.957031 38.308594 L 180.257812 38.265625 L 179.6875 39.003906 L 178.210938 38.839844 L 175.625 40.972656 L 174.398438 45.933594 L 174.019531 54.984375 L 169.683594 62.824219 L 168.78125 67.828125 L 157.667969 83.652344 L 155.003906 90.910156 L 152.378906 91.03125 L 152.378906 93.984375 L 153.199219 93.984375 L 151.683594 109.398438 C 151.683594 109.398438 151.066406 109.890625 151.066406 110.382812 C 151.066406 110.875 150.535156 110.589844 150.535156 111.820312 C 150.535156 113.050781 149.714844 123.789062 149.714844 123.789062 L 140.570312 123.472656 L 140.132812 115.738281 C 140.015625 115.621094 139.835938 115.5625 139.636719 115.527344 C 139.484375 115.503906 139.132812 115.527344 139.082031 115.5625 L 138.789062 123.457031 L 137.480469 123.476562 L 136.148438 125.257812 L 133.304688 125.296875 L 131.929688 126.097656 L 130.925781 131.054688 C 130.542969 132.945312 130.683594 135.796875 130.640625 137.648438 C 130.578125 140.3125 130.539062 142.15625 130.945312 142.503906 C 131.136719 143.039062 131.808594 143.164062 131.808594 143.164062 C 131.203125 143.15625 130.570312 143.144531 129.902344 143.136719 L 125.746094 145.535156 C 125.746094 145.535156 124.371094 147.378906 124.78125 152.191406 C 125.191406 157.003906 125.621094 158.253906 126.378906 158.847656 C 127.136719 159.441406 132.863281 161.878906 132.863281 161.878906 L 144.960938 161.386719 C 144.960938 161.386719 146.84375 158.925781 146.886719 152.367188 C 156.191406 151.875 158.863281 152.046875 158.863281 152.046875 C 158.863281 152.046875 156.917969 157.023438 161.570312 158.761719 Z M 200.269531 106.03125 L 200.121094 106.023438 L 200.242188 105.988281 L 182.144531 78.160156 L 180.792969 78.9375 L 169.394531 93.125 L 169.804688 93.328125 L 170.09375 94.355469 L 169.765625 96.8125 L 167.34375 96.609375 L 165.582031 110.425781 C 165.582031 110.425781 165.664062 110.382812 165.867188 111.164062 C 166.074219 111.941406 166.320312 111.941406 166.320312 111.941406 L 178.824219 112.476562 C 178.824219 112.476562 180.914062 112.886719 181.121094 114.6875 C 181.324219 116.492188 181.449219 119.199219 181.449219 119.199219 L 181.550781 120.46875 L 182.144531 117.765625 L 183.007812 115.097656 L 183.457031 114.484375 L 184.890625 114.523438 L 186.574219 115.589844 L 196.207031 116.125 L 198.175781 115.835938 L 200.675781 114.8125 C 198.125 112.246094 199.203125 107.757812 200.269531 106.03125 Z M 164.96875 100.503906 L 163.941406 110.136719 C 163.941406 110.136719 163.738281 110.21875 163.285156 111.203125 C 162.835938 112.1875 162.753906 111.285156 162.671875 112.804688 C 162.589844 114.320312 161.359375 115.632812 161.359375 115.632812 L 161.769531 112.3125 L 163.449219 105.914062 Z M 164.96875 100.503906 " fill-opacity="1" fill-rule="evenodd"/></g><g clip-path="url(#b8ed6a82ce)"><path stroke-linecap="butt" transform="matrix(0.046686, 0, 0, 0.046686, 117.349302, 37.100055)" fill="none" stroke-linejoin="round" d="M 947.201016 2605.95702 C 1020.580242 2609.47119 1151.441256 2611.7303 1151.441256 2611.7303 C 1151.441256 2611.7303 1208.755702 2685.025855 1208.755702 2685.025855 L 1248.248284 2685.862562 C 1248.248284 2685.862562 1335.43318 2811.787003 1369.654506 2850.861231 C 1403.875833 2889.851789 1463.114706 2975.028587 1500.348178 2975.028587 C 1537.665322 2975.028587 2656.00823 2889.600777 2656.00823 2889.600777 C 2656.00823 2889.600777 2800.925926 2884.329521 2839.581801 2571.735693 C 2850.124312 2521.7006 2828.118911 1988.634412 2828.118911 1988.634412 L 2826.361826 1784.896197 L 2693.743727 1725.155299 C 2693.743727 1725.155299 2660.442779 1714.612788 2647.222804 1741.805773 C 2607.311869 1743.897541 2570.58042 1737.538566 2541.211996 1728.585799 L 2464.820624 1366.793584 C 2466.577709 1366.626243 2468.334795 1366.375231 2470.09188 1366.124219 L 2470.677575 1366.124219 C 2471.012258 1366.124219 2471.430611 1366.207889 2471.848965 1366.207889 C 2472.183648 1366.207889 2472.518331 1366.207889 2472.769343 1366.207889 C 2479.546672 1366.207889 2485.905647 1363.363085 2491.762597 1358.091829 C 2495.52778 1355.414366 2498.707268 1351.983866 2500.799036 1347.632988 L 2500.799036 1347.549318 C 2504.313206 1342.361733 2507.576364 1336.25377 2510.50484 1329.225429 C 2521.131022 1308.809772 2532.175558 1281.031091 2526.904302 1226.310437 C 2520.210644 1155.692345 2480.46705 1129.67075 2448.421162 1129.168726 C 2446.747748 1128.834043 2445.158004 1128.750372 2443.400919 1128.750372 C 2441.894845 1128.750372 2440.305102 1128.834043 2438.799029 1129.085055 L 2438.715358 1129.085055 C 2437.125614 1129.336067 2435.619541 1129.754421 2434.113468 1130.172774 C 2427.085127 1132.348213 2420.558811 1136.950103 2414.785531 1143.56009 C 2413.781482 1144.564139 2412.861104 1145.735529 2411.940726 1146.906919 L 2404.828714 1146.237554 L 2233.805753 1129.67075 L 1913.095864 651.157875 C 1913.095864 651.157875 1923.638376 607.230744 1913.095864 577.360295 C 1902.553353 547.489846 1857.705844 496.618046 1857.705844 496.618046 C 1857.705844 496.618046 1841.05537 492.183497 1825.241603 476.36973 C 1809.427836 460.555963 1637.317155 209.460118 1637.317155 209.460118 C 1637.317155 209.460118 1648.696374 150.555928 1609.203792 127.71382 C 1569.711209 104.871712 1601.338743 88.221238 1580.253721 97.006664 C 1559.168698 105.79209 1522.269908 71.570763 1514.40486 68.8933 C 1506.456141 66.299508 1467.800267 46.051192 1467.800267 46.051192 L 1452.906877 45.214485 L 1438.013488 59.271167 L 1416.008088 57.514082 L 1362.458824 25.886548 L 1347.481764 24.96617 L 1335.265838 40.779937 L 1303.638304 37.265766 L 1248.248284 82.949982 L 1221.975677 189.211802 L 1213.859617 383.076872 L 1120.985112 551.004017 L 1101.657174 658.186215 L 863.613962 997.136322 L 806.550528 1152.596529 L 750.323801 1155.190321 L 750.323801 1218.445389 L 767.894653 1218.445389 L 735.430412 1548.610069 C 735.430412 1548.610069 722.210437 1559.152581 722.210437 1569.695092 C 722.210437 1580.237603 710.831219 1574.129641 710.831219 1600.485919 C 710.831219 1626.842197 693.260366 1856.85302 693.260366 1856.85302 L 497.387199 1850.075691 L 488.016078 1684.407656 C 485.505957 1681.897534 481.657103 1680.642473 477.389896 1679.889437 C 474.126738 1679.387412 466.596373 1679.889437 465.508653 1680.642473 L 459.233349 1849.741008 L 431.203656 1850.159362 L 402.671939 1888.313212 L 341.759651 1889.14992 L 312.307556 1906.302418 L 290.80418 2012.480568 C 282.604449 2052.977199 285.616595 2114.056828 284.696217 2153.716752 C 283.357485 2210.780186 282.520778 2250.272768 291.222533 2257.719463 C 295.322399 2269.182352 309.713764 2271.859815 309.713764 2271.859815 C 296.744801 2271.692474 283.190144 2271.441462 268.88245 2271.27412 L 179.856799 2322.647945 C 179.856799 2322.647945 150.404703 2362.140527 159.19013 2465.22286 C 167.975556 2568.305193 177.179335 2595.079825 193.411456 2607.797776 C 209.643577 2620.515726 332.304859 2672.726258 332.304859 2672.726258 L 591.433094 2662.183747 C 591.433094 2662.183747 631.762384 2609.47119 632.682762 2468.988043 C 831.986428 2458.445532 889.217204 2462.127044 889.217204 2462.127044 C 889.217204 2462.127044 847.549183 2568.723547 947.201016 2605.95702 Z M 1776.126888 1476.485905 L 1772.9474 1476.318563 L 1775.541193 1475.565527 L 1387.894724 879.495283 L 1358.944653 896.145757 L 1114.793478 1200.03783 L 1123.578904 1204.388707 L 1129.770538 1226.394108 L 1122.742197 1279.022994 L 1070.866348 1274.672116 L 1033.130851 1570.61547 C 1033.130851 1570.61547 1034.887936 1569.695092 1039.238814 1586.429237 C 1043.673362 1603.079711 1048.944618 1603.079711 1048.944618 1603.079711 L 1316.774608 1614.542601 C 1316.774608 1614.542601 1361.538446 1623.328027 1365.972994 1661.900231 C 1370.323872 1700.556106 1373.001335 1758.539918 1373.001335 1758.539918 L 1375.176774 1785.732904 L 1387.894724 1727.832762 L 1406.385954 1670.685657 L 1416.008088 1657.549353 L 1446.715244 1658.386061 L 1482.777326 1681.228168 L 1689.109334 1692.691058 L 1731.279379 1686.499424 L 1784.828643 1664.577694 C 1730.19166 1609.606028 1753.28478 1513.468365 1776.126888 1476.485905 Z M 1019.994547 1358.091829 L 997.989146 1564.423836 C 997.989146 1564.423836 993.638269 1566.180922 983.932465 1587.265944 C 974.310331 1608.350967 972.553246 1589.02303 970.796161 1621.570942 C 969.039076 1654.035183 942.682797 1682.148546 942.682797 1682.148546 L 951.468223 1611.02843 L 987.446635 1473.975783 Z M 1019.994547 1358.091829 " stroke="#3d3c3b" stroke-width="11.811" stroke-opacity="1" stroke-miterlimit="4"/></g><g clip-path="url(#66038784d4)"><path fill="#000000" d="M 161.570312 158.761719 C 164.996094 158.925781 171.105469 159.03125 171.105469 159.03125 C 171.105469 159.03125 173.78125 162.453125 173.78125 162.453125 L 175.628906 162.492188 C 175.628906 162.492188 179.695312 168.371094 181.292969 170.195312 C 182.890625 172.015625 185.65625 175.992188 187.394531 175.992188 C 189.136719 175.992188 241.347656 172.003906 241.347656 172.003906 C 241.347656 172.003906 248.113281 171.757812 249.917969 157.164062 C 250.410156 154.828125 249.382812 129.941406 249.382812 129.941406 L 249.300781 120.429688 L 243.113281 117.640625 C 243.113281 117.640625 241.554688 117.148438 240.9375 118.421875 C 236.902344 118.625 233.558594 116.984375 232.902344 116.289062 C 232.246094 115.589844 231.589844 100.914062 231.589844 100.914062 C 231.589844 100.914062 233.566406 101.125 234.101562 100.015625 C 234.632812 98.910156 235.644531 97.742188 235.320312 94.351562 C 234.996094 90.960938 233.050781 89.773438 231.535156 89.816406 C 230.019531 89.855469 229.539062 91.484375 229.539062 91.484375 L 226.875 91.238281 C 226.875 91.238281 225.933594 90.539062 224.621094 90.539062 C 223.308594 90.539062 221.996094 90.375 221.996094 90.375 L 206.664062 67.5 C 206.664062 67.5 207.15625 65.449219 206.664062 64.054688 C 206.171875 62.660156 204.082031 60.285156 204.082031 60.285156 C 204.082031 60.285156 203.300781 60.078125 202.5625 59.339844 C 201.824219 58.601562 193.789062 46.878906 193.789062 46.878906 C 193.789062 46.878906 194.324219 44.128906 192.476562 43.0625 C 190.632812 42 192.109375 41.21875 191.125 41.628906 C 190.140625 42.039062 188.417969 40.441406 188.050781 40.316406 C 187.679688 40.195312 185.875 39.25 185.875 39.25 L 185.179688 39.210938 L 184.484375 39.867188 L 183.457031 39.785156 L 180.957031 38.308594 L 180.261719 38.265625 L 179.6875 39.003906 L 178.210938 38.839844 L 175.628906 40.972656 L 174.398438 45.933594 L 174.019531 54.984375 L 169.683594 62.824219 L 168.78125 67.828125 L 157.667969 83.652344 L 155.003906 90.910156 L 152.382812 91.03125 L 152.382812 93.984375 L 153.199219 93.984375 L 151.683594 109.398438 C 151.683594 109.398438 151.070312 109.890625 151.070312 110.382812 C 151.070312 110.875 150.535156 110.589844 150.535156 111.820312 C 150.535156 113.050781 149.714844 123.789062 149.714844 123.789062 L 140.574219 123.472656 L 140.132812 115.738281 C 140.015625 115.621094 139.835938 115.5625 139.636719 115.527344 C 139.484375 115.503906 139.132812 115.527344 139.082031 115.5625 L 138.789062 123.457031 L 137.480469 123.476562 L 136.148438 125.257812 L 133.304688 125.296875 L 131.929688 126.097656 L 130.925781 131.054688 C 130.542969 132.945312 130.683594 135.796875 130.640625 137.648438 C 130.578125 140.3125 130.539062 142.15625 130.949219 142.503906 C 131.136719 143.039062 131.808594 143.164062 131.808594 143.164062 C 131.203125 143.15625 130.570312 143.144531 129.902344 143.136719 L 125.746094 145.535156 C 125.746094 145.535156 124.375 147.378906 124.78125 152.191406 C 125.191406 157.003906 125.621094 158.253906 126.378906 158.847656 C 127.136719 159.441406 132.867188 161.878906 132.867188 161.878906 L 144.960938 161.386719 C 144.960938 161.386719 146.847656 158.925781 146.886719 152.367188 C 156.195312 151.875 158.867188 152.046875 158.867188 152.046875 C 158.867188 152.046875 156.917969 157.023438 161.570312 158.761719 Z M 164.96875 100.503906 L 163.941406 110.136719 C 163.941406 110.136719 163.738281 110.21875 163.285156 111.203125 C 162.835938 112.1875 162.753906 111.285156 162.671875 112.804688 C 162.589844 114.320312 161.359375 115.632812 161.359375 115.632812 L 161.769531 112.3125 L 163.449219 105.914062 Z M 182.144531 78.160156 L 180.792969 78.9375 L 169.394531 93.125 L 169.804688 93.328125 L 170.09375 94.355469 L 169.765625 96.8125 L 167.34375 96.609375 L 165.582031 110.425781 C 165.582031 110.425781 165.664062 110.382812 165.871094 111.164062 C 166.074219 111.941406 166.320312 111.941406 166.320312 111.941406 L 178.824219 112.476562 C 178.824219 112.476562 180.914062 112.886719 181.121094 114.6875 C 181.324219 116.492188 181.449219 119.199219 181.449219 119.199219 L 181.550781 120.46875 L 182.144531 117.765625 L 183.007812 115.097656 L 183.457031 114.484375 L 184.894531 114.523438 L 186.574219 115.589844 L 196.207031 116.125 L 198.175781 115.835938 L 200.675781 114.8125 C 198.125 112.246094 199.203125 107.757812 200.269531 106.03125 Z M 182.144531 78.160156 " fill-opacity="1" fill-rule="evenodd"/></g><path fill="#f07d05" d="M 151.714844 134.351562 C 151.554688 134.335938 158.597656 134.554688 158.597656 134.554688 L 158.742188 139.878906 L 158.332031 139.902344 L 157.738281 135.519531 Z M 214.550781 121.054688 C 215.292969 121.816406 215.832031 123.128906 215.929688 125.304688 L 216.421875 90.210938 L 229.539062 91.484375 L 229.617188 91.84375 C 229.648438 91.8125 229.683594 91.785156 229.714844 91.753906 C 230.074219 90.929688 230.554688 90.363281 231.09375 90.199219 C 231.203125 90.164062 231.3125 90.148438 231.421875 90.148438 C 232.742188 90.148438 233.808594 92.53125 233.808594 95.46875 C 233.808594 98.347656 232.785156 100.691406 231.503906 100.785156 L 237.90625 131.128906 L 215.847656 131.128906 L 215.910156 126.71875 C 215.671875 129.207031 214.304688 132.113281 213.652344 132.113281 C 212.941406 132.113281 211.769531 132.175781 211.886719 132.132812 C 211.945312 132.117188 212 132.089844 212.054688 132.054688 C 211.894531 132.136719 211.738281 132.179688 211.582031 132.179688 C 210.292969 132.179688 209.246094 129.75 209.246094 126.757812 L 209.113281 119.414062 L 208.539062 118.183594 L 204.4375 116.585938 L 201.761719 114.570312 C 200.765625 113.988281 200.046875 112.28125 200.046875 110.261719 C 200.046875 107.925781 201.285156 106 202.304688 105.769531 C 202.28125 105.765625 202.265625 105.765625 202.265625 105.765625 C 203.300781 105.464844 204.738281 105.253906 205.113281 105.410156 C 205.492188 105.5625 205.9375 105.605469 206.386719 106.558594 L 206.390625 106.5625 L 206.390625 106.566406 C 206.496094 106.785156 208.945312 111.960938 210.03125 114.246094 C 211.136719 116.582031 214.550781 121.054688 214.550781 121.054688 Z M 211.9375 120.113281 C 210.839844 118.601562 209.230469 116.28125 208.53125 114.8125 C 207.449219 112.523438 204.996094 107.351562 204.894531 107.132812 L 204.894531 107.128906 L 204.890625 107.128906 L 204.890625 107.125 L 204.890625 107.128906 L 204.894531 107.128906 L 204.894531 107.132812 M 204.890625 107.125 L 204.890625 107.128906 C 204.996094 107.347656 206.828125 111.773438 207.921875 114.085938 C 209.007812 116.378906 211.894531 120.054688 211.9375 120.113281 M 202.015625 93.671875 C 202.660156 93.53125 203.425781 93.339844 204.335938 93.078125 C 207.363281 92.214844 209.300781 90.898438 210.445312 89.867188 C 210.804688 89.042969 211.285156 88.476562 211.824219 88.3125 C 211.933594 88.277344 212.042969 88.261719 212.152344 88.261719 C 213.472656 88.261719 214.539062 90.644531 214.539062 93.582031 C 214.539062 96.519531 213.472656 98.902344 212.152344 98.902344 C 211.925781 98.902344 211.703125 98.832031 211.492188 98.699219 C 210.308594 98.359375 207.710938 97.765625 205.316406 98.21875 C 204.953125 98.289062 204.585938 98.378906 204.21875 98.480469 L 205.84375 102.019531 L 204.367188 103.660156 L 200.757812 104.726562 L 198.265625 100.859375 C 197.796875 100.671875 197.394531 100.027344 197.160156 99.140625 L 175.695312 65.839844 L 175.273438 45.851562 L 176.078125 43.0625 L 178.128906 41.585938 Z M 193.152344 46.945312 L 192.476562 46.957031 L 202.152344 60.40625 C 202.15625 60.414062 203.730469 60.75 203.730469 60.75 C 204.769531 61.785156 206 64.203125 206.210938 64.34375 L 206.375 65.734375 C 206.375 65.734375 205.792969 64.445312 203.988281 64.894531 C 202.945312 65.15625 202.132812 65.414062 201.710938 66.726562 C 201.40625 67.6875 202.085938 69.757812 201.824219 69.34375 C 201.210938 68.359375 188.542969 49.871094 188.542969 49.871094 C 188.542969 49.871094 190.09375 46.40625 193.152344 46.945312 Z M 185.386719 39.867188 L 184.933594 40.316406 L 188.582031 42.53125 L 187.1875 47.449219 L 188.335938 49.253906 C 188.335938 49.253906 189.9375 46.875 191.042969 46.710938 C 192.148438 46.546875 193.378906 46.546875 193.378906 46.546875 C 193.378906 46.546875 193.421875 44.5 192.519531 43.679688 C 191.617188 42.859375 191 41.957031 190.550781 42.40625 C 190.101562 42.859375 188.992188 41.667969 188.992188 41.667969 Z M 180.546875 39.457031 L 185.46875 48.597656 L 187.105469 44.335938 C 187.105469 44.335938 187.355469 43.378906 185.589844 41.914062 C 183.601562 40.269531 181.328125 39.046875 181.328125 39.046875 Z M 160.195312 135.742188 L 160.832031 136.316406 L 161.34375 136.542969 L 162.140625 136.441406 L 162.570312 136.171875 L 165.5 114.953125 L 165.847656 114.484375 L 166.035156 112.292969 L 165.644531 111.1875 L 165.601562 110.878906 L 165.03125 110.898438 L 164.4375 110.859375 L 163.945312 110.714844 L 163.371094 111.78125 L 162.980469 112.3125 L 162.839844 114.421875 L 163.042969 114.6875 L 163.621094 114.828125 L 164.039062 114.871094 L 164.695312 114.890625 L 164.304688 115.054688 L 163.609375 115.066406 L 162.980469 115.152344 Z M 163.902344 132.070312 L 163.984375 138.835938 C 163.984375 138.835938 164.105469 140.804688 164.925781 140.804688 C 165.746094 140.804688 166.402344 140.4375 166.402344 140.4375 L 175.175781 140.683594 L 177.472656 136.460938 L 169.847656 136.378906 C 169.847656 136.378906 167.796875 136.132812 167.671875 132.726562 C 167.550781 129.324219 166.9375 114.441406 166.9375 114.441406 C 166.9375 114.441406 166.566406 113.746094 168.207031 113.621094 C 169.847656 113.5 178.210938 114.074219 178.210938 114.074219 C 178.210938 114.074219 179.644531 114.195312 179.890625 115.632812 C 180.136719 117.066406 180.445312 125.140625 180.445312 125.140625 L 181.246094 120.9375 L 180.699219 114.851562 C 180.699219 114.851562 180.433594 113.910156 179.921875 113.621094 C 179.40625 113.335938 178.578125 112.847656 177.984375 112.847656 C 177.390625 112.847656 166.269531 112.457031 166.269531 112.457031 L 166.085938 114.6875 L 165.675781 115.207031 L 165.523438 116.617188 L 166.300781 131.871094 C 166.300781 131.871094 165.5 132.34375 165.214844 132.34375 C 164.925781 132.34375 163.902344 132.070312 163.902344 132.070312 Z M 146.984375 151.78125 L 146.964844 149.21875 L 146.800781 147.808594 L 146.433594 146.945312 L 167.386719 147.035156 L 167.507812 149.28125 L 167.261719 151.328125 Z M 172.9375 146.332031 L 170.292969 144.917969 L 169.925781 144.917969 L 168.347656 152.4375 C 168.347656 152.4375 168.226562 153.089844 168.859375 153.601562 C 169.496094 154.117188 174.164062 158.109375 174.164062 158.109375 L 188.03125 119.234375 C 188.03125 119.234375 188.871094 117.738281 187.765625 117.226562 C 186.660156 116.714844 184.363281 115.160156 184.363281 115.160156 L 183.503906 115.507812 L 181.167969 125.03125 L 179 134.410156 L 178.078125 137.402344 L 175.84375 142.234375 L 173.367188 146.515625 Z M 170.253906 156.746094 C 171.484375 158.472656 171.957031 158.847656 173.78125 161.46875 L 175.832031 160.851562 L 185.878906 173.644531 C 185.878906 173.644531 188.953125 176.925781 192.148438 170.40625 C 195.347656 163.886719 192.355469 144.167969 192.355469 144.167969 L 189.894531 118.828125 L 188.832031 118.1875 L 177.472656 152.695312 L 175.667969 157.285156 L 174.734375 159.921875 Z M 189.035156 116.371094 L 191.082031 118.089844 L 194.363281 156.21875 C 194.363281 156.21875 195.28125 170.007812 192.230469 172.949219 C 189.179688 175.886719 243.890625 169.667969 243.890625 169.667969 C 243.890625 169.667969 248.316406 164.914062 248.644531 157.777344 C 248.972656 150.644531 247.746094 122.027344 247.746094 122.027344 L 241.757812 118.910156 L 237.289062 119.15625 L 237.660156 121.207031 C 237.660156 121.207031 241.636719 123.707031 241.59375 125.347656 C 241.554688 126.988281 242.085938 126.988281 240.855469 130.023438 C 239.625 133.054688 238.765625 134.492188 238.683594 137.359375 C 238.601562 140.230469 239.082031 146.53125 239.324219 149.195312 C 239.5625 151.863281 237.507812 152.96875 236.59375 155.648438 C 236.105469 157.074219 235.855469 155.957031 235.855469 155.957031 C 235.855469 155.957031 235.773438 154.238281 236.632812 153.132812 C 237.496094 152.027344 238.210938 150.921875 238.335938 150.488281 C 238.457031 150.058594 238.464844 148.820312 238.242188 146.878906 C 238.015625 144.9375 237.847656 140.175781 237.78125 138.121094 C 237.714844 136.0625 238.683594 132.664062 238.804688 132.382812 C 238.980469 131.984375 239.96875 129.78125 239.914062 129.851562 C 238.578125 131.628906 237.855469 132.230469 237.761719 132.242188 C 237.761719 132.242188 236.632812 137.257812 236.65625 140.472656 C 236.675781 143.691406 237.15625 148.421875 237.15625 148.421875 C 237.15625 148.421875 237.597656 150.222656 236.796875 151.246094 C 236 152.273438 233.992188 156.0625 233.992188 156.0625 L 231.46875 132.933594 L 215.519531 132.769531 C 215.519531 132.769531 214.90625 137.085938 214.703125 142.171875 C 214.496094 147.253906 215.191406 148.839844 215.191406 148.839844 C 215.191406 148.839844 215.601562 150.972656 214.902344 151.996094 C 214.207031 153.023438 212.445312 156.246094 212.445312 156.246094 L 211.953125 156.328125 C 211.953125 156.328125 212.875 153.707031 213.859375 152.355469 C 214.839844 151.003906 214.699219 150.058594 214.699219 149.773438 C 214.699219 149.488281 214.023438 144.121094 214.125 142.726562 C 214.226562 141.335938 215.046875 132.382812 215.046875 132.382812 L 214.636719 132.21875 L 213.367188 132.570312 C 213.367188 132.570312 212.238281 139.246094 212.402344 141.335938 C 212.566406 143.429688 213.058594 147.9375 213.058594 147.9375 C 213.058594 147.9375 213.347656 150.398438 212.730469 151.792969 C 212.117188 153.1875 210.269531 156.589844 210.269531 156.589844 L 209.574219 132.195312 C 209.574219 132.195312 208.140625 131.292969 208.097656 126.210938 C 208.058594 121.125 208.878906 121.535156 208.878906 121.535156 C 208.878906 121.535156 209.125 117.96875 206.292969 117.597656 C 203.464844 117.230469 196.414062 117.269531 196.414062 117.269531 L 195.839844 116.492188 Z M 196.578125 167.535156 C 196.578125 167.535156 195.921875 171.226562 195.183594 172.210938 C 194.445312 173.195312 240.328125 169.359375 242.90625 168.4375 C 245.484375 167.515625 248.484375 157.367188 247.253906 150.890625 C 245.859375 160.402344 243.644531 164.996094 243.644531 164.996094 L 230.769531 165.648438 L 228.886719 138.507812 C 228.886719 138.507812 228.804688 165.648438 224.867188 166.058594 C 220.929688 166.46875 196.578125 167.535156 196.578125 167.535156 Z M 153.949219 93.203125 L 153.90625 95.25 L 157.511719 95.269531 L 157.574219 93.285156 L 156.753906 91.359375 L 152.71875 91.398438 L 152.824219 92.996094 L 153.722656 92.054688 L 155.894531 92.199219 L 156.632812 93.386719 Z M 152.351562 128.984375 L 152.71875 129.660156 L 157.453125 129.679688 L 158.78125 128.226562 L 158.640625 126.546875 L 158.613281 126.085938 C 158.613281 126.085938 161.011719 115.042969 162.714844 107.71875 C 162.710938 107.710938 161.933594 101.855469 160.664062 100.011719 C 159.390625 98.164062 158.40625 98.042969 158.40625 98.042969 L 165.273438 98.84375 L 165.746094 97.835938 L 166.8125 95.871094 L 168.410156 93.613281 L 170.257812 91.277344 L 179.378906 79.914062 L 175.421875 69.382812 L 171.609375 75.410156 L 167.058594 82.628906 L 158.734375 95.789062 L 157.832031 97.671875 L 157.546875 98.65625 L 156.851562 100.625 L 154.675781 111.121094 L 154.59375 111.820312 L 154.472656 114.238281 L 153.949219 114.714844 Z M 179.6875 40.4375 L 202.972656 92.589844 L 211.746094 85.949219 L 207.566406 78.40625 L 203.300781 71.269531 C 203.300781 71.269531 200.757812 70.859375 199.121094 67.582031 C 197.480469 64.300781 197.539062 66.917969 196.496094 65.203125 L 188.644531 52.308594 L 185.671875 51.140625 L 180.335938 40.355469 Z M 177.472656 48.722656 L 178.375 65.449219 L 179.769531 51.753906 L 193.625 77.75 L 178.128906 43.554688 L 177.144531 44.046875 Z M 155.476562 90.558594 L 157.097656 90.582031 L 158.367188 92.753906 L 158.304688 94.167969 L 174.863281 67.355469 L 174.746094 55.078125 L 170.234375 63.03125 L 169.4375 67.992188 L 158.148438 83.921875 L 157.757812 84.84375 Z M 155.292969 96.457031 L 153.9375 109.316406 L 155.949219 100.421875 L 156.753906 97.402344 L 157.484375 95.757812 L 156.644531 96.484375 Z M 151.714844 109.9375 C 151.714844 109.9375 152.332031 110.40625 153.4375 110.097656 C 154.542969 109.792969 153.5 110.753906 153.5 110.753906 L 154.175781 111.71875 L 154.050781 113.949219 L 153.539062 114.277344 L 152.730469 114.246094 L 153.507812 114.585938 L 151.355469 136.335938 C 151.355469 136.335938 150.835938 136.625 150.078125 136.5625 C 149.320312 136.5 148.808594 136.171875 148.808594 136.171875 L 149.839844 124.855469 L 150.78125 114.074219 L 150.964844 111.078125 L 151.300781 110.800781 L 151.425781 110.042969 Z M 132.785156 140.96875 C 132.785156 140.96875 131.800781 141.378906 131.839844 138.140625 C 131.882812 134.902344 132.292969 126.742188 132.292969 126.742188 L 133.726562 125.59375 L 145.65625 125.839844 L 145.863281 131.988281 C 145.863281 131.988281 147.132812 131.90625 147.132812 133.300781 C 147.132812 134.695312 147.132812 140.394531 147.132812 140.394531 C 147.132812 140.394531 147.296875 141.089844 146.3125 141.050781 C 145.328125 141.007812 132.785156 140.96875 132.785156 140.96875 Z M 131.972656 126.976562 L 131.601562 139 C 131.601562 139 131.601562 140.085938 131.929688 140.699219 C 132.257812 141.3125 131.007812 142.359375 131.007812 142.359375 C 130.792969 142.246094 130.703125 141.285156 130.785156 139.152344 C 130.835938 137.824219 130.765625 135.757812 130.816406 133.628906 C 130.847656 132.351562 131.050781 131.042969 131.050781 131.042969 Z M 132.339844 141.273438 L 131.480469 142.644531 L 131.953125 142.890625 L 142.765625 143.015625 L 144.363281 142.152344 L 148.234375 141.476562 Z M 127.242188 149.671875 L 125.992188 149.648438 L 125.644531 150.164062 L 125.621094 154.300781 L 125.867188 154.523438 L 126.769531 154.628906 L 126.933594 154.871094 L 134 156.714844 C 134.375 156.8125 134.777344 150.941406 134.144531 150.757812 C 132.117188 150.570312 127.609375 150.265625 127.609375 150.265625 Z M 127.242188 149.671875 " fill-opacity="1" fill-rule="evenodd"/><path fill="#000000" d="M 217.28125 91.175781 L 216.734375 130.25 L 236.824219 130.25 L 228.816406 92.292969 Z M 214.972656 131.117188 L 214.996094 129.316406 C 216.496094 126.652344 215.644531 123.871094 215.09375 122.585938 L 215.546875 90.203125 L 215.558594 89.25 L 216.503906 89.339844 L 229.621094 90.613281 L 230.265625 90.675781 L 230.398438 91.304688 L 238.761719 130.949219 L 238.304688 131.386719 L 237.90625 132.007812 L 214.960938 132.007812 L 214.972656 131.121094 Z M 214.972656 131.117188 " fill-opacity="1" fill-rule="nonzero"/><path fill="#000000" d="M 198.546875 93.378906 C 198.703125 93.378906 198.855469 93.414062 199 93.476562 C 199.101562 93.519531 199.203125 93.582031 199.296875 93.65625 C 199.617188 93.679688 200.089844 93.65625 200.800781 93.546875 C 201.613281 93.421875 202.71875 93.175781 204.238281 92.742188 C 205.722656 92.316406 206.941406 91.78125 207.925781 91.230469 C 208.875 90.695312 209.605469 90.144531 210.15625 89.65625 C 210.347656 89.238281 210.570312 88.878906 210.816406 88.601562 C 211.089844 88.292969 211.390625 88.078125 211.71875 87.976562 L 211.722656 87.976562 C 211.789062 87.957031 211.863281 87.9375 211.933594 87.929688 L 211.9375 87.925781 C 212.007812 87.914062 212.082031 87.910156 212.152344 87.910156 C 212.964844 87.910156 213.671875 88.585938 214.160156 89.675781 C 214.613281 90.683594 214.890625 92.066406 214.890625 93.582031 C 214.890625 95.101562 214.613281 96.480469 214.160156 97.488281 C 213.671875 98.582031 212.964844 99.257812 212.152344 99.257812 C 212.003906 99.257812 211.859375 99.234375 211.714844 99.1875 C 211.589844 99.148438 211.46875 99.09375 211.351562 99.023438 C 210.769531 98.859375 209.863281 98.636719 208.816406 98.511719 C 207.75 98.378906 206.539062 98.347656 205.382812 98.566406 C 204.457031 98.742188 203.507812 99.039062 202.621094 99.375 C 201.355469 99.855469 200.226562 100.40625 199.515625 100.78125 C 199.386719 100.925781 199.25 101.035156 199.101562 101.117188 C 198.925781 101.214844 198.742188 101.265625 198.546875 101.265625 C 197.953125 101.265625 197.4375 100.78125 197.089844 100.003906 C 196.78125 99.3125 196.589844 98.363281 196.589844 97.320312 C 196.589844 96.28125 196.78125 95.332031 197.089844 94.640625 C 197.4375 93.859375 197.953125 93.378906 198.546875 93.378906 Z M 198.71875 94.117188 C 198.660156 94.09375 198.605469 94.078125 198.546875 94.078125 L 198.546875 94.082031 C 198.253906 94.082031 197.964844 94.402344 197.730469 94.925781 C 197.457031 95.535156 197.289062 96.378906 197.289062 97.320312 C 197.289062 98.261719 197.457031 99.109375 197.730469 99.71875 C 197.964844 100.238281 198.253906 100.5625 198.546875 100.5625 C 198.621094 100.5625 198.695312 100.542969 198.765625 100.5 C 198.855469 100.453125 198.945312 100.375 199.03125 100.273438 L 199.078125 100.222656 L 199.132812 100.191406 C 199.859375 99.808594 201.039062 99.222656 202.375 98.71875 C 203.292969 98.371094 204.285156 98.058594 205.253906 97.875 C 206.492188 97.640625 207.773438 97.675781 208.898438 97.8125 C 210.019531 97.949219 210.984375 98.1875 211.589844 98.359375 L 211.636719 98.375 L 211.683594 98.402344 C 211.761719 98.453125 211.84375 98.492188 211.925781 98.519531 C 212 98.542969 212.074219 98.554688 212.152344 98.554688 C 212.660156 98.554688 213.148438 98.039062 213.519531 97.203125 C 213.933594 96.285156 214.1875 95.003906 214.1875 93.582031 C 214.1875 92.160156 213.933594 90.882812 213.519531 89.960938 C 213.148438 89.128906 212.660156 88.613281 212.152344 88.613281 C 212.117188 88.613281 212.078125 88.617188 212.042969 88.621094 L 212.039062 88.621094 C 212.003906 88.625 211.96875 88.632812 211.929688 88.644531 L 211.925781 88.648438 C 211.726562 88.710938 211.527344 88.851562 211.339844 89.0625 C 211.128906 89.304688 210.933594 89.625 210.765625 90.007812 L 210.734375 90.078125 L 210.679688 90.128906 C 210.09375 90.660156 209.300781 91.261719 208.269531 91.839844 C 207.242188 92.417969 205.972656 92.976562 204.429688 93.417969 C 202.894531 93.855469 201.753906 94.109375 200.910156 94.238281 C 200.042969 94.375 199.480469 94.382812 199.117188 94.34375 L 199.003906 94.332031 L 198.917969 94.253906 C 198.851562 94.191406 198.785156 94.148438 198.71875 94.117188 Z M 198.71875 94.117188 " fill-opacity="1" fill-rule="nonzero"/><path fill="#000000" d="M 200.25 93.523438 C 200.144531 93.492188 200.039062 93.472656 199.933594 93.472656 L 198.671875 93.386719 L 198.660156 93.386719 L 198.640625 93.382812 L 198.585938 93.382812 L 198.570312 93.378906 L 198.566406 93.378906 L 198.523438 94.078125 L 198.601562 94.085938 L 198.648438 94.09375 L 198.699219 94.109375 L 198.757812 94.136719 L 198.816406 94.171875 L 198.859375 94.203125 L 198.929688 94.261719 L 199.015625 94.335938 L 199.125 94.34375 L 199.265625 94.355469 L 199.28125 94.355469 L 199.390625 94.363281 L 199.667969 94.363281 L 199.777344 94.359375 L 199.792969 94.359375 C 199.894531 94.355469 199.992188 94.347656 200.078125 94.339844 C 200.171875 94.332031 200.28125 94.324219 200.402344 94.308594 L 201.382812 94.195312 L 200.550781 93.664062 C 200.453125 93.601562 200.351562 93.554688 200.25 93.523438 Z M 198.5 101.261719 L 199.800781 101.351562 L 199.835938 101.351562 L 199.859375 101.355469 L 199.90625 101.355469 L 199.921875 101.359375 C 200.113281 101.359375 200.300781 101.304688 200.476562 101.210938 C 200.621094 101.128906 200.761719 101.015625 200.890625 100.875 C 201.492188 100.558594 202.382812 100.117188 203.390625 99.703125 L 203.394531 99.703125 C 204.4375 99.277344 205.617188 98.875 206.753906 98.660156 C 207.082031 98.597656 207.417969 98.554688 207.757812 98.527344 C 208.101562 98.503906 208.4375 98.496094 208.761719 98.5 L 211.796875 98.554688 C 211.753906 98.605469 211.726562 98.707031 211.726562 98.902344 L 211.726562 99.207031 L 212.03125 99.246094 L 212.042969 99.25 L 212.066406 99.253906 L 213.402344 99.34375 L 213.453125 99.347656 L 213.527344 99.347656 C 214.035156 99.347656 214.507812 99.082031 214.90625 98.609375 L 215.914062 98.625 L 214.980469 98.519531 C 215.1875 98.257812 215.371094 97.941406 215.53125 97.582031 C 215.984375 96.574219 216.261719 95.191406 216.261719 93.675781 C 216.261719 92.175781 215.976562 90.824219 215.523438 89.824219 C 215.027344 88.726562 214.308594 88.027344 213.507812 87.964844 L 213.421875 87.957031 C 212.980469 87.921875 212.722656 87.902344 212.195312 87.910156 L 212.101562 87.910156 L 212.121094 88.613281 L 212.179688 88.613281 C 212.414062 88.617188 212.578125 88.730469 212.675781 88.796875 L 212.675781 88.800781 L 212.707031 88.820312 C 213.125 89.136719 213.492188 89.761719 213.757812 90.585938 C 214.027344 91.421875 214.1875 92.457031 214.1875 93.582031 C 214.1875 94.714844 214.027344 95.757812 213.75 96.601562 C 213.507812 97.351562 213.179688 97.933594 212.804688 98.265625 L 208.808594 97.800781 C 208.222656 97.734375 207.589844 97.695312 206.941406 97.707031 C 206.382812 97.71875 205.8125 97.769531 205.253906 97.875 C 204.296875 98.058594 203.316406 98.363281 202.410156 98.703125 C 201.113281 99.191406 199.957031 99.761719 199.214844 100.148438 L 199.195312 100.15625 L 199.191406 100.160156 L 199.132812 100.191406 L 199.078125 100.21875 L 199.039062 100.265625 L 198.972656 100.339844 L 198.960938 100.347656 L 198.917969 100.390625 L 198.78125 100.492188 L 198.710938 100.527344 L 198.648438 100.546875 L 198.554688 100.5625 L 198.519531 100.5625 Z M 199.84375 100.648438 L 199.78125 100.644531 C 199.988281 100.539062 200.214844 100.425781 200.464844 100.304688 L 200.445312 100.316406 L 200.402344 100.367188 C 200.316406 100.46875 200.226562 100.546875 200.136719 100.59375 C 200.066406 100.632812 199.992188 100.65625 199.921875 100.65625 L 199.898438 100.65625 L 199.859375 100.652344 Z M 213.476562 98.582031 L 213.820312 98.589844 C 213.722656 98.628906 213.625 98.648438 213.527344 98.648438 L 213.503906 98.648438 L 213.449219 98.644531 L 213.421875 98.640625 Z M 214.113281 98.417969 L 213.65625 98.363281 C 213.957031 97.960938 214.214844 97.433594 214.417969 96.820312 C 214.714844 95.90625 214.890625 94.789062 214.890625 93.582031 C 214.890625 92.390625 214.71875 91.277344 214.425781 90.371094 C 214.203125 89.679688 213.90625 89.101562 213.558594 88.679688 C 214.050781 88.777344 214.519531 89.304688 214.886719 90.113281 C 215.300781 91.027344 215.558594 92.277344 215.558594 93.675781 C 215.558594 95.097656 215.304688 96.378906 214.894531 97.296875 C 214.667969 97.800781 214.402344 98.1875 214.113281 98.417969 Z M 214.113281 98.417969 " fill-opacity="1" fill-rule="nonzero"/><path fill="#f07d05" d="M 199.921875 93.824219 C 200.074219 93.824219 200.222656 93.871094 200.363281 93.960938 C 200.140625 93.984375 199.945312 94 199.777344 94.007812 L 199.765625 94.007812 C 199.691406 94.011719 199.621094 94.011719 199.550781 94.011719 L 199.527344 94.011719 C 199.484375 94.011719 199.445312 94.011719 199.40625 94.011719 L 199.296875 94.007812 L 199.15625 93.996094 L 199.082031 93.933594 L 199.007812 93.878906 L 198.921875 93.828125 L 198.824219 93.78125 L 198.734375 93.753906 L 198.625 93.734375 L 198.546875 93.730469 Z M 198.523438 100.914062 L 199.820312 101 C 199.855469 101.003906 199.886719 101.007812 199.921875 101.007812 C 200.191406 101.007812 200.445312 100.855469 200.667969 100.59375 C 201.878906 99.957031 204.359375 98.757812 206.6875 98.3125 C 207.378906 98.183594 208.085938 98.140625 208.769531 98.152344 C 207.695312 98.027344 206.480469 98 205.316406 98.21875 C 203.035156 98.652344 200.609375 99.8125 199.375 100.460938 L 199.355469 100.46875 L 199.296875 100.5 L 199.21875 100.585938 L 199.132812 100.667969 L 198.964844 100.789062 L 198.839844 100.855469 L 198.726562 100.890625 L 198.589844 100.910156 Z M 212.089844 98.902344 L 213.425781 98.992188 C 213.441406 98.996094 213.460938 98.996094 213.480469 98.996094 C 213.496094 98.996094 213.511719 98.996094 213.527344 98.996094 C 214.84375 98.996094 215.910156 96.613281 215.910156 93.675781 C 215.910156 90.738281 214.792969 88.417969 213.480469 88.3125 C 212.964844 88.273438 212.710938 88.25 212.113281 88.261719 C 212.523438 88.242188 212.773438 88.441406 212.910156 88.535156 C 213.855469 89.238281 214.539062 91.234375 214.539062 93.582031 C 214.539062 95.949219 213.84375 97.957031 212.886719 98.648438 L 212.777344 98.71875 C 212.765625 98.726562 212.753906 98.734375 212.742188 98.738281 L 212.675781 98.777344 L 212.507812 98.847656 L 212.410156 98.875 L 212.285156 98.894531 C 212.21875 98.898438 212.023438 98.898438 212.089844 98.902344 Z M 212.089844 98.902344 " fill-opacity="1" fill-rule="evenodd"/><path fill="#000000" d="M 198.535156 95.117188 C 198.871094 95.117188 199.148438 96.070312 199.148438 97.25 C 199.148438 98.429688 198.871094 99.386719 198.535156 99.386719 C 198.195312 99.386719 197.917969 98.429688 197.917969 97.25 C 197.917969 96.070312 198.195312 95.117188 198.535156 95.117188 Z M 198.535156 95.117188 " fill-opacity="1" fill-rule="evenodd"/><path fill="#000000" d="M 212.265625 90.871094 C 212.78125 90.871094 213.199219 92.042969 213.199219 93.488281 C 213.199219 94.933594 212.78125 96.105469 212.265625 96.105469 C 211.746094 96.105469 211.328125 94.933594 211.328125 93.488281 C 211.328125 92.042969 211.746094 90.871094 212.265625 90.871094 Z M 212.265625 90.871094 " fill-opacity="1" fill-rule="evenodd"/><path fill="#000000" d="M 228.632812 92.1875 C 228.796875 92.0625 228.949219 91.945312 229.085938 91.832031 C 229.199219 91.738281 229.3125 91.640625 229.425781 91.542969 C 229.617188 91.121094 229.839844 90.765625 230.085938 90.488281 C 230.355469 90.179688 230.660156 89.964844 230.988281 89.863281 L 230.992188 89.863281 C 231.058594 89.84375 231.132812 89.824219 231.203125 89.8125 L 231.207031 89.8125 C 231.277344 89.800781 231.351562 89.796875 231.421875 89.796875 C 232.234375 89.796875 232.941406 90.472656 233.429688 91.5625 C 233.882812 92.570312 234.160156 93.953125 234.160156 95.46875 C 234.160156 96.984375 233.882812 98.367188 233.429688 99.375 C 232.941406 100.464844 232.234375 101.140625 231.421875 101.140625 C 231.394531 101.140625 231.359375 101.140625 231.320312 101.136719 C 231.289062 101.136719 231.253906 101.132812 231.21875 101.125 L 230.996094 101.09375 L 230.933594 100.878906 C 230.519531 99.492188 229.980469 97.675781 229.453125 95.867188 C 229.082031 94.601562 228.746094 93.421875 228.503906 92.558594 L 228.441406 92.328125 Z M 229.53125 92.375 C 229.4375 92.449219 229.34375 92.527344 229.242188 92.601562 C 229.480469 93.453125 229.792969 94.53125 230.125 95.671875 C 230.566406 97.179688 231.089844 98.953125 231.53125 100.429688 C 232 100.363281 232.441406 99.863281 232.789062 99.089844 C 233.203125 98.167969 233.457031 96.890625 233.457031 95.46875 C 233.457031 94.046875 233.203125 92.769531 232.789062 91.847656 C 232.417969 91.015625 231.929688 90.5 231.421875 90.5 C 231.386719 90.5 231.347656 90.5 231.3125 90.507812 L 231.308594 90.503906 C 231.273438 90.511719 231.238281 90.519531 231.199219 90.53125 L 231.195312 90.53125 C 230.996094 90.59375 230.796875 90.738281 230.609375 90.949219 C 230.398438 91.1875 230.203125 91.507812 230.035156 91.894531 L 230.003906 91.964844 L 229.949219 92.015625 C 229.828125 92.125 229.691406 92.242188 229.53125 92.375 Z M 229.53125 92.375 " fill-opacity="1" fill-rule="nonzero"/><path fill="#000000" d="M 231.359375 100.789062 L 232.695312 100.878906 C 232.710938 100.878906 232.730469 100.882812 232.75 100.882812 C 232.765625 100.882812 232.78125 100.882812 232.792969 100.882812 C 234.113281 100.882812 235.179688 98.5 235.179688 95.5625 C 235.179688 92.625 234.0625 90.304688 232.75 90.199219 C 232.234375 90.160156 231.980469 90.136719 231.382812 90.148438 C 231.792969 90.128906 232.042969 90.328125 232.179688 90.421875 C 233.125 91.125 233.808594 93.121094 233.808594 95.46875 C 233.808594 97.835938 233.113281 99.84375 232.15625 100.535156 L 232.046875 100.605469 C 232.035156 100.613281 232.023438 100.621094 232.011719 100.625 L 231.945312 100.664062 L 231.777344 100.730469 L 231.679688 100.757812 L 231.554688 100.78125 C 231.488281 100.785156 231.292969 100.785156 231.359375 100.789062 Z M 231.359375 100.789062 " fill-opacity="1" fill-rule="evenodd"/><path fill="#000000" d="M 220.273438 94.886719 L 220.027344 127.03125 L 232.902344 127.03125 L 226.835938 95.378906 Z M 226.578125 96.046875 L 226.039062 96.601562 L 231.171875 126.328125 L 232.054688 126.316406 Z M 220.792969 95.433594 L 226.203125 95.75 L 225.609375 96.363281 L 220.765625 96.078125 Z M 220.792969 95.433594 " fill-opacity="1" fill-rule="evenodd"/><path fill="#000000" d="M 213.320312 121.390625 C 213.761719 121.847656 214.132812 122.480469 214.390625 123.335938 C 214.648438 124.179688 214.796875 125.246094 214.796875 126.582031 C 214.796875 127.929688 214.394531 129.375 213.824219 130.492188 C 213.207031 131.691406 212.375 132.53125 211.582031 132.53125 C 210.097656 132.53125 208.894531 129.945312 208.894531 126.757812 L 208.761719 119.496094 L 208.28125 118.460938 L 204.308594 116.914062 L 204.269531 116.898438 L 204.226562 116.867188 L 201.570312 114.867188 C 201.003906 114.53125 200.523438 113.890625 200.191406 113.054688 C 199.878906 112.269531 199.695312 111.300781 199.695312 110.261719 C 199.695312 107.574219 201.304688 105.394531 202.507812 105.394531 C 203.109375 105.394531 203.664062 105.523438 204.136719 105.796875 C 204.589844 106.058594 204.957031 106.445312 205.207031 106.972656 L 205.207031 106.976562 L 205.210938 106.976562 C 205.230469 107.023438 205.355469 107.316406 205.542969 107.761719 C 206.136719 109.167969 207.398438 112.164062 208.238281 113.9375 C 209.320312 116.214844 212.207031 119.890625 212.214844 119.898438 L 212.222656 119.90625 Z M 213.722656 123.539062 C 213.496094 122.789062 213.175781 122.246094 212.800781 121.863281 L 212.785156 121.847656 L 212.773438 121.828125 L 211.660156 120.324219 C 211.523438 120.152344 208.691406 116.527344 207.605469 114.234375 C 206.769531 112.472656 205.496094 109.453125 204.898438 108.035156 C 204.71875 107.609375 204.601562 107.335938 204.574219 107.277344 L 204.574219 107.273438 C 204.386719 106.878906 204.117188 106.59375 203.785156 106.402344 C 203.425781 106.195312 202.988281 106.097656 202.507812 106.097656 C 201.605469 106.097656 200.398438 107.960938 200.398438 110.261719 C 200.398438 111.214844 200.5625 112.09375 200.84375 112.796875 C 201.121094 113.492188 201.5 114.011719 201.9375 114.265625 L 202.152344 114.394531 L 202.148438 114.425781 L 204.609375 116.277344 L 208.664062 117.859375 L 208.796875 117.910156 L 208.855469 118.039062 L 209.429688 119.265625 L 209.460938 119.335938 L 209.460938 119.410156 L 209.59375 126.75 L 209.597656 126.757812 C 209.597656 129.558594 210.484375 131.828125 211.582031 131.828125 C 212.089844 131.828125 212.703125 131.148438 213.199219 130.171875 C 213.722656 129.148438 214.09375 127.820312 214.09375 126.582031 C 214.09375 125.3125 213.957031 124.316406 213.722656 123.539062 Z M 213.722656 123.539062 " fill-opacity="1" fill-rule="nonzero"/><path fill="#000000" d="M 214.820312 120.828125 C 215.257812 121.285156 215.628906 121.917969 215.890625 122.773438 C 216.144531 123.617188 216.296875 124.679688 216.296875 126.015625 C 216.296875 127.261719 215.949219 128.699219 215.503906 129.882812 C 214.953125 131.355469 214.183594 132.464844 213.652344 132.464844 C 213.316406 132.464844 212.957031 132.476562 212.648438 132.484375 C 212.089844 132.5 211.636719 132.515625 211.546875 132.253906 C 211.472656 132.035156 211.546875 131.882812 211.773438 131.804688 L 211.773438 131.800781 C 212.226562 131.648438 212.808594 130.828125 213.285156 129.796875 C 213.753906 128.777344 214.097656 127.570312 214.097656 126.582031 C 214.097656 125.550781 213.960938 124.5625 213.726562 123.726562 C 213.496094 122.90625 213.175781 122.246094 212.800781 121.863281 L 212.6875 121.746094 L 212.691406 121.722656 C 212.160156 121.019531 209.234375 117.117188 208.214844 114.960938 C 207.402344 113.246094 205.824219 109.910156 205.039062 108.253906 L 204.578125 107.28125 L 204.574219 107.277344 L 204.574219 107.273438 C 204.003906 106.175781 202.253906 106.117188 202.25 106.117188 L 200.121094 106.023438 L 202.167969 105.429688 C 202.726562 105.265625 203.394531 105.128906 203.960938 105.058594 C 204.519531 104.988281 205.007812 104.984375 205.246094 105.082031 C 205.3125 105.109375 205.347656 105.121094 205.378906 105.132812 C 205.757812 105.269531 206.183594 105.425781 206.605469 106.207031 L 206.609375 106.207031 L 206.707031 106.410156 L 206.707031 106.417969 L 206.710938 106.417969 L 207.171875 107.390625 C 207.953125 109.046875 209.535156 112.382812 210.347656 114.097656 C 211.40625 116.332031 214.621094 120.570312 214.820312 120.828125 Z M 215.21875 122.976562 C 214.992188 122.226562 214.671875 121.683594 214.300781 121.296875 L 214.1875 121.183594 L 214.1875 121.15625 C 213.65625 120.453125 210.734375 116.550781 209.710938 114.398438 C 208.898438 112.683594 207.320312 109.347656 206.535156 107.691406 L 206.167969 106.910156 L 206.070312 106.707031 C 205.738281 106.007812 205.421875 105.894531 205.144531 105.792969 C 205.078125 105.769531 205.011719 105.746094 204.984375 105.734375 C 204.859375 105.683594 204.496094 105.699219 204.042969 105.757812 C 203.980469 105.765625 203.917969 105.773438 203.851562 105.78125 C 204.316406 105.984375 204.78125 106.292969 205.089844 106.773438 L 205.113281 106.773438 L 205.207031 106.972656 L 205.210938 106.976562 L 205.210938 106.984375 L 205.671875 107.957031 C 206.457031 109.613281 208.035156 112.949219 208.847656 114.664062 C 209.90625 116.898438 213.128906 121.136719 213.324219 121.394531 C 213.769531 121.863281 214.144531 122.617188 214.402344 123.539062 C 214.652344 124.429688 214.796875 125.484375 214.796875 126.582031 C 214.796875 127.679688 214.425781 128.992188 213.921875 130.089844 C 213.617188 130.753906 213.253906 131.34375 212.882812 131.777344 C 213.167969 131.769531 213.453125 131.761719 213.652344 131.761719 C 213.890625 131.761719 214.394531 130.847656 214.847656 129.636719 C 215.265625 128.519531 215.59375 127.175781 215.59375 126.015625 C 215.59375 124.746094 215.457031 123.75 215.21875 122.976562 Z M 215.21875 122.976562 " fill-opacity="1" fill-rule="nonzero"/><path fill="#000000" d="M 203.351562 107.539062 C 203.914062 107.71875 204.007812 109 203.558594 110.402344 C 203.113281 111.804688 202.296875 112.796875 201.734375 112.617188 C 201.175781 112.4375 201.082031 111.15625 201.527344 109.753906 C 201.976562 108.351562 202.792969 107.359375 203.351562 107.539062 Z M 203.351562 107.539062 " fill-opacity="1" fill-rule="evenodd"/><path fill="#000000" d="M 211.921875 122.910156 C 212.695312 122.933594 213.28125 124.519531 213.230469 126.453125 C 213.179688 128.386719 212.507812 129.9375 211.734375 129.917969 C 210.960938 129.898438 210.375 128.3125 210.429688 126.378906 C 210.480469 124.441406 211.148438 122.890625 211.921875 122.910156 Z M 211.921875 122.910156 " fill-opacity="1" fill-rule="evenodd"/><path fill="#c6c6c6" d="M 202.359375 68.195312 C 202.359375 68.195312 202.316406 66.554688 202.890625 66.269531 C 203.464844 65.980469 204.203125 65.613281 204.53125 65.738281 C 204.859375 65.859375 220.765625 89.515625 220.765625 89.515625 L 216.460938 88.902344 Z M 202.359375 68.195312 " fill-opacity="1" fill-rule="evenodd"/><path fill="#c6c6c6" d="M 151.839844 109.648438 C 151.839844 109.648438 152.351562 110.121094 153.273438 109.832031 C 153.332031 105.855469 154.789062 95.84375 154.789062 95.84375 L 153.457031 95.804688 L 153.335938 95.496094 Z M 151.839844 109.648438 " fill-opacity="1" fill-rule="evenodd"/><path fill="#c6c6c6" d="M 167.035156 96.941406 L 165.355469 100.351562 L 164.113281 110.214844 C 164.113281 110.214844 164.496094 110.507812 164.679688 110.53125 C 164.867188 110.550781 165.4375 110.414062 165.4375 110.414062 Z M 167.035156 96.941406 " fill-opacity="1" fill-rule="evenodd"/><path fill="#c6c6c6" d="M 168.410156 113.953125 L 177.96875 114.445312 C 178.753906 114.484375 179.347656 115.089844 179.398438 115.878906 L 180.054688 126 L 177.707031 135.855469 L 169.90625 135.640625 C 169.121094 135.617188 168.386719 134.441406 168.34375 133.65625 L 167.359375 115.386719 C 167.316406 114.601562 167.625 113.914062 168.410156 113.953125 Z M 168.410156 113.953125 " fill-opacity="1" fill-rule="evenodd"/><path fill="#c6c6c6" d="M 134.585938 145.8125 C 134.585938 145.8125 134.742188 145.671875 134.921875 146.625 L 145.6875 146.625 C 145.585938 146.085938 145.445312 146.03125 145.152344 145.691406 C 145.152344 145.691406 134.585938 145.8125 134.585938 145.8125 Z M 135.0625 147.40625 C 135.113281 147.707031 135.164062 148.035156 135.210938 148.382812 L 145.964844 148.382812 C 145.921875 148.0625 145.875 147.734375 145.824219 147.40625 Z M 135.308594 149.164062 C 135.332031 149.367188 135.355469 149.574219 135.375 149.789062 L 146.109375 149.789062 C 146.089844 149.582031 146.074219 149.371094 146.050781 149.164062 Z M 135.441406 150.566406 C 135.460938 150.828125 135.476562 151.097656 135.488281 151.371094 L 146.195312 151.371094 C 146.1875 151.105469 146.175781 150.839844 146.160156 150.566406 Z M 135.515625 152.148438 C 135.527344 152.582031 135.527344 153.027344 135.515625 153.476562 L 146.191406 153.476562 C 146.207031 153.050781 146.214844 152.605469 146.210938 152.148438 Z M 135.488281 154.257812 C 135.46875 154.636719 135.441406 155.023438 135.402344 155.410156 L 146.070312 155.410156 C 146.105469 155.042969 146.132812 154.65625 146.15625 154.257812 Z M 135.3125 156.1875 C 135.277344 156.457031 135.238281 156.722656 135.191406 156.992188 L 145.890625 156.992188 C 145.925781 156.738281 145.960938 156.46875 145.992188 156.1875 Z M 135.046875 157.769531 C 134.980469 158.097656 134.902344 158.421875 134.816406 158.746094 L 145.589844 158.746094 C 145.648438 158.464844 145.707031 158.136719 145.769531 157.769531 Z M 134.589844 159.527344 C 134.539062 159.695312 134.195312 160.808594 134.136719 160.976562 C 134.136719 160.976562 144.898438 160.914062 144.898438 160.914062 C 144.898438 160.914062 145.339844 159.855469 145.417969 159.527344 Z M 134.589844 159.527344 " fill-opacity="1" fill-rule="evenodd"/><path fill="#ffffff" d="M 167.828125 124.09375 C 168.332031 123.210938 169.328125 121.597656 169.785156 120.726562 C 170.78125 118.835938 171.871094 115.605469 173.867188 114.234375 L 177.96875 114.445312 C 178.753906 114.484375 179.347656 115.089844 179.398438 115.878906 L 179.5 117.457031 C 179.109375 117.90625 178.710938 118.484375 178.394531 119.25 C 177.675781 120.992188 173.386719 121.75 172 124.746094 C 171.296875 126.261719 169.3125 126.851562 168.03125 127.886719 Z M 168.089844 128.964844 C 168.820312 128.675781 169.726562 128.167969 170.070312 127.859375 C 172.386719 125.785156 176.34375 124.832031 178.722656 123.390625 C 179.15625 123.128906 179.53125 122.9375 179.847656 122.804688 L 179.964844 124.621094 C 179.871094 124.691406 179.769531 124.757812 179.664062 124.828125 C 175.589844 127.449219 172.160156 130.519531 168.84375 134.09375 C 168.738281 134.207031 168.636719 134.308594 168.539062 134.402344 C 168.425781 134.148438 168.355469 133.886719 168.34375 133.65625 Z M 168.089844 128.964844 " fill-opacity="1" fill-rule="evenodd"/><g fill="#000000" fill-opacity="1"><g transform="translate(129.015104, 216.867504)"><g><path d="M 1.375 -3.8125 L 4.109375 -4.546875 L 4.109375 -18.78125 C 4.109375 -19.425781 4.054688 -19.851562 3.953125 -20.0625 C 3.859375 -20.269531 3.597656 -20.460938 3.171875 -20.640625 L 1.234375 -21.71875 L 1.453125 -24.75 C 3.347656 -25.050781 5.140625 -25.269531 6.828125 -25.40625 C 8.523438 -25.539062 10.34375 -25.609375 12.28125 -25.609375 C 14.96875 -25.609375 17.125 -25.320312 18.75 -24.75 C 20.382812 -24.175781 21.582031 -23.28125 22.34375 -22.0625 C 23.101562 -20.84375 23.484375 -19.222656 23.484375 -17.203125 C 23.484375 -14.585938 22.539062 -12.535156 20.65625 -11.046875 C 18.78125 -9.554688 16.210938 -8.8125 12.953125 -8.8125 L 10.90625 -8.890625 L 10.90625 -6.046875 C 10.90625 -5.453125 10.945312 -5.066406 11.03125 -4.890625 C 11.113281 -4.710938 11.332031 -4.539062 11.6875 -4.375 L 13.953125 -3.03125 L 13.8125 0 L 1.5625 0 Z M 13.28125 -12.953125 C 14.625 -12.953125 15.609375 -13.085938 16.234375 -13.359375 C 16.503906 -14.578125 16.640625 -15.859375 16.640625 -17.203125 C 16.640625 -18.671875 16.359375 -19.71875 15.796875 -20.34375 C 15.242188 -20.96875 14.347656 -21.28125 13.109375 -21.28125 C 12.679688 -21.28125 11.945312 -21.226562 10.90625 -21.125 L 10.90625 -13.171875 C 11.570312 -13.023438 12.363281 -12.953125 13.28125 -12.953125 Z M 13.28125 -12.953125 "/></g></g></g><g fill="#000000" fill-opacity="1"><g transform="translate(151.632762, 216.867504)"><g><path d="M 12.734375 0.5625 C 8.953125 0.5625 6.039062 -0.59375 4 -2.90625 C 1.957031 -5.226562 0.9375 -8.503906 0.9375 -12.734375 C 0.9375 -15.421875 1.425781 -17.738281 2.40625 -19.6875 C 3.382812 -21.644531 4.804688 -23.140625 6.671875 -24.171875 C 8.546875 -25.203125 10.765625 -25.71875 13.328125 -25.71875 C 16.234375 -25.71875 19.234375 -25.054688 22.328125 -23.734375 C 22.097656 -21.492188 21.734375 -19.019531 21.234375 -16.3125 L 18.40625 -16.125 L 15.828125 -19.890625 C 14.734375 -20.210938 13.523438 -20.375 12.203125 -20.375 C 11.210938 -20.375 10.269531 -20.289062 9.375 -20.125 C 8.96875 -19.351562 8.640625 -18.332031 8.390625 -17.0625 C 8.148438 -15.789062 8.03125 -14.507812 8.03125 -13.21875 C 8.03125 -10.457031 8.53125 -8.410156 9.53125 -7.078125 C 10.539062 -5.742188 12.140625 -5.050781 14.328125 -5 C 15.203125 -5 16.304688 -5.128906 17.640625 -5.390625 C 18.972656 -5.648438 20.269531 -5.992188 21.53125 -6.421875 L 22.703125 -2.3125 C 21.398438 -1.46875 19.832031 -0.773438 18 -0.234375 C 16.175781 0.296875 14.421875 0.5625 12.734375 0.5625 Z M 12.734375 0.5625 "/></g></g></g><g fill="#000000" fill-opacity="1"><g transform="translate(174.10113, 216.867504)"><g><path d="M 0.59375 -3.328125 L 1.75 -4.03125 L 10.484375 -25.203125 L 16.828125 -25.75 L 24.296875 -5.59375 C 24.546875 -4.945312 24.71875 -4.523438 24.8125 -4.328125 C 24.914062 -4.128906 25.109375 -3.859375 25.390625 -3.515625 L 26.0625 -2.65625 L 25.828125 0 L 15.34375 0 L 14.96875 -3.546875 L 17.625 -4.21875 L 16.421875 -7.984375 L 8.84375 -7.875 L 8.03125 -5.53125 C 7.945312 -5.300781 7.90625 -5.113281 7.90625 -4.96875 C 7.90625 -4.789062 7.9375 -4.65625 8 -4.5625 C 8.0625 -4.476562 8.171875 -4.414062 8.328125 -4.375 L 10.90625 -3.28125 L 10.53125 0 L 0.75 0 Z M 12.796875 -19.375 L 10.34375 -12.203125 L 15.15625 -11.984375 Z M 12.796875 -19.375 "/></g></g></g><g fill="#000000" fill-opacity="1"><g transform="translate(199.144858, 216.867504)"><g><path d="M 1.375 -3.8125 L 4.109375 -4.546875 L 4.109375 -18.78125 C 4.109375 -19.425781 4.054688 -19.851562 3.953125 -20.0625 C 3.859375 -20.269531 3.597656 -20.460938 3.171875 -20.640625 L 1.234375 -21.71875 L 1.453125 -24.78125 C 5.191406 -25.332031 8.789062 -25.609375 12.25 -25.609375 C 14.9375 -25.609375 17.097656 -25.335938 18.734375 -24.796875 C 20.378906 -24.265625 21.582031 -23.429688 22.34375 -22.296875 C 23.101562 -21.171875 23.484375 -19.675781 23.484375 -17.8125 C 23.484375 -16.257812 23.082031 -14.90625 22.28125 -13.75 C 21.488281 -12.59375 20.359375 -11.707031 18.890625 -11.09375 L 24.859375 -1.453125 L 24.828125 0 L 18.03125 0 L 12.5 -9.96875 L 10.859375 -10 L 10.859375 -5.828125 C 10.859375 -5.222656 10.898438 -4.835938 10.984375 -4.671875 C 11.078125 -4.515625 11.296875 -4.335938 11.640625 -4.140625 L 13.25 -3.203125 L 13.109375 0 L 1.5625 0 Z M 13.25 -14.1875 C 14.570312 -14.1875 15.539062 -14.3125 16.15625 -14.5625 C 16.40625 -15.457031 16.53125 -16.523438 16.53125 -17.765625 C 16.53125 -19.015625 16.265625 -19.898438 15.734375 -20.421875 C 15.203125 -20.941406 14.3125 -21.203125 13.0625 -21.203125 C 12.363281 -21.203125 11.65625 -21.164062 10.9375 -21.09375 L 10.9375 -14.40625 C 11.582031 -14.257812 12.351562 -14.1875 13.25 -14.1875 Z M 13.25 -14.1875 "/></g></g></g><g fill="#000000" fill-opacity="1"><g transform="translate(222.770269, 216.867504)"><g><path d="M 1.015625 -3.8125 L 3.734375 -4.546875 L 3.734375 -18.84375 C 3.734375 -19.5 3.679688 -19.929688 3.578125 -20.140625 C 3.484375 -20.347656 3.222656 -20.539062 2.796875 -20.71875 L 0.9375 -21.796875 L 1.046875 -25.15625 L 21.3125 -25.15625 C 21.488281 -22.539062 21.578125 -19.988281 21.578125 -17.5 L 18.8125 -17.3125 L 16.15625 -20.609375 L 10.53125 -20.75 L 10.53125 -14.671875 L 18.484375 -15.34375 L 18.484375 -9.59375 L 10.53125 -10.453125 L 10.53125 -4.4375 L 16.71875 -4.546875 L 19.59375 -7.84375 L 22.359375 -7.65625 C 22.253906 -5.039062 22.066406 -2.488281 21.796875 0 L 1.1875 0 Z M 1.015625 -3.8125 "/></g></g></g><g fill="#703900" fill-opacity="1"><g transform="translate(67.88016, 239.061563)"><g><path d="M 3.390625 0.15625 C 2.398438 0.15625 1.394531 0.00390625 0.375 -0.296875 C 0.425781 -1.191406 0.5 -2.019531 0.59375 -2.78125 L 1.640625 -2.984375 L 2.3125 -1.84375 C 2.851562 -1.65625 3.332031 -1.5625 3.75 -1.5625 C 3.894531 -1.5625 4.203125 -1.597656 4.671875 -1.671875 C 4.691406 -1.859375 4.703125 -1.984375 4.703125 -2.046875 C 4.703125 -2.265625 4.664062 -2.425781 4.59375 -2.53125 C 4.519531 -2.644531 4.359375 -2.769531 4.109375 -2.90625 C 3.867188 -3.050781 3.429688 -3.265625 2.796875 -3.546875 C 2.023438 -3.921875 1.46875 -4.328125 1.125 -4.765625 C 0.78125 -5.203125 0.609375 -5.71875 0.609375 -6.3125 C 0.609375 -7.25 0.921875 -7.976562 1.546875 -8.5 C 2.179688 -9.019531 3.050781 -9.28125 4.15625 -9.28125 C 4.6875 -9.28125 5.210938 -9.226562 5.734375 -9.125 C 6.265625 -9.019531 6.726562 -8.878906 7.125 -8.703125 C 7.113281 -8.191406 7.078125 -7.5625 7.015625 -6.8125 L 6.96875 -6.234375 L 5.984375 -6.09375 L 4.953125 -7.40625 C 4.628906 -7.5 4.222656 -7.546875 3.734375 -7.546875 C 3.429688 -7.546875 3.203125 -7.519531 3.046875 -7.46875 C 3.003906 -7.289062 2.984375 -7.148438 2.984375 -7.046875 C 2.984375 -6.847656 3.03125 -6.675781 3.125 -6.53125 C 3.226562 -6.382812 3.40625 -6.226562 3.65625 -6.0625 C 3.90625 -5.90625 4.28125 -5.710938 4.78125 -5.484375 C 5.5 -5.140625 6.039062 -4.835938 6.40625 -4.578125 C 6.78125 -4.316406 7.039062 -4.039062 7.1875 -3.75 C 7.34375 -3.46875 7.421875 -3.125 7.421875 -2.71875 C 7.421875 -1.820312 7.0625 -1.117188 6.34375 -0.609375 C 5.632812 -0.0976562 4.648438 0.15625 3.390625 0.15625 Z M 3.390625 0.15625 "/></g></g></g><g fill="#703900" fill-opacity="1"><g transform="translate(78.421883, 239.061563)"><g><path d="M 0.21875 -1.203125 L 0.640625 -1.46875 L 3.796875 -9.140625 L 6.109375 -9.34375 L 8.8125 -2.03125 C 8.894531 -1.789062 8.953125 -1.632812 8.984375 -1.5625 C 9.023438 -1.5 9.097656 -1.398438 9.203125 -1.265625 L 9.4375 -0.953125 L 9.359375 0 L 5.5625 0 L 5.421875 -1.28125 L 6.390625 -1.53125 L 5.953125 -2.890625 L 3.203125 -2.859375 L 2.90625 -2 C 2.882812 -1.914062 2.875 -1.847656 2.875 -1.796875 C 2.875 -1.734375 2.882812 -1.6875 2.90625 -1.65625 C 2.925781 -1.625 2.960938 -1.597656 3.015625 -1.578125 L 3.953125 -1.1875 L 3.8125 0 L 0.265625 0 Z M 4.640625 -7.015625 L 3.75 -4.421875 L 5.5 -4.34375 Z M 4.640625 -7.015625 "/></g></g></g><g fill="#703900" fill-opacity="1"><g transform="translate(90.871367, 239.061563)"><g><path d="M 0.5 -1.375 L 1.484375 -1.65625 L 1.484375 -6.8125 C 1.484375 -7.039062 1.460938 -7.191406 1.421875 -7.265625 C 1.390625 -7.347656 1.300781 -7.421875 1.15625 -7.484375 L 0.453125 -7.875 L 0.53125 -8.96875 C 1.21875 -9.082031 1.863281 -9.160156 2.46875 -9.203125 C 3.082031 -9.253906 3.742188 -9.28125 4.453125 -9.28125 C 5.421875 -9.28125 6.203125 -9.175781 6.796875 -8.96875 C 7.390625 -8.757812 7.820312 -8.429688 8.09375 -7.984375 C 8.375 -7.546875 8.515625 -6.960938 8.515625 -6.234375 C 8.515625 -5.285156 8.171875 -4.539062 7.484375 -4 C 6.804688 -3.457031 5.878906 -3.1875 4.703125 -3.1875 L 3.953125 -3.21875 L 3.953125 -2.1875 C 3.953125 -1.976562 3.96875 -1.835938 4 -1.765625 C 4.03125 -1.703125 4.109375 -1.640625 4.234375 -1.578125 L 5.0625 -1.09375 L 5 0 L 0.5625 0 Z M 4.8125 -4.703125 C 5.300781 -4.703125 5.660156 -4.75 5.890625 -4.84375 C 5.984375 -5.28125 6.03125 -5.742188 6.03125 -6.234375 C 6.03125 -6.765625 5.925781 -7.144531 5.71875 -7.375 C 5.519531 -7.601562 5.195312 -7.71875 4.75 -7.71875 C 4.59375 -7.71875 4.328125 -7.695312 3.953125 -7.65625 L 3.953125 -4.78125 C 4.191406 -4.726562 4.476562 -4.703125 4.8125 -4.703125 Z M 4.8125 -4.703125 "/></g></g></g><g fill="#703900" fill-opacity="1"><g transform="translate(102.441387, 239.061563)"><g/></g></g><g fill="#703900" fill-opacity="1"><g transform="translate(108.044587, 239.061563)"><g><path d="M 3.390625 0.15625 C 2.398438 0.15625 1.394531 0.00390625 0.375 -0.296875 C 0.425781 -1.191406 0.5 -2.019531 0.59375 -2.78125 L 1.640625 -2.984375 L 2.3125 -1.84375 C 2.851562 -1.65625 3.332031 -1.5625 3.75 -1.5625 C 3.894531 -1.5625 4.203125 -1.597656 4.671875 -1.671875 C 4.691406 -1.859375 4.703125 -1.984375 4.703125 -2.046875 C 4.703125 -2.265625 4.664062 -2.425781 4.59375 -2.53125 C 4.519531 -2.644531 4.359375 -2.769531 4.109375 -2.90625 C 3.867188 -3.050781 3.429688 -3.265625 2.796875 -3.546875 C 2.023438 -3.921875 1.46875 -4.328125 1.125 -4.765625 C 0.78125 -5.203125 0.609375 -5.71875 0.609375 -6.3125 C 0.609375 -7.25 0.921875 -7.976562 1.546875 -8.5 C 2.179688 -9.019531 3.050781 -9.28125 4.15625 -9.28125 C 4.6875 -9.28125 5.210938 -9.226562 5.734375 -9.125 C 6.265625 -9.019531 6.726562 -8.878906 7.125 -8.703125 C 7.113281 -8.191406 7.078125 -7.5625 7.015625 -6.8125 L 6.96875 -6.234375 L 5.984375 -6.09375 L 4.953125 -7.40625 C 4.628906 -7.5 4.222656 -7.546875 3.734375 -7.546875 C 3.429688 -7.546875 3.203125 -7.519531 3.046875 -7.46875 C 3.003906 -7.289062 2.984375 -7.148438 2.984375 -7.046875 C 2.984375 -6.847656 3.03125 -6.675781 3.125 -6.53125 C 3.226562 -6.382812 3.40625 -6.226562 3.65625 -6.0625 C 3.90625 -5.90625 4.28125 -5.710938 4.78125 -5.484375 C 5.5 -5.140625 6.039062 -4.835938 6.40625 -4.578125 C 6.78125 -4.316406 7.039062 -4.039062 7.1875 -3.75 C 7.34375 -3.46875 7.421875 -3.125 7.421875 -2.71875 C 7.421875 -1.820312 7.0625 -1.117188 6.34375 -0.609375 C 5.632812 -0.0976562 4.648438 0.15625 3.390625 0.15625 Z M 3.390625 0.15625 "/></g></g></g><g fill="#703900" fill-opacity="1"><g transform="translate(118.586309, 239.061563)"><g><path d="M 2.421875 3.09375 C 1.773438 2.664062 1.195312 2.109375 0.6875 1.421875 L 2.1875 -0.046875 L 0.234375 -5.21875 C 0.128906 -5.46875 0.0546875 -5.628906 0.015625 -5.703125 C -0.015625 -5.773438 -0.078125 -5.875 -0.171875 -6 L -0.40625 -6.296875 L -0.34375 -7.078125 L 3.125 -7.078125 L 3.265625 -5.921875 L 2.46875 -5.734375 L 3.578125 -2.34375 L 4.828125 -5.453125 C 4.847656 -5.503906 4.859375 -5.546875 4.859375 -5.578125 C 4.859375 -5.660156 4.820312 -5.710938 4.75 -5.734375 L 4.109375 -6.015625 L 4.234375 -7.078125 L 6.8125 -7.078125 L 6.921875 -5.984375 L 5.203125 -2.203125 C 4.578125 -0.835938 4.0625 0.226562 3.65625 1 C 3.25 1.78125 2.835938 2.476562 2.421875 3.09375 Z M 2.421875 3.09375 "/></g></g></g><g fill="#703900" fill-opacity="1"><g transform="translate(128.668001, 239.061563)"><g><path d="M 2.859375 0.234375 C 2.140625 0.234375 1.3125 0.101562 0.375 -0.15625 C 0.425781 -1.03125 0.488281 -1.679688 0.5625 -2.109375 L 1.328125 -2.265625 L 2.171875 -1.359375 C 2.472656 -1.265625 2.8125 -1.21875 3.1875 -1.21875 C 3.382812 -1.21875 3.546875 -1.234375 3.671875 -1.265625 C 3.691406 -1.328125 3.703125 -1.425781 3.703125 -1.5625 C 3.703125 -1.664062 3.675781 -1.753906 3.625 -1.828125 C 3.582031 -1.898438 3.472656 -1.984375 3.296875 -2.078125 C 3.128906 -2.179688 2.832031 -2.335938 2.40625 -2.546875 C 1.875 -2.828125 1.46875 -3.078125 1.1875 -3.296875 C 0.90625 -3.515625 0.703125 -3.738281 0.578125 -3.96875 C 0.460938 -4.207031 0.40625 -4.488281 0.40625 -4.8125 C 0.40625 -5.539062 0.671875 -6.113281 1.203125 -6.53125 C 1.742188 -6.957031 2.472656 -7.171875 3.390625 -7.171875 C 3.773438 -7.171875 4.175781 -7.128906 4.59375 -7.046875 C 5.007812 -6.960938 5.382812 -6.847656 5.71875 -6.703125 C 5.71875 -6.109375 5.679688 -5.453125 5.609375 -4.734375 L 4.890625 -4.625 L 3.984375 -5.609375 C 3.753906 -5.671875 3.414062 -5.703125 2.96875 -5.703125 C 2.894531 -5.703125 2.75 -5.695312 2.53125 -5.6875 C 2.5 -5.632812 2.484375 -5.546875 2.484375 -5.421875 C 2.484375 -5.296875 2.519531 -5.1875 2.59375 -5.09375 C 2.664062 -5 2.796875 -4.894531 2.984375 -4.78125 C 3.171875 -4.664062 3.46875 -4.503906 3.875 -4.296875 C 4.46875 -4.015625 4.914062 -3.765625 5.21875 -3.546875 C 5.519531 -3.335938 5.726562 -3.125 5.84375 -2.90625 C 5.96875 -2.6875 6.03125 -2.425781 6.03125 -2.125 C 6.03125 -1.382812 5.75 -0.804688 5.1875 -0.390625 C 4.625 0.0234375 3.847656 0.234375 2.859375 0.234375 Z M 2.859375 0.234375 "/></g></g></g><g fill="#703900" fill-opacity="1"><g transform="translate(137.721405, 239.061563)"><g><path d="M 3 0.171875 C 2.207031 0.171875 1.617188 -0.0195312 1.234375 -0.40625 C 0.859375 -0.800781 0.671875 -1.398438 0.671875 -2.203125 L 0.671875 -5.5 L -0.265625 -5.5 L -0.265625 -6.484375 L 2.171875 -8.703125 L 2.953125 -8.609375 L 2.953125 -7.078125 L 5.21875 -7.078125 L 5.21875 -5.484375 L 2.953125 -5.484375 L 2.953125 -2.6875 C 2.953125 -2.257812 3.007812 -1.972656 3.125 -1.828125 C 3.25 -1.679688 3.488281 -1.609375 3.84375 -1.609375 C 4.144531 -1.609375 4.5625 -1.648438 5.09375 -1.734375 L 5.25 -0.359375 C 4.925781 -0.203125 4.5625 -0.078125 4.15625 0.015625 C 3.757812 0.117188 3.375 0.171875 3 0.171875 Z M 3 0.171875 "/></g></g></g><g fill="#703900" fill-opacity="1"><g transform="translate(146.165948, 239.061563)"><g><path d="M 3.5 0.15625 C 2.445312 0.15625 1.632812 -0.160156 1.0625 -0.796875 C 0.488281 -1.441406 0.203125 -2.328125 0.203125 -3.453125 C 0.203125 -4.234375 0.34375 -4.90625 0.625 -5.46875 C 0.90625 -6.03125 1.300781 -6.460938 1.8125 -6.765625 C 2.320312 -7.066406 2.921875 -7.21875 3.609375 -7.21875 C 4.628906 -7.21875 5.410156 -6.890625 5.953125 -6.234375 C 6.503906 -5.585938 6.765625 -4.664062 6.734375 -3.46875 L 2.625 -2.703125 C 2.75 -2.328125 2.925781 -2.050781 3.15625 -1.875 C 3.382812 -1.695312 3.691406 -1.609375 4.078125 -1.609375 C 4.335938 -1.609375 4.644531 -1.644531 5 -1.71875 C 5.363281 -1.800781 5.734375 -1.910156 6.109375 -2.046875 L 6.40625 -0.703125 C 6.070312 -0.453125 5.640625 -0.242188 5.109375 -0.078125 C 4.578125 0.078125 4.039062 0.15625 3.5 0.15625 Z M 4.515625 -4.59375 C 4.503906 -4.9375 4.410156 -5.1875 4.234375 -5.34375 C 4.054688 -5.507812 3.804688 -5.59375 3.484375 -5.59375 C 3.222656 -5.59375 2.976562 -5.554688 2.75 -5.484375 C 2.5625 -5.035156 2.472656 -4.554688 2.484375 -4.046875 Z M 4.515625 -4.59375 "/></g></g></g><g fill="#703900" fill-opacity="1"><g transform="translate(156.031157, 239.061563)"><g><path d="M 0.359375 -1.28125 L 1.1875 -1.53125 L 1.1875 -4.8125 C 1.1875 -5.007812 1.171875 -5.140625 1.140625 -5.203125 C 1.117188 -5.265625 1.050781 -5.332031 0.9375 -5.40625 L 0.34375 -5.71875 L 0.375 -6.734375 L 0.75 -6.8125 C 1.851562 -7.03125 2.671875 -7.148438 3.203125 -7.171875 C 3.273438 -6.984375 3.332031 -6.789062 3.375 -6.59375 C 3.863281 -6.8125 4.28125 -6.96875 4.625 -7.0625 C 4.976562 -7.164062 5.300781 -7.21875 5.59375 -7.21875 C 5.9375 -7.21875 6.257812 -7.148438 6.5625 -7.015625 C 6.875 -6.878906 7.109375 -6.707031 7.265625 -6.5 C 7.773438 -6.75 8.234375 -6.929688 8.640625 -7.046875 C 9.054688 -7.160156 9.453125 -7.21875 9.828125 -7.21875 C 10.566406 -7.21875 11.109375 -7.003906 11.453125 -6.578125 C 11.804688 -6.148438 11.984375 -5.503906 11.984375 -4.640625 L 11.984375 -1.96875 C 11.984375 -1.78125 11.992188 -1.65625 12.015625 -1.59375 C 12.046875 -1.53125 12.128906 -1.460938 12.265625 -1.390625 L 12.90625 -1.015625 L 12.859375 0 L 9.171875 0 L 9.109375 -1.28125 L 9.75 -1.46875 L 9.75 -4.03125 C 9.75 -4.414062 9.738281 -4.691406 9.71875 -4.859375 C 9.695312 -5.023438 9.625 -5.15625 9.5 -5.25 C 9.375 -5.351562 9.160156 -5.40625 8.859375 -5.40625 C 8.628906 -5.40625 8.238281 -5.363281 7.6875 -5.28125 C 7.707031 -5.132812 7.71875 -4.921875 7.71875 -4.640625 L 7.71875 -1.96875 C 7.71875 -1.78125 7.726562 -1.65625 7.75 -1.59375 C 7.78125 -1.53125 7.863281 -1.460938 8 -1.390625 L 8.65625 -1.015625 L 8.609375 0 L 4.890625 0 L 4.828125 -1.28125 L 5.484375 -1.46875 L 5.484375 -4.03125 C 5.484375 -4.425781 5.46875 -4.707031 5.4375 -4.875 C 5.414062 -5.039062 5.34375 -5.171875 5.21875 -5.265625 C 5.09375 -5.359375 4.882812 -5.40625 4.59375 -5.40625 C 4.28125 -5.40625 3.898438 -5.363281 3.453125 -5.28125 L 3.453125 -1.96875 C 3.453125 -1.78125 3.460938 -1.65625 3.484375 -1.59375 C 3.515625 -1.53125 3.585938 -1.460938 3.703125 -1.390625 L 4.375 -1.015625 L 4.3125 0 L 0.421875 0 Z M 0.359375 -1.28125 "/></g></g></g><g fill="#703900" fill-opacity="1"><g transform="translate(171.890243, 239.061563)"><g/></g></g><g fill="#703900" fill-opacity="1"><g transform="translate(177.493448, 239.061563)"><g><path d="M 0.359375 -1.375 L 1.359375 -1.65625 L 1.359375 -6.828125 C 1.359375 -7.066406 1.335938 -7.222656 1.296875 -7.296875 C 1.265625 -7.378906 1.171875 -7.453125 1.015625 -7.515625 L 0.34375 -7.90625 L 0.375 -9.125 L 7.71875 -9.125 C 7.789062 -8.175781 7.828125 -7.25 7.828125 -6.34375 L 6.8125 -6.28125 L 5.859375 -7.46875 L 3.8125 -7.515625 L 3.8125 -5.109375 L 6.703125 -5.375 L 6.703125 -3.28125 L 3.8125 -3.59375 L 3.8125 -2.1875 C 3.8125 -1.976562 3.828125 -1.835938 3.859375 -1.765625 C 3.890625 -1.703125 3.972656 -1.640625 4.109375 -1.578125 L 4.921875 -1.09375 L 4.890625 0 L 0.4375 0 Z M 0.359375 -1.375 "/></g></g></g><g fill="#703900" fill-opacity="1"><g transform="translate(188.535791, 239.061563)"><g><path d="M 3.609375 0.171875 C 2.460938 0.171875 1.609375 -0.117188 1.046875 -0.703125 C 0.484375 -1.285156 0.203125 -2.179688 0.203125 -3.390625 C 0.203125 -4.171875 0.34375 -4.847656 0.625 -5.421875 C 0.914062 -6.003906 1.328125 -6.445312 1.859375 -6.75 C 2.390625 -7.0625 3.015625 -7.21875 3.734375 -7.21875 C 6.066406 -7.21875 7.234375 -6.003906 7.234375 -3.578125 C 7.234375 -2.398438 6.914062 -1.476562 6.28125 -0.8125 C 5.644531 -0.15625 4.753906 0.171875 3.609375 0.171875 Z M 3.828125 -1.40625 C 4.003906 -1.40625 4.160156 -1.421875 4.296875 -1.453125 C 4.429688 -1.484375 4.578125 -1.535156 4.734375 -1.609375 C 4.785156 -1.816406 4.828125 -2.082031 4.859375 -2.40625 C 4.898438 -2.726562 4.921875 -3.039062 4.921875 -3.34375 C 4.921875 -4.070312 4.804688 -4.625 4.578125 -5 C 4.347656 -5.382812 4.007812 -5.578125 3.5625 -5.578125 C 3.257812 -5.578125 2.957031 -5.535156 2.65625 -5.453125 C 2.59375 -5.316406 2.539062 -5.097656 2.5 -4.796875 C 2.46875 -4.492188 2.453125 -4.148438 2.453125 -3.765625 C 2.453125 -3.003906 2.570312 -2.421875 2.8125 -2.015625 C 3.050781 -1.609375 3.390625 -1.40625 3.828125 -1.40625 Z M 3.828125 -1.40625 "/></g></g></g><g fill="#703900" fill-opacity="1"><g transform="translate(198.83397, 239.061563)"><g><path d="M 0.359375 -1.28125 L 1.1875 -1.53125 L 1.1875 -4.8125 C 1.1875 -5.007812 1.171875 -5.140625 1.140625 -5.203125 C 1.117188 -5.265625 1.050781 -5.332031 0.9375 -5.40625 L 0.34375 -5.71875 L 0.375 -6.734375 C 0.53125 -6.773438 0.660156 -6.800781 0.765625 -6.8125 C 1.859375 -7.03125 2.664062 -7.148438 3.1875 -7.171875 C 3.269531 -6.929688 3.347656 -6.640625 3.421875 -6.296875 C 3.960938 -6.710938 4.421875 -7.003906 4.796875 -7.171875 L 5.578125 -7.171875 C 5.566406 -6.828125 5.539062 -6.453125 5.5 -6.046875 C 5.46875 -5.648438 5.425781 -5.332031 5.375 -5.09375 C 5.050781 -5.101562 4.8125 -5.109375 4.65625 -5.109375 C 4.28125 -5.109375 3.890625 -5.085938 3.484375 -5.046875 L 3.484375 -1.96875 C 3.484375 -1.78125 3.492188 -1.65625 3.515625 -1.59375 C 3.546875 -1.53125 3.617188 -1.460938 3.734375 -1.390625 L 4.546875 -0.953125 L 4.5 0 L 0.4375 0 Z M 0.359375 -1.28125 "/></g></g></g><g fill="#703900" fill-opacity="1"><g transform="translate(207.413818, 239.061563)"><g/></g></g><g fill="#703900" fill-opacity="1"><g transform="translate(213.017023, 239.061563)"><g><path d="M 0.5 -1.375 L 1.484375 -1.65625 L 1.484375 -6.8125 C 1.484375 -7.039062 1.460938 -7.191406 1.421875 -7.265625 C 1.390625 -7.347656 1.300781 -7.421875 1.15625 -7.484375 L 0.453125 -7.875 L 0.53125 -8.96875 C 1.21875 -9.082031 1.863281 -9.160156 2.46875 -9.203125 C 3.082031 -9.253906 3.742188 -9.28125 4.453125 -9.28125 C 5.421875 -9.28125 6.203125 -9.175781 6.796875 -8.96875 C 7.390625 -8.757812 7.820312 -8.429688 8.09375 -7.984375 C 8.375 -7.546875 8.515625 -6.960938 8.515625 -6.234375 C 8.515625 -5.285156 8.171875 -4.539062 7.484375 -4 C 6.804688 -3.457031 5.878906 -3.1875 4.703125 -3.1875 L 3.953125 -3.21875 L 3.953125 -2.1875 C 3.953125 -1.976562 3.96875 -1.835938 4 -1.765625 C 4.03125 -1.703125 4.109375 -1.640625 4.234375 -1.578125 L 5.0625 -1.09375 L 5 0 L 0.5625 0 Z M 4.8125 -4.703125 C 5.300781 -4.703125 5.660156 -4.75 5.890625 -4.84375 C 5.984375 -5.28125 6.03125 -5.742188 6.03125 -6.234375 C 6.03125 -6.765625 5.925781 -7.144531 5.71875 -7.375 C 5.519531 -7.601562 5.195312 -7.71875 4.75 -7.71875 C 4.59375 -7.71875 4.328125 -7.695312 3.953125 -7.65625 L 3.953125 -4.78125 C 4.191406 -4.726562 4.476562 -4.703125 4.8125 -4.703125 Z M 4.8125 -4.703125 "/></g></g></g><g fill="#703900" fill-opacity="1"><g transform="translate(224.587046, 239.061563)"><g><path d="M 0.34375 -1.25 L 1.28125 -1.53125 L 1.28125 -8.015625 C 1.28125 -8.210938 1.265625 -8.335938 1.234375 -8.390625 C 1.203125 -8.453125 1.125 -8.519531 1 -8.59375 L 0.40625 -8.90625 L 0.46875 -9.9375 C 0.65625 -9.96875 0.796875 -9.988281 0.890625 -10 C 2.078125 -10.21875 2.90625 -10.332031 3.375 -10.34375 C 3.46875 -10.144531 3.53125 -9.910156 3.5625 -9.640625 L 3.5625 -1.96875 C 3.5625 -1.78125 3.570312 -1.65625 3.59375 -1.59375 C 3.625 -1.53125 3.703125 -1.460938 3.828125 -1.390625 L 4.5 -1.015625 L 4.4375 0 L 0.375 0 Z M 0.34375 -1.25 "/></g></g></g><g fill="#703900" fill-opacity="1"><g transform="translate(232.03036, 239.061563)"><g><path d="M 2.296875 0.171875 C 1.679688 0.171875 1.1875 0.00390625 0.8125 -0.328125 C 0.445312 -0.671875 0.265625 -1.109375 0.265625 -1.640625 C 0.265625 -2.347656 0.625 -2.90625 1.34375 -3.3125 C 2.0625 -3.71875 3.109375 -3.945312 4.484375 -4 C 4.484375 -4.425781 4.445312 -4.738281 4.375 -4.9375 C 4.3125 -5.144531 4.191406 -5.285156 4.015625 -5.359375 C 3.835938 -5.441406 3.566406 -5.484375 3.203125 -5.484375 C 2.835938 -5.484375 2.578125 -5.46875 2.421875 -5.4375 L 1.875 -4.34375 L 0.859375 -4.40625 C 0.710938 -5.132812 0.609375 -5.882812 0.546875 -6.65625 C 1.046875 -6.832031 1.59375 -6.96875 2.1875 -7.0625 C 2.789062 -7.164062 3.359375 -7.21875 3.890625 -7.21875 C 4.835938 -7.21875 5.519531 -7.03125 5.9375 -6.65625 C 6.351562 -6.28125 6.5625 -5.660156 6.5625 -4.796875 L 6.5625 -1.96875 C 6.5625 -1.800781 6.578125 -1.6875 6.609375 -1.625 C 6.640625 -1.5625 6.707031 -1.5 6.8125 -1.4375 L 7.359375 -1.125 L 7.3125 -0.28125 C 6.257812 -0.0390625 5.429688 0.09375 4.828125 0.125 C 4.804688 0.0703125 4.78125 -0.0195312 4.75 -0.15625 C 4.71875 -0.300781 4.6875 -0.4375 4.65625 -0.5625 C 4.300781 -0.34375 3.914062 -0.164062 3.5 -0.03125 C 3.082031 0.101562 2.679688 0.171875 2.296875 0.171875 Z M 3.203125 -1.359375 C 3.566406 -1.359375 4.003906 -1.476562 4.515625 -1.71875 L 4.46875 -2.75 C 4.25 -2.769531 4.101562 -2.78125 4.03125 -2.78125 C 3.789062 -2.78125 3.503906 -2.753906 3.171875 -2.703125 C 2.847656 -2.648438 2.59375 -2.59375 2.40625 -2.53125 C 2.382812 -2.414062 2.375 -2.304688 2.375 -2.203125 C 2.375 -1.929688 2.445312 -1.722656 2.59375 -1.578125 C 2.738281 -1.429688 2.941406 -1.359375 3.203125 -1.359375 Z M 3.203125 -1.359375 "/></g></g></g><g fill="#703900" fill-opacity="1"><g transform="translate(242.342072, 239.061563)"><g><path d="M 0.359375 -1.296875 L 1.1875 -1.546875 L 1.1875 -4.8125 C 1.1875 -5.007812 1.171875 -5.140625 1.140625 -5.203125 C 1.117188 -5.265625 1.050781 -5.332031 0.9375 -5.40625 L 0.34375 -5.71875 L 0.375 -6.734375 L 0.671875 -6.796875 C 1.859375 -7.023438 2.710938 -7.148438 3.234375 -7.171875 C 3.304688 -6.984375 3.363281 -6.773438 3.40625 -6.546875 C 3.957031 -6.796875 4.40625 -6.96875 4.75 -7.0625 C 5.101562 -7.164062 5.429688 -7.21875 5.734375 -7.21875 C 7.171875 -7.21875 7.890625 -6.359375 7.890625 -4.640625 L 7.890625 -1.984375 C 7.890625 -1.796875 7.898438 -1.671875 7.921875 -1.609375 C 7.953125 -1.546875 8.03125 -1.476562 8.15625 -1.40625 L 8.8125 -1.03125 L 8.75 -0.015625 L 5.015625 -0.015625 L 4.953125 -1.296875 L 5.609375 -1.484375 L 5.609375 -4.046875 C 5.609375 -4.453125 5.59375 -4.734375 5.5625 -4.890625 C 5.539062 -5.054688 5.46875 -5.179688 5.34375 -5.265625 C 5.226562 -5.359375 5.015625 -5.40625 4.703125 -5.40625 C 4.378906 -5.40625 3.972656 -5.359375 3.484375 -5.265625 L 3.484375 -1.984375 C 3.484375 -1.796875 3.492188 -1.671875 3.515625 -1.609375 C 3.546875 -1.546875 3.617188 -1.476562 3.734375 -1.40625 L 4.390625 -1.03125 L 4.34375 -0.015625 L 0.421875 -0.015625 Z M 0.359375 -1.296875 "/></g></g></g><g fill="#703900" fill-opacity="1"><g transform="translate(254.087982, 239.061563)"><g><path d="M 3 0.171875 C 2.207031 0.171875 1.617188 -0.0195312 1.234375 -0.40625 C 0.859375 -0.800781 0.671875 -1.398438 0.671875 -2.203125 L 0.671875 -5.5 L -0.265625 -5.5 L -0.265625 -6.484375 L 2.171875 -8.703125 L 2.953125 -8.609375 L 2.953125 -7.078125 L 5.21875 -7.078125 L 5.21875 -5.484375 L 2.953125 -5.484375 L 2.953125 -2.6875 C 2.953125 -2.257812 3.007812 -1.972656 3.125 -1.828125 C 3.25 -1.679688 3.488281 -1.609375 3.84375 -1.609375 C 4.144531 -1.609375 4.5625 -1.648438 5.09375 -1.734375 L 5.25 -0.359375 C 4.925781 -0.203125 4.5625 -0.078125 4.15625 0.015625 C 3.757812 0.117188 3.375 0.171875 3 0.171875 Z M 3 0.171875 "/></g></g></g><g fill="#703900" fill-opacity="1"><g transform="translate(262.532529, 239.061563)"><g/></g></g><g fill="#703900" fill-opacity="1"><g transform="translate(268.135724, 239.061563)"><g><path d="M 3.265625 0.046875 C 2.285156 0.046875 1.382812 0.00390625 0.5625 -0.078125 L 0.5 -1.375 L 1.484375 -1.65625 L 1.484375 -6.8125 C 1.484375 -7.039062 1.460938 -7.191406 1.421875 -7.265625 C 1.390625 -7.347656 1.300781 -7.421875 1.15625 -7.484375 L 0.453125 -7.875 L 0.53125 -9 C 1.46875 -9.070312 2.253906 -9.128906 2.890625 -9.171875 C 3.535156 -9.210938 4.050781 -9.234375 4.4375 -9.234375 C 5.6875 -9.234375 6.6875 -9.085938 7.4375 -8.796875 C 8.1875 -8.503906 8.734375 -8.046875 9.078125 -7.421875 C 9.429688 -6.804688 9.609375 -5.984375 9.609375 -4.953125 C 9.609375 -3.648438 9.3125 -2.597656 8.71875 -1.796875 C 8.1875 -1.097656 7.476562 -0.613281 6.59375 -0.34375 C 5.71875 -0.0820312 4.609375 0.046875 3.265625 0.046875 Z M 4.96875 -1.890625 C 5.726562 -1.890625 6.328125 -1.984375 6.765625 -2.171875 C 6.847656 -2.390625 6.921875 -2.738281 6.984375 -3.21875 C 7.054688 -3.695312 7.09375 -4.144531 7.09375 -4.5625 C 7.09375 -5.582031 6.878906 -6.332031 6.453125 -6.8125 C 6.035156 -7.300781 5.398438 -7.546875 4.546875 -7.546875 C 4.429688 -7.546875 4.320312 -7.539062 4.21875 -7.53125 C 4.125 -7.519531 4.03125 -7.515625 3.9375 -7.515625 L 3.9375 -1.96875 C 4.300781 -1.914062 4.644531 -1.890625 4.96875 -1.890625 Z M 4.96875 -1.890625 "/></g></g></g><g fill="#703900" fill-opacity="1"><g transform="translate(280.896399, 239.061563)"><g><path d="M 3.5 0.15625 C 2.445312 0.15625 1.632812 -0.160156 1.0625 -0.796875 C 0.488281 -1.441406 0.203125 -2.328125 0.203125 -3.453125 C 0.203125 -4.234375 0.34375 -4.90625 0.625 -5.46875 C 0.90625 -6.03125 1.300781 -6.460938 1.8125 -6.765625 C 2.320312 -7.066406 2.921875 -7.21875 3.609375 -7.21875 C 4.628906 -7.21875 5.410156 -6.890625 5.953125 -6.234375 C 6.503906 -5.585938 6.765625 -4.664062 6.734375 -3.46875 L 2.625 -2.703125 C 2.75 -2.328125 2.925781 -2.050781 3.15625 -1.875 C 3.382812 -1.695312 3.691406 -1.609375 4.078125 -1.609375 C 4.335938 -1.609375 4.644531 -1.644531 5 -1.71875 C 5.363281 -1.800781 5.734375 -1.910156 6.109375 -2.046875 L 6.40625 -0.703125 C 6.070312 -0.453125 5.640625 -0.242188 5.109375 -0.078125 C 4.578125 0.078125 4.039062 0.15625 3.5 0.15625 Z M 4.515625 -4.59375 C 4.503906 -4.9375 4.410156 -5.1875 4.234375 -5.34375 C 4.054688 -5.507812 3.804688 -5.59375 3.484375 -5.59375 C 3.222656 -5.59375 2.976562 -5.554688 2.75 -5.484375 C 2.5625 -5.035156 2.472656 -4.554688 2.484375 -4.046875 Z M 4.515625 -4.59375 "/></g></g></g><g fill="#703900" fill-opacity="1"><g transform="translate(290.761612, 239.061563)"><g><path d="M -0.03125 1.625 L 0.8125 1.390625 L 0.8125 -4.8125 C 0.8125 -5.007812 0.796875 -5.140625 0.765625 -5.203125 C 0.742188 -5.265625 0.671875 -5.332031 0.546875 -5.40625 L -0.0625 -5.71875 L 0 -6.734375 C 0.0390625 -6.742188 0.0820312 -6.753906 0.125 -6.765625 C 0.175781 -6.773438 0.226562 -6.785156 0.28125 -6.796875 C 0.707031 -6.878906 1.15625 -6.957031 1.625 -7.03125 C 2.101562 -7.101562 2.492188 -7.148438 2.796875 -7.171875 C 2.878906 -6.984375 2.9375 -6.765625 2.96875 -6.515625 C 3.238281 -6.742188 3.535156 -6.914062 3.859375 -7.03125 C 4.179688 -7.15625 4.5 -7.21875 4.8125 -7.21875 C 5.71875 -7.21875 6.410156 -6.894531 6.890625 -6.25 C 7.378906 -5.613281 7.625 -4.710938 7.625 -3.546875 C 7.625 -2.328125 7.285156 -1.394531 6.609375 -0.75 C 5.941406 -0.101562 4.976562 0.21875 3.71875 0.21875 C 3.582031 0.21875 3.367188 0.207031 3.078125 0.1875 L 3.078125 0.9375 C 3.078125 1.132812 3.09375 1.265625 3.125 1.328125 C 3.15625 1.390625 3.234375 1.453125 3.359375 1.515625 L 4.15625 1.96875 L 4.09375 2.90625 L 0.046875 2.90625 Z M 4.078125 -1.46875 C 4.492188 -1.46875 4.832031 -1.523438 5.09375 -1.640625 C 5.164062 -1.859375 5.226562 -2.128906 5.28125 -2.453125 C 5.332031 -2.773438 5.359375 -3.078125 5.359375 -3.359375 C 5.359375 -4.046875 5.238281 -4.578125 5 -4.953125 C 4.757812 -5.335938 4.425781 -5.53125 4 -5.53125 C 3.738281 -5.53125 3.429688 -5.453125 3.078125 -5.296875 L 3.078125 -1.625 C 3.347656 -1.519531 3.679688 -1.46875 4.078125 -1.46875 Z M 4.078125 -1.46875 "/></g></g></g><g fill="#703900" fill-opacity="1"><g transform="translate(301.465694, 239.061563)"><g><path d="M 3 0.171875 C 2.207031 0.171875 1.617188 -0.0195312 1.234375 -0.40625 C 0.859375 -0.800781 0.671875 -1.398438 0.671875 -2.203125 L 0.671875 -5.5 L -0.265625 -5.5 L -0.265625 -6.484375 L 2.171875 -8.703125 L 2.953125 -8.609375 L 2.953125 -7.078125 L 5.21875 -7.078125 L 5.21875 -5.484375 L 2.953125 -5.484375 L 2.953125 -2.6875 C 2.953125 -2.257812 3.007812 -1.972656 3.125 -1.828125 C 3.25 -1.679688 3.488281 -1.609375 3.84375 -1.609375 C 4.144531 -1.609375 4.5625 -1.648438 5.09375 -1.734375 L 5.25 -0.359375 C 4.925781 -0.203125 4.5625 -0.078125 4.15625 0.015625 C 3.757812 0.117188 3.375 0.171875 3 0.171875 Z M 3 0.171875 "/></g></g></g></svg>