<svg xmlns="http://www.w3.org/2000/svg" xmlns:xlink="http://www.w3.org/1999/xlink" width="500" zoomAndPan="magnify" viewBox="0 0 375 374.999991" height="500" preserveAspectRatio="xMidYMid meet" version="1.0"><defs><g/><clipPath id="d753d2515a"><path d="M 114.953125 6.488281 L 260.453125 6.488281 L 260.453125 121.988281 L 114.953125 121.988281 Z M 114.953125 6.488281 " clip-rule="nonzero"/></clipPath><clipPath id="0bdc710697"><path d="M 142.289062 22.578125 L 233 22.578125 L 233 122 L 142.289062 122 Z M 142.289062 22.578125 " clip-rule="nonzero"/></clipPath></defs><rect x="-37.5" width="450" fill="#ffffff" y="-37.499999" height="449.999989" fill-opacity="1"/><rect x="-37.5" width="450" fill="#fffdf6" y="-37.499999" height="449.999989" fill-opacity="1"/><g clip-path="url(#d753d2515a)"><path fill="#f07d05" d="M 148.582031 121.546875 C 145.28125 117.128906 134.65625 121.539062 135.855469 117.289062 L 124.402344 117.238281 L 187.398438 14.4375 L 250.589844 116.925781 L 240.140625 116.925781 C 241.460938 121.941406 228.328125 116.308594 227.902344 121.546875 L 260.089844 121.546875 L 187.527344 6.601562 L 114.976562 121.546875 Z M 148.582031 121.546875 " fill-opacity="1" fill-rule="evenodd"/></g><g clip-path="url(#0bdc710697)"><path stroke-linecap="butt" transform="matrix(0.0334315, 0, 0, 0.0334315, 137.262243, 21.943957)" fill-opacity="1" fill="#000000" fill-rule="evenodd" stroke-linejoin="round" d="M 947.233393 2605.881018 C 1020.611019 2609.503162 1151.475574 2611.723186 1151.475574 2611.723186 C 1151.475574 2611.723186 1208.728818 2684.983969 1208.728818 2684.983969 L 1248.338714 2685.918715 C 1248.338714 2685.918715 1335.387013 2811.759007 1369.622115 2850.784687 C 1403.857218 2889.92721 1463.096798 2974.989171 1500.369827 2974.989171 C 1537.642857 2974.989171 2656.067434 2889.57668 2656.067434 2889.57668 C 2656.067434 2889.57668 2800.953192 2884.318729 2839.511499 2571.762759 C 2850.144244 2521.636961 2828.177694 1988.597583 2828.177694 1988.597583 L 2826.425044 1784.822775 L 2693.807838 1725.115822 C 2693.807838 1725.115822 2660.390639 1714.59992 2647.18734 1741.824421 C 2607.343756 1743.927601 2570.5381 1737.501217 2541.210418 1728.621122 L 2464.911709 1366.757257 C 2466.547515 1366.640414 2468.300166 1366.406727 2470.169659 1366.056197 L 2470.637033 1366.17304 C 2470.987563 1366.17304 2471.454936 1366.17304 2471.805466 1366.17304 C 2472.155996 1366.17304 2472.506526 1366.17304 2472.857057 1366.17304 C 2479.517128 1366.17304 2485.943512 1363.3688 2491.78568 1358.110849 C 2495.524667 1355.423452 2498.679438 1352.034995 2500.782618 1347.711791 L 2500.782618 1347.594947 C 2504.404762 1342.336996 2507.559532 1336.261142 2510.480616 1329.250541 C 2521.113361 1308.802954 2532.21348 1280.994236 2526.955529 1226.311546 C 2520.178615 1155.621318 2480.451874 1129.682093 2448.436796 1129.097877 C 2446.800989 1128.86419 2445.165182 1128.747347 2443.412532 1128.747347 C 2441.893568 1128.747347 2440.257761 1128.86419 2438.738797 1129.097877 C 2437.10299 1129.331563 2435.584027 1129.682093 2434.181907 1130.149467 C 2427.054462 1132.36949 2420.628078 1136.926381 2414.78591 1143.469609 C 2413.851163 1144.638043 2412.916416 1145.689633 2411.981669 1146.858066 L 2404.854225 1146.273849 L 2233.795556 1129.682093 L 1913.060551 651.091718 C 1913.060551 651.091718 1923.576453 607.275461 1913.060551 577.363562 C 1902.544649 547.568507 1857.793645 496.624805 1857.793645 496.624805 C 1857.793645 496.624805 1841.085045 492.184758 1825.311193 476.410905 C 1809.420497 460.637053 1637.310237 209.423843 1637.310237 209.423843 C 1637.310237 209.423843 1648.760886 150.534793 1609.267833 127.750339 C 1569.657936 104.965885 1601.322485 88.257286 1580.290681 97.020537 C 1559.142034 105.783789 1522.336378 71.548686 1514.39103 68.861289 C 1506.445682 66.290735 1467.887375 46.076835 1467.887375 46.076835 L 1452.931426 45.142088 L 1437.975477 59.280134 L 1416.008926 57.527484 L 1362.49467 25.862935 L 1347.538721 25.045032 L 1335.270169 40.818884 L 1303.60562 37.313584 L 1248.338714 82.999335 L 1221.932116 189.209943 L 1213.869925 383.053066 L 1120.979459 551.073808 L 1101.583463 658.219163 L 863.690395 997.181731 L 806.553996 1152.583391 L 750.352343 1155.270788 L 750.352343 1218.483042 L 767.878846 1218.483042 L 735.396394 1548.682358 C 735.396394 1548.682358 722.193095 1559.19826 722.193095 1569.714162 C 722.193095 1580.230064 710.859289 1574.154209 710.859289 1600.443964 C 710.859289 1626.850561 693.215943 1856.915124 693.215943 1856.915124 L 497.386483 1850.021366 L 488.039015 1684.454335 C 485.468461 1681.883781 481.61263 1680.598504 477.406269 1679.897444 C 474.134656 1679.43007 466.656681 1679.897444 465.488247 1680.715347 L 459.178706 1849.670836 L 431.253145 1850.13821 L 402.743367 1888.345986 L 341.751136 1889.16389 L 312.306611 1906.223019 L 290.807434 2012.433627 C 282.6284 2052.978271 285.549483 2114.087345 284.73158 2153.697241 C 283.32946 2210.716798 282.511556 2250.209851 291.274808 2257.687826 C 295.364325 2269.255318 309.736058 2271.942715 309.736058 2271.942715 C 296.766445 2271.709028 283.212616 2271.475341 268.840884 2271.241655 L 179.806249 2322.65273 C 179.806249 2322.65273 150.478567 2362.145784 159.241819 2465.201621 C 168.00507 2568.257459 177.235695 2595.014587 193.476921 2607.750512 C 209.718147 2620.486438 332.286825 2672.715417 332.286825 2672.715417 L 591.445382 2662.199515 C 591.445382 2662.199515 631.756339 2609.503162 632.691086 2468.940608 C 832.025847 2458.424707 889.27909 2462.163694 889.27909 2462.163694 C 889.27909 2462.163694 847.566013 2568.724832 947.233393 2605.881018 Z M 1776.120141 1476.473166 L 1772.96537 1476.356322 L 1775.535924 1475.538419 L 1387.966521 879.520474 L 1358.98937 896.11223 L 1114.786762 1200.021792 L 1123.550013 1204.344996 L 1129.742711 1226.311546 L 1122.73211 1279.007899 L 1070.853661 1274.684695 L 1033.113258 1570.648909 C 1033.113258 1570.648909 1034.865908 1569.714162 1039.305955 1586.422761 C 1043.629159 1603.131361 1048.88711 1603.131361 1048.88711 1603.131361 L 1316.808919 1614.465166 C 1316.808919 1614.465166 1361.559924 1623.345261 1365.999971 1661.903567 C 1370.323175 1700.578717 1373.010572 1758.533021 1373.010572 1758.533021 L 1375.113753 1785.757522 L 1387.966521 1727.803219 L 1406.310928 1670.666819 L 1416.008926 1657.580363 L 1446.738728 1658.398267 L 1482.726481 1681.299564 L 1689.188686 1692.633369 L 1731.252293 1686.557515 L 1784.883393 1664.590965 C 1730.200703 1609.557745 1753.335687 1513.512509 1776.120141 1476.473166 Z M 1019.909959 1358.110849 L 998.060252 1564.456211 C 998.060252 1564.456211 993.620204 1566.208861 983.922206 1587.240665 C 974.341051 1608.389312 972.588401 1588.993315 970.83575 1621.592611 C 968.966257 1654.075063 942.676502 1682.117468 942.676502 1682.117468 L 951.439754 1610.959865 L 987.427506 1474.019455 Z M 1019.909959 1358.110849 " stroke="#3d3c3b" stroke-width="11.811" stroke-opacity="1" stroke-miterlimit="4"/><path fill="#000000" d="M 168.929688 109.0625 C 171.382812 109.183594 175.757812 109.257812 175.757812 109.257812 C 175.757812 109.257812 177.671875 111.707031 177.671875 111.707031 L 178.996094 111.738281 C 178.996094 111.738281 181.90625 115.945312 183.050781 117.25 C 184.195312 118.558594 186.175781 121.402344 187.421875 121.402344 C 188.667969 121.402344 226.058594 118.546875 226.058594 118.546875 C 226.058594 118.546875 230.902344 118.371094 232.191406 107.921875 C 232.546875 106.246094 231.8125 88.425781 231.8125 88.425781 L 231.753906 81.613281 L 227.320312 79.617188 C 227.320312 79.617188 226.203125 79.265625 225.761719 80.175781 C 222.875 80.324219 220.480469 79.148438 220.007812 78.648438 C 219.539062 78.152344 219.070312 67.640625 219.070312 67.640625 C 219.070312 67.640625 220.484375 67.792969 220.867188 67 C 221.25 66.207031 221.972656 65.367188 221.742188 62.941406 C 221.507812 60.515625 220.117188 59.664062 219.03125 59.691406 C 217.945312 59.722656 217.601562 60.886719 217.601562 60.886719 L 215.695312 60.710938 C 215.695312 60.710938 215.019531 60.210938 214.078125 60.210938 C 213.140625 60.210938 212.199219 60.09375 212.199219 60.09375 L 201.21875 43.710938 C 201.21875 43.710938 201.570312 42.246094 201.21875 41.246094 C 200.867188 40.25 199.371094 38.546875 199.371094 38.546875 C 199.371094 38.546875 198.8125 38.398438 198.285156 37.871094 C 197.753906 37.34375 192 28.945312 192 28.945312 C 192 28.945312 192.382812 26.976562 191.0625 26.214844 C 189.738281 25.453125 190.796875 24.894531 190.09375 25.1875 C 189.386719 25.480469 188.15625 24.335938 187.890625 24.246094 C 187.625 24.160156 186.335938 23.484375 186.335938 23.484375 L 185.835938 23.453125 L 185.335938 23.925781 L 184.601562 23.867188 L 182.8125 22.808594 L 182.3125 22.78125 L 181.902344 23.308594 L 180.84375 23.191406 L 178.996094 24.71875 L 178.113281 28.269531 L 177.84375 34.75 L 174.738281 40.367188 L 174.089844 43.949219 L 166.136719 55.28125 L 164.226562 60.476562 L 162.347656 60.566406 L 162.347656 62.679688 L 162.933594 62.679688 L 161.847656 73.71875 C 161.847656 73.71875 161.410156 74.070312 161.410156 74.421875 C 161.410156 74.773438 161.027344 74.570312 161.027344 75.449219 C 161.027344 76.332031 160.441406 84.023438 160.441406 84.023438 L 153.890625 83.792969 L 153.578125 78.257812 C 153.496094 78.171875 153.363281 78.128906 153.222656 78.105469 C 153.113281 78.089844 152.863281 78.105469 152.824219 78.132812 L 152.613281 83.78125 L 151.679688 83.796875 L 150.726562 85.074219 L 148.6875 85.101562 L 147.703125 85.675781 L 146.984375 89.222656 C 146.710938 90.578125 146.8125 92.621094 146.78125 93.945312 C 146.734375 95.851562 146.707031 97.171875 147 97.421875 C 147.136719 97.808594 147.617188 97.898438 147.617188 97.898438 C 147.183594 97.890625 146.730469 97.882812 146.253906 97.875 L 143.273438 99.59375 C 143.273438 99.59375 142.292969 100.914062 142.585938 104.359375 C 142.878906 107.804688 143.1875 108.699219 143.730469 109.125 C 144.273438 109.550781 148.375 111.296875 148.375 111.296875 L 157.035156 110.945312 C 157.035156 110.945312 158.382812 109.183594 158.414062 104.484375 C 165.078125 104.132812 166.992188 104.257812 166.992188 104.257812 C 166.992188 104.257812 165.597656 107.820312 168.929688 109.0625 Z M 171.359375 67.347656 L 170.628906 74.246094 C 170.628906 74.246094 170.480469 74.304688 170.15625 75.007812 C 169.835938 75.714844 169.777344 75.066406 169.71875 76.15625 C 169.660156 77.242188 168.777344 78.179688 168.777344 78.179688 L 169.070312 75.800781 L 170.273438 71.222656 Z M 183.664062 51.347656 L 182.695312 51.902344 L 174.53125 62.0625 L 174.824219 62.207031 L 175.03125 62.941406 L 174.796875 64.703125 L 173.0625 64.558594 L 171.800781 74.453125 C 171.800781 74.453125 171.859375 74.421875 172.007812 74.980469 C 172.152344 75.539062 172.332031 75.539062 172.332031 75.539062 L 181.285156 75.917969 C 181.285156 75.917969 182.78125 76.214844 182.929688 77.503906 C 183.074219 78.796875 183.164062 80.734375 183.164062 80.734375 L 183.234375 81.644531 L 183.664062 79.707031 L 184.277344 77.796875 L 184.601562 77.359375 L 185.628906 77.386719 L 186.832031 78.152344 L 193.734375 78.53125 L 195.140625 78.328125 L 196.933594 77.59375 C 195.105469 75.753906 195.878906 72.542969 196.640625 71.304688 Z M 183.664062 51.347656 " fill-opacity="1" fill-rule="evenodd"/></g><path fill="#f07d05" d="M 161.871094 91.585938 C 161.757812 91.574219 166.800781 91.730469 166.800781 91.730469 L 166.902344 95.542969 L 166.609375 95.558594 L 166.183594 92.421875 Z M 206.867188 82.0625 C 207.398438 82.609375 207.785156 83.550781 207.855469 85.105469 L 208.207031 59.976562 L 217.601562 60.886719 L 217.65625 61.144531 C 217.679688 61.125 217.703125 61.101562 217.726562 61.082031 C 217.984375 60.488281 218.328125 60.085938 218.714844 59.96875 L 218.714844 59.964844 C 218.789062 59.941406 218.871094 59.929688 218.949219 59.929688 C 219.894531 59.929688 220.65625 61.636719 220.65625 63.742188 C 220.65625 65.800781 219.925781 67.480469 219.007812 67.550781 L 223.589844 89.277344 L 207.796875 89.277344 L 207.839844 86.121094 C 207.671875 87.902344 206.691406 89.984375 206.226562 89.984375 C 205.714844 89.984375 204.875 90.027344 204.960938 89.996094 C 205 89.984375 205.039062 89.964844 205.082031 89.941406 C 204.96875 90 204.851562 90.03125 204.742188 90.03125 C 203.816406 90.03125 203.070312 88.292969 203.070312 86.148438 L 202.972656 80.890625 L 202.5625 80.007812 L 199.625 78.863281 L 197.707031 77.421875 C 196.996094 77.003906 196.480469 75.78125 196.480469 74.335938 C 196.480469 72.660156 197.367188 71.28125 198.097656 71.117188 C 198.082031 71.117188 198.070312 71.113281 198.070312 71.113281 C 198.8125 70.898438 199.839844 70.75 200.109375 70.859375 C 200.378906 70.96875 200.699219 71 201.023438 71.683594 L 201.023438 71.6875 C 201.097656 71.84375 202.855469 75.550781 203.628906 77.1875 C 204.421875 78.863281 206.867188 82.0625 206.867188 82.0625 Z M 204.996094 81.390625 C 204.210938 80.304688 203.054688 78.644531 202.558594 77.59375 C 201.78125 75.953125 200.027344 72.25 199.953125 72.09375 L 199.953125 72.089844 L 199.949219 72.085938 L 199.953125 72.089844 L 199.953125 72.09375 M 199.949219 72.085938 L 199.953125 72.089844 C 200.027344 72.246094 201.335938 75.417969 202.121094 77.074219 C 202.898438 78.714844 204.964844 81.347656 204.996094 81.390625 M 197.890625 62.457031 C 198.351562 62.355469 198.902344 62.214844 199.550781 62.03125 C 201.722656 61.410156 203.109375 60.46875 203.929688 59.730469 C 204.1875 59.140625 204.53125 58.734375 204.914062 58.617188 C 204.992188 58.59375 205.070312 58.578125 205.152344 58.578125 C 206.09375 58.578125 206.859375 60.285156 206.859375 62.390625 C 206.859375 64.496094 206.09375 66.203125 205.152344 66.203125 C 204.988281 66.203125 204.828125 66.148438 204.679688 66.054688 C 203.828125 65.8125 201.972656 65.386719 200.253906 65.710938 C 199.996094 65.761719 199.730469 65.824219 199.46875 65.898438 L 200.632812 68.433594 L 199.574219 69.605469 L 196.992188 70.371094 L 195.207031 67.601562 C 194.867188 67.46875 194.582031 67.007812 194.414062 66.371094 L 179.042969 42.523438 L 178.742188 28.210938 L 179.316406 26.214844 L 180.785156 25.15625 Z M 191.542969 28.992188 L 191.0625 29.003906 L 197.988281 38.632812 C 197.992188 38.636719 199.117188 38.878906 199.117188 38.878906 C 199.863281 39.621094 200.742188 41.351562 200.898438 41.453125 L 201.015625 42.449219 C 201.015625 42.449219 200.597656 41.523438 199.304688 41.847656 C 198.558594 42.035156 197.976562 42.21875 197.675781 43.160156 C 197.453125 43.847656 197.941406 45.332031 197.753906 45.035156 C 197.316406 44.328125 188.242188 31.089844 188.242188 31.089844 C 188.242188 31.089844 189.351562 28.609375 191.542969 28.992188 Z M 185.980469 23.925781 L 185.660156 24.246094 L 188.273438 25.832031 L 187.273438 29.355469 L 188.097656 30.648438 C 188.097656 30.648438 189.242188 28.945312 190.035156 28.828125 C 190.828125 28.710938 191.707031 28.710938 191.707031 28.710938 C 191.707031 28.710938 191.738281 27.242188 191.089844 26.65625 C 190.445312 26.066406 190.003906 25.421875 189.679688 25.746094 C 189.359375 26.066406 188.566406 25.214844 188.566406 25.214844 Z M 182.519531 23.632812 L 186.039062 30.179688 L 187.214844 27.125 C 187.214844 27.125 187.394531 26.441406 186.128906 25.390625 C 184.707031 24.214844 183.074219 23.335938 183.074219 23.335938 Z M 167.945312 92.582031 L 168.398438 92.992188 L 168.765625 93.152344 L 169.335938 93.082031 L 169.644531 92.890625 L 171.742188 77.695312 L 171.992188 77.359375 L 172.125 75.789062 L 171.847656 74.996094 L 171.816406 74.777344 L 171.40625 74.789062 L 170.980469 74.761719 L 170.628906 74.660156 L 170.21875 75.421875 L 169.9375 75.804688 L 169.835938 77.3125 L 169.984375 77.503906 L 170.398438 77.605469 L 170.695312 77.636719 L 171.164062 77.648438 L 170.886719 77.765625 L 170.390625 77.773438 L 169.9375 77.835938 Z M 170.597656 89.953125 L 170.65625 94.796875 C 170.65625 94.796875 170.746094 96.207031 171.332031 96.207031 C 171.917969 96.207031 172.390625 95.941406 172.390625 95.941406 L 178.671875 96.117188 L 180.316406 93.09375 L 174.855469 93.035156 C 174.855469 93.035156 173.386719 92.859375 173.300781 90.421875 C 173.210938 87.984375 172.769531 77.328125 172.769531 77.328125 C 172.769531 77.328125 172.507812 76.828125 173.679688 76.742188 C 174.855469 76.652344 180.84375 77.0625 180.84375 77.0625 C 180.84375 77.0625 181.871094 77.152344 182.046875 78.179688 C 182.222656 79.207031 182.445312 84.988281 182.445312 84.988281 L 183.019531 81.976562 L 182.625 77.621094 C 182.625 77.621094 182.433594 76.945312 182.070312 76.742188 C 181.703125 76.535156 181.105469 76.183594 180.683594 76.183594 C 180.257812 76.183594 172.292969 75.90625 172.292969 75.90625 L 172.160156 77.503906 L 171.867188 77.875 L 171.757812 78.886719 L 172.316406 89.808594 C 172.316406 89.808594 171.742188 90.148438 171.539062 90.148438 C 171.332031 90.148438 170.597656 89.953125 170.597656 89.953125 Z M 158.484375 104.066406 L 158.46875 102.234375 L 158.351562 101.21875 L 158.089844 100.605469 L 173.09375 100.667969 L 173.179688 102.277344 L 173.003906 103.742188 Z M 177.066406 100.164062 L 175.175781 99.152344 L 174.910156 99.152344 L 173.78125 104.535156 C 173.78125 104.535156 173.695312 105.003906 174.148438 105.371094 C 174.601562 105.738281 177.949219 108.597656 177.949219 108.597656 L 187.875 80.761719 C 187.875 80.761719 188.476562 79.691406 187.6875 79.324219 C 186.894531 78.957031 185.25 77.839844 185.25 77.839844 L 184.636719 78.089844 L 182.964844 84.910156 L 181.410156 91.628906 L 180.75 93.769531 L 179.148438 97.230469 L 177.375 100.296875 Z M 175.148438 107.621094 C 176.027344 108.859375 176.367188 109.125 177.671875 111.003906 L 179.140625 110.5625 L 186.335938 119.722656 C 186.335938 119.722656 188.535156 122.070312 190.828125 117.402344 C 193.117188 112.734375 190.972656 98.613281 190.972656 98.613281 L 189.210938 80.46875 L 188.449219 80.011719 L 180.316406 104.71875 L 179.023438 108.007812 L 178.355469 109.894531 Z M 188.59375 78.707031 L 190.0625 79.941406 L 192.410156 107.246094 C 192.410156 107.246094 193.070312 117.117188 190.886719 119.222656 C 188.699219 121.328125 227.878906 116.875 227.878906 116.875 C 227.878906 116.875 231.046875 113.46875 231.28125 108.359375 C 231.519531 103.253906 230.636719 82.761719 230.636719 82.761719 L 226.351562 80.527344 L 223.152344 80.703125 L 223.414062 82.171875 C 223.414062 82.171875 226.261719 83.964844 226.234375 85.136719 C 226.203125 86.3125 226.585938 86.3125 225.703125 88.484375 C 224.824219 90.65625 224.207031 91.683594 224.148438 93.738281 C 224.089844 95.796875 224.433594 100.304688 224.605469 102.214844 C 224.777344 104.125 223.304688 104.917969 222.652344 106.835938 C 222.300781 107.855469 222.125 107.058594 222.125 107.058594 C 222.125 107.058594 222.066406 105.824219 222.679688 105.035156 C 223.296875 104.242188 223.8125 103.449219 223.898438 103.140625 C 223.988281 102.832031 223.992188 101.949219 223.832031 100.554688 C 223.671875 99.164062 223.550781 95.753906 223.503906 94.28125 C 223.453125 92.8125 224.148438 90.375 224.234375 90.175781 C 224.363281 89.890625 225.070312 88.3125 225.03125 88.363281 C 224.074219 89.632812 223.558594 90.066406 223.488281 90.074219 C 223.488281 90.074219 222.679688 93.667969 222.695312 95.96875 C 222.710938 98.273438 223.054688 101.660156 223.054688 101.660156 C 223.054688 101.660156 223.371094 102.949219 222.796875 103.683594 C 222.226562 104.417969 220.789062 107.132812 220.789062 107.132812 L 218.980469 90.570312 L 207.5625 90.453125 C 207.5625 90.453125 207.121094 93.542969 206.976562 97.183594 C 206.828125 100.824219 207.324219 101.960938 207.324219 101.960938 C 207.324219 101.960938 207.621094 103.488281 207.121094 104.222656 C 206.621094 104.957031 205.359375 107.261719 205.359375 107.261719 L 205.007812 107.320312 C 205.007812 107.320312 205.667969 105.445312 206.371094 104.476562 C 207.074219 103.507812 206.972656 102.832031 206.972656 102.628906 C 206.972656 102.421875 206.488281 98.582031 206.5625 97.582031 C 206.636719 96.585938 207.222656 90.175781 207.222656 90.175781 L 206.929688 90.058594 L 206.019531 90.308594 C 206.019531 90.308594 205.210938 95.089844 205.328125 96.589844 C 205.445312 98.085938 205.800781 101.316406 205.800781 101.316406 C 205.800781 101.316406 206.003906 103.078125 205.566406 104.074219 C 205.125 105.074219 203.804688 107.507812 203.804688 107.507812 L 203.304688 90.039062 C 203.304688 90.039062 202.277344 89.394531 202.246094 85.753906 C 202.21875 82.113281 202.804688 82.40625 202.804688 82.40625 C 202.804688 82.40625 202.980469 79.851562 200.957031 79.589844 C 198.929688 79.324219 193.878906 79.355469 193.878906 79.355469 L 193.46875 78.796875 Z M 193.996094 115.347656 C 193.996094 115.347656 193.527344 117.992188 193 118.695312 C 192.46875 119.398438 225.328125 116.65625 227.171875 115.996094 C 229.019531 115.332031 231.164062 108.066406 230.285156 103.429688 C 229.285156 110.238281 227.703125 113.527344 227.703125 113.527344 L 218.484375 113.996094 L 217.132812 94.5625 C 217.132812 94.5625 217.074219 113.996094 214.253906 114.292969 C 211.4375 114.585938 193.996094 115.347656 193.996094 115.347656 Z M 163.472656 62.117188 L 163.441406 63.585938 L 166.023438 63.601562 L 166.066406 62.175781 L 165.480469 60.796875 L 162.589844 60.828125 L 162.664062 61.972656 L 163.308594 61.296875 L 164.863281 61.398438 L 165.390625 62.25 Z M 162.328125 87.742188 L 162.589844 88.226562 L 165.980469 88.238281 L 166.933594 87.199219 L 166.828125 85.996094 L 166.8125 85.667969 C 166.8125 85.667969 168.527344 77.757812 169.746094 72.511719 C 169.746094 72.507812 169.1875 68.3125 168.277344 66.992188 C 167.367188 65.671875 166.664062 65.585938 166.664062 65.585938 L 171.582031 66.15625 L 171.917969 65.4375 L 172.683594 64.027344 L 173.828125 62.414062 L 175.148438 60.742188 L 181.679688 52.601562 L 178.847656 45.0625 L 176.117188 49.378906 L 172.859375 54.546875 L 166.898438 63.96875 L 166.253906 65.320312 L 166.046875 66.023438 L 165.546875 67.433594 L 163.992188 74.949219 L 163.933594 75.449219 L 163.84375 77.179688 L 163.472656 77.523438 Z M 181.902344 24.335938 L 198.578125 61.679688 L 204.859375 56.921875 L 201.867188 51.523438 L 198.8125 46.414062 C 198.8125 46.414062 196.992188 46.121094 195.816406 43.769531 C 194.644531 41.421875 194.6875 43.296875 193.9375 42.066406 L 188.316406 32.835938 L 186.1875 32 L 182.367188 24.273438 Z M 180.316406 30.265625 L 180.960938 42.246094 L 181.960938 32.4375 L 191.882812 51.050781 L 180.785156 26.566406 L 180.082031 26.917969 Z M 164.566406 60.226562 L 165.722656 60.242188 L 166.632812 61.796875 L 166.589844 62.808594 L 178.449219 43.609375 L 178.363281 34.816406 L 175.132812 40.511719 L 174.5625 44.066406 L 166.476562 55.472656 L 166.199219 56.132812 Z M 164.433594 64.449219 L 163.464844 73.660156 L 164.902344 67.289062 L 165.480469 65.125 L 166.003906 63.949219 L 165.402344 64.46875 Z M 161.871094 74.101562 C 161.871094 74.101562 162.3125 74.4375 163.105469 74.21875 C 163.894531 74 163.148438 74.6875 163.148438 74.6875 L 163.632812 75.378906 L 163.542969 76.976562 L 163.175781 77.210938 L 162.601562 77.1875 L 163.15625 77.429688 L 161.613281 93.007812 C 161.613281 93.007812 161.242188 93.210938 160.699219 93.167969 C 160.15625 93.125 159.789062 92.890625 159.789062 92.890625 L 160.527344 84.785156 L 161.203125 77.0625 L 161.332031 74.917969 L 161.574219 74.722656 L 161.664062 74.179688 Z M 148.316406 96.324219 C 148.316406 96.324219 147.609375 96.617188 147.640625 94.296875 C 147.667969 91.976562 147.960938 86.136719 147.960938 86.136719 L 148.988281 85.3125 L 157.535156 85.488281 L 157.679688 89.894531 C 157.679688 89.894531 158.589844 89.835938 158.589844 90.832031 C 158.589844 91.832031 158.589844 95.914062 158.589844 95.914062 C 158.589844 95.914062 158.707031 96.410156 158.003906 96.382812 C 157.296875 96.351562 148.316406 96.324219 148.316406 96.324219 Z M 147.734375 86.304688 L 147.46875 94.914062 C 147.46875 94.914062 147.46875 95.691406 147.703125 96.128906 C 147.9375 96.570312 147.042969 97.320312 147.042969 97.320312 C 146.890625 97.238281 146.824219 96.550781 146.882812 95.023438 C 146.917969 94.070312 146.871094 92.59375 146.90625 91.066406 C 146.925781 90.152344 147.074219 89.214844 147.074219 89.214844 Z M 147.996094 96.542969 L 147.382812 97.523438 L 147.71875 97.699219 L 155.460938 97.789062 L 156.605469 97.171875 L 159.378906 96.6875 Z M 144.34375 102.554688 L 143.449219 102.539062 L 143.203125 102.90625 L 143.1875 105.871094 L 143.363281 106.03125 L 144.007812 106.105469 L 144.125 106.28125 L 149.183594 107.601562 C 149.453125 107.671875 149.742188 103.464844 149.289062 103.332031 C 147.835938 103.199219 144.609375 102.980469 144.609375 102.980469 Z M 144.34375 102.554688 " fill-opacity="1" fill-rule="evenodd"/><path fill="#000000" d="M 208.824219 60.667969 L 208.429688 88.648438 L 222.816406 88.648438 L 217.082031 61.46875 Z M 207.167969 89.269531 L 207.1875 87.980469 C 208.257812 86.070312 207.652344 84.082031 207.253906 83.160156 L 207.582031 59.96875 L 207.589844 59.289062 L 208.265625 59.351562 L 217.660156 60.261719 L 218.121094 60.308594 L 218.214844 60.761719 L 224.207031 89.148438 L 223.878906 89.464844 L 223.589844 89.90625 L 207.160156 89.90625 Z M 207.167969 89.269531 " fill-opacity="1" fill-rule="nonzero"/><path fill="#000000" d="M 195.410156 62.246094 C 195.519531 62.246094 195.628906 62.269531 195.730469 62.3125 C 195.804688 62.347656 195.875 62.390625 195.945312 62.441406 C 196.171875 62.457031 196.511719 62.445312 197.023438 62.367188 C 197.601562 62.273438 198.394531 62.101562 199.484375 61.789062 C 200.546875 61.484375 201.417969 61.101562 202.125 60.707031 C 202.804688 60.324219 203.328125 59.929688 203.722656 59.578125 C 203.855469 59.277344 204.015625 59.023438 204.191406 58.824219 C 204.386719 58.601562 204.605469 58.449219 204.839844 58.375 C 204.890625 58.363281 204.941406 58.347656 204.996094 58.339844 C 205.046875 58.332031 205.097656 58.328125 205.152344 58.328125 C 205.730469 58.328125 206.238281 58.8125 206.589844 59.59375 C 206.910156 60.316406 207.109375 61.304688 207.109375 62.390625 C 207.109375 63.476562 206.910156 64.46875 206.589844 65.1875 C 206.238281 65.96875 205.730469 66.453125 205.152344 66.453125 C 205.046875 66.453125 204.941406 66.4375 204.835938 66.40625 C 204.746094 66.375 204.660156 66.335938 204.578125 66.285156 C 204.160156 66.167969 203.511719 66.011719 202.761719 65.917969 C 201.996094 65.828125 201.128906 65.800781 200.300781 65.957031 C 199.640625 66.085938 198.960938 66.296875 198.324219 66.539062 C 197.417969 66.882812 196.613281 67.277344 196.101562 67.546875 C 196.007812 67.648438 195.910156 67.730469 195.804688 67.785156 C 195.679688 67.855469 195.546875 67.890625 195.410156 67.890625 C 194.980469 67.890625 194.613281 67.546875 194.363281 66.988281 C 194.140625 66.492188 194.003906 65.8125 194.003906 65.066406 C 194.003906 64.320312 194.140625 63.644531 194.363281 63.148438 C 194.613281 62.589844 194.980469 62.246094 195.410156 62.246094 Z M 195.53125 62.773438 C 195.488281 62.757812 195.449219 62.746094 195.410156 62.746094 C 195.199219 62.746094 194.988281 62.980469 194.820312 63.351562 C 194.625 63.789062 194.507812 64.394531 194.507812 65.066406 C 194.507812 65.742188 194.625 66.347656 194.820312 66.785156 C 194.988281 67.15625 195.199219 67.390625 195.410156 67.390625 C 195.460938 67.390625 195.511719 67.375 195.5625 67.34375 C 195.628906 67.308594 195.691406 67.253906 195.753906 67.183594 L 195.785156 67.144531 L 195.828125 67.121094 C 196.347656 66.847656 197.191406 66.429688 198.148438 66.070312 C 198.804688 65.820312 199.515625 65.597656 200.210938 65.464844 C 201.097656 65.296875 202.015625 65.320312 202.820312 65.421875 C 203.621094 65.519531 204.3125 65.6875 204.746094 65.8125 L 204.78125 65.820312 L 204.8125 65.84375 C 204.871094 65.878906 204.929688 65.90625 204.988281 65.925781 C 205.039062 65.941406 205.09375 65.949219 205.152344 65.949219 C 205.515625 65.949219 205.863281 65.582031 206.128906 64.984375 C 206.425781 64.324219 206.609375 63.410156 206.609375 62.390625 C 206.609375 61.375 206.425781 60.457031 206.128906 59.796875 C 205.863281 59.199219 205.515625 58.832031 205.152344 58.832031 C 205.125 58.832031 205.097656 58.832031 205.070312 58.835938 C 205.042969 58.839844 205.019531 58.847656 204.992188 58.855469 L 204.988281 58.855469 C 204.84375 58.902344 204.703125 59.003906 204.566406 59.15625 C 204.417969 59.324219 204.277344 59.554688 204.15625 59.832031 L 204.136719 59.882812 L 204.097656 59.917969 C 203.675781 60.296875 203.109375 60.726562 202.371094 61.144531 C 201.632812 61.558594 200.726562 61.957031 199.621094 62.273438 C 198.519531 62.585938 197.703125 62.765625 197.097656 62.859375 C 196.480469 62.957031 196.078125 62.964844 195.816406 62.933594 L 195.734375 62.925781 L 195.675781 62.871094 C 195.625 62.828125 195.578125 62.792969 195.53125 62.773438 Z M 195.53125 62.773438 " fill-opacity="1" fill-rule="nonzero"/><path fill="#000000" d="M 196.625 62.347656 C 196.550781 62.324219 196.476562 62.3125 196.398438 62.3125 L 195.496094 62.25 L 195.476562 62.25 L 195.4375 62.246094 L 195.421875 62.246094 L 195.390625 62.746094 L 195.445312 62.75 L 195.480469 62.757812 L 195.515625 62.769531 L 195.558594 62.789062 L 195.597656 62.8125 L 195.632812 62.835938 L 195.679688 62.878906 L 195.742188 62.929688 L 195.820312 62.9375 L 195.921875 62.945312 L 195.933594 62.945312 L 196.011719 62.949219 L 196.210938 62.949219 L 196.289062 62.945312 L 196.296875 62.945312 C 196.371094 62.941406 196.441406 62.9375 196.503906 62.933594 C 196.570312 62.929688 196.648438 62.921875 196.734375 62.910156 L 197.4375 62.832031 L 196.839844 62.449219 C 196.769531 62.40625 196.699219 62.371094 196.625 62.347656 Z M 195.375 67.890625 L 196.304688 67.953125 L 196.328125 67.957031 L 196.390625 67.957031 C 196.527344 67.957031 196.664062 67.921875 196.789062 67.851562 C 196.894531 67.792969 196.992188 67.714844 197.085938 67.613281 C 197.515625 67.386719 198.152344 67.070312 198.875 66.773438 L 198.878906 66.773438 C 199.625 66.46875 200.46875 66.179688 201.285156 66.027344 C 201.519531 65.980469 201.761719 65.949219 202.003906 65.933594 C 202.25 65.914062 202.488281 65.910156 202.722656 65.914062 L 204.894531 65.949219 C 204.863281 65.988281 204.84375 66.0625 204.84375 66.199219 L 204.84375 66.417969 L 205.0625 66.449219 L 205.089844 66.449219 L 206.042969 66.515625 L 206.082031 66.519531 L 206.132812 66.519531 C 206.5 66.519531 206.835938 66.328125 207.121094 65.988281 L 207.84375 66.003906 L 207.175781 65.925781 C 207.324219 65.738281 207.453125 65.511719 207.570312 65.253906 C 207.894531 64.535156 208.09375 63.542969 208.09375 62.457031 C 208.09375 61.382812 207.890625 60.414062 207.566406 59.699219 C 207.207031 58.914062 206.695312 58.414062 206.121094 58.367188 L 206.058594 58.363281 C 205.742188 58.335938 205.558594 58.324219 205.179688 58.328125 L 205.113281 58.328125 L 205.128906 58.832031 L 205.167969 58.832031 C 205.335938 58.835938 205.453125 58.914062 205.523438 58.964844 L 205.546875 58.980469 C 205.847656 59.207031 206.109375 59.652344 206.300781 60.242188 C 206.492188 60.84375 206.609375 61.585938 206.609375 62.390625 C 206.609375 63.203125 206.492188 63.949219 206.292969 64.554688 C 206.121094 65.089844 205.886719 65.507812 205.617188 65.746094 L 202.753906 65.414062 C 202.335938 65.363281 201.882812 65.335938 201.417969 65.34375 C 201.019531 65.351562 200.609375 65.390625 200.210938 65.464844 C 199.523438 65.59375 198.824219 65.8125 198.175781 66.058594 C 197.246094 66.40625 196.417969 66.816406 195.886719 67.09375 L 195.871094 67.097656 L 195.867188 67.101562 L 195.828125 67.121094 L 195.789062 67.144531 L 195.757812 67.175781 L 195.710938 67.226562 L 195.710938 67.230469 L 195.703125 67.238281 L 195.671875 67.265625 L 195.574219 67.339844 L 195.523438 67.363281 L 195.480469 67.378906 L 195.414062 67.390625 L 195.390625 67.390625 Z M 196.335938 67.453125 L 196.292969 67.449219 C 196.4375 67.375 196.601562 67.289062 196.78125 67.203125 L 196.769531 67.210938 L 196.738281 67.25 C 196.675781 67.320312 196.609375 67.378906 196.546875 67.414062 C 196.496094 67.441406 196.441406 67.457031 196.390625 67.457031 L 196.375 67.457031 L 196.347656 67.453125 Z M 206.097656 65.972656 L 206.34375 65.976562 C 206.277344 66.003906 206.203125 66.015625 206.132812 66.015625 L 206.132812 66.019531 L 206.117188 66.015625 L 206.078125 66.015625 L 206.058594 66.011719 Z M 206.554688 65.851562 L 206.226562 65.816406 C 206.441406 65.527344 206.628906 65.148438 206.773438 64.707031 C 206.984375 64.054688 207.109375 63.253906 207.109375 62.390625 C 207.109375 61.535156 206.988281 60.742188 206.777344 60.089844 C 206.617188 59.597656 206.40625 59.179688 206.15625 58.878906 C 206.507812 58.949219 206.84375 59.328125 207.105469 59.90625 C 207.402344 60.558594 207.589844 61.453125 207.589844 62.457031 C 207.589844 63.476562 207.40625 64.390625 207.113281 65.050781 C 206.949219 65.410156 206.761719 65.6875 206.554688 65.851562 Z M 206.554688 65.851562 " fill-opacity="1" fill-rule="nonzero"/><path fill="#f07d05" d="M 196.390625 62.5625 C 196.5 62.5625 196.605469 62.597656 196.707031 62.660156 C 196.546875 62.679688 196.410156 62.691406 196.289062 62.695312 L 196.28125 62.695312 C 196.226562 62.699219 196.175781 62.699219 196.128906 62.699219 L 196.109375 62.699219 C 196.078125 62.699219 196.050781 62.699219 196.019531 62.699219 L 195.945312 62.695312 L 195.84375 62.683594 L 195.792969 62.640625 L 195.738281 62.601562 L 195.675781 62.566406 L 195.605469 62.535156 L 195.542969 62.511719 L 195.460938 62.5 L 195.40625 62.496094 Z M 195.390625 67.640625 L 196.320312 67.703125 C 196.34375 67.707031 196.367188 67.707031 196.390625 67.707031 C 196.585938 67.707031 196.765625 67.601562 196.925781 67.410156 C 197.792969 66.953125 199.570312 66.09375 201.238281 65.777344 C 201.730469 65.683594 202.238281 65.652344 202.726562 65.660156 C 201.957031 65.574219 201.089844 65.554688 200.253906 65.710938 C 198.621094 66.023438 196.882812 66.851562 196 67.316406 L 195.945312 67.34375 L 195.890625 67.40625 L 195.886719 67.40625 L 195.828125 67.464844 L 195.707031 67.550781 L 195.617188 67.597656 L 195.535156 67.625 L 195.4375 67.640625 Z M 205.105469 66.199219 L 206.0625 66.265625 C 206.074219 66.265625 206.085938 66.265625 206.101562 66.269531 C 206.113281 66.269531 206.121094 66.269531 206.132812 66.269531 C 207.078125 66.269531 207.839844 64.5625 207.839844 62.457031 C 207.839844 60.351562 207.042969 58.691406 206.101562 58.617188 C 205.730469 58.589844 205.550781 58.570312 205.125 58.582031 C 205.417969 58.566406 205.597656 58.710938 205.691406 58.773438 C 206.371094 59.28125 206.859375 60.707031 206.859375 62.390625 C 206.859375 64.085938 206.363281 65.523438 205.675781 66.019531 L 205.597656 66.070312 C 205.589844 66.074219 205.582031 66.078125 205.574219 66.085938 L 205.523438 66.109375 L 205.402344 66.160156 L 205.335938 66.179688 L 205.246094 66.195312 C 205.199219 66.199219 205.058594 66.195312 205.105469 66.199219 Z M 205.105469 66.199219 " fill-opacity="1" fill-rule="evenodd"/><path fill="#000000" d="M 195.398438 63.488281 C 195.640625 63.488281 195.835938 64.171875 195.835938 65.015625 C 195.835938 65.859375 195.640625 66.546875 195.398438 66.546875 C 195.15625 66.546875 194.957031 65.859375 194.957031 65.015625 C 194.957031 64.171875 195.15625 63.488281 195.398438 63.488281 Z M 195.398438 63.488281 " fill-opacity="1" fill-rule="evenodd"/><path fill="#000000" d="M 205.230469 60.449219 C 205.601562 60.449219 205.902344 61.289062 205.902344 62.320312 C 205.902344 63.355469 205.601562 64.195312 205.230469 64.195312 C 204.859375 64.195312 204.558594 63.355469 204.558594 62.320312 C 204.558594 61.289062 204.859375 60.449219 205.230469 60.449219 Z M 205.230469 60.449219 " fill-opacity="1" fill-rule="evenodd"/><path fill="#000000" d="M 216.953125 61.390625 C 217.070312 61.304688 217.175781 61.21875 217.277344 61.136719 C 217.359375 61.070312 217.4375 61 217.519531 60.929688 C 217.65625 60.628906 217.816406 60.375 217.992188 60.171875 C 218.1875 59.953125 218.40625 59.800781 218.640625 59.726562 C 218.6875 59.710938 218.742188 59.699219 218.792969 59.691406 C 218.847656 59.683594 218.898438 59.679688 218.949219 59.679688 C 219.53125 59.679688 220.035156 60.164062 220.386719 60.945312 C 220.710938 61.664062 220.910156 62.65625 220.910156 63.742188 C 220.910156 64.828125 220.710938 65.816406 220.386719 66.539062 C 220.035156 67.320312 219.53125 67.804688 218.949219 67.804688 C 218.929688 67.804688 218.90625 67.804688 218.878906 67.800781 C 218.851562 67.800781 218.828125 67.796875 218.804688 67.792969 L 218.644531 67.769531 L 218.597656 67.617188 C 218.300781 66.621094 217.917969 65.324219 217.539062 64.027344 C 217.273438 63.121094 217.03125 62.277344 216.859375 61.660156 L 216.8125 61.492188 Z M 217.59375 61.523438 C 217.527344 61.578125 217.460938 61.632812 217.390625 61.6875 C 217.558594 62.296875 217.78125 63.070312 218.019531 63.886719 C 218.335938 64.96875 218.710938 66.238281 219.027344 67.296875 C 219.363281 67.246094 219.679688 66.886719 219.929688 66.332031 C 220.222656 65.675781 220.40625 64.757812 220.40625 63.742188 C 220.40625 62.722656 220.222656 61.808594 219.929688 61.148438 C 219.660156 60.550781 219.3125 60.183594 218.949219 60.183594 C 218.921875 60.183594 218.894531 60.183594 218.867188 60.1875 C 218.84375 60.191406 218.816406 60.199219 218.789062 60.207031 C 218.644531 60.25 218.5 60.355469 218.367188 60.503906 C 218.214844 60.675781 218.078125 60.90625 217.957031 61.183594 L 217.933594 61.234375 L 217.894531 61.269531 C 217.808594 61.347656 217.707031 61.433594 217.59375 61.523438 Z M 217.59375 61.523438 " fill-opacity="1" fill-rule="nonzero"/><path fill="#000000" d="M 218.902344 67.550781 L 219.859375 67.617188 C 219.875 67.617188 219.886719 67.617188 219.898438 67.617188 C 219.910156 67.617188 219.921875 67.617188 219.933594 67.617188 C 220.875 67.617188 221.640625 65.914062 221.640625 63.808594 C 221.640625 61.703125 220.839844 60.042969 219.898438 59.96875 C 219.53125 59.9375 219.347656 59.921875 218.921875 59.929688 C 219.214844 59.917969 219.394531 60.0625 219.492188 60.125 C 220.167969 60.632812 220.65625 62.058594 220.65625 63.742188 C 220.65625 65.4375 220.160156 66.875 219.472656 67.367188 L 219.398438 67.417969 C 219.390625 67.425781 219.378906 67.429688 219.371094 67.433594 L 219.324219 67.460938 L 219.203125 67.511719 L 219.132812 67.53125 L 219.042969 67.546875 C 218.996094 67.546875 218.855469 67.546875 218.902344 67.550781 Z M 218.902344 67.550781 " fill-opacity="1" fill-rule="evenodd"/><path fill="#000000" d="M 210.964844 63.324219 L 210.789062 86.34375 L 220.007812 86.34375 L 215.664062 63.675781 Z M 215.480469 64.15625 L 215.09375 64.554688 L 218.769531 85.839844 L 219.402344 85.832031 Z M 211.339844 63.714844 L 215.210938 63.941406 L 214.785156 64.382812 L 211.316406 64.175781 Z M 211.339844 63.714844 " fill-opacity="1" fill-rule="evenodd"/><path fill="#000000" d="M 205.988281 82.304688 C 206.300781 82.632812 206.566406 83.085938 206.753906 83.699219 C 206.9375 84.300781 207.042969 85.066406 207.042969 86.019531 C 207.042969 86.984375 206.753906 88.019531 206.347656 88.820312 C 205.90625 89.679688 205.308594 90.28125 204.742188 90.28125 C 203.679688 90.28125 202.816406 88.429688 202.816406 86.148438 L 202.722656 80.945312 L 202.378906 80.207031 L 199.535156 79.097656 L 199.503906 79.085938 L 199.476562 79.0625 L 197.574219 77.632812 C 197.167969 77.394531 196.824219 76.933594 196.585938 76.335938 C 196.363281 75.769531 196.230469 75.078125 196.230469 74.335938 C 196.230469 72.410156 197.382812 70.847656 198.242188 70.847656 C 198.671875 70.847656 199.070312 70.941406 199.410156 71.136719 C 199.734375 71.324219 199.996094 71.601562 200.175781 71.980469 L 200.179688 71.984375 C 200.195312 72.015625 200.28125 72.226562 200.417969 72.542969 C 200.84375 73.550781 201.746094 75.695312 202.347656 76.964844 C 203.121094 78.597656 205.1875 81.230469 205.195312 81.238281 L 205.199219 81.242188 Z M 206.273438 83.84375 C 206.113281 83.304688 205.882812 82.917969 205.617188 82.640625 L 205.59375 82.617188 L 204.796875 81.539062 C 204.699219 81.417969 202.671875 78.824219 201.894531 77.179688 C 201.296875 75.917969 200.382812 73.753906 199.953125 72.738281 C 199.828125 72.4375 199.742188 72.238281 199.722656 72.199219 L 199.722656 72.195312 C 199.589844 71.914062 199.394531 71.707031 199.160156 71.570312 C 198.902344 71.421875 198.589844 71.351562 198.242188 71.351562 C 197.597656 71.351562 196.730469 72.6875 196.730469 74.335938 C 196.730469 75.019531 196.851562 75.644531 197.050781 76.152344 C 197.25 76.648438 197.523438 77.019531 197.835938 77.203125 L 197.988281 77.292969 L 197.984375 77.316406 L 199.746094 78.640625 L 202.652344 79.773438 L 202.746094 79.8125 L 202.789062 79.902344 L 203.199219 80.785156 L 203.222656 80.832031 L 203.222656 80.886719 L 203.320312 86.144531 L 203.320312 86.148438 C 203.320312 88.152344 203.957031 89.777344 204.742188 89.777344 C 205.105469 89.777344 205.542969 89.289062 205.898438 88.59375 C 206.277344 87.859375 206.542969 86.90625 206.542969 86.019531 C 206.542969 85.113281 206.441406 84.398438 206.273438 83.84375 Z M 206.273438 83.84375 " fill-opacity="1" fill-rule="nonzero"/><path fill="#000000" d="M 207.0625 81.902344 C 207.375 82.230469 207.640625 82.679688 207.828125 83.292969 C 208.011719 83.898438 208.117188 84.660156 208.117188 85.617188 C 208.117188 86.507812 207.867188 87.535156 207.550781 88.382812 C 207.15625 89.4375 206.605469 90.234375 206.226562 90.234375 C 205.984375 90.234375 205.726562 90.242188 205.503906 90.25 C 205.105469 90.261719 204.78125 90.269531 204.71875 90.082031 C 204.664062 89.925781 204.714844 89.816406 204.878906 89.761719 L 204.878906 89.757812 C 205.203125 89.648438 205.621094 89.0625 205.960938 88.324219 C 206.296875 87.59375 206.542969 86.730469 206.542969 86.019531 C 206.542969 85.285156 206.445312 84.574219 206.277344 83.976562 C 206.113281 83.386719 205.882812 82.914062 205.617188 82.640625 L 205.535156 82.558594 L 205.535156 82.539062 C 205.15625 82.039062 203.0625 79.242188 202.332031 77.699219 C 201.75 76.472656 200.617188 74.082031 200.054688 72.898438 L 199.726562 72.199219 L 199.722656 72.199219 L 199.722656 72.195312 C 199.316406 71.410156 198.0625 71.367188 198.058594 71.367188 L 196.535156 71.300781 L 198 70.875 C 198.402344 70.757812 198.878906 70.660156 199.28125 70.609375 C 199.683594 70.558594 200.03125 70.554688 200.203125 70.625 C 200.253906 70.644531 200.277344 70.65625 200.300781 70.664062 C 200.570312 70.761719 200.875 70.871094 201.175781 71.429688 L 201.179688 71.429688 L 201.25 71.574219 L 201.25 71.582031 L 201.253906 71.582031 L 201.582031 72.277344 C 202.144531 73.464844 203.273438 75.855469 203.855469 77.082031 C 204.613281 78.683594 206.917969 81.714844 207.0625 81.902344 Z M 207.347656 83.4375 C 207.183594 82.902344 206.957031 82.511719 206.6875 82.238281 L 206.605469 82.15625 L 206.609375 82.136719 C 206.226562 81.632812 204.132812 78.839844 203.402344 77.296875 C 202.820312 76.066406 201.691406 73.679688 201.128906 72.492188 L 200.863281 71.933594 L 200.796875 71.789062 C 200.558594 71.289062 200.332031 71.207031 200.132812 71.136719 C 200.082031 71.117188 200.039062 71.101562 200.015625 71.09375 C 199.929688 71.054688 199.667969 71.066406 199.34375 71.109375 C 199.300781 71.113281 199.253906 71.121094 199.207031 71.128906 C 199.539062 71.269531 199.871094 71.492188 200.09375 71.835938 L 200.109375 71.835938 L 200.175781 71.980469 L 200.179688 71.984375 L 200.511719 72.683594 C 201.070312 73.871094 202.203125 76.257812 202.785156 77.484375 C 203.542969 79.085938 205.847656 82.121094 205.988281 82.304688 C 206.308594 82.640625 206.574219 83.183594 206.761719 83.839844 C 206.9375 84.480469 207.042969 85.234375 207.042969 86.019531 C 207.042969 86.808594 206.777344 87.746094 206.417969 88.535156 C 206.199219 89.007812 205.9375 89.433594 205.671875 89.742188 C 205.875 89.738281 206.082031 89.730469 206.226562 89.730469 C 206.394531 89.730469 206.753906 89.074219 207.082031 88.207031 C 207.378906 87.410156 207.613281 86.445312 207.613281 85.617188 C 207.613281 84.707031 207.515625 83.996094 207.347656 83.4375 Z M 207.347656 83.4375 " fill-opacity="1" fill-rule="nonzero"/><path fill="#000000" d="M 198.847656 72.382812 C 199.25 72.511719 199.316406 73.429688 198.996094 74.433594 C 198.675781 75.4375 198.09375 76.148438 197.691406 76.019531 C 197.289062 75.894531 197.222656 74.976562 197.542969 73.972656 C 197.863281 72.96875 198.445312 72.257812 198.847656 72.382812 Z M 198.847656 72.382812 " fill-opacity="1" fill-rule="evenodd"/><path fill="#000000" d="M 204.984375 83.394531 C 205.539062 83.40625 205.957031 84.542969 205.921875 85.929688 C 205.886719 87.3125 205.40625 88.425781 204.851562 88.410156 C 204.296875 88.394531 203.878906 87.261719 203.914062 85.875 C 203.953125 84.488281 204.429688 83.378906 204.984375 83.394531 Z M 204.984375 83.394531 " fill-opacity="1" fill-rule="evenodd"/><path fill="#c6c6c6" d="M 198.136719 44.210938 C 198.136719 44.210938 198.105469 43.039062 198.519531 42.832031 C 198.929688 42.625 199.457031 42.363281 199.691406 42.449219 C 199.925781 42.539062 211.320312 59.476562 211.320312 59.476562 L 208.234375 59.039062 Z M 198.136719 44.210938 " fill-opacity="1" fill-rule="evenodd"/><path fill="#c6c6c6" d="M 161.960938 73.894531 C 161.960938 73.894531 162.328125 74.234375 162.988281 74.027344 C 163.03125 71.179688 164.074219 64.011719 164.074219 64.011719 L 163.117188 63.980469 L 163.03125 63.761719 Z M 161.960938 73.894531 " fill-opacity="1" fill-rule="evenodd"/><path fill="#c6c6c6" d="M 172.84375 64.796875 L 171.640625 67.238281 L 170.75 74.300781 C 170.75 74.300781 171.023438 74.511719 171.15625 74.527344 C 171.289062 74.542969 171.699219 74.441406 171.699219 74.441406 Z M 172.84375 64.796875 " fill-opacity="1" fill-rule="evenodd"/><path fill="#c6c6c6" d="M 173.828125 76.976562 L 180.671875 77.332031 C 181.234375 77.359375 181.660156 77.792969 181.695312 78.355469 L 182.167969 85.605469 L 180.484375 92.664062 L 174.898438 92.507812 C 174.335938 92.492188 173.808594 91.648438 173.777344 91.085938 L 173.074219 78.003906 C 173.042969 77.441406 173.265625 76.949219 173.828125 76.976562 Z M 173.828125 76.976562 " fill-opacity="1" fill-rule="evenodd"/><path fill="#c6c6c6" d="M 149.605469 99.792969 C 149.605469 99.792969 149.714844 99.691406 149.847656 100.375 L 157.554688 100.375 C 157.480469 99.988281 157.378906 99.949219 157.171875 99.703125 C 157.171875 99.703125 149.605469 99.792969 149.605469 99.792969 Z M 149.945312 100.933594 C 149.984375 101.148438 150.019531 101.382812 150.054688 101.632812 L 157.753906 101.632812 C 157.722656 101.402344 157.691406 101.167969 157.652344 100.933594 Z M 150.125 102.191406 C 150.140625 102.335938 150.15625 102.484375 150.171875 102.640625 L 157.855469 102.640625 C 157.84375 102.492188 157.832031 102.339844 157.816406 102.191406 Z M 150.21875 103.199219 C 150.230469 103.382812 150.242188 103.578125 150.253906 103.773438 L 157.917969 103.773438 C 157.914062 103.582031 157.90625 103.390625 157.894531 103.199219 Z M 150.273438 104.328125 C 150.277344 104.640625 150.277344 104.957031 150.273438 105.28125 L 157.917969 105.28125 C 157.925781 104.972656 157.929688 104.65625 157.929688 104.328125 Z M 150.25 105.839844 C 150.238281 106.113281 150.214844 106.386719 150.191406 106.664062 L 157.832031 106.664062 C 157.855469 106.402344 157.875 106.125 157.890625 105.839844 Z M 150.125 107.222656 C 150.101562 107.414062 150.070312 107.605469 150.039062 107.796875 L 157.699219 107.796875 C 157.726562 107.613281 157.75 107.421875 157.773438 107.222656 Z M 149.933594 108.355469 C 149.886719 108.589844 149.832031 108.824219 149.769531 109.054688 L 157.484375 109.054688 C 157.527344 108.851562 157.570312 108.617188 157.613281 108.355469 Z M 149.609375 109.613281 C 149.570312 109.734375 149.324219 110.53125 149.285156 110.652344 C 149.285156 110.652344 156.988281 110.605469 156.988281 110.605469 C 156.988281 110.605469 157.304688 109.847656 157.363281 109.613281 Z M 149.609375 109.613281 " fill-opacity="1" fill-rule="evenodd"/><path fill="#ffffff" d="M 173.410156 84.238281 C 173.769531 83.609375 174.484375 82.453125 174.8125 81.828125 C 175.523438 80.472656 176.304688 78.164062 177.734375 77.179688 L 180.671875 77.332031 C 181.234375 77.359375 181.660156 77.792969 181.695312 78.355469 L 181.769531 79.488281 C 181.488281 79.808594 181.203125 80.222656 180.976562 80.773438 C 180.460938 82.019531 177.390625 82.5625 176.394531 84.707031 C 175.894531 85.789062 174.472656 86.214844 173.554688 86.957031 Z M 173.597656 87.726562 C 174.117188 87.519531 174.769531 87.160156 175.015625 86.9375 C 176.675781 85.449219 179.507812 84.769531 181.210938 83.738281 C 181.523438 83.546875 181.789062 83.410156 182.019531 83.316406 L 182.101562 84.617188 C 182.035156 84.667969 181.960938 84.714844 181.886719 84.765625 C 178.96875 86.640625 176.511719 88.839844 174.136719 91.398438 C 174.0625 91.480469 173.988281 91.554688 173.917969 91.621094 C 173.835938 91.4375 173.785156 91.25 173.777344 91.085938 Z M 173.597656 87.726562 " fill-opacity="1" fill-rule="evenodd"/><g fill="#000000" fill-opacity="1"><g transform="translate(145.618919, 150.675619)"><g><path d="M 0.984375 -2.734375 L 2.9375 -3.265625 L 2.9375 -13.453125 C 2.9375 -13.910156 2.898438 -14.210938 2.828125 -14.359375 C 2.765625 -14.515625 2.578125 -14.65625 2.265625 -14.78125 L 0.875 -15.5625 L 1.046875 -17.71875 C 2.398438 -17.9375 3.679688 -18.09375 4.890625 -18.1875 C 6.097656 -18.289062 7.398438 -18.34375 8.796875 -18.34375 C 10.722656 -18.34375 12.269531 -18.132812 13.4375 -17.71875 C 14.601562 -17.3125 15.457031 -16.671875 16 -15.796875 C 16.539062 -14.921875 16.8125 -13.765625 16.8125 -12.328125 C 16.8125 -10.453125 16.140625 -8.976562 14.796875 -7.90625 C 13.453125 -6.84375 11.613281 -6.3125 9.28125 -6.3125 L 7.8125 -6.359375 L 7.8125 -4.328125 C 7.8125 -3.898438 7.84375 -3.625 7.90625 -3.5 C 7.96875 -3.375 8.125 -3.25 8.375 -3.125 L 10 -2.171875 L 9.890625 0 L 1.125 0 Z M 9.515625 -9.28125 C 10.484375 -9.28125 11.1875 -9.378906 11.625 -9.578125 C 11.820312 -10.441406 11.921875 -11.359375 11.921875 -12.328125 C 11.921875 -13.378906 11.71875 -14.125 11.3125 -14.5625 C 10.914062 -15.007812 10.273438 -15.234375 9.390625 -15.234375 C 9.078125 -15.234375 8.550781 -15.195312 7.8125 -15.125 L 7.8125 -9.4375 C 8.289062 -9.332031 8.859375 -9.28125 9.515625 -9.28125 Z M 9.515625 -9.28125 "/></g></g></g><g fill="#000000" fill-opacity="1"><g transform="translate(161.815449, 150.675619)"><g><path d="M 9.109375 0.40625 C 6.398438 0.40625 4.316406 -0.421875 2.859375 -2.078125 C 1.398438 -3.742188 0.671875 -6.085938 0.671875 -9.109375 C 0.671875 -11.035156 1.019531 -12.695312 1.71875 -14.09375 C 2.425781 -15.5 3.445312 -16.570312 4.78125 -17.3125 C 6.125 -18.050781 7.710938 -18.421875 9.546875 -18.421875 C 11.628906 -18.421875 13.773438 -17.945312 15.984375 -17 C 15.828125 -15.394531 15.570312 -13.625 15.21875 -11.6875 L 13.1875 -11.546875 L 11.328125 -14.25 C 10.546875 -14.476562 9.679688 -14.59375 8.734375 -14.59375 C 8.023438 -14.59375 7.347656 -14.53125 6.703125 -14.40625 C 6.421875 -13.851562 6.191406 -13.125 6.015625 -12.21875 C 5.835938 -11.3125 5.75 -10.394531 5.75 -9.46875 C 5.75 -7.488281 6.109375 -6.019531 6.828125 -5.0625 C 7.546875 -4.113281 8.691406 -3.617188 10.265625 -3.578125 C 10.890625 -3.578125 11.675781 -3.671875 12.625 -3.859375 C 13.582031 -4.046875 14.515625 -4.289062 15.421875 -4.59375 L 16.25 -1.65625 C 15.320312 -1.050781 14.203125 -0.554688 12.890625 -0.171875 C 11.585938 0.210938 10.328125 0.40625 9.109375 0.40625 Z M 9.109375 0.40625 "/></g></g></g><g fill="#000000" fill-opacity="1"><g transform="translate(177.905074, 150.675619)"><g><path d="M 0.421875 -2.375 L 1.25 -2.890625 L 7.515625 -18.046875 L 12.0625 -18.453125 L 17.40625 -4.015625 C 17.582031 -3.546875 17.707031 -3.238281 17.78125 -3.09375 C 17.851562 -2.957031 17.984375 -2.765625 18.171875 -2.515625 L 18.65625 -1.890625 L 18.5 0 L 10.984375 0 L 10.71875 -2.546875 L 12.625 -3.015625 L 11.765625 -5.71875 L 6.34375 -5.640625 L 5.75 -3.953125 C 5.695312 -3.796875 5.671875 -3.664062 5.671875 -3.5625 C 5.671875 -3.4375 5.691406 -3.34375 5.734375 -3.28125 C 5.773438 -3.21875 5.851562 -3.164062 5.96875 -3.125 L 7.8125 -2.359375 L 7.546875 0 L 0.53125 0 Z M 9.171875 -13.875 L 7.40625 -8.734375 L 10.859375 -8.578125 Z M 9.171875 -13.875 "/></g></g></g><g fill="#000000" fill-opacity="1"><g transform="translate(195.838916, 150.675619)"><g><path d="M 0.984375 -2.734375 L 2.9375 -3.265625 L 2.9375 -13.453125 C 2.9375 -13.910156 2.898438 -14.210938 2.828125 -14.359375 C 2.765625 -14.515625 2.578125 -14.65625 2.265625 -14.78125 L 0.875 -15.5625 L 1.046875 -17.75 C 3.710938 -18.144531 6.285156 -18.34375 8.765625 -18.34375 C 10.691406 -18.34375 12.242188 -18.148438 13.421875 -17.765625 C 14.597656 -17.378906 15.457031 -16.78125 16 -15.96875 C 16.539062 -15.15625 16.8125 -14.082031 16.8125 -12.75 C 16.8125 -11.644531 16.523438 -10.675781 15.953125 -9.84375 C 15.390625 -9.019531 14.582031 -8.382812 13.53125 -7.9375 L 17.8125 -1.046875 L 17.78125 0 L 12.90625 0 L 8.953125 -7.140625 L 7.78125 -7.171875 L 7.78125 -4.171875 C 7.78125 -3.742188 7.8125 -3.472656 7.875 -3.359375 C 7.9375 -3.242188 8.09375 -3.113281 8.34375 -2.96875 L 9.484375 -2.296875 L 9.390625 0 L 1.125 0 Z M 9.484375 -10.15625 C 10.429688 -10.15625 11.128906 -10.242188 11.578125 -10.421875 C 11.753906 -11.066406 11.84375 -11.832031 11.84375 -12.71875 C 11.84375 -13.613281 11.648438 -14.25 11.265625 -14.625 C 10.878906 -15 10.242188 -15.1875 9.359375 -15.1875 C 8.859375 -15.1875 8.347656 -15.160156 7.828125 -15.109375 L 7.828125 -10.3125 C 8.296875 -10.207031 8.847656 -10.15625 9.484375 -10.15625 Z M 9.484375 -10.15625 "/></g></g></g><g fill="#000000" fill-opacity="1"><g transform="translate(212.757099, 150.675619)"><g><path d="M 0.71875 -2.734375 L 2.671875 -3.265625 L 2.671875 -13.5 C 2.671875 -13.96875 2.632812 -14.273438 2.5625 -14.421875 C 2.488281 -14.578125 2.300781 -14.71875 2 -14.84375 L 0.671875 -15.609375 L 0.75 -18.015625 L 15.265625 -18.015625 C 15.390625 -16.148438 15.453125 -14.320312 15.453125 -12.53125 L 13.46875 -12.40625 L 11.578125 -14.75 L 7.546875 -14.859375 L 7.546875 -10.5 L 13.234375 -10.984375 L 13.234375 -6.875 L 7.546875 -7.484375 L 7.546875 -3.1875 L 11.984375 -3.265625 L 14.03125 -5.609375 L 16.015625 -5.484375 C 15.941406 -3.609375 15.804688 -1.78125 15.609375 0 L 0.859375 0 Z M 0.71875 -2.734375 "/></g></g></g><g fill="#703900" fill-opacity="1"><g transform="translate(101.840103, 166.568803)"><g><path d="M 2.4375 0.109375 C 1.71875 0.109375 0.992188 0 0.265625 -0.21875 C 0.296875 -0.851562 0.347656 -1.445312 0.421875 -2 L 1.171875 -2.140625 L 1.65625 -1.3125 C 2.039062 -1.175781 2.382812 -1.109375 2.6875 -1.109375 C 2.789062 -1.109375 3.007812 -1.140625 3.34375 -1.203125 C 3.351562 -1.328125 3.359375 -1.414062 3.359375 -1.46875 C 3.359375 -1.613281 3.332031 -1.726562 3.28125 -1.8125 C 3.226562 -1.894531 3.113281 -1.984375 2.9375 -2.078125 C 2.769531 -2.179688 2.457031 -2.332031 2 -2.53125 C 1.445312 -2.800781 1.046875 -3.09375 0.796875 -3.40625 C 0.554688 -3.726562 0.4375 -4.101562 0.4375 -4.53125 C 0.4375 -5.1875 0.660156 -5.703125 1.109375 -6.078125 C 1.566406 -6.453125 2.1875 -6.640625 2.96875 -6.640625 C 3.351562 -6.640625 3.734375 -6.601562 4.109375 -6.53125 C 4.484375 -6.457031 4.816406 -6.359375 5.109375 -6.234375 C 5.085938 -5.867188 5.054688 -5.414062 5.015625 -4.875 L 4.984375 -4.46875 L 4.28125 -4.359375 L 3.546875 -5.296875 C 3.316406 -5.367188 3.023438 -5.40625 2.671875 -5.40625 C 2.453125 -5.40625 2.285156 -5.382812 2.171875 -5.34375 C 2.140625 -5.21875 2.125 -5.117188 2.125 -5.046875 C 2.125 -4.898438 2.160156 -4.773438 2.234375 -4.671875 C 2.304688 -4.566406 2.429688 -4.457031 2.609375 -4.34375 C 2.796875 -4.226562 3.066406 -4.085938 3.421875 -3.921875 C 3.929688 -3.679688 4.316406 -3.46875 4.578125 -3.28125 C 4.847656 -3.09375 5.035156 -2.894531 5.140625 -2.6875 C 5.253906 -2.488281 5.3125 -2.242188 5.3125 -1.953125 C 5.3125 -1.304688 5.054688 -0.800781 4.546875 -0.4375 C 4.035156 -0.0703125 3.332031 0.109375 2.4375 0.109375 Z M 2.4375 0.109375 "/></g></g></g><g fill="#703900" fill-opacity="1"><g transform="translate(109.389042, 166.568803)"><g><path d="M 0.15625 -0.859375 L 0.453125 -1.046875 L 2.71875 -6.53125 L 4.375 -6.6875 L 6.3125 -1.453125 C 6.375 -1.285156 6.414062 -1.175781 6.4375 -1.125 C 6.46875 -1.070312 6.519531 -1 6.59375 -0.90625 L 6.765625 -0.6875 L 6.703125 0 L 3.984375 0 L 3.890625 -0.921875 L 4.578125 -1.09375 L 4.265625 -2.078125 L 2.296875 -2.046875 L 2.078125 -1.4375 C 2.054688 -1.375 2.046875 -1.320312 2.046875 -1.28125 C 2.046875 -1.238281 2.054688 -1.207031 2.078125 -1.1875 C 2.097656 -1.164062 2.125 -1.148438 2.15625 -1.140625 L 2.828125 -0.859375 L 2.734375 0 L 0.1875 0 Z M 3.328125 -5.03125 L 2.6875 -3.171875 L 3.9375 -3.109375 Z M 3.328125 -5.03125 "/></g></g></g><g fill="#703900" fill-opacity="1"><g transform="translate(118.30413, 166.568803)"><g><path d="M 0.359375 -0.984375 L 1.0625 -1.1875 L 1.0625 -4.875 C 1.0625 -5.039062 1.046875 -5.148438 1.015625 -5.203125 C 0.992188 -5.265625 0.929688 -5.316406 0.828125 -5.359375 L 0.3125 -5.640625 L 0.375 -6.421875 C 0.863281 -6.492188 1.328125 -6.546875 1.765625 -6.578125 C 2.210938 -6.617188 2.6875 -6.640625 3.1875 -6.640625 C 3.882812 -6.640625 4.441406 -6.566406 4.859375 -6.421875 C 5.285156 -6.273438 5.597656 -6.039062 5.796875 -5.71875 C 5.992188 -5.40625 6.09375 -4.988281 6.09375 -4.46875 C 6.09375 -3.789062 5.847656 -3.253906 5.359375 -2.859375 C 4.867188 -2.472656 4.203125 -2.28125 3.359375 -2.28125 L 2.828125 -2.3125 L 2.828125 -1.5625 C 2.828125 -1.414062 2.835938 -1.316406 2.859375 -1.265625 C 2.878906 -1.222656 2.9375 -1.179688 3.03125 -1.140625 L 3.625 -0.78125 L 3.578125 0 L 0.40625 0 Z M 3.453125 -3.359375 C 3.796875 -3.359375 4.050781 -3.394531 4.21875 -3.46875 C 4.289062 -3.78125 4.328125 -4.113281 4.328125 -4.46875 C 4.328125 -4.84375 4.253906 -5.109375 4.109375 -5.265625 C 3.960938 -5.429688 3.726562 -5.515625 3.40625 -5.515625 C 3.289062 -5.515625 3.097656 -5.503906 2.828125 -5.484375 L 2.828125 -3.421875 C 3.003906 -3.378906 3.210938 -3.359375 3.453125 -3.359375 Z M 3.453125 -3.359375 "/></g></g></g><g fill="#703900" fill-opacity="1"><g transform="translate(126.589435, 166.568803)"><g/></g></g><g fill="#703900" fill-opacity="1"><g transform="translate(130.601892, 166.568803)"><g><path d="M 2.4375 0.109375 C 1.71875 0.109375 0.992188 0 0.265625 -0.21875 C 0.296875 -0.851562 0.347656 -1.445312 0.421875 -2 L 1.171875 -2.140625 L 1.65625 -1.3125 C 2.039062 -1.175781 2.382812 -1.109375 2.6875 -1.109375 C 2.789062 -1.109375 3.007812 -1.140625 3.34375 -1.203125 C 3.351562 -1.328125 3.359375 -1.414062 3.359375 -1.46875 C 3.359375 -1.613281 3.332031 -1.726562 3.28125 -1.8125 C 3.226562 -1.894531 3.113281 -1.984375 2.9375 -2.078125 C 2.769531 -2.179688 2.457031 -2.332031 2 -2.53125 C 1.445312 -2.800781 1.046875 -3.09375 0.796875 -3.40625 C 0.554688 -3.726562 0.4375 -4.101562 0.4375 -4.53125 C 0.4375 -5.1875 0.660156 -5.703125 1.109375 -6.078125 C 1.566406 -6.453125 2.1875 -6.640625 2.96875 -6.640625 C 3.351562 -6.640625 3.734375 -6.601562 4.109375 -6.53125 C 4.484375 -6.457031 4.816406 -6.359375 5.109375 -6.234375 C 5.085938 -5.867188 5.054688 -5.414062 5.015625 -4.875 L 4.984375 -4.46875 L 4.28125 -4.359375 L 3.546875 -5.296875 C 3.316406 -5.367188 3.023438 -5.40625 2.671875 -5.40625 C 2.453125 -5.40625 2.285156 -5.382812 2.171875 -5.34375 C 2.140625 -5.21875 2.125 -5.117188 2.125 -5.046875 C 2.125 -4.898438 2.160156 -4.773438 2.234375 -4.671875 C 2.304688 -4.566406 2.429688 -4.457031 2.609375 -4.34375 C 2.796875 -4.226562 3.066406 -4.085938 3.421875 -3.921875 C 3.929688 -3.679688 4.316406 -3.46875 4.578125 -3.28125 C 4.847656 -3.09375 5.035156 -2.894531 5.140625 -2.6875 C 5.253906 -2.488281 5.3125 -2.242188 5.3125 -1.953125 C 5.3125 -1.304688 5.054688 -0.800781 4.546875 -0.4375 C 4.035156 -0.0703125 3.332031 0.109375 2.4375 0.109375 Z M 2.4375 0.109375 "/></g></g></g><g fill="#703900" fill-opacity="1"><g transform="translate(138.15083, 166.568803)"><g><path d="M 1.734375 2.21875 C 1.265625 1.90625 0.851562 1.503906 0.5 1.015625 L 1.5625 -0.03125 L 0.171875 -3.734375 C 0.0976562 -3.910156 0.046875 -4.023438 0.015625 -4.078125 C -0.00390625 -4.128906 -0.0507812 -4.203125 -0.125 -4.296875 L -0.296875 -4.5 L -0.234375 -5.0625 L 2.234375 -5.0625 L 2.328125 -4.25 L 1.765625 -4.109375 L 2.5625 -1.671875 L 3.453125 -3.90625 C 3.472656 -3.945312 3.484375 -3.972656 3.484375 -3.984375 C 3.484375 -4.046875 3.457031 -4.085938 3.40625 -4.109375 L 2.9375 -4.296875 L 3.03125 -5.0625 L 4.875 -5.0625 L 4.953125 -4.28125 L 3.71875 -1.578125 C 3.269531 -0.597656 2.898438 0.164062 2.609375 0.71875 C 2.316406 1.269531 2.023438 1.769531 1.734375 2.21875 Z M 1.734375 2.21875 "/></g></g></g><g fill="#703900" fill-opacity="1"><g transform="translate(145.37034, 166.568803)"><g><path d="M 2.046875 0.171875 C 1.535156 0.171875 0.941406 0.078125 0.265625 -0.109375 C 0.304688 -0.742188 0.347656 -1.210938 0.390625 -1.515625 L 0.953125 -1.625 L 1.5625 -0.96875 C 1.769531 -0.90625 2.007812 -0.875 2.28125 -0.875 C 2.425781 -0.875 2.539062 -0.882812 2.625 -0.90625 C 2.644531 -0.957031 2.65625 -1.023438 2.65625 -1.109375 C 2.65625 -1.191406 2.632812 -1.257812 2.59375 -1.3125 C 2.5625 -1.363281 2.484375 -1.421875 2.359375 -1.484375 C 2.234375 -1.554688 2.019531 -1.671875 1.71875 -1.828125 C 1.34375 -2.023438 1.050781 -2.203125 0.84375 -2.359375 C 0.644531 -2.515625 0.503906 -2.675781 0.421875 -2.84375 C 0.335938 -3.007812 0.296875 -3.210938 0.296875 -3.453125 C 0.296875 -3.960938 0.484375 -4.367188 0.859375 -4.671875 C 1.242188 -4.984375 1.769531 -5.140625 2.4375 -5.140625 C 2.707031 -5.140625 2.988281 -5.109375 3.28125 -5.046875 C 3.582031 -4.984375 3.851562 -4.898438 4.09375 -4.796875 C 4.09375 -4.378906 4.066406 -3.910156 4.015625 -3.390625 L 3.5 -3.3125 L 2.859375 -4.015625 C 2.691406 -4.066406 2.445312 -4.09375 2.125 -4.09375 C 2.070312 -4.09375 1.96875 -4.082031 1.8125 -4.0625 C 1.789062 -4.03125 1.78125 -3.972656 1.78125 -3.890625 C 1.78125 -3.796875 1.804688 -3.710938 1.859375 -3.640625 C 1.910156 -3.578125 2 -3.503906 2.125 -3.421875 C 2.257812 -3.335938 2.472656 -3.222656 2.765625 -3.078125 C 3.191406 -2.867188 3.515625 -2.6875 3.734375 -2.53125 C 3.953125 -2.382812 4.101562 -2.234375 4.1875 -2.078125 C 4.28125 -1.921875 4.328125 -1.734375 4.328125 -1.515625 C 4.328125 -0.984375 4.125 -0.566406 3.71875 -0.265625 C 3.3125 0.0234375 2.753906 0.171875 2.046875 0.171875 Z M 2.046875 0.171875 "/></g></g></g><g fill="#703900" fill-opacity="1"><g transform="translate(151.853493, 166.568803)"><g><path d="M 2.15625 0.125 C 1.582031 0.125 1.160156 -0.015625 0.890625 -0.296875 C 0.617188 -0.578125 0.484375 -1.003906 0.484375 -1.578125 L 0.484375 -3.9375 L -0.1875 -3.9375 L -0.1875 -4.640625 L 1.546875 -6.234375 L 2.109375 -6.15625 L 2.109375 -5.0625 L 3.734375 -5.0625 L 3.734375 -3.921875 L 2.109375 -3.921875 L 2.109375 -1.921875 C 2.109375 -1.617188 2.148438 -1.414062 2.234375 -1.3125 C 2.328125 -1.207031 2.5 -1.15625 2.75 -1.15625 C 2.96875 -1.15625 3.265625 -1.179688 3.640625 -1.234375 L 3.765625 -0.25 C 3.523438 -0.144531 3.257812 -0.0546875 2.96875 0.015625 C 2.6875 0.0859375 2.414062 0.125 2.15625 0.125 Z M 2.15625 0.125 "/></g></g></g><g fill="#703900" fill-opacity="1"><g transform="translate(157.900639, 166.568803)"><g><path d="M 2.515625 0.109375 C 1.753906 0.109375 1.164062 -0.117188 0.75 -0.578125 C 0.34375 -1.035156 0.140625 -1.664062 0.140625 -2.46875 C 0.140625 -3.03125 0.238281 -3.515625 0.4375 -3.921875 C 0.644531 -4.328125 0.929688 -4.632812 1.296875 -4.84375 C 1.660156 -5.050781 2.09375 -5.15625 2.59375 -5.15625 C 3.320312 -5.15625 3.878906 -4.921875 4.265625 -4.453125 C 4.660156 -3.992188 4.847656 -3.335938 4.828125 -2.484375 L 1.875 -1.9375 C 1.96875 -1.664062 2.097656 -1.46875 2.265625 -1.34375 C 2.429688 -1.21875 2.648438 -1.15625 2.921875 -1.15625 C 3.109375 -1.15625 3.328125 -1.179688 3.578125 -1.234375 C 3.835938 -1.285156 4.101562 -1.363281 4.375 -1.46875 L 4.59375 -0.5 C 4.351562 -0.320312 4.039062 -0.175781 3.65625 -0.0625 C 3.28125 0.0507812 2.898438 0.109375 2.515625 0.109375 Z M 3.234375 -3.296875 C 3.222656 -3.535156 3.15625 -3.710938 3.03125 -3.828125 C 2.90625 -3.941406 2.726562 -4 2.5 -4 C 2.3125 -4 2.132812 -3.972656 1.96875 -3.921875 C 1.832031 -3.609375 1.769531 -3.265625 1.78125 -2.890625 Z M 3.234375 -3.296875 "/></g></g></g><g fill="#703900" fill-opacity="1"><g transform="translate(164.965125, 166.568803)"><g><path d="M 0.25 -0.921875 L 0.859375 -1.09375 L 0.859375 -3.453125 C 0.859375 -3.585938 0.847656 -3.675781 0.828125 -3.71875 C 0.804688 -3.757812 0.753906 -3.804688 0.671875 -3.859375 L 0.234375 -4.09375 L 0.265625 -4.828125 L 0.53125 -4.875 C 1.320312 -5.03125 1.910156 -5.117188 2.296875 -5.140625 C 2.347656 -5.003906 2.390625 -4.863281 2.421875 -4.71875 C 2.765625 -4.875 3.0625 -4.984375 3.3125 -5.046875 C 3.5625 -5.117188 3.789062 -5.15625 4 -5.15625 C 4.25 -5.15625 4.484375 -5.109375 4.703125 -5.015625 C 4.921875 -4.921875 5.085938 -4.800781 5.203125 -4.65625 C 5.566406 -4.832031 5.894531 -4.957031 6.1875 -5.03125 C 6.488281 -5.113281 6.769531 -5.15625 7.03125 -5.15625 C 7.5625 -5.15625 7.953125 -5.003906 8.203125 -4.703125 C 8.453125 -4.398438 8.578125 -3.941406 8.578125 -3.328125 L 8.578125 -1.421875 C 8.578125 -1.273438 8.585938 -1.179688 8.609375 -1.140625 C 8.628906 -1.097656 8.6875 -1.050781 8.78125 -1 L 9.234375 -0.71875 L 9.203125 0 L 6.5625 0 L 6.515625 -0.921875 L 6.984375 -1.0625 L 6.984375 -2.890625 C 6.984375 -3.160156 6.972656 -3.351562 6.953125 -3.46875 C 6.941406 -3.59375 6.890625 -3.6875 6.796875 -3.75 C 6.710938 -3.820312 6.5625 -3.859375 6.34375 -3.859375 C 6.175781 -3.859375 5.894531 -3.832031 5.5 -3.78125 C 5.507812 -3.675781 5.515625 -3.523438 5.515625 -3.328125 L 5.515625 -1.421875 C 5.515625 -1.273438 5.523438 -1.179688 5.546875 -1.140625 C 5.566406 -1.097656 5.625 -1.050781 5.71875 -1 L 6.203125 -0.71875 L 6.15625 0 L 3.5 0 L 3.453125 -0.921875 L 3.921875 -1.0625 L 3.921875 -2.890625 C 3.921875 -3.171875 3.910156 -3.367188 3.890625 -3.484375 C 3.878906 -3.609375 3.828125 -3.703125 3.734375 -3.765625 C 3.648438 -3.828125 3.503906 -3.859375 3.296875 -3.859375 C 3.066406 -3.859375 2.789062 -3.832031 2.46875 -3.78125 L 2.46875 -1.421875 C 2.46875 -1.273438 2.476562 -1.179688 2.5 -1.140625 C 2.519531 -1.097656 2.570312 -1.050781 2.65625 -1 L 3.125 -0.71875 L 3.09375 0 L 0.296875 0 Z M 0.25 -0.921875 "/></g></g></g><g fill="#703900" fill-opacity="1"><g transform="translate(176.321834, 166.568803)"><g/></g></g><g fill="#703900" fill-opacity="1"><g transform="translate(180.334295, 166.568803)"><g><path d="M 0.265625 -0.984375 L 0.96875 -1.1875 L 0.96875 -4.890625 C 0.96875 -5.054688 0.953125 -5.164062 0.921875 -5.21875 C 0.898438 -5.28125 0.832031 -5.332031 0.71875 -5.375 L 0.234375 -5.65625 L 0.265625 -6.53125 L 5.53125 -6.53125 C 5.570312 -5.851562 5.59375 -5.191406 5.59375 -4.546875 L 4.875 -4.5 L 4.1875 -5.34375 L 2.734375 -5.390625 L 2.734375 -3.65625 L 4.796875 -3.84375 L 4.796875 -2.359375 L 2.734375 -2.578125 L 2.734375 -1.5625 C 2.734375 -1.414062 2.742188 -1.316406 2.765625 -1.265625 C 2.785156 -1.222656 2.84375 -1.179688 2.9375 -1.140625 L 3.53125 -0.78125 L 3.5 0 L 0.3125 0 Z M 0.265625 -0.984375 "/></g></g></g><g fill="#703900" fill-opacity="1"><g transform="translate(188.241728, 166.568803)"><g><path d="M 2.59375 0.125 C 1.769531 0.125 1.15625 -0.0820312 0.75 -0.5 C 0.34375 -0.925781 0.140625 -1.570312 0.140625 -2.4375 C 0.140625 -2.988281 0.238281 -3.46875 0.4375 -3.875 C 0.644531 -4.289062 0.941406 -4.609375 1.328125 -4.828125 C 1.710938 -5.046875 2.160156 -5.15625 2.671875 -5.15625 C 4.347656 -5.15625 5.1875 -4.289062 5.1875 -2.5625 C 5.1875 -1.71875 4.957031 -1.054688 4.5 -0.578125 C 4.039062 -0.109375 3.40625 0.125 2.59375 0.125 Z M 2.734375 -1 C 2.867188 -1 2.984375 -1.007812 3.078125 -1.03125 C 3.171875 -1.0625 3.273438 -1.101562 3.390625 -1.15625 C 3.429688 -1.300781 3.460938 -1.488281 3.484375 -1.71875 C 3.515625 -1.957031 3.53125 -2.179688 3.53125 -2.390625 C 3.53125 -2.910156 3.445312 -3.304688 3.28125 -3.578125 C 3.113281 -3.847656 2.867188 -3.984375 2.546875 -3.984375 C 2.335938 -3.984375 2.125 -3.957031 1.90625 -3.90625 C 1.851562 -3.8125 1.8125 -3.65625 1.78125 -3.4375 C 1.757812 -3.21875 1.75 -2.96875 1.75 -2.6875 C 1.75 -2.144531 1.832031 -1.726562 2 -1.4375 C 2.175781 -1.144531 2.421875 -1 2.734375 -1 Z M 2.734375 -1 "/></g></g></g><g fill="#703900" fill-opacity="1"><g transform="translate(195.616266, 166.568803)"><g><path d="M 0.265625 -0.921875 L 0.859375 -1.09375 L 0.859375 -3.453125 C 0.859375 -3.585938 0.847656 -3.675781 0.828125 -3.71875 C 0.804688 -3.757812 0.753906 -3.804688 0.671875 -3.859375 L 0.234375 -4.09375 L 0.265625 -4.828125 C 0.378906 -4.847656 0.472656 -4.863281 0.546875 -4.875 C 1.328125 -5.03125 1.90625 -5.117188 2.28125 -5.140625 C 2.34375 -4.960938 2.398438 -4.75 2.453125 -4.5 C 2.835938 -4.800781 3.164062 -5.015625 3.4375 -5.140625 L 3.984375 -5.140625 C 3.984375 -4.890625 3.96875 -4.617188 3.9375 -4.328125 C 3.914062 -4.046875 3.882812 -3.816406 3.84375 -3.640625 C 3.613281 -3.648438 3.441406 -3.65625 3.328125 -3.65625 C 3.054688 -3.65625 2.773438 -3.640625 2.484375 -3.609375 L 2.484375 -1.421875 C 2.484375 -1.273438 2.492188 -1.179688 2.515625 -1.140625 C 2.535156 -1.097656 2.585938 -1.050781 2.671875 -1 L 3.25 -0.6875 L 3.21875 0 L 0.3125 0 Z M 0.265625 -0.921875 "/></g></g></g><g fill="#703900" fill-opacity="1"><g transform="translate(201.760304, 166.568803)"><g/></g></g><g fill="#703900" fill-opacity="1"><g transform="translate(205.772764, 166.568803)"><g><path d="M 0.359375 -0.984375 L 1.0625 -1.1875 L 1.0625 -4.875 C 1.0625 -5.039062 1.046875 -5.148438 1.015625 -5.203125 C 0.992188 -5.265625 0.929688 -5.316406 0.828125 -5.359375 L 0.3125 -5.640625 L 0.375 -6.421875 C 0.863281 -6.492188 1.328125 -6.546875 1.765625 -6.578125 C 2.210938 -6.617188 2.6875 -6.640625 3.1875 -6.640625 C 3.882812 -6.640625 4.441406 -6.566406 4.859375 -6.421875 C 5.285156 -6.273438 5.597656 -6.039062 5.796875 -5.71875 C 5.992188 -5.40625 6.09375 -4.988281 6.09375 -4.46875 C 6.09375 -3.789062 5.847656 -3.253906 5.359375 -2.859375 C 4.867188 -2.472656 4.203125 -2.28125 3.359375 -2.28125 L 2.828125 -2.3125 L 2.828125 -1.5625 C 2.828125 -1.414062 2.835938 -1.316406 2.859375 -1.265625 C 2.878906 -1.222656 2.9375 -1.179688 3.03125 -1.140625 L 3.625 -0.78125 L 3.578125 0 L 0.40625 0 Z M 3.453125 -3.359375 C 3.796875 -3.359375 4.050781 -3.394531 4.21875 -3.46875 C 4.289062 -3.78125 4.328125 -4.113281 4.328125 -4.46875 C 4.328125 -4.84375 4.253906 -5.109375 4.109375 -5.265625 C 3.960938 -5.429688 3.726562 -5.515625 3.40625 -5.515625 C 3.289062 -5.515625 3.097656 -5.503906 2.828125 -5.484375 L 2.828125 -3.421875 C 3.003906 -3.378906 3.210938 -3.359375 3.453125 -3.359375 Z M 3.453125 -3.359375 "/></g></g></g><g fill="#703900" fill-opacity="1"><g transform="translate(214.05807, 166.568803)"><g><path d="M 0.234375 -0.890625 L 0.921875 -1.09375 L 0.921875 -5.734375 C 0.921875 -5.878906 0.910156 -5.972656 0.890625 -6.015625 C 0.867188 -6.054688 0.8125 -6.101562 0.71875 -6.15625 L 0.296875 -6.375 L 0.34375 -7.109375 C 0.46875 -7.140625 0.566406 -7.15625 0.640625 -7.15625 C 1.492188 -7.3125 2.085938 -7.394531 2.421875 -7.40625 C 2.484375 -7.257812 2.523438 -7.09375 2.546875 -6.90625 L 2.546875 -1.421875 C 2.546875 -1.273438 2.554688 -1.179688 2.578125 -1.140625 C 2.597656 -1.097656 2.648438 -1.050781 2.734375 -1 L 3.21875 -0.71875 L 3.171875 0 L 0.265625 0 Z M 0.234375 -0.890625 "/></g></g></g><g fill="#703900" fill-opacity="1"><g transform="translate(219.388236, 166.568803)"><g><path d="M 1.640625 0.125 C 1.203125 0.125 0.847656 0.00390625 0.578125 -0.234375 C 0.316406 -0.472656 0.1875 -0.785156 0.1875 -1.171875 C 0.1875 -1.679688 0.441406 -2.082031 0.953125 -2.375 C 1.472656 -2.664062 2.222656 -2.832031 3.203125 -2.875 C 3.203125 -3.175781 3.175781 -3.398438 3.125 -3.546875 C 3.082031 -3.691406 3 -3.789062 2.875 -3.84375 C 2.75 -3.894531 2.554688 -3.921875 2.296875 -3.921875 C 2.035156 -3.921875 1.847656 -3.910156 1.734375 -3.890625 L 1.34375 -3.109375 L 0.625 -3.15625 C 0.507812 -3.675781 0.429688 -4.210938 0.390625 -4.765625 C 0.753906 -4.890625 1.148438 -4.984375 1.578125 -5.046875 C 2.003906 -5.117188 2.40625 -5.15625 2.78125 -5.15625 C 3.46875 -5.15625 3.957031 -5.019531 4.25 -4.75 C 4.550781 -4.488281 4.703125 -4.046875 4.703125 -3.421875 L 4.703125 -1.40625 C 4.703125 -1.289062 4.710938 -1.207031 4.734375 -1.15625 C 4.753906 -1.113281 4.800781 -1.070312 4.875 -1.03125 L 5.265625 -0.796875 L 5.234375 -0.203125 C 4.484375 -0.0234375 3.890625 0.0703125 3.453125 0.09375 C 3.441406 0.0507812 3.421875 -0.015625 3.390625 -0.109375 C 3.367188 -0.210938 3.347656 -0.3125 3.328125 -0.40625 C 3.078125 -0.25 2.800781 -0.117188 2.5 -0.015625 C 2.195312 0.078125 1.910156 0.125 1.640625 0.125 Z M 2.296875 -0.96875 C 2.554688 -0.96875 2.867188 -1.054688 3.234375 -1.234375 L 3.203125 -1.96875 C 3.046875 -1.976562 2.941406 -1.984375 2.890625 -1.984375 C 2.710938 -1.984375 2.503906 -1.960938 2.265625 -1.921875 C 2.035156 -1.890625 1.851562 -1.851562 1.71875 -1.8125 C 1.695312 -1.726562 1.6875 -1.648438 1.6875 -1.578125 C 1.6875 -1.378906 1.738281 -1.226562 1.84375 -1.125 C 1.957031 -1.019531 2.109375 -0.96875 2.296875 -0.96875 Z M 2.296875 -0.96875 "/></g></g></g><g fill="#703900" fill-opacity="1"><g transform="translate(226.772463, 166.568803)"><g><path d="M 0.25 -0.9375 L 0.859375 -1.109375 L 0.859375 -3.453125 C 0.859375 -3.585938 0.847656 -3.675781 0.828125 -3.71875 C 0.804688 -3.757812 0.753906 -3.804688 0.671875 -3.859375 L 0.234375 -4.09375 L 0.265625 -4.828125 L 0.484375 -4.859375 C 1.328125 -5.023438 1.9375 -5.117188 2.3125 -5.140625 C 2.363281 -5.003906 2.40625 -4.851562 2.4375 -4.6875 C 2.832031 -4.863281 3.15625 -4.984375 3.40625 -5.046875 C 3.65625 -5.117188 3.890625 -5.15625 4.109375 -5.15625 C 5.128906 -5.15625 5.640625 -4.546875 5.640625 -3.328125 L 5.640625 -1.421875 C 5.640625 -1.285156 5.648438 -1.191406 5.671875 -1.140625 C 5.691406 -1.097656 5.75 -1.050781 5.84375 -1 L 6.3125 -0.734375 L 6.265625 -0.015625 L 3.59375 -0.015625 L 3.546875 -0.9375 L 4.015625 -1.0625 L 4.015625 -2.890625 C 4.015625 -3.179688 4.003906 -3.382812 3.984375 -3.5 C 3.972656 -3.625 3.921875 -3.71875 3.828125 -3.78125 C 3.742188 -3.84375 3.59375 -3.875 3.375 -3.875 C 3.132812 -3.875 2.835938 -3.835938 2.484375 -3.765625 L 2.484375 -1.421875 C 2.484375 -1.285156 2.492188 -1.191406 2.515625 -1.140625 C 2.535156 -1.097656 2.585938 -1.050781 2.671875 -1 L 3.140625 -0.734375 L 3.109375 -0.015625 L 0.296875 -0.015625 Z M 0.25 -0.9375 "/></g></g></g><g fill="#703900" fill-opacity="1"><g transform="translate(235.183722, 166.568803)"><g><path d="M 2.15625 0.125 C 1.582031 0.125 1.160156 -0.015625 0.890625 -0.296875 C 0.617188 -0.578125 0.484375 -1.003906 0.484375 -1.578125 L 0.484375 -3.9375 L -0.1875 -3.9375 L -0.1875 -4.640625 L 1.546875 -6.234375 L 2.109375 -6.15625 L 2.109375 -5.0625 L 3.734375 -5.0625 L 3.734375 -3.921875 L 2.109375 -3.921875 L 2.109375 -1.921875 C 2.109375 -1.617188 2.148438 -1.414062 2.234375 -1.3125 C 2.328125 -1.207031 2.5 -1.15625 2.75 -1.15625 C 2.96875 -1.15625 3.265625 -1.179688 3.640625 -1.234375 L 3.765625 -0.25 C 3.523438 -0.144531 3.257812 -0.0546875 2.96875 0.015625 C 2.6875 0.0859375 2.414062 0.125 2.15625 0.125 Z M 2.15625 0.125 "/></g></g></g><g fill="#703900" fill-opacity="1"><g transform="translate(241.230871, 166.568803)"><g/></g></g><g fill="#703900" fill-opacity="1"><g transform="translate(245.243325, 166.568803)"><g><path d="M 2.328125 0.03125 C 1.628906 0.03125 0.988281 0 0.40625 -0.0625 L 0.359375 -0.984375 L 1.0625 -1.1875 L 1.0625 -4.875 C 1.0625 -5.039062 1.046875 -5.148438 1.015625 -5.203125 C 0.992188 -5.265625 0.929688 -5.316406 0.828125 -5.359375 L 0.3125 -5.640625 L 0.375 -6.4375 C 1.050781 -6.488281 1.617188 -6.53125 2.078125 -6.5625 C 2.535156 -6.59375 2.898438 -6.609375 3.171875 -6.609375 C 4.066406 -6.609375 4.78125 -6.503906 5.3125 -6.296875 C 5.851562 -6.085938 6.25 -5.757812 6.5 -5.3125 C 6.75 -4.875 6.875 -4.285156 6.875 -3.546875 C 6.875 -2.617188 6.660156 -1.863281 6.234375 -1.28125 C 5.859375 -0.789062 5.351562 -0.445312 4.71875 -0.25 C 4.09375 -0.0625 3.296875 0.03125 2.328125 0.03125 Z M 3.5625 -1.359375 C 4.101562 -1.359375 4.53125 -1.421875 4.84375 -1.546875 C 4.90625 -1.710938 4.957031 -1.960938 5 -2.296875 C 5.050781 -2.640625 5.078125 -2.960938 5.078125 -3.265625 C 5.078125 -3.992188 4.925781 -4.53125 4.625 -4.875 C 4.320312 -5.226562 3.863281 -5.40625 3.25 -5.40625 C 3.164062 -5.40625 3.085938 -5.398438 3.015625 -5.390625 C 2.953125 -5.390625 2.882812 -5.382812 2.8125 -5.375 L 2.8125 -1.40625 C 3.070312 -1.375 3.320312 -1.359375 3.5625 -1.359375 Z M 3.5625 -1.359375 "/></g></g></g><g fill="#703900" fill-opacity="1"><g transform="translate(254.381258, 166.568803)"><g><path d="M 2.515625 0.109375 C 1.753906 0.109375 1.164062 -0.117188 0.75 -0.578125 C 0.34375 -1.035156 0.140625 -1.664062 0.140625 -2.46875 C 0.140625 -3.03125 0.238281 -3.515625 0.4375 -3.921875 C 0.644531 -4.328125 0.929688 -4.632812 1.296875 -4.84375 C 1.660156 -5.050781 2.09375 -5.15625 2.59375 -5.15625 C 3.320312 -5.15625 3.878906 -4.921875 4.265625 -4.453125 C 4.660156 -3.992188 4.847656 -3.335938 4.828125 -2.484375 L 1.875 -1.9375 C 1.96875 -1.664062 2.097656 -1.46875 2.265625 -1.34375 C 2.429688 -1.21875 2.648438 -1.15625 2.921875 -1.15625 C 3.109375 -1.15625 3.328125 -1.179688 3.578125 -1.234375 C 3.835938 -1.285156 4.101562 -1.363281 4.375 -1.46875 L 4.59375 -0.5 C 4.351562 -0.320312 4.039062 -0.175781 3.65625 -0.0625 C 3.28125 0.0507812 2.898438 0.109375 2.515625 0.109375 Z M 3.234375 -3.296875 C 3.222656 -3.535156 3.15625 -3.710938 3.03125 -3.828125 C 2.90625 -3.941406 2.726562 -4 2.5 -4 C 2.3125 -4 2.132812 -3.972656 1.96875 -3.921875 C 1.832031 -3.609375 1.769531 -3.265625 1.78125 -2.890625 Z M 3.234375 -3.296875 "/></g></g></g><g fill="#703900" fill-opacity="1"><g transform="translate(261.445748, 166.568803)"><g><path d="M -0.015625 1.15625 L 0.578125 1 L 0.578125 -3.453125 C 0.578125 -3.585938 0.566406 -3.675781 0.546875 -3.71875 C 0.523438 -3.757812 0.472656 -3.804688 0.390625 -3.859375 L -0.046875 -4.09375 L 0 -4.828125 C 0.03125 -4.828125 0.0625 -4.832031 0.09375 -4.84375 C 0.125 -4.851562 0.160156 -4.859375 0.203125 -4.859375 C 0.503906 -4.921875 0.820312 -4.976562 1.15625 -5.03125 C 1.5 -5.082031 1.78125 -5.117188 2 -5.140625 C 2.0625 -5.003906 2.101562 -4.847656 2.125 -4.671875 C 2.320312 -4.828125 2.535156 -4.945312 2.765625 -5.03125 C 2.992188 -5.113281 3.222656 -5.15625 3.453125 -5.15625 C 4.097656 -5.15625 4.59375 -4.925781 4.9375 -4.46875 C 5.28125 -4.019531 5.453125 -3.375 5.453125 -2.53125 C 5.453125 -1.664062 5.210938 -1 4.734375 -0.53125 C 4.253906 -0.0703125 3.5625 0.15625 2.65625 0.15625 C 2.5625 0.15625 2.410156 0.148438 2.203125 0.140625 L 2.203125 0.671875 C 2.203125 0.804688 2.210938 0.894531 2.234375 0.9375 C 2.253906 0.988281 2.3125 1.035156 2.40625 1.078125 L 2.96875 1.40625 L 2.9375 2.078125 L 0.03125 2.078125 Z M 2.921875 -1.046875 C 3.222656 -1.046875 3.46875 -1.085938 3.65625 -1.171875 C 3.707031 -1.335938 3.75 -1.535156 3.78125 -1.765625 C 3.820312 -1.992188 3.84375 -2.207031 3.84375 -2.40625 C 3.84375 -2.894531 3.753906 -3.273438 3.578125 -3.546875 C 3.410156 -3.828125 3.175781 -3.96875 2.875 -3.96875 C 2.6875 -3.96875 2.460938 -3.910156 2.203125 -3.796875 L 2.203125 -1.15625 C 2.390625 -1.082031 2.628906 -1.046875 2.921875 -1.046875 Z M 2.921875 -1.046875 "/></g></g></g><g fill="#703900" fill-opacity="1"><g transform="translate(269.110952, 166.568803)"><g><path d="M 2.15625 0.125 C 1.582031 0.125 1.160156 -0.015625 0.890625 -0.296875 C 0.617188 -0.578125 0.484375 -1.003906 0.484375 -1.578125 L 0.484375 -3.9375 L -0.1875 -3.9375 L -0.1875 -4.640625 L 1.546875 -6.234375 L 2.109375 -6.15625 L 2.109375 -5.0625 L 3.734375 -5.0625 L 3.734375 -3.921875 L 2.109375 -3.921875 L 2.109375 -1.921875 C 2.109375 -1.617188 2.148438 -1.414062 2.234375 -1.3125 C 2.328125 -1.207031 2.5 -1.15625 2.75 -1.15625 C 2.96875 -1.15625 3.265625 -1.179688 3.640625 -1.234375 L 3.765625 -0.25 C 3.523438 -0.144531 3.257812 -0.0546875 2.96875 0.015625 C 2.6875 0.0859375 2.414062 0.125 2.15625 0.125 Z M 2.15625 0.125 "/></g></g></g></svg>