<svg xmlns="http://www.w3.org/2000/svg" xmlns:xlink="http://www.w3.org/1999/xlink" width="500" zoomAndPan="magnify" viewBox="0 0 375 374.999991" height="500" preserveAspectRatio="xMidYMid meet" version="1.0"><defs><clipPath id="b6fbc0cb00"><path d="M 45.8125 34.621094 L 329.3125 34.621094 L 329.3125 296 L 45.8125 296 Z M 45.8125 34.621094 " clip-rule="nonzero"/></clipPath><clipPath id="d28eed0757"><path d="M 93 129 L 235 129 L 235 350.371094 L 93 350.371094 Z M 93 129 " clip-rule="nonzero"/></clipPath></defs><rect x="-37.5" width="450" fill="#ffffff" y="-37.499999" height="449.999989" fill-opacity="1"/><rect x="-37.5" width="450" fill="#ffffff" y="-37.499999" height="449.999989" fill-opacity="1"/><rect x="-37.5" width="450" fill="#f8d7c3" y="-37.499999" height="449.999989" fill-opacity="1"/><g clip-path="url(#b6fbc0cb00)"><path fill="#185a9d" d="M 232.042969 269.046875 C 287.15625 259.125 329.3125 210.632812 329.3125 152.769531 C 329.3125 87.796875 276.15625 34.636719 211.1875 34.636719 L 45.8125 34.636719 L 93.0625 81.890625 L 211.1875 81.890625 C 250.171875 81.890625 282.058594 113.785156 282.058594 152.769531 C 282.058594 191.753906 250.171875 223.648438 211.1875 223.648438 L 187.566406 223.648438 L 187.566406 295.792969 L 234.816406 268.511719 C 233.894531 268.703125 232.972656 268.878906 232.042969 269.046875 Z M 232.042969 269.046875 " fill-opacity="1" fill-rule="evenodd"/></g><g clip-path="url(#d28eed0757)"><path fill="#43cea2" d="M 140.3125 270.902344 C 140.3125 239.402344 140.3125 207.898438 140.3125 176.398438 L 211.183594 176.398438 C 224.183594 176.398438 234.8125 165.769531 234.8125 152.773438 C 234.8125 139.773438 224.183594 129.144531 211.183594 129.144531 L 93.0625 129.144531 C 93.0625 176.398438 93.0625 223.648438 93.0625 270.902344 L 93.0625 350.359375 L 140.3125 323.078125 Z M 140.3125 270.902344 " fill-opacity="1" fill-rule="evenodd"/></g></svg>